<svg width="18" height="16" viewBox="0 0 18 16" fill="none" xmlns="http://www.w3.org/2000/svg">
<path fill-rule="evenodd" clip-rule="evenodd" d="M0.618545 7.98217C0.618545 7.74347 0.713365 7.51456 0.882148 7.34577C1.05093 7.17699 1.27985 7.08217 1.51854 7.08217L14.2841 7.08217L9.29454 2.33017C9.13087 2.16287 9.03881 1.93839 9.03788 1.70434C9.03695 1.4703 9.12724 1.24509 9.28959 1.0765C9.45193 0.907914 9.67357 0.809198 9.90748 0.801295C10.1414 0.793391 10.3692 0.876922 10.5425 1.03417L17.1425 7.33417C17.2296 7.41813 17.2989 7.51878 17.3463 7.63012C17.3936 7.74146 17.418 7.86119 17.418 7.98217C17.418 8.10315 17.3936 8.22288 17.3463 8.33422C17.2989 8.44556 17.2296 8.54621 17.1425 8.63017L10.5425 14.9302C10.4583 15.0163 10.3577 15.0846 10.2465 15.1311C10.1354 15.1775 10.0161 15.2013 9.89566 15.2008C9.77521 15.2003 9.65608 15.1757 9.54534 15.1283C9.43459 15.0809 9.33448 15.0118 9.25093 14.9251C9.16738 14.8383 9.1021 14.7356 9.05895 14.6232C9.0158 14.5107 8.99566 14.3908 8.99973 14.2704C9.0038 14.15 9.03199 14.0317 9.08263 13.9224C9.13327 13.8131 9.20533 13.7151 9.29454 13.6342L14.2841 8.88217L1.51854 8.88217C1.27985 8.88217 1.05093 8.78735 0.882148 8.61856C0.713365 8.44978 0.618545 8.22086 0.618545 7.98217Z" fill="#A7C957"/>
</svg>
