<svg width="422" height="222" viewBox="0 0 422 222" fill="none" xmlns="http://www.w3.org/2000/svg">
<path d="M368.039 39.294C362.494 36.4767 356.539 35.2184 351.013 35.6907C348.937 35.867 343.782 36.9545 342.022 37.5859C340.234 38.2238 338.62 38.9491 337.635 39.5439L337.188 39.816L336.881 38.306C336.359 35.7462 335.663 33.8429 334.59 32.0489C333.708 30.5614 332.749 29.4252 331.467 28.3156C330.568 27.5451 328.491 26.2745 327.385 25.8135C323.909 24.37 320.129 24.0267 316.559 24.8304C314.15 25.3694 312.275 26.219 310.161 27.7342C307.888 29.3559 306.315 30.8513 304.858 32.7811C303.004 35.2247 301.545 38.9005 300.407 43.9617C300.291 44.4887 300.187 44.9319 300.175 44.9496C300.164 44.9673 300.039 44.8536 299.9 44.6974C299.756 44.5375 299.364 44.1597 299.021 43.8469C295.619 40.7121 291.49 39.4501 287.147 40.1991C285.045 40.5682 282.593 41.6986 280.522 43.275C278.651 44.6955 277.051 46.5663 275.385 49.2815C274.364 50.9569 273.881 51.8999 273.302 53.3752C272.615 55.1228 272.302 56.3513 272.097 58.1174C271.933 59.5 271.907 60.6037 272.007 62.0891C272.122 63.986 272.274 64.8527 273.464 70.5769L274.604 76.0847L273.029 76.442C272.164 76.6458 271.097 76.9452 270.662 77.1083C266.886 78.54 263.838 81.1849 262.014 84.6086C261.124 86.285 260.77 87.5533 260.501 90.0724C260.325 91.665 260.871 94.1232 261.83 96.1198C262.467 97.4496 263.462 98.6588 265.017 100.011C265.854 100.734 268.073 102.171 268.716 102.401C268.957 102.489 269.155 102.566 269.159 102.586C269.166 102.599 268.896 102.826 268.563 103.088C267.878 103.626 267.161 104.292 266.488 105.005C266.121 105.395 265.829 105.81 265.095 106.95C264.086 108.517 263.869 108.97 263.53 110.265C262.995 112.313 263.207 114.598 264.176 117.078C264.609 118.2 265.301 119.123 266.572 120.276C267.426 121.051 268.558 121.779 269.504 122.154C270.363 122.499 272.145 122.96 272.878 123.039C273.166 123.066 273.412 123.107 273.42 123.12C273.418 123.136 273.117 123.744 272.743 124.466C270.576 128.639 269.229 130.923 268.599 131.505C268.134 131.932 267.191 132.513 266.222 132.967C265.772 133.179 264.611 133.753 263.654 134.24C260.811 135.671 259.716 136.128 257.084 137C254.28 137.921 253.535 138.336 253.553 138.974C253.568 139.31 253.785 139.55 254.519 140.023C255.143 140.425 255.705 140.719 257.875 141.807C259.294 142.511 260.16 143.152 260.496 143.745C260.746 144.19 260.494 144.722 259.788 145.229C259.288 145.584 259.187 145.753 259.269 146.074C259.344 146.356 259.564 146.59 260.25 147.14C261.313 147.974 262.466 148.759 263.182 149.12C264.419 149.749 265.567 150.438 265.615 150.594C265.651 150.717 265.64 150.735 265.478 150.782C265.093 150.893 263.865 150.621 262.462 150.11C261.467 149.746 259.569 148.875 259.027 148.526C258.525 148.203 258.295 148.189 258.113 148.473C257.964 148.703 257.96 149.043 258.097 150.009C258.283 151.283 258.269 152.202 258.05 153.081C257.948 153.483 257.762 153.874 256.723 155.822C256.404 156.419 255.767 157.665 255.305 158.588C253.693 161.822 252.604 163.872 251.461 165.853C250.712 167.144 250.099 168.354 249.846 169.027C249.598 169.695 249.695 170.159 250.19 170.595C250.358 170.744 250.678 171.093 250.893 171.373C251.66 172.361 252.434 173.093 254.158 174.478C255.893 175.871 257.439 176.967 259.815 178.505C264.644 181.614 269.199 183.752 272.304 184.363C273.956 184.691 275.456 184.745 276.342 184.522C276.888 184.379 277.077 184.226 277.077 183.932C277.075 183.756 277.227 183.494 278.132 182.087C279.795 179.504 280.931 177.343 282.535 173.71C284.159 170.023 284.226 169.841 284.532 168.315C284.869 166.651 285.045 165.084 285.045 163.687C285.05 161.91 284.648 158.474 284.117 155.8C283.887 154.657 283.693 153.562 283.685 153.356C283.663 153.007 283.796 152.659 283.949 152.665C284.121 152.667 284.374 153.03 284.635 153.65C285.503 155.697 286.203 159.133 286.399 162.327C286.468 163.45 286.544 163.691 286.832 163.692C287.032 163.688 287.323 163.147 287.959 161.634C288.555 160.22 288.887 159.539 291.111 155.135C291.615 154.147 292.225 152.943 292.472 152.458C293.554 150.304 294.109 149.223 295.672 146.258C295.901 145.812 296.108 145.452 296.131 145.442C296.156 145.441 296.295 145.764 296.443 146.161C297.12 148.018 299.179 152.303 300.259 154.086C301.349 155.891 303.079 157.907 304.842 159.435C305.674 160.155 308.028 161.687 309.051 162.187C313.093 164.137 317.967 165.201 322.216 165.06C324.525 164.984 327.12 164.464 328.788 163.732C331.11 162.726 333.526 160.921 335.659 158.607C336.573 157.624 337.977 155.442 338.671 153.941C339.812 151.465 340.084 150.478 340.484 147.333C340.728 145.416 340.817 143.944 340.805 142.105L340.802 140.765L343.28 142.31C347.311 144.814 349.644 145.982 352.755 147.031C361.886 150.134 370.728 148.702 375.9 143.295C377.802 141.301 378.834 139.775 379.841 137.43C381.091 134.539 381.594 131.836 381.414 129.028C381.226 126.065 380.397 122.906 379.121 120.237C378.509 118.957 376.025 114.782 374.919 113.193C374.633 112.766 374.514 112.798 376.077 112.842C378.117 112.902 379.85 112.722 382.054 112.234C386.674 111.195 390.611 109.039 393.699 105.844C395.101 104.397 396.638 102.201 397.446 100.498C399.053 97.1175 399.694 93.5337 399.292 90.173C399.069 88.3155 398.055 84.8033 397.268 83.1681C395.775 80.0666 392.996 77.1821 389.68 75.2981C385.921 73.154 382.339 72.5538 376.499 73.0914C375.885 73.1477 375.373 73.1863 375.362 73.1787C375.35 73.1712 375.541 72.9262 375.787 72.6333C377.695 70.375 379.125 67.9097 379.93 65.4933C381.823 59.7977 381.119 53.6257 377.965 48.3511C376.651 46.1507 375.189 44.4488 373.081 42.6487C372.313 41.9957 368.942 39.7497 368.039 39.294ZM372.672 43.054C374.896 44.9292 376.358 46.6563 377.7 48.992C380.444 53.7767 381.141 59.3837 379.639 64.5617C379.004 66.7529 377.874 68.994 376.406 70.9668C375.548 72.12 374.174 73.7683 373.216 74.8073C372.188 75.9177 372.077 76.0639 372.169 76.19C372.291 76.3602 372.808 76.3759 374.239 76.2431C378.803 75.8291 381.737 75.9368 385.004 76.6274C388.975 77.4695 392.199 79.0856 394.628 81.4516C397.992 84.7212 399.543 89.8081 398.731 94.8621C397.539 102.288 392.148 108.432 384.536 111.056C382.226 111.851 378.995 112.397 376.945 112.34C375.956 112.313 371.415 111.781 370.563 111.592C368.354 111.115 365.277 109.936 362.568 108.544C361.504 107.992 359.463 106.703 358.432 105.922C357.996 105.6 357.757 105.446 357.674 105.459C357.614 105.463 357.568 105.508 357.576 105.547C357.604 105.657 358.328 106.34 358.935 106.832C359.901 107.612 364.35 110.376 366.348 111.437C368.086 112.363 370.272 113.286 371.747 113.725L372.501 113.951L372.929 114.452C374.987 116.881 377.131 120.444 378.361 123.493C379.489 126.276 380.059 128.967 380.067 131.556C380.067 133.311 379.67 135.631 379.089 137.239C377.389 141.93 373.828 145.398 368.99 147.082C367.989 147.433 365.94 147.886 364.831 148.008C359.036 148.641 353.187 147.309 346.892 143.9C346.391 143.628 344.705 142.609 343.146 141.647C340.065 139.731 339.89 139.643 339.421 139.809C338.895 139.998 338.764 140.599 338.723 142.905C338.646 147.88 338.157 150.935 336.942 154.09C336.077 156.318 334.754 158.501 333.467 159.821C332.075 161.241 329.683 162.828 327.93 163.488C325.276 164.497 322.356 164.816 318.932 164.459C313.158 163.869 307.932 161.684 304.461 158.413C301.829 155.94 300.003 152.741 298.794 148.519C298.436 147.268 297.721 143.74 297.474 141.984C297.107 139.39 297.101 138.207 297.426 135.306C297.577 133.982 297.721 133.08 297.876 132.544C297.991 132.108 298.219 131.319 298.367 130.795C298.677 129.698 298.726 129.379 298.581 129.411C298.465 129.437 298.322 129.788 297.757 131.447C297.237 132.985 297.069 133.747 296.821 135.836C296.539 138.221 296.499 139.5 296.638 141.437L296.699 142.329L296.057 142.61C295.247 142.958 294.052 143.225 292.751 143.349C289.652 143.653 286.986 143.283 284.17 142.147C283.158 141.746 281.381 140.661 280.724 140.054C279.367 138.805 278.479 137.263 278.02 135.362C276.934 130.859 278.01 125.114 280.983 119.612C281.252 119.116 281.472 118.647 281.48 118.569C281.496 118.404 281.268 118.232 281.112 118.282C281.057 118.305 280.57 118.56 280.036 118.852C277.008 120.506 274.696 121.291 272.654 121.348C271.596 121.378 270.249 121.112 269.147 120.646C268.412 120.34 266.86 119.29 266.314 118.73C265.026 117.424 264.255 116.033 263.863 114.309C263.362 112.114 263.753 109.957 265.07 107.604C265.78 106.347 267.157 104.733 268.464 103.626C269.267 102.956 269.768 102.626 270.74 102.141C271.507 101.757 271.772 101.551 271.614 101.449C271.573 101.423 271.413 101.428 271.255 101.469C270.425 101.67 267.319 100.381 265.75 99.179C264.421 98.1559 263.55 97.177 262.718 95.7641C262.108 94.727 261.701 93.7047 261.415 92.5089C260.815 89.9819 261.041 87.6949 262.123 85.3228C262.499 84.4949 263.712 82.6501 264.373 81.9052C266.619 79.3636 269.383 77.7232 272.854 76.881C275.111 76.3356 277.01 76.3459 280.006 76.9202C284.347 77.7502 286.557 78.5459 289.141 80.2093C290.377 81.0053 291.399 81.7886 292.113 82.4991C292.546 82.9284 292.552 82.9321 292.605 82.8494C292.708 82.6898 291.887 81.735 290.927 80.9076C289.643 79.7883 286.828 77.8174 285.533 77.1257C283.381 75.983 280.411 74.9069 278.389 74.5498L277.849 74.4531L277.673 74.0219C277.263 73.0308 276.305 70.3157 276.005 69.2949C275.386 67.1821 274.872 64.4939 274.664 62.3195C274.183 57.3117 274.785 53.1092 276.531 49.3085C277.024 48.2216 278.318 46.2119 279.056 45.374C281.853 42.2084 285.471 40.4578 289.38 40.3826C292.169 40.3304 295.016 41.277 297.355 43.0254C299.636 44.7363 301.369 46.8633 302.635 49.5095C303.083 50.4414 303.243 50.603 303.439 50.3617C303.527 50.251 303.539 49.9244 303.48 48.9663C303.135 43.1845 303.856 38.1558 305.585 34.2779C306.107 33.1088 307.506 30.9744 308.341 30.0741C310.681 27.542 313.466 25.9576 316.88 25.2292C318.141 24.9623 318.861 24.8822 320.188 24.8586C325.316 24.7738 330.196 26.9707 333.089 30.6645C333.704 31.4529 334.544 32.8132 334.921 33.6496C335.632 35.2108 336.242 37.3764 336.57 39.4433L336.685 40.1612L336.083 40.6349C334.55 41.8634 331.293 45.2431 329.605 47.3665C328.362 48.9245 327.056 50.8257 326.076 52.5021C324.537 55.1485 322.736 58.6125 322.047 60.2591C321.481 61.6254 320.884 63.6157 320.949 63.925C321.002 64.1763 321.143 63.9576 321.335 63.3377C321.453 62.9622 321.732 62.2219 321.949 61.6927C323.47 58.0232 325.485 54.7642 328.062 51.7996C331.328 48.0332 336.937 43.4339 339.198 42.6652C340.299 42.2872 341.088 41.9842 342.92 41.2152C346.086 39.8845 347.334 39.4586 349.452 38.9494C353.43 37.9987 357.618 37.6687 361.14 38.0294C363.909 38.3156 365.863 38.8801 368.23 40.086C369.061 40.5123 371.923 42.4219 372.672 43.054ZM363.446 37.7918C363.154 37.7458 363.076 37.7126 363.125 37.6358C363.163 37.5766 363.348 37.6367 363.577 37.7675C363.656 37.8104 363.608 37.8212 363.446 37.7918ZM396.765 83.0782C396.859 83.2645 396.921 83.4127 396.901 83.417C396.83 83.438 396.469 82.8459 396.511 82.7809C396.564 82.6982 396.566 82.7078 396.765 83.0782ZM306.722 31.3977C306.62 31.4155 306.652 31.3274 306.801 31.1726L306.956 31.0216L306.867 31.1983C306.818 31.3004 306.755 31.3853 306.722 31.3977ZM303.009 49.0564C302.996 49.115 302.975 49.1348 302.952 49.0946C302.928 49.0543 302.931 48.9979 302.954 48.9625C303.007 48.8797 303.037 48.9237 303.009 49.0564ZM276.704 48.0908C276.674 48.1381 276.628 48.1585 276.593 48.136C276.564 48.1172 276.569 48.0453 276.614 47.9743C276.656 47.9093 276.708 47.8926 276.726 47.9291C276.75 47.9694 276.735 48.0435 276.704 48.0908ZM380.463 133.901C380.433 133.998 380.42 133.915 380.434 133.715C380.453 133.518 380.498 133.346 380.538 133.322C380.607 133.291 380.572 133.578 380.463 133.901ZM285.606 77.7416C285.558 77.7272 285.488 77.6821 285.461 77.6478C285.431 77.6038 285.468 77.6107 285.55 77.6633C285.631 77.7158 285.653 77.7464 285.606 77.7416ZM340.197 144.447C340.182 144.572 340.166 144.662 340.154 144.654C340.119 144.632 340.122 143.973 340.153 143.926C340.197 143.871 340.221 144.179 340.197 144.447ZM273.448 137.402C273.538 137.544 273.649 137.807 273.682 137.987C273.791 138.509 273.712 138.851 273.316 139.465C273.015 139.932 272.929 140.028 272.607 140.221C271.892 140.639 271.1 140.472 270.655 139.793C270.267 139.217 270.27 138.533 270.661 137.848C271.098 137.068 271.726 136.694 272.426 136.786C272.894 136.853 273.223 137.048 273.448 137.402ZM276.206 183.414C276.899 183.977 276.908 184.066 276.295 184.224C274.792 184.61 271.886 184.153 269.156 183.089C267.893 182.602 265.659 181.523 263.641 180.442C262.253 179.69 257.762 176.799 256.293 175.711C253.782 173.844 251.235 171.585 251.38 171.361C251.399 171.331 251.577 171.387 251.775 171.49C252.404 171.794 254.177 172.501 255.534 172.981C258.969 174.206 260.073 174.683 265.434 177.273C268.151 178.588 269.885 179.47 271.394 180.316C271.995 180.652 272.624 181.007 272.789 181.097C273.329 181.386 275.676 182.981 276.206 183.414Z" fill="#004338"/>
<path d="M168.105 58.4273C167.196 58.7038 166.51 59.3911 166.334 60.2306C166.168 60.98 166.332 62.1286 166.97 64.8172C168.292 70.3475 168.359 70.785 169.662 82.6137C170.434 89.7258 170.901 93.5795 171.098 94.6651C171.78 98.3967 172.162 100.372 172.964 104.397C174.83 113.762 175.424 117.414 176.842 128.292C177.883 136.244 178.805 142.381 180.171 150.319C181.164 156.102 181.588 158.735 183.007 167.803C184.801 179.331 185.065 180.854 186.406 187.747C187.677 194.271 187.921 195.698 188.474 199.977C188.768 202.228 189.089 204.368 189.187 204.723C189.68 206.538 190.489 207.251 192.302 207.469C192.652 207.51 193.892 207.553 195.05 207.566C199.106 207.591 202.212 207.797 204.599 208.211C206.756 208.589 208.269 209.147 209.502 210.031C209.866 210.288 210.267 210.521 210.388 210.548C210.682 210.615 211.022 210.281 211.274 209.691C211.383 209.422 211.529 209.129 211.605 209.012C211.897 208.605 212.757 206.871 213.301 205.596C213.996 203.989 214.782 201.669 215.905 197.989C219.238 186.982 219.811 184.241 220.385 176.597C220.743 171.883 220.89 170.503 221.563 165.587C222.552 158.491 222.741 156.039 222.949 148.396C223.125 142.179 223.191 136.409 223.144 131.423C223.133 129.407 223.158 124.809 223.222 120.294C223.319 113.355 223.155 109.567 222.346 99.9187C222.075 96.696 221.758 92.4999 221.642 90.6146C221.157 82.7696 219.848 74.3517 218.668 71.4848C217.998 69.8672 217.528 69.2756 216.545 68.7793C216.064 68.535 216.005 68.5316 215.675 68.6859C215.232 68.8823 214.561 69.7162 214.316 70.3656C213.901 71.4681 213.855 70.8603 215.28 83.9904C216.189 92.3726 216.654 97.0174 216.759 98.8049C217.385 109.135 217.597 114.371 217.696 121.289C217.892 136.856 216.737 153.636 214.679 164.91C214.003 168.611 212.417 175.406 212.068 176.106C211.962 176.315 211.97 176.206 212.189 174.027C212.278 173.118 212.452 170.806 212.581 168.894C212.969 162.911 213.191 160.762 213.966 155.696C214.55 151.877 215.019 147.457 215.306 143.087C215.64 138.148 215.691 135.79 215.636 128.728C215.618 126.012 215.605 122.613 215.607 121.17C215.621 115.653 215.477 113.593 214.343 102.872C213.686 96.7264 213.3 93.4373 212.975 91.3573C212.41 87.6922 211.675 81.0999 211.573 78.709C211.339 73.1793 211.114 72.1066 209.885 70.7969C208.811 69.6481 207.455 69.7162 206.927 70.9596C206.604 71.7162 206.573 72.619 206.778 75.8686C207.015 79.51 207.045 80.426 207.21 86.5957C207.46 96.0972 207.647 99.1905 208.585 108.835C209.727 120.632 210.042 126.815 209.891 134.541C209.812 138.365 209.378 144.481 208.979 147.539L208.868 148.342L208.79 147.164C208.749 146.516 208.641 144.877 208.544 143.534C208.457 142.179 208.284 139.134 208.155 136.756C207.718 128.54 207.625 127.502 206.101 113.997C205.155 105.649 204.449 99.8637 204.072 97.216C203.308 91.991 201.889 80.7382 201.112 73.6662C200.531 68.4905 200.458 68.0042 200.123 66.7358C199.216 63.2956 198.496 62.1282 196.952 61.5643C195.789 61.1369 195.176 61.3122 194.737 62.1901C194.518 62.629 194.328 63.5195 194.244 64.4775C194.167 65.4051 194.226 67.0494 194.468 70.7299C194.59 72.6737 194.779 75.6086 194.879 77.2583C195.665 90.5171 196.055 95.1996 197.017 103.517C197.953 111.6 198.02 112.037 199.96 123.263C202.145 135.846 203.499 149.962 204.112 166.452C204.216 169.416 204.296 174.162 204.246 174.889C204.233 175.137 203.645 170.259 202.943 164.059C202.23 157.859 201.458 151.38 201.213 149.667C199.982 141.052 199.555 138.39 198.512 133.057C197.556 128.169 197.175 126.026 196.747 123.167C195.746 116.495 195.277 113.541 194.269 107.62C192.658 98.1479 192.327 96.375 190.763 88.9732C189.982 85.2327 189.134 80.8767 188.632 77.9855C187.78 73.0468 187.298 70.885 186.501 68.362C185.119 64.0046 184.747 63.4915 182.518 62.814C182.335 62.7647 182.176 62.6633 182.167 62.5852C182.137 62.3019 181.289 61.1385 180.913 60.863C180.699 60.7083 180.163 60.4205 179.736 60.2197C178.976 59.8672 178.936 59.8617 178.125 59.9496C177.412 60.027 177.221 60.0873 176.759 60.3845C176.111 60.7909 175.748 61.364 175.721 62.0194C175.695 62.6053 175.984 63.8985 176.83 67.0489C178.609 73.6959 179.2 76.8738 180.364 86.0488C182.321 101.533 182.473 102.485 184.871 113.928C187.55 126.685 188.83 133.93 190.225 144.137C190.498 146.114 191.031 150.02 191.412 152.806C192.573 161.319 192.958 164.598 193.37 169.397C193.575 171.925 193.732 174.092 193.714 174.203C193.641 174.537 192.351 168.657 189.952 157.116C189.396 154.448 188.289 149.804 187.129 145.215C184.42 134.547 183.153 128.615 182.009 121.257C181.589 118.564 181.011 115.059 180.129 109.846C179.35 105.216 179.199 104.195 178.417 98.1708C177.8 93.4833 177.335 90.3807 176.113 82.8528C175.447 78.7241 174.993 75.7191 174.326 70.9382C172.996 61.5045 172.204 59.3071 169.836 58.5261C169.099 58.2898 168.66 58.2583 168.105 58.4273ZM168.758 59.0681C169.649 59.3569 170.166 59.9236 170.632 61.1283C171.137 62.408 171.421 63.7511 171.659 65.9492C171.885 68.0301 172.139 69.8213 173.304 77.9188C173.636 80.2452 174.504 86.6056 175.232 92.0421C178.199 114.286 179.101 119.783 181.731 131.814C182.574 135.666 185.658 148.784 188.033 158.559C190.356 168.123 190.831 170.315 191.825 175.742C192.639 180.24 193.284 182.355 193.821 182.297C194.134 182.263 194.269 181.685 194.321 180.167C194.467 175.95 194.26 172.681 193.262 163.478C192.442 155.916 192.233 154.269 190.443 141.593C189.194 132.724 187.638 124.125 185.361 113.43C183.284 103.672 182.823 100.974 181.663 91.6409C179.769 76.3772 179.52 74.9907 176.902 65.074C176.266 62.6719 176.166 61.7536 176.494 61.3128C176.718 61.0117 177.112 60.7219 177.5 60.5612C177.84 60.4155 179.019 60.9004 179.589 61.4119C179.83 61.6328 180.217 62.1048 180.435 62.4667C180.988 63.3754 181.139 63.952 182.24 69.6348C183.091 74.0103 183.34 75.12 184.181 78.3202C186.379 86.6417 187.02 90.091 189.063 104.281C190.006 110.87 190.442 113.709 191.02 117.215C191.253 118.633 191.698 121.915 192.011 124.521C192.598 129.478 192.822 130.996 192.922 130.738C193.086 130.335 192.084 120.371 191.611 117.645C191.462 116.821 191.257 115.39 191.158 114.472C191.058 113.553 190.804 111.851 190.598 110.678C190.194 108.418 189.322 102.296 189.377 102.161C189.403 102.129 189.248 100.515 189.049 98.589C188.669 94.9037 188.561 94.273 187.645 90.2999C186.914 87.1075 186.503 85.0566 186.108 82.5097C185.921 81.3339 185.55 79.1897 185.286 77.7555C185.021 76.3115 184.588 73.8676 184.312 72.326C183.484 67.7009 182.799 64.3947 182.504 63.5964C182.391 63.2824 182.66 63.3027 183.131 63.6273C184.35 64.4834 185.41 67.6896 186.711 74.4873C187.391 78.0214 187.856 80.7584 188.928 87.5414C190.392 96.8518 190.864 99.5584 192.959 110.58C195.424 123.547 195.352 123.071 197.013 137.47C197.785 144.128 198.6 150.82 198.815 152.348C200.221 162.021 200.961 167.664 202.247 178.417C203.248 186.829 203.325 187.265 203.761 187.277C204.238 187.295 204.41 186.515 204.57 183.522C204.947 176.523 204.875 169.483 204.321 158.819C203.797 148.704 203.222 142.035 202.244 134.481C201.443 128.37 201.301 127.427 200.155 120.869C198.571 111.829 198.207 109.298 197.356 101.454C196.605 94.5271 196.28 90.3515 195.408 76.2125C195.268 73.9148 195.068 70.892 194.975 69.4886C194.704 65.5248 194.723 64.1586 195.049 62.8778C195.21 62.2673 195.556 61.8146 195.822 61.8945C195.913 61.9143 196.145 61.9583 196.336 61.987C196.746 62.0314 196.99 62.2719 197.341 62.9554C198.73 65.6513 199.653 72.6087 200.942 90.0434C201.481 97.2896 202.688 108.872 203.611 115.552C203.899 117.666 204.454 121.777 204.838 124.681C206.241 135.421 207.119 147.978 207.087 156.976C207.08 158.193 207.108 159.267 207.148 159.362C207.316 159.729 207.611 159.529 207.802 158.925C208.26 157.492 209.125 151.438 209.773 145.199C210.607 137.033 210.693 128.444 210.013 118.811C209.907 117.38 209.533 113.111 209.181 109.314C208.21 99.001 208.018 95.8686 207.795 86.9771C207.633 80.5599 207.587 79.4084 207.347 75.5597C207.115 71.8684 207.177 71.1697 207.804 70.6569C208.113 70.4059 208.671 70.4541 209.051 70.7687C209.776 71.3424 209.939 72.9359 210.063 80.5532C210.231 90.202 210.393 92.5172 212.028 107.769C212.965 116.495 213.435 121.198 213.501 122.535C214.029 133.776 213.746 139.46 211.874 154.638C210.746 163.825 210.26 168.098 209.491 175.951C209.175 179.138 208.828 182.685 208.705 183.825C208.581 184.965 208.511 185.961 208.549 186.036C208.677 186.299 209.006 186.145 209.264 185.702C209.613 185.091 211.005 181.342 211.75 179.007C214.542 170.302 216.169 161.428 217.239 149.055C218.603 133.299 218.62 118.332 217.303 98.4493C217.035 94.4258 216.023 84.6413 215.244 78.5579C214.494 72.6493 214.445 71.9231 214.674 70.9395C214.891 70.0165 215.706 68.9693 216.114 69.0832C216.755 69.2509 217.298 72.523 217.58 77.8596C218.081 87.3043 218.752 95.9495 219.822 106.726C221.311 121.727 221.403 125.394 220.655 140.915C220.345 147.354 220.216 151.173 220.117 156.363C219.926 166.535 219.399 172.247 217.811 181.572C216.899 186.919 215.167 195.371 214.241 198.96C213.343 202.428 211.393 208.333 210.913 209.008C210.827 209.126 210.679 209.399 210.583 209.607C210.375 210.065 210.417 210.08 209.211 209.351C208.745 209.066 207.951 208.677 207.456 208.484C205.176 207.604 201.018 207.087 195.815 207.048C193.025 207.025 192.518 207.001 191.821 206.869C190.569 206.619 189.946 205.886 189.621 204.261C189.516 203.748 189.187 201.441 188.878 199.142C188.313 194.844 188.177 194.049 186.825 186.96C185.478 179.92 185.351 179.212 183.945 170.073C182.489 160.663 181.769 156.125 181.024 151.808C179.272 141.58 178.649 137.476 177.146 126.084C175.847 116.301 175.331 113.184 173.341 103.318C171.586 94.6122 171.274 92.5506 170.38 84.3149C169.994 80.6601 169.677 77.5611 169.692 77.4211C169.734 76.9915 168.817 70.6364 168.471 68.9046C168.284 67.9958 167.855 66.1445 167.529 64.7763C166.528 60.7433 166.539 59.8426 167.584 59.1758C168.074 58.8656 168.103 58.8624 168.758 59.0681ZM197.826 62.5074C197.86 62.553 197.846 62.604 197.797 62.6093C197.739 62.6157 197.685 62.5721 197.679 62.5233C197.673 62.4647 197.688 62.4235 197.708 62.4213C197.737 62.4182 197.79 62.4519 197.826 62.5074ZM185.333 66.2548C185.553 66.824 185.692 67.2834 185.653 67.2876C185.614 67.2919 185.389 66.7726 185.151 66.1263C184.914 65.4897 184.68 64.8825 184.639 64.7782C184.598 64.6739 184.645 64.7381 184.753 64.9142C184.861 65.0902 185.124 65.6943 185.333 66.2548ZM182.806 66.9243C182.785 67.0057 182.753 66.9795 182.741 66.8721C182.72 66.7657 182.743 66.7039 182.776 66.7398C182.809 66.7659 182.828 66.8528 182.806 66.9243ZM183.02 67.9884C182.999 68.0599 182.974 68.0132 182.959 67.8764C182.944 67.7397 182.958 67.6887 182.994 67.7441C183.021 67.8104 183.034 67.9276 183.02 67.9884ZM183.453 72.8837C183.431 72.9553 183.406 72.9085 183.391 72.7718C183.376 72.635 183.391 72.584 183.426 72.6395C183.453 72.7057 183.466 72.823 183.453 72.8837ZM183.651 73.8012C183.632 73.9021 183.607 73.8456 183.59 73.6893C183.572 73.5232 183.584 73.4527 183.619 73.5081C183.646 73.5744 183.661 73.7111 183.651 73.8012ZM183.85 74.7187C183.828 74.7903 183.803 74.7435 183.788 74.6068C183.773 74.47 183.787 74.419 183.823 74.4745C183.85 74.5407 183.863 74.658 183.85 74.7187ZM207.64 157.341C207.619 157.423 207.587 157.397 207.575 157.289C207.554 157.183 207.577 157.121 207.61 157.157C207.643 157.183 207.662 157.27 207.64 157.341ZM212.979 205.453C212.519 206.59 212.452 206.607 212.808 205.521C212.989 204.997 213.162 204.593 213.214 204.617C213.266 204.641 213.159 205.018 212.979 205.453Z" fill="#004338"/>
<path d="M77.9806 61.7244C77.6837 61.9223 77.3587 62.5905 76.8817 63.9836C76.262 65.7754 75.9964 67.106 75.5244 70.6891C75.0722 74.2072 74.6573 76.5 74.2665 77.6674L74.0486 78.2933L73.6581 77.7453C72.565 76.1905 69.729 73.1309 67.6224 71.2169C66.7961 70.4648 65.287 69.0697 64.2747 68.1011C61.6777 65.626 59.0649 63.4422 58.6433 63.3867C58.5435 63.3735 58.3292 63.4581 58.1896 63.5752C57.8352 63.8671 57.8579 64.2086 58.3296 66.5392C59.1412 70.5736 59.8177 71.9494 62.8774 75.7946C64.397 77.7103 66.2495 80.2679 66.2387 80.4358C66.2328 80.4802 65.9088 80.3697 65.5144 80.1937C64.244 79.6426 60.1367 78.2663 58.0891 77.7032C55.4513 76.9945 51.773 76.2165 50.9515 76.1986C50.1522 76.1836 49.1528 76.4018 48.8486 76.6552C48.4927 76.9581 48.6234 77.3365 49.4167 78.2536C50.9302 80.0443 52.6959 81.4619 54.4281 82.277C55.4796 82.7766 56.5071 83.1151 58.7529 83.7157C62.1001 84.6081 63.1464 85.0619 66.6855 87.1533C68.9901 88.5065 70.7772 89.4191 73.9515 90.853C74.6544 91.1713 75.475 91.539 75.7614 91.6783C76.4865 91.9995 77.4116 92.0875 79.3843 92.0201C81.7207 91.9329 82.7489 91.7523 85.0813 91.01C88.333 89.9712 88.3678 89.9645 94.5377 89.2198C95.8336 89.0633 97.8258 88.7614 98.9694 88.5622C100.114 88.3519 102.079 88.0013 103.348 87.7959C107.124 87.1423 109.014 86.59 109.815 85.9055C110.386 85.4277 110.465 84.9979 110.053 84.6163C109.771 84.3535 109.729 84.3366 109.03 84.4139C108.492 84.4672 107.599 84.3947 105.469 84.1141C102.907 83.7765 100.895 83.6244 99.9511 83.6806C99.6997 83.7039 99.973 83.5142 100.969 82.9795C103.02 81.8842 105.285 80.4558 106.335 79.6009C107.662 78.5229 108.03 77.8717 107.576 77.462C107.254 77.1601 107.006 77.1612 105.485 77.401C104.747 77.5182 103.266 77.7069 102.201 77.8261C98.9952 78.1713 97.7579 78.4823 93.8998 79.9265C92.8549 80.3193 91.7796 80.6855 91.5017 80.7392C91.0375 80.836 91.0042 80.8316 91.0831 80.6615C91.2872 80.2256 92.3774 75.7195 92.7242 73.8578C92.9398 72.7351 93.2825 71.0761 93.4926 70.167C94.0993 67.6173 94.0628 66.0099 93.4185 65.846C93.1899 65.7821 92.9963 65.8807 92.4395 66.3378C89.787 68.4825 87.4005 71.5201 85.0299 75.7221C83.8966 77.7284 83.1981 78.8327 82.7493 79.3266C82.4489 79.6369 82.2501 79.6897 82.2837 79.4346C82.2939 79.3569 82.1504 78.8188 81.9779 78.2431C81.5239 76.8064 81.3658 75.9504 81.0109 73.1612C80.6246 70.097 80.1272 67.447 79.3838 64.4373C78.8347 62.2658 78.6045 61.6148 78.3272 61.5782C78.2717 61.5709 78.1158 61.6407 77.9806 61.7244ZM78.3174 66.1929C78.404 66.7347 78.6794 68.3284 78.9367 69.7166C79.1925 71.1159 79.4742 73.0039 79.5681 73.9192C80.0199 78.1996 80.122 78.7096 80.7393 79.5923C80.9661 79.9269 81.2186 80.152 81.4568 80.2285C82.5827 80.5913 83.3358 79.844 85.2823 76.3761C87.2289 72.9082 89.4852 69.8309 91.4963 67.929C92.7338 66.7603 93.0033 66.5136 93.0403 66.5749C93.0596 66.6 92.9716 67.0963 92.8513 67.6673C92.7198 68.2369 92.2699 70.3671 91.8457 72.3878C91.0546 76.1659 90.962 76.5262 90.2557 78.8032C89.8033 80.2672 89.7649 80.8151 90.107 81.131C90.6217 81.5938 91.2817 81.4664 95.177 80.0835C98.4448 78.9227 99.283 78.7284 102.479 78.3706C103.614 78.238 104.981 78.0569 105.502 77.9563C106.021 77.8667 106.467 77.8239 106.486 77.849C106.621 78.0247 101.856 81.2117 99.7405 82.3662C98.2807 83.1671 97.8944 83.4435 97.8608 83.6986C97.814 84.0536 98.2394 84.1661 99.6147 84.178C100.327 84.1702 102.18 84.3241 103.737 84.4954C105.293 84.6778 107.062 84.8769 107.652 84.9321L108.744 85.0421L107.744 85.5198C106.346 86.1934 105.025 86.6287 102.882 87.1364C99.8777 87.8354 96.8876 88.3444 93.2541 88.7686C88.4622 89.3336 88.1495 89.394 84.9561 90.4179C82.5055 91.2011 81.5578 91.3697 79.0189 91.4528L77.0573 91.5217L75.326 90.7857C71.4659 89.1599 70.1406 88.5113 67.3719 86.8262C63.8082 84.6638 62.4202 84.0634 58.5522 83.0121C57.2 82.6534 55.6613 82.1686 55.1381 81.9416C53.3239 81.1496 51.7152 79.9107 49.9338 77.9267C49.519 77.4771 49.1915 77.0502 49.1989 76.9947C49.231 76.7507 54.5085 77.8973 57.5918 78.8227C59.1667 79.2897 63.5026 80.7299 65.236 81.3646C66.6469 81.8777 66.9522 81.8728 67.0239 81.3292C67.1115 80.6636 66.5882 79.8385 63.4281 75.6415C60.0545 71.1793 59.6384 70.3119 58.8009 66.2176C58.5996 65.1754 58.4459 64.2861 58.4754 64.2336C58.4938 64.1795 59.6222 65.2085 60.9597 66.5359C62.3097 67.8536 64.3661 69.8061 65.5234 70.8727C68.2935 73.4045 69.537 74.6743 71.1934 76.6644C71.9439 77.5646 72.7068 78.4551 72.8972 78.6382C73.3689 79.084 73.8806 79.1402 74.2298 78.8024C74.8766 78.1766 75.2151 76.7202 75.9397 71.4774C76.6247 66.5342 76.958 65.0319 77.8082 63.0335L77.9887 62.6058L78.0772 63.904C78.1294 64.6219 78.2419 65.6525 78.3174 66.1929Z" fill="#004338"/>
<path d="M107.261 88.5876C104.889 88.6025 103.002 88.8731 99.1867 89.7361C97.9886 90.0071 95.8819 90.4067 94.4966 90.6418C86.8827 91.896 85.562 92.2411 83.4175 93.5273C81.1016 94.9152 79.4756 96.2923 77.039 98.9395C75.2623 100.861 71.6325 103.656 68.4221 105.58C65.2242 107.495 62.3733 108.576 62.1024 107.976C62.0765 107.916 62.1501 107.7 62.2666 107.501C62.9376 106.348 64.8649 104.739 68.05 102.665C71.3813 100.508 74.2228 98.1283 75.187 96.7205C75.7757 95.85 75.8686 95.2302 75.5318 94.5313C74.9265 93.3004 71.7842 91.0242 68.6986 89.602C62.9552 86.9381 61.096 86.2305 57.5225 85.3421C54.4298 84.5736 49.4156 83.913 47.1517 83.9646C42.6333 84.0804 38.8678 84.7355 34.6141 86.1841C30.078 87.7195 26.305 89.7167 22.6139 92.5485C17.002 96.854 12.7339 102.352 10.1735 108.595C7.79946 114.365 6.68024 121.576 6.79683 130.372C7.00723 146.166 10.8376 156.241 19.5309 163.842C23.4359 167.268 28.5724 170.427 35.0868 173.407C45.878 178.361 57.049 182.147 67.2303 184.278C69.5143 184.759 75.7488 185.581 77.658 185.652C83.0472 185.865 89.6722 185.349 94.9891 184.312C102.4 182.884 108.914 180.131 116.261 175.332C118.15 174.102 122.374 170.821 123.969 169.338C128.979 164.717 132.395 160.291 135.004 155.048C135.39 154.264 136.03 153.175 136.405 152.637C137.296 151.355 137.625 150.575 137.511 149.984C137.38 149.267 137.133 149.167 135.327 149.087C132.779 148.977 130.966 148.693 129.698 148.21C127.991 147.545 125.931 146.303 124.407 145.019C123.698 144.406 123.557 144.105 123.807 143.755C124.001 143.475 124.399 143.539 125.363 144.016C128.414 145.535 131.269 146.306 134.779 146.566C137.115 146.738 137.992 146.673 138.468 146.318C138.794 146.068 138.797 146.045 139.117 144.045C139.297 142.94 139.479 141.982 139.532 141.921C139.585 141.861 140.085 141.836 140.635 141.863C142.372 141.957 143.659 141.697 144.697 141.01C145.326 140.608 145.609 140.171 145.697 139.506C145.766 138.894 145.616 138.4 144.828 136.762C143.552 134.111 141.752 128.501 140.615 123.679C139.061 117.053 138.731 115.96 137.485 113.087C132.747 102.272 128.272 96.5809 121.491 92.7984C116.854 90.2126 111.282 88.5643 107.261 88.5876ZM26.5455 115.221C26.6862 115.352 26.896 115.73 27.0104 116.061C27.3156 116.913 27.0886 118.294 26.1735 121.3C25.0752 124.925 24.9225 125.57 24.6492 127.645C24.373 129.742 24.3792 130.893 24.6536 132.837C25.1756 136.585 27.3523 142.594 29.4934 146.216C30.0753 147.196 30.9903 148.817 31.525 149.813C32.0611 150.798 32.8264 152.185 33.2312 152.882C34.2477 154.675 34.5077 155.443 34.396 156.376C34.3069 157.053 34.2619 157.137 33.9215 157.408C33.214 157.981 32.3998 157.908 30.9989 157.148C27.3439 155.165 23.7281 148.944 21.3933 140.624C19.689 134.542 19.2503 130.161 19.8764 125.323C20.2248 122.593 20.5496 121.326 21.4815 119.136C22.7493 116.109 24.3572 114.526 25.8025 114.863C26.0659 114.92 26.3951 115.077 26.5455 115.221ZM134.786 130.315C135.157 130.759 135.28 131.193 135.204 131.769C135.065 132.823 134.39 133.411 133.469 133.29C132.049 133.103 131.74 130.737 133.026 129.97C133.504 129.683 134.417 129.86 134.786 130.315Z" fill="#004338"/>
</svg>
