<svg width="17" height="15" viewBox="0 0 17 15" fill="none" xmlns="http://www.w3.org/2000/svg">
<path fill-rule="evenodd" clip-rule="evenodd" d="M0.000380488 7.35717C0.000380499 7.11847 0.095201 6.88956 0.263984 6.72077C0.432766 6.55199 0.661686 6.45717 0.900381 6.45717L13.666 6.45717L8.67638 1.70517C8.51271 1.53787 8.42064 1.31339 8.41972 1.07934C8.41879 0.845296 8.50907 0.620094 8.67142 0.451504C8.83377 0.282914 9.0554 0.184198 9.28932 0.176295C9.52323 0.168391 9.75103 0.251922 9.92438 0.409169L16.5244 6.70917C16.6115 6.79313 16.6808 6.89378 16.7281 7.00512C16.7754 7.11646 16.7998 7.23619 16.7998 7.35717C16.7998 7.47815 16.7754 7.59788 16.7281 7.70922C16.6808 7.82056 16.6115 7.92121 16.5244 8.00517L9.92438 14.3052C9.84015 14.3913 9.73949 14.4596 9.62837 14.5061C9.51726 14.5525 9.39794 14.5763 9.27749 14.5758C9.15704 14.5753 9.03792 14.5507 8.92717 14.5033C8.81643 14.4559 8.71631 14.3868 8.63276 14.3001C8.54922 14.2133 8.48393 14.1106 8.44079 13.9982C8.39764 13.8857 8.3775 13.7658 8.38157 13.6454C8.38563 13.525 8.41382 13.4067 8.46446 13.2974C8.51511 13.1881 8.58717 13.0901 8.67638 13.0092L13.666 8.25717L0.90038 8.25717C0.661686 8.25717 0.432766 8.16235 0.263984 7.99356C0.0952009 7.82478 0.000380478 7.59586 0.000380488 7.35717Z" fill="#A7C957"/>
</svg>
