<svg width="1907" height="1170" viewBox="0 0 1907 1170" fill="none" xmlns="http://www.w3.org/2000/svg">
<path d="M927.14 0.231903C877.449 1.84947 839.126 4.59444 795.56 9.69223C633.841 28.5639 488.833 72.9735 384.401 135.519C369.504 144.49 352.401 155.862 350.734 158.018C349.95 158.95 346.618 161.646 343.237 163.998C327.408 175.076 313.539 186.399 305.796 194.683C302.66 198.016 298.298 202.477 296.093 204.585C290.016 210.418 288.84 211.643 280.803 221.153C264.582 240.367 260.858 245.318 251.988 259.19C242.726 273.699 234.199 290.659 231.748 299.384C231.405 300.61 230.327 304.335 229.347 307.717C225.329 321.295 223.81 331.392 223.319 347.421C223.074 356.587 223.172 358.254 224.349 366.636C225.868 377.223 226.603 380.9 230.327 395.654C234.15 410.751 236.306 416.976 241.305 427.074C263.7 472.562 302.611 513.933 358.722 551.97C465.8 624.515 623.109 673.778 801.931 690.738C847.457 695.1 889.553 696.963 939.98 696.963C1022.7 696.963 1090.92 691.767 1169.62 679.513C1256.41 665.935 1343 642.946 1414.75 614.32C1516.68 573.685 1595.38 521.677 1645.71 461.729C1657.67 447.465 1669.43 431.437 1672.37 425.358C1673.45 423.055 1674.87 420.359 1675.51 419.378C1680.85 410.947 1690.6 380.214 1693.49 362.861C1694.67 355.558 1694.91 334.48 1693.88 326.638C1692.56 316.295 1684.67 291.443 1677.81 275.856C1671.64 261.837 1662.62 245.514 1656.89 237.867C1654.68 234.877 1651.74 230.907 1650.47 229.044C1649.14 227.133 1645.57 222.231 1642.48 218.064C1628.95 199.928 1621.99 192.183 1608.81 180.566C1530.89 112.04 1409.99 59.1016 1260.62 28.1227C1185.01 12.4372 1105.03 3.27097 1018.29 0.378955C1005.65 -0.0131829 938.608 -0.160235 927.14 0.231903ZM921.701 41.2593C927.875 42.7789 932.923 46.063 938.951 52.4843C942.381 56.1606 943.459 57.7781 948.556 67.3365C954.731 78.9046 955.074 79.6398 959.043 91.0608C962.474 100.766 963.356 104.246 964.581 112.53C967.962 135.225 968.991 160.812 967.668 189.34C965.512 235.956 964.679 242.23 958.651 257.719C956.887 262.18 956.25 263.258 953.8 265.709C948.36 271.101 937.726 274.875 927.679 274.875C914.497 274.924 905.774 276.493 900.775 279.826C898.178 281.542 895.091 285.806 893.62 289.777C891.562 295.267 891.464 297.521 892.052 322.569C893.375 379.429 893.179 441.191 891.562 486.385C891.317 493.934 890.778 509.276 890.386 520.452C889.112 557.264 884.652 619.222 882.3 632.799C881.075 640.005 879.164 647.504 877.841 650.151C876.223 653.534 872.744 656.279 867.157 658.582C860.493 661.327 858.581 661.769 853.534 661.523C849.515 661.376 848.878 661.18 844.076 658.876C838.391 656.132 835.941 653.877 834.421 649.955C833.637 647.897 833.637 647.357 834.666 638.632C835.255 633.633 836.627 622.8 837.705 614.565C838.734 606.33 840.498 592.801 841.576 584.517C845.987 550.941 847.457 514.864 847.8 434.917C848.045 377.812 848.78 322.128 849.466 312.129C849.711 308.207 850.152 301.933 850.446 298.159C850.691 294.384 851.132 283.257 851.426 273.405C851.868 256.837 852.211 248.602 853.436 221.202C853.681 215.516 854.073 196.84 854.367 179.635C854.612 162.43 854.955 148.166 855.102 147.921C855.249 147.676 855.592 133.412 855.837 116.207C856.327 83.9533 856.474 81.6005 858.777 68.758C861.326 54.3959 864.413 50.2785 876.272 45.2297C880.585 43.4651 885.289 42.2887 890.386 41.7985C892.297 41.6025 895.042 41.1613 896.512 40.7692C900.432 39.7888 917.143 40.1319 921.701 41.2593ZM774.487 43.269C783.112 43.9553 784.877 44.3964 790.071 47.2394C801.98 53.8077 806.292 59.7388 808.35 72.4343C809.527 79.6398 809.478 81.1103 808.056 97.335C806.635 113.609 805.165 119.981 800.853 128.461C797.667 134.686 794.629 138.804 791.884 140.519C789.434 142.088 785.024 143.705 773.262 147.382C764.294 150.176 759.541 152.381 752.925 156.744C746.652 160.91 741.948 165.714 739.399 170.714C736.165 176.939 727.099 200.222 726.266 204.389C725.825 206.594 725.482 210.663 725.482 214.094C725.482 224.388 727.589 231.348 731.852 235.368C736.165 239.387 739.84 240.661 753.023 242.573C764 244.142 767.333 246.2 771.253 253.798C775.075 261.151 775.664 264.092 775.664 276.101C775.615 283.748 775.419 287.571 774.781 291.051C772.821 301.737 769.244 308.55 762.775 313.697C760.227 315.756 757.237 316.589 748.661 317.471C736.9 318.697 729.745 324.432 726.266 335.314C725.531 337.52 724.06 344.97 722.982 351.833L720.973 364.332L720.483 389.576C720.091 408.938 720.14 420.065 720.679 437.368C721.316 460.406 721.414 478.689 721.071 513.344C720.875 530.108 720.973 533.686 721.659 537.853C722.786 544.421 723.717 547.362 725.482 549.764C729.794 555.793 737.292 556.725 747.289 552.607C749.445 551.725 755.963 548.98 761.746 546.578C767.529 544.176 772.87 542.019 773.605 541.872C776.399 541.137 779.045 543.098 781.642 547.705C786.004 555.548 786.935 561.283 786.935 581.233C786.935 590.595 786.739 598.193 786.347 600.595C786.053 602.752 785.22 608.83 784.583 614.075C783.553 621.819 782.965 624.711 781.397 629.27C777.624 640.397 775.566 643.73 770.42 647.308C760.815 653.926 753.856 655.445 733.813 655.494C722.982 655.494 722.737 655.494 718.621 654.073C713.132 652.259 706.467 648.779 703.674 646.328C697.45 640.887 690.835 626.231 686.032 607.555C682.602 593.978 681.523 584.419 681.033 563.097C680.739 547.705 681.474 522.02 682.847 500.845C683.974 483.395 684.17 479.326 685.052 451.338C685.493 439.328 686.032 424.574 686.277 418.496C686.522 412.418 686.963 400.065 687.257 391.046C687.551 382.027 687.992 368.008 688.286 359.92C688.531 351.833 689.07 329.677 689.462 310.658C689.854 291.639 690.492 269.484 690.933 261.396C691.325 253.308 691.864 239.387 692.158 230.515C693.334 191.791 695.882 164.538 701.714 128.559C704.605 110.864 706.516 102.825 710.829 90.3256C720.532 62.1407 729.255 52.1412 750.23 45.0827C759.051 42.1416 759.296 42.0926 762.971 42.3377C764.882 42.4848 770.028 42.9259 774.487 43.269ZM1102.83 57.9742C1111.99 59.7388 1118.12 61.6995 1125.81 65.3758C1131.79 68.2188 1132.72 68.9051 1136.74 72.7774C1141.05 76.9439 1147.57 84.6886 1148.89 87.0904C1149.97 89.1492 1153.69 100.717 1154.63 104.933C1155.85 110.472 1155.85 131.941 1154.63 141.304C1154.14 144.784 1153.35 151.548 1152.81 156.254C1151.44 168.263 1150.12 176.498 1148.4 183.262C1146.78 189.635 1143.21 199.34 1141.2 202.82C1139.63 205.467 1136.79 208.212 1135.56 208.212C1133.9 208.212 1131.35 206.84 1126.01 203.065C1119.88 198.703 1114.2 195.811 1109.69 194.781C1105.62 193.801 1098.56 193.801 1094.59 194.732C1086.8 196.595 1082.68 200.026 1075.43 210.908C1068.38 221.398 1064.01 230.858 1061.47 240.808C1059.9 247.132 1056.12 266.788 1054.85 275.611C1053.87 282.277 1050.44 315.56 1049.41 328.549C1048.82 336.049 1046.62 372.469 1045.98 386.096C1045.73 391.34 1045.05 399.624 1044.51 404.477C1042.25 425.26 1042.01 429.476 1041.72 453.543C1041.42 479.817 1041.62 483.836 1044.02 500.845C1046.18 515.893 1047.74 521.236 1051.81 527.412C1054.46 531.481 1058.13 535.059 1061.07 536.578C1064.6 538.392 1067.44 538.735 1072.05 537.951C1077.74 536.922 1081.26 535.5 1085.23 532.51C1091.8 527.51 1095.33 522.265 1098.86 511.923C1104.88 494.522 1105.33 483.199 1100.42 473.493C1098.42 469.523 1095.48 467.072 1089.55 464.523C1086.26 463.102 1084.45 462.023 1084.2 461.386C1083.86 460.455 1083.96 459.033 1085.18 445.455C1086.65 429.721 1092 408.398 1095.72 403.497C1096.36 402.663 1097.97 401.242 1099.25 400.36L1101.6 398.791L1114.1 399.134C1127.97 399.477 1132.72 399.918 1137.23 401.34C1142.91 403.105 1145.56 406.536 1147.13 414.231C1148.45 420.506 1148.25 439.377 1146.74 458.935C1144.68 485.159 1143.6 493.541 1138.85 520.207C1137.42 528.295 1136.1 535.892 1135.9 537.118C1134.83 544.617 1129.44 569.224 1127.03 577.557C1124.19 587.605 1118.8 599.909 1113.36 608.928C1108.76 616.526 1096.5 632.211 1091.85 636.476C1087.05 640.887 1068.82 653.534 1062 657.21C1058.08 659.367 1047.55 662.994 1041.42 664.317C1038.29 665.004 1037.06 665.053 1034.9 664.661C1031.23 663.876 1025.35 661.376 1022.8 659.416C1019.22 656.671 1010.4 645.348 1008 640.299C998.444 620.545 993.494 595.056 993.347 565.058C993.298 553.048 994.229 536.137 996.288 510.648C996.974 502.413 997.807 491.826 998.199 487.12C998.542 482.414 999.228 469.474 999.669 458.445C1000.6 434.476 1001.83 416.437 1004.08 393.252C1005.6 378.008 1007.07 360.362 1009.52 329.775C1010.4 318.011 1012.31 299.139 1013.88 285.414C1016.62 261.641 1017.41 251.739 1018.05 231.25C1018.83 206.202 1019.96 194.781 1024.22 168.263C1030.35 130.079 1033.24 119.981 1046.32 91.6981C1051.27 81.0613 1054.07 76.3557 1058.92 70.2775C1062.98 65.2778 1065.43 63.2681 1071.17 60.6211C1079.35 56.7978 1091.26 55.8174 1102.83 57.9742ZM1293.7 92.2863C1298.65 93.6097 1301.84 95.6685 1308.01 101.747C1312.86 106.501 1314.33 108.364 1316.93 112.775C1325.7 127.726 1331.98 143.607 1336.63 162.626C1341.53 182.576 1342.76 189.684 1347.12 225.123C1348.34 234.828 1349.77 246.2 1350.31 250.367C1351.38 259.141 1352.95 275.954 1353.74 287.62C1354.03 292.081 1354.47 298.404 1354.72 301.688C1355.6 312.619 1355.84 336.833 1355.25 347.911C1353.64 377.567 1350.8 411.879 1348.34 431.486C1343.84 467.023 1341.83 478.199 1335.55 501.923C1327.37 533.049 1327.47 532.804 1312.82 564.812C1297.53 598.34 1291.35 607.653 1276.31 619.663C1266.51 627.554 1263.96 628.976 1252.93 632.701C1243.86 635.74 1238.62 636.525 1232.89 635.74C1227.35 634.907 1223.67 633.535 1220.54 631.133C1217.01 628.388 1211.42 621.133 1209.32 616.526C1205.05 607.31 1199.37 587.409 1197.46 575.106C1194.17 554.078 1192.46 526.432 1192.56 496.678C1192.6 478.297 1192.8 470.65 1194.17 437.613C1194.61 427.515 1195.2 413.251 1195.45 405.997C1195.99 393.056 1197.51 376.096 1199.37 362.371C1199.91 358.597 1201.23 348.45 1202.31 339.823C1203.43 331.196 1205.05 318.746 1205.98 312.129C1208.04 297.276 1210.39 276.591 1211.37 264.582C1213.63 237.034 1214.71 229.436 1220.44 202.085C1225.54 177.674 1231.17 156.254 1239.16 130.765C1244.35 114.295 1244.65 113.707 1249.7 108.609C1258.22 100.031 1267.78 94.492 1277.78 92.2373C1281.7 91.3549 1290.22 91.404 1293.7 92.2863ZM569.398 103.07C576.112 104.345 587.922 109.589 593.509 113.805C599.88 118.609 605.712 125.863 609.975 134.441C612.768 139.98 618.649 155.175 620.07 160.518C621.687 166.596 625.755 188.164 627.176 198.164C630.557 221.839 631.734 235.858 634.38 286.1C635.164 300.61 634.674 374.528 633.694 392.272C632.763 408.84 632.665 409.624 630.851 425.113C628.107 448.544 624.481 474.18 622.815 482.463C620.413 494.522 615.121 515.354 612.572 522.707C608.309 535.108 591.353 570.891 585.913 578.88C582.091 584.517 574.348 592.654 569.496 596.232C563.714 600.546 556.608 603.291 548.669 604.32C544.797 604.86 543.719 604.81 538.329 603.83C531.517 602.654 525.048 600.252 520.49 597.213C516.325 594.468 508.827 587.605 505.789 583.782C498.928 575.253 492.41 564.175 487.118 552.068C481.09 538.196 471.436 504.766 467.76 484.62C466.927 480.111 465.702 473.836 465.065 470.65C459.233 442.073 455.95 407.271 456.636 381.488C457.175 361.097 458.939 327.814 460.115 315.805C460.507 311.736 461.194 303.698 461.586 297.914C462.468 285.267 462.958 281.199 464.526 272.18C465.163 268.405 466.045 261.396 466.486 256.592C466.927 251.788 467.907 244.289 468.691 239.926C469.475 235.564 470.456 229.535 470.897 226.593C473.69 207.967 475.895 199.34 483.736 177.086C490.842 156.94 493.635 150.274 498.242 142.382C506.671 128.118 518.481 115.373 528.968 109.246C532.889 106.942 540.044 104.099 543.719 103.315C551.119 101.845 562.341 101.747 569.398 103.07ZM1466.94 125.912C1471.25 126.598 1475.96 128.265 1479.19 130.373C1482.47 132.431 1484.34 135.618 1486.3 142.284C1488.11 148.656 1488.89 153.803 1489.48 164.587C1490.12 175.37 1489.68 183.017 1488.01 191.791C1486.93 197.281 1486 199.634 1483.45 203.163C1481.64 205.761 1479.44 206.791 1471.74 208.702C1457.68 212.231 1451.45 215.32 1444.25 222.476C1438.81 227.868 1437.34 232.083 1436.51 244.632C1435.92 252.916 1436.36 263.602 1437.58 271.444C1438.52 277.473 1441.11 281.248 1445.82 283.355C1447.73 284.189 1449.3 284.336 1459.05 284.434C1470.71 284.581 1473.85 284.973 1477.97 286.934C1484.68 290.071 1487.28 294.531 1489.33 306.492C1490.51 313.501 1490.66 315.56 1490.71 325.853C1490.71 338.598 1490.12 342.813 1487.57 348.99C1484.68 355.852 1480.91 358.891 1474.24 359.675C1464 360.95 1462.09 361.293 1459.1 362.567C1454.44 364.479 1447.92 368.842 1446.31 371.096C1444.59 373.449 1442.29 379.38 1440.92 384.821C1439.99 388.448 1439.84 391.193 1439.4 412.614C1438.66 446.975 1438.66 462.562 1439.4 473.395C1440.57 491.14 1441.31 494.375 1444.89 497.61C1448.02 500.453 1451.45 500.943 1459.39 499.669C1471.3 497.757 1478.5 497.316 1483.7 498.198C1486 498.541 1486.25 498.884 1487.47 503.296C1488.99 508.737 1489.53 514.031 1489.53 524.52C1489.53 534.373 1488.84 539.471 1486.54 546.186C1484.78 551.284 1480.71 556.381 1474.83 560.842C1469.68 564.714 1466.84 566.185 1460.91 567.95C1458.41 568.685 1452.73 570.645 1448.22 572.312C1436.7 576.626 1433.81 577.263 1424.01 577.802C1414.85 578.341 1411.95 578.047 1408.52 576.282C1403.33 573.636 1396.42 564.812 1394.36 558.195C1392.5 552.068 1392.21 543.882 1393.33 529.03C1393.92 521.726 1394.51 509.717 1394.66 502.315C1394.85 494.914 1395.15 485.208 1395.44 480.748C1395.68 476.287 1396.22 462.17 1396.62 449.377C1397.01 436.583 1397.69 421.339 1398.09 415.555C1399.65 392.419 1399.95 380.606 1399.36 364.822C1398.53 342.127 1398.67 316.785 1399.8 292.375C1400.34 280.463 1401.12 261.2 1401.52 249.632C1402.69 217.084 1403.77 206.153 1408.18 181.498C1411.61 162.332 1416.81 146.597 1423.23 135.765C1426.61 130.079 1430.28 128.755 1451.75 125.177C1453.51 124.883 1463.17 125.373 1466.94 125.912ZM395.82 179.488C398.172 180.174 401.406 181.4 402.975 182.184C407.63 184.537 414.589 189.438 416.696 191.889C419.196 194.683 427.527 207.967 429.193 211.692C434.191 223.064 435.809 243.406 432.623 255.612C430.761 262.719 426.546 268.209 420.715 271.101C417.774 272.523 417.137 272.67 412.825 272.67C407.287 272.621 404.886 271.738 401.7 268.552C398.515 265.317 397.045 262.278 393.222 251.102C389.4 239.926 388.175 237.573 384.156 233.75C378.276 228.162 372.787 228.015 365.387 233.211C357.056 239.044 353.136 247.867 353.675 259.435C353.822 262.376 354.312 266.15 354.753 267.719C355.733 271.346 358.722 277.866 361.173 281.591C363.819 285.61 383.225 305.119 395.673 316.295C415.373 333.941 419.735 339.235 427.085 354.479C430.369 361.342 433.946 373.008 435.122 380.949C438.308 402.663 436.397 424.182 429.977 437.368C428.948 439.524 427.429 442.809 426.644 444.72C421.646 456.239 412.58 468.641 404.053 475.454C400.328 478.444 388.126 485.993 382.588 488.787C377.051 491.532 367.151 494.179 360.095 494.767C354.998 495.159 344.217 493.884 337.65 492.022C331.622 490.306 326.771 488.248 318.391 483.738C303.493 475.699 297.416 471.68 291.339 465.798C276.197 451.141 265.807 434.525 261.593 418.104C259.78 411.143 259.437 400.752 260.809 394.968C262.083 389.576 264.729 383.4 267.082 380.214C272.913 372.224 284.675 366.489 295.456 366.342C299.376 366.293 300.161 366.44 302.66 367.665C308.345 370.459 311.726 375.41 315.793 386.88C319.42 397.075 322.213 401.536 330.348 410.212C334.563 414.624 336.817 416.192 341.423 417.761C347.598 419.819 353.969 420.702 358.085 420.016C364.946 418.888 372.64 413.888 379.158 406.34C383.568 401.242 386.558 394.576 388.126 386.292C389.547 378.547 387.685 367.665 383.421 358.94C379.354 350.656 373.326 343.647 365.387 337.961C363.231 336.392 355.978 331.735 349.362 327.569C335.151 318.648 332.063 316.54 327.114 312.031C317.901 303.698 314.078 298.11 310.746 288.11C308.001 280.071 307.364 276.15 307.413 267.621C307.462 254.827 309.178 245.857 313.98 233.456C317.46 224.388 322.899 215.467 329.466 207.967C331.377 205.81 334.073 202.722 335.494 201.105C338.875 197.183 344.756 192.036 349.999 188.262C361.026 180.321 369.651 177.723 383.666 178.017C390.38 178.164 392.144 178.361 395.82 179.488ZM1555.25 187.576C1561.67 190.762 1571.27 199.144 1582.35 211.153C1586.66 215.859 1592.1 221.741 1594.45 224.29C1601.95 232.476 1607.54 241.054 1615.03 256.004C1622.88 271.542 1628.27 284.728 1630.13 292.767C1631.26 297.668 1634.78 317.471 1635.76 324.53C1638.17 341.784 1637.53 367.224 1634.24 385.654C1628.76 416.535 1626.06 424.966 1616.11 442.76C1610.57 452.71 1607.39 456.975 1600.23 464.082C1590.43 473.885 1585.19 477.562 1573.77 482.611C1564.51 486.728 1562.11 487.316 1556.23 486.973C1550.64 486.679 1548.63 485.944 1546.18 483.248C1544.22 481.042 1541.48 475.944 1540.3 472.17C1538.1 465.209 1536.77 451.926 1536.28 431.731C1536.09 425.113 1535.55 413.643 1535.01 406.242C1534.52 398.84 1533.88 387.027 1533.59 380.017C1533.29 373.008 1532.85 363.057 1532.61 357.96C1531.82 343.156 1531.04 300.953 1531.33 291.296C1531.48 286.444 1531.72 274.287 1531.87 264.337C1532.36 232.279 1533.44 209.437 1534.81 201.252C1536.48 191.301 1539.47 187.037 1545.45 186.154C1549.12 185.566 1552.01 186.007 1555.25 187.576Z" fill="#D95D39"/>
<path d="M894.649 104.98C893.473 105.372 891.66 106.304 890.582 107.039C888.328 108.558 884.995 113.362 884.309 115.96C883.231 120.176 882.545 135.714 882.545 156.742C882.594 179.339 883.133 190.319 884.652 197.868C885.877 204.044 887.298 204.73 898.276 204.779C905.872 204.779 909.351 203.946 913.958 200.956C924.445 194.143 929.934 179.437 930.669 156.007C931.11 142.92 929.835 134.636 925.964 124.538C922.975 116.793 916.457 108.902 910.821 106.157C907.832 104.686 907.146 104.539 902.147 104.441C898.57 104.343 896.071 104.539 894.649 104.98Z" fill="#D95D39"/>
<path d="M1283.07 203.505C1279 204.976 1272.58 211.593 1266.51 220.661C1264.3 223.994 1263.32 226.347 1259.79 236.592C1254.11 253.307 1253.27 256.689 1249.4 279.531C1245.19 304.088 1244.01 312.764 1241.76 335.41C1240.78 345.116 1239.01 361.782 1237.84 372.418C1234.01 406.485 1233.23 417.22 1232.84 441.778C1232.59 457.365 1232.69 460.404 1233.87 475.11C1235.68 497.51 1237.3 509.716 1240.04 520.5C1241.41 525.793 1244.8 535.499 1246.32 538.244C1248.67 542.655 1253.22 545.939 1257 545.939C1257.54 545.939 1259.2 545.596 1260.62 545.155C1262.73 544.518 1263.91 543.734 1266.51 541.136C1268.27 539.322 1270.52 536.332 1271.55 534.469C1273.56 530.695 1279.2 518.539 1281.84 512.118C1287.19 499.177 1295.03 472.07 1300.32 448.15C1307.82 414.328 1310.66 397.515 1312.33 377.565C1312.72 372.418 1313.75 362.419 1314.53 355.262C1316.74 335.41 1317.18 325.558 1316.54 308.941C1316.25 301.098 1315.9 291.54 1315.81 287.619C1315.56 279.286 1313.21 259.189 1310.86 244.974C1307.38 224.043 1303.65 213.995 1296.64 206.985C1293.41 203.701 1291.35 202.819 1287.28 202.819C1285.96 202.868 1284.05 203.162 1283.07 203.505Z" fill="#D95D39"/>
<path d="M549.6 187.674C538.377 189.879 528.968 202.085 521.813 223.652C512.845 250.857 505.788 288.257 503.534 320.706C501.868 343.941 501.868 402.467 503.485 423.152C505.69 451.141 509.758 468.739 517.697 484.424C524.705 498.296 528.968 503.492 536.662 507.315C539.994 508.982 541.318 509.374 544.356 509.57C551.952 510.06 555.333 508.05 560.92 499.668C565.87 492.365 567.83 487.953 572.289 474.474C577.974 457.121 579.64 450.112 580.865 437.564C581.404 432.025 582.629 421.976 583.561 415.261C586.697 392.86 587.04 387.762 588.265 346.931C588.559 337.372 589 325.216 589.245 319.971C589.931 305.021 589.833 285.267 589 277.032C588.608 273.013 587.824 264.043 587.285 257.131C586.207 242.916 584.688 228.505 583.561 221.201C581.796 209.879 576.602 198.703 570.623 193.311C565.428 188.605 556.705 186.252 549.6 187.674Z" fill="#D95D39"/>
<path d="M1571.57 275.022C1567.79 278.797 1565.69 291.1 1564.46 317.03C1563.58 334.725 1565.98 387.419 1568.18 399.33C1569.16 404.722 1570.73 409.427 1571.86 410.457C1572.74 411.241 1572.94 411.241 1575.09 410.408C1578.87 408.986 1583.72 405.506 1587.44 401.536C1590.14 398.644 1591.46 396.634 1593.57 392.369C1600.92 377.223 1604.25 362.42 1605.72 338.352C1606.61 323.745 1605.58 314.334 1601.7 302.717C1598.13 291.884 1595.33 287.08 1589.31 281.149C1585.83 277.718 1583.43 276.248 1578.67 274.63C1574.02 273.062 1573.53 273.062 1571.57 275.022Z" fill="#D95D39"/>
<path d="M201.61 220.809C160.2 224.534 139.862 227.818 115.605 234.73C90.1216 241.984 71.4014 251.052 52.1911 265.464C43.7622 271.787 38.4205 277.228 30.0405 287.913C10.7813 312.471 6.61578 319.432 3.3814 332.47C0.784092 342.764 0 349.528 0 360.9V370.704L2.5483 380.262C3.96947 385.507 6.86081 396.634 9.01706 404.918C14.9958 428.054 21.3665 444.523 31.0697 462.023C37.0484 472.708 39.1066 475.502 45.7714 482.414C54.3964 491.237 57.9248 493.933 66.0598 497.903C74.8808 502.217 79.1443 503.834 87.9164 506.285C91.8368 507.413 98.5506 509.373 102.912 510.648C107.225 511.971 113.84 513.687 117.614 514.52C121.338 515.304 130.6 517.363 138.147 518.981C157.603 523.196 176.96 528.245 190.338 532.46C207.686 537.999 230.425 545.695 235.277 547.705C244.588 551.528 263.602 562.018 271.443 567.606C272.815 568.537 276.785 571.135 280.264 573.292C294.28 582.017 307.021 593.732 328.045 617.26C341.276 632.063 349.068 642.602 354.606 653.092C358.722 660.886 363.329 672.356 365.828 680.983C369.504 693.629 369.553 697.599 365.975 696.717C364.456 696.325 363.427 694.119 359.702 683.286C357.007 675.542 351.861 663.778 348.137 656.817C340.688 643.043 325.986 624.956 304.669 603.437C293.937 592.605 285.361 585.252 277.569 580.203C274.726 578.39 270.806 575.841 268.846 574.566C266.885 573.341 265.17 572.409 265.023 572.557C264.876 572.704 266.101 576.282 267.67 580.546C269.287 584.86 271.492 591.33 272.668 594.957C273.795 598.585 276.589 606.771 278.892 613.094C283.596 626.132 284.626 629.662 287.321 642.749C288.399 647.847 290.408 656.719 291.731 662.405C293.104 668.091 294.77 675.591 295.407 679.071C301.729 711.912 303.836 722.108 305.502 727.794C308.638 738.774 310.305 745.832 314.078 764.557C321.429 800.977 329.27 834.603 335.15 854.896C349.411 904.158 360.388 929.01 382.588 962.047C400.867 989.301 416.941 1007.54 443.012 1030.77C453.989 1040.47 456.244 1042.14 466.045 1047.83C471.142 1050.77 479.374 1055.62 484.373 1058.66C494.615 1064.84 508.435 1071.94 524.313 1079.15C530.242 1081.85 539.064 1085.96 543.915 1088.32C553.079 1092.73 569.888 1100.28 579.199 1104.1C582.189 1105.32 590.569 1108.9 597.821 1112.09C616.934 1120.42 619.237 1121.21 654.423 1131.4C678.681 1138.41 685.689 1140.08 706.614 1143.75C713.622 1144.98 725.089 1147.19 732.097 1148.66C750.376 1152.53 758.217 1154 769.587 1155.71C775.124 1156.55 786.347 1158.56 794.58 1160.13C814.917 1164.1 821.582 1164.93 841.87 1166.01C847.016 1166.25 856.278 1166.84 862.453 1167.23C868.676 1167.67 877.497 1168.21 882.055 1168.46C896.267 1169.24 948.997 1170.03 970.951 1169.78C992.612 1169.54 992.857 1169.54 1025.15 1166.3C1043.38 1164.44 1043.09 1164.49 1061.17 1163.07C1076.31 1161.94 1108.17 1159.83 1124.63 1158.9C1171.53 1156.3 1208.48 1152.38 1231.81 1147.58C1248.91 1144.1 1274.35 1137.43 1289.78 1132.33C1322.91 1121.5 1366.18 1102.58 1394.66 1086.45C1412.98 1076.11 1445.43 1054.94 1457.58 1045.47C1472.28 1034 1494.73 1015.77 1496.73 1013.61C1508.45 1001.31 1528.49 975.576 1540.4 957.685C1556.96 932.784 1575.44 898.423 1584.26 876.169C1591.12 858.866 1602.98 822.446 1608.52 801.81C1611.16 791.86 1617.73 760.587 1618.32 754.999C1618.66 752.009 1619.89 743.774 1621.06 736.617C1622.24 729.461 1623.37 722.059 1623.51 720.196C1624 714.51 1625.18 706.079 1626.94 695.443C1627.82 689.904 1628.95 682.502 1629.39 679.022C1629.83 675.493 1631.06 668.238 1632.09 662.797C1633.22 656.964 1634.29 649.367 1634.73 644.171C1635.18 639.367 1636.06 632.21 1636.69 628.289C1637.33 624.368 1638.26 618.535 1638.7 615.3C1639.19 612.064 1640.76 604.663 1642.23 598.879C1643.7 593.095 1645.32 586.575 1645.81 584.419C1646.74 580.35 1651.59 566.135 1652.92 563.586C1653.36 562.753 1653.55 562.116 1653.36 562.116C1653.21 562.116 1648.6 564.273 1643.11 566.969C1629.2 573.733 1624.79 576.772 1615.03 586.33C1603.62 597.506 1594.55 608.829 1587.39 620.887C1583.87 626.819 1570.83 652.111 1570.83 653.092C1570.83 653.68 1566.32 664.758 1565.78 665.395C1565.2 666.179 1562.89 666.228 1562.11 665.444C1561.13 664.464 1561.42 661.817 1563.24 655.2C1565.29 647.7 1566.37 645.102 1573.23 630.985C1582.59 611.77 1591.22 599.075 1605.53 583.536C1615.38 572.802 1620.72 568.537 1631.55 562.606C1646.45 554.469 1664.19 547.607 1677.17 545.009C1678.64 544.666 1681.63 543.881 1683.79 543.244C1693.3 540.352 1711.53 536.676 1728.53 534.176C1741.08 532.313 1767.39 527.019 1779.84 523.882C1789.35 521.432 1797.48 518.981 1818.7 512.069C1832.77 507.511 1841.15 503.491 1849.67 497.364C1855.16 493.394 1863.59 485.257 1868.1 479.522C1869.37 477.904 1871.43 475.453 1872.76 474.13C1876.04 470.699 1881.67 461.483 1884.96 454.278C1887.56 448.543 1894.42 428.691 1896.62 420.456C1897.75 416.192 1899.46 407.319 1899.95 403.055C1900.15 401.437 1901.18 397.712 1902.21 394.722C1905.79 384.673 1906.13 382.86 1906.37 369.233C1906.67 356.292 1906.28 351.587 1904.02 339.578C1902.5 331.686 1899.32 319.726 1897.36 314.824C1893.19 304.285 1885.3 291.198 1876.33 280.022C1871.09 273.502 1860.36 262.424 1854.33 257.327C1839.68 245.023 1818.02 235.22 1793.46 229.828C1774.01 225.564 1764.89 224.877 1719.56 224.387C1683.94 223.995 1676.29 223.652 1662.47 221.936C1658.31 221.397 1654.68 220.956 1654.48 220.956C1653.9 220.956 1658.16 226.887 1659.29 227.573C1660.46 228.358 1672.37 230.073 1681.58 230.808C1685.21 231.053 1702.31 231.495 1719.56 231.74C1765.33 232.377 1779.3 233.651 1800.67 239.386C1815.91 243.455 1832.03 250.415 1842.76 257.621C1856.98 267.13 1874.27 286.492 1884.37 304.187C1889.42 312.961 1891.97 319.481 1894.71 330.362C1898.83 346.538 1899.41 351.097 1899.41 365.557C1899.41 375.703 1899.22 378.84 1898.53 382.174C1897.75 385.752 1892.31 401.78 1890.15 406.829C1888.93 409.721 1884.71 416.633 1879.42 424.622C1869.42 439.524 1855.46 451.239 1839.19 458.346C1831.79 461.631 1802.14 470.748 1787.93 474.13C1768.23 478.885 1750.24 483.002 1739.66 485.208C1733.19 486.58 1722.21 488.982 1715.25 490.6C1708.29 492.168 1698.39 494.276 1693.2 495.256C1688 496.188 1677.17 498.639 1669.14 500.648C1651.84 504.962 1650.17 505.354 1638.95 507.266C1634.24 508.05 1627.19 509.471 1623.27 510.403C1619.35 511.285 1614.2 512.461 1611.8 512.903C1606.95 513.834 1608.57 512.804 1594.79 524.127C1553.14 558.391 1495.17 591.918 1431.9 618.339C1339.96 656.768 1235.63 683.433 1120.71 697.845C1099.4 700.54 1079.79 702.452 1047.69 705.001C976.146 710.638 895.384 710.295 820.161 703.972C722.492 695.835 631.831 678.581 548.522 652.357C457.175 623.583 377.197 583.291 321.478 537.901C307.217 526.284 294.574 514.667 283.449 503.05C278.745 498.148 269.483 488.002 268.993 487.267C268.748 486.825 247.969 481.973 240.324 480.6C220.477 476.973 187.055 471.777 169.021 469.522C136.628 465.405 130.551 464.424 117.859 461.336C99.9228 456.925 82.1337 449.425 63.7565 438.445C55.1315 433.25 51.4071 430.554 42.8801 423.152C30.7756 412.564 19.7983 397.712 14.8978 385.115C13.4766 381.34 10.0952 369.576 9.06607 364.674C7.30186 356.145 9.89917 336.49 14.0647 326.882C16.4659 321.343 20.8275 314.138 25.875 307.52C28.3743 304.236 33.0789 298.06 36.3623 293.746C43.9582 283.796 49.5448 278.159 58.0718 271.836C75.1258 259.189 92.9149 250.268 113.644 243.994C135.991 237.23 153.143 233.945 183.478 230.563C207.931 227.818 210.774 227.671 234.444 227.573C264.925 227.475 261.593 227.769 264.19 224.975C268.258 220.662 268.846 220.956 255.908 221.054C249.635 221.054 235.326 221.005 224.152 220.858C212.979 220.711 202.835 220.662 201.61 220.809ZM1509.33 845.582C1511.58 846.857 1513.05 848.867 1514.52 852.69C1517.46 860.533 1517.61 867.542 1515.01 875.336C1513.35 880.287 1508.74 889.355 1505.56 894.11C1497.86 905.433 1471.94 931.951 1454.2 946.656C1442.97 955.92 1432 963.616 1410.88 977.047C1394.51 987.389 1381.62 995.085 1368.93 1002.05C1363.14 1005.23 1352.76 1010.92 1345.89 1014.69C1297.53 1041.31 1239.21 1064.79 1192.75 1076.36C1173.84 1081.06 1140.36 1087.48 1119.24 1090.47C1080.82 1095.96 1049.26 1098.66 1018.29 1099.15C979.87 1099.79 926.111 1096.6 923.465 1093.56C923.073 1093.12 920.867 1091.99 918.564 1091.06C910.674 1087.87 905.872 1084.15 902.784 1078.76C897.982 1070.57 898.227 1059.84 903.274 1051.99C905.627 1048.42 911.409 1042.88 914.546 1041.31C922.828 1037.14 939.931 1033.76 963.65 1031.7C973.402 1030.82 981.194 1030.62 1014.62 1030.23C1059.7 1029.74 1073.37 1029 1097.19 1025.77C1131.59 1021.11 1180.11 1010.28 1210.39 1000.48C1218.33 997.928 1250.73 986.311 1261.11 982.341C1275.91 976.655 1299.24 966.067 1321.39 954.989C1334.08 948.666 1336.29 947.391 1355.25 935.578C1369.96 926.412 1376.23 922.147 1389.51 912.344C1396.91 906.903 1404.26 901.56 1434.35 880.042C1448.51 869.944 1468.26 856.905 1473.55 854.16C1478.7 851.563 1489.87 847.249 1495.85 845.631C1501.49 844.112 1506.68 844.063 1509.33 845.582Z" fill="#D95D39"/>
<path d="M1737.35 244.044C1727.36 244.73 1704.76 249.338 1693.59 253.014C1687.95 254.877 1680.95 257.965 1679.28 259.288C1678.89 259.582 1679.72 261.837 1682.27 267.425C1686.53 276.64 1690.06 285.267 1692.86 293.355C1694.03 296.688 1695.21 299.384 1695.5 299.384C1695.8 299.384 1698.05 298.845 1700.45 298.159C1706.77 296.394 1719.51 294.14 1726.91 293.404C1736.72 292.473 1758.42 292.62 1765.87 293.698C1778.03 295.365 1791.65 299.041 1800.67 303.012C1816.59 310.119 1832.57 324.432 1842.32 340.265C1848.06 349.725 1851.68 358.548 1854.82 370.999C1856.83 379.037 1857.37 384.92 1856.58 389.821C1856.29 391.88 1856.24 393.89 1856.49 394.723C1856.98 396.439 1855.36 399.772 1850.56 406.781C1846.19 413.251 1842.57 416.879 1835.36 421.977C1824.19 429.966 1820.42 431.927 1803.36 438.74C1785.33 445.897 1775.63 449.034 1766.85 450.554C1758.52 451.975 1745.19 452.906 1732.06 452.906C1718.34 452.906 1711.28 452.22 1692.12 449.132C1688.1 448.495 1682.17 447.711 1678.99 447.416C1675.8 447.171 1672.13 446.681 1670.75 446.387C1669.38 446.093 1668.11 446.044 1667.86 446.24C1667.67 446.485 1666.49 448.201 1665.22 450.112C1663.4 452.906 1663.11 453.593 1663.7 453.936C1664.82 454.524 1670.95 455.602 1676.93 456.24C1679.92 456.534 1685.5 457.318 1689.42 457.955C1711.53 461.582 1714.47 461.877 1732.06 461.828C1765.24 461.828 1775.38 459.622 1811.2 444.475C1826.98 437.809 1835.56 432.417 1847.57 421.633C1858.25 412.026 1866.58 396.782 1870.55 379.479C1873.44 366.783 1872.41 345.068 1868.25 330.51C1867.36 327.373 1864.03 319.285 1861.93 315.07C1859.28 309.874 1848.06 293.061 1843.6 287.718C1833.16 275.17 1815.22 261.298 1801.6 255.22C1791.11 250.514 1775.48 245.956 1765.63 244.779C1758.23 243.897 1744.8 243.505 1737.35 244.044Z" fill="#D95D39"/>
<path d="M167.551 249.337C160.984 249.975 156.819 250.661 145.743 253.112C120.162 258.7 104.186 265.415 84.7311 278.699C63.5116 293.208 48.8588 309.334 39.6457 328.451C35.8233 336.343 34.4511 340.509 33.275 347.666C31.2658 359.969 33.8141 372.027 40.5769 382.174C45.1834 389.085 53.4164 399.134 57.8269 403.251C70.3234 414.918 92.67 428.054 109.969 433.887C117.81 436.534 132.316 440.21 138.882 441.24C151.869 443.298 166.277 443.347 183.135 441.534C193.818 440.357 195.484 440.112 210.186 437.318C216.655 436.093 224.202 434.671 226.995 434.23C229.739 433.74 232.14 433.201 232.287 433.103C232.483 432.907 229.004 425.309 228.367 424.525C228.269 424.427 223.76 425.211 216.802 426.584C191.221 431.534 177.646 433.201 162.748 433.201C147.507 433.201 136.432 431.583 120.75 427.123C110.263 424.133 101.834 420.751 92.2289 415.604C78.8994 408.496 69.5393 401.977 62.0904 394.575C57.4348 390.017 49.2019 379.821 49.2019 378.694C49.2019 378.253 49.888 375.949 50.7211 373.547C55.2296 360.753 63.8056 348.499 78.0173 334.578C86.9363 325.853 91.7879 322.275 103.843 315.511C118.202 307.521 128.346 303.452 146.772 298.453C155.446 296.051 172.794 293.992 183.919 293.992C190.878 293.992 214.302 295.806 219.007 296.688C220.918 297.031 222.584 297.178 222.731 297.031C222.927 296.835 223.662 294.825 224.398 292.521C226.995 284.63 235.816 266.395 241.501 257.229C244.196 252.867 244.539 252.033 243.853 251.788C243.069 251.494 238.364 251.102 220.477 249.876C211.313 249.239 173.088 248.847 167.551 249.337Z" fill="#D95D39"/>
</svg>
