<svg width="226" height="291" viewBox="0 0 226 291" fill="none" xmlns="http://www.w3.org/2000/svg">
<path d="M262.158 49.5804C260.361 48.9195 256.382 48.6081 253.519 48.8894C252.119 49.0493 248.299 49.7604 245.022 50.4838C236.034 52.503 234.763 52.4518 229.537 49.6736C221.303 45.3233 219.687 44.7443 217.357 45.2919C215.556 45.7288 214.903 46.3728 212.996 49.5512C211.539 51.9909 211.1 52.9967 209.187 58.3705C207.568 62.8818 206.724 64.885 205.901 66.2356C204.191 69.0424 203.681 69.3102 196.79 70.9284C189.763 72.5796 189.206 72.8767 187.496 75.6835C186.502 77.3635 186.321 77.8031 186.158 79.3532C185.819 82.6187 186.15 86.3508 187.403 93.1325C188.542 99.2945 188.655 102.72 187.764 104.752C187.075 106.358 185.786 107.049 181.353 108.197C176.262 109.522 174.734 110.414 173.493 112.784C172.184 115.313 172.033 117.652 172.719 124.841C173.079 128.764 172.694 132.58 171.291 139.017C169.618 146.707 169.576 147.202 170.525 151.918C171.523 156.837 171.152 157.826 167.055 161.32C165.635 162.51 164.34 163.543 164.204 163.576C164.089 163.622 164.105 163.169 164.253 162.593C165.018 159.674 164.659 156.938 163.309 155.305C162.227 154.039 161.531 153.615 158.122 152.32C154.545 150.922 153.968 150.396 153.387 147.786C153.045 146.304 153.072 144.787 153.609 138.488C154.662 126.543 154.394 122.706 152.44 120.734C150.195 118.527 148.586 118.936 138.831 124.162C137.321 124.978 135.603 125.755 135.039 125.874C133.472 126.164 132.68 125.421 129.949 121.066C127.226 116.746 126.413 115.99 123.649 115.348C120.572 114.602 118.363 114.616 115.013 115.411C111.867 116.157 110.238 116.93 109.132 118.223C108 119.559 108.449 120.151 113.691 124.328C121.211 130.327 123.457 133.055 122.351 134.869C121.734 135.882 119.931 136.752 115.491 138.243C107.003 141.058 104.71 142.208 103.541 144.128C102.924 145.141 102.892 145.382 103.162 146.27C103.577 147.68 104.419 148.483 107.164 150.155C109.655 151.672 113.887 153.469 118.866 155.084C128.917 158.4 130.786 159.133 131.953 160.163C133.47 161.521 132.335 162.768 125.71 167.037C119.308 171.18 119.294 171.346 125.483 173.351C137.603 177.261 145.158 180.302 150.89 183.533C155.295 186.042 156.724 187.26 158.525 190.006L159.658 191.71L156.791 191.236C151.002 190.285 145.435 190.539 138.981 192.105C131.644 193.886 126.586 196.534 119.626 202.305C110.151 210.162 103.923 214.065 97.236 216.299C94.3258 217.275 93.483 217.803 93.7757 218.416C94.0978 219.075 95.2434 219.57 98.1084 220.332C103.005 221.607 103.055 221.667 101.558 223.127C100.687 223.986 100.623 224.091 100.836 224.597C101.132 225.299 102.061 225.864 103.733 226.304C105.328 226.726 106.545 226.773 108.598 226.49C109.43 226.36 110.053 226.335 110.015 226.398C109.745 226.841 108.292 227.374 105.914 227.951C101.783 228.935 101.372 229.467 102.669 232.137C103.096 233.005 103.354 234.291 103.484 235.932C103.568 237.314 104.034 239.971 104.509 241.852C106.401 249.486 110.103 255.763 116.738 262.785C121.399 267.678 126.28 271.925 132.305 276.29C134.115 277.595 135.233 278.565 135.678 279.212L136.341 280.166L135.191 281.722C133.963 283.405 133.971 283.439 133.075 288.332L132.679 290.55L129.612 295.916L126.546 301.282L125.908 304.279C124.938 308.722 124.4 309.842 121.287 314.05C117.211 319.553 116.529 321.337 115.972 328.145C115.527 333.342 115.599 333.271 109.07 338.002C106.838 339.623 105.466 341.305 104.852 343.216C104.614 343.939 104.271 346.45 104.086 348.797C103.803 352.589 103.662 353.342 102.857 355.282C102.378 356.495 101.823 357.835 101.655 358.253C101.374 358.951 101.651 359.495 102.148 359.249C102.263 359.203 102.977 357.699 103.734 355.932C104.479 354.187 105.892 351.344 106.857 349.617C109.431 344.964 110.25 344.19 116.114 340.789C120.65 338.141 121.918 336.251 123.413 329.9C124.87 323.611 126.782 319.047 129.038 316.342C129.739 315.524 131.386 313.866 132.737 312.692C135.458 310.27 137.729 307.776 138.771 306.067C139.156 305.434 140.329 303.081 141.369 300.85C144.25 294.648 145.932 292.837 150.932 290.617L152.624 289.883L148.39 287.187C144.459 284.706 143.658 284.073 144.223 283.954C144.337 283.909 146.243 284.867 148.406 286.069C157.783 291.202 162.127 292.72 171.507 294.238C187.095 296.732 202.462 294.172 212.791 287.385C220.995 281.995 225.689 274.67 227.4 264.543C228.498 258.036 227.693 250.283 225.08 242.644C220.277 228.433 208.538 214.773 194.41 206.889L190.752 204.864L191.606 204.602C194.833 203.675 197.115 203.589 200.336 204.336C203.384 205.035 205.286 205.905 211.761 209.531C218.797 213.47 221.115 214.274 223.387 213.633C224.955 213.199 225.593 212.199 227.092 207.932C227.913 205.539 228.726 204.299 229.747 203.763C231.555 202.839 233.152 203.638 239.829 208.834C245.556 213.307 249.82 216.714 252.974 219.33C254.871 220.92 256.044 221.75 257.418 222.442C260.705 224.126 261.905 223.96 263.061 221.684C263.619 220.577 263.807 219.65 264.096 216.325C264.688 209.366 265.409 206.709 267.725 203.287C270.396 199.33 274.587 196.443 285.414 191.118C293.572 187.088 296.451 185.023 298.418 181.794C300.513 178.354 301.253 174.146 301.02 166.973C300.854 161.924 300.331 158.22 299.128 153.494C296.858 144.82 293.873 138.314 291.466 136.848C288.806 135.228 284.805 137.709 277.51 145.504C273.462 149.868 272.099 150.918 270.445 151.067C269.685 151.126 269.169 150.927 266.648 149.507C263.776 147.902 263.733 147.876 262.867 148.158C262.136 148.408 261.859 148.673 261.139 149.855C260.008 151.712 259.341 153.852 257.54 161.464C254.611 173.829 252.929 178.157 250.247 180.517C249.446 181.215 248.19 181.376 247.409 180.9C245.171 179.537 243.728 175.822 240.666 163.743C239.339 158.508 237.959 153.645 237.629 152.952C236.888 151.459 235.935 150.792 234.924 151.073C234.321 151.255 234.052 151.554 233.036 153.221C231.596 155.585 230.695 157.872 228.683 164.169C226.757 170.229 225.86 172.605 224.986 174.04C223.752 176.066 223.105 175.701 220.145 171.294C216.753 166.219 214.755 164.51 212.263 164.467C210.855 164.449 209.008 164.915 208.114 165.528C207.433 165.981 207.201 165.839 207.379 165.167C207.596 164.286 207.238 158.744 206.791 155.868C206.034 150.98 207.002 146.968 209.266 145.628C210.666 144.802 211.426 144.6 215.975 143.928C222.208 143.008 224.182 142.619 227.257 141.657C238.277 138.156 240.65 133.786 236.522 124.5C234.55 120.087 234.47 114.801 236.287 111.771C238.318 108.436 241.793 107.341 252.344 106.795C263.997 106.197 272.923 104.517 276.346 102.319C277.904 101.33 279.107 99.5453 279.257 98.0163C279.494 95.441 278.301 93.1228 274.108 87.9358C269.512 82.2712 265.805 76.0491 265.185 72.9804C264.717 70.6122 265.016 68.3636 266.477 63.3511C268.043 57.8816 268.077 55.3558 266.537 52.942C265.643 51.5583 263.892 50.2027 262.158 49.5804ZM264.783 53.3495C265.786 55.5519 265.656 57.382 264.001 63.3765C262.225 69.9041 262.125 72.1583 263.468 75.6091C264.397 78.0272 265.853 80.3896 269.214 85.0411C273.432 90.8514 274.465 92.4352 275.451 94.5697C276.497 96.7978 276.64 98.2738 275.932 99.4345C274.39 101.967 270.535 102.83 255.626 104.02C242.919 105.018 238.369 105.834 235.471 107.599C234.36 108.282 233.972 108.682 233.226 109.906C232.437 111.248 232.303 111.658 232.097 113.992C231.799 117.428 232.035 119.655 233.431 125.916C234.728 131.77 234.762 133.092 233.601 134.903C232.106 137.262 228.281 138.693 219.067 140.372C208.838 142.242 206.344 143.154 204.866 145.58C203.546 147.699 203.482 149.135 204.375 155.843C205.159 161.731 205.226 165.042 204.587 166.851C203.826 169.05 199.93 172.405 193.387 176.493C190.684 178.174 187.78 180.137 186.979 180.835C184.758 182.723 183.608 184.801 182.317 189.106C181.749 190.989 181.144 192.79 180.938 193.128C180.373 194.056 179.249 194.761 177.601 195.232L176.136 195.642L177.193 190.152C179.233 179.676 180.993 173.746 183.73 168.064C185.161 165.145 187.392 161.672 191.1 156.726C194.761 151.809 197.168 148.096 198.688 145.029C201.803 138.68 203.204 133.862 204.481 125.208C205.852 115.973 206.666 113.258 209.43 108.721C212.327 103.917 214.73 101.446 221.529 96.415C227.335 92.1105 229.285 90.1446 231.664 86.2405C233.309 83.5392 233.451 83.163 234.721 78.9884C235.861 75.1689 236.253 74.1926 237.638 71.6802C238.634 69.8561 239.88 67.9531 240.962 66.5577C242.377 64.7576 242.685 64.2511 242.62 63.8353C242.344 61.96 239.222 63.4728 236.241 66.8939C234.217 69.2196 232.235 72.7577 230.28 77.4404C229.487 79.3592 228.314 81.7119 227.402 83.2103C224.903 87.3595 223.16 88.8436 215.785 93.205C203.754 100.315 201.327 103.871 199.305 117.454C197.833 127.379 196.983 131.577 195.363 136.898C193.314 143.636 191.274 147.602 185.959 155.186C181.06 162.184 178.414 166.764 176.95 170.878C175.642 174.595 175.252 176.47 174.654 182.298C174.107 187.52 173.685 189.924 172.741 192.851C171.889 195.485 171.624 195.874 171.148 195.324C168.632 192.517 163.363 184.678 161.878 181.603C160.468 178.69 159.819 175.575 160.048 172.966L160.24 170.797L161.86 168.138C163.449 165.576 163.547 165.462 165.938 163.533C167.272 162.436 168.99 160.994 169.711 160.334C172.176 158.045 172.561 156.225 171.563 151.306C171.256 149.672 171.015 147.644 171.041 146.793C171.068 145.941 171.627 142.838 172.261 139.897C173.38 134.734 173.998 130.915 174.059 128.724C174.071 127.516 174.033 126.914 173.67 122.758C173.309 118.979 173.38 116.534 173.905 114.626C174.704 111.698 176.288 110.667 181.952 109.256C186.598 108.093 187.925 107.339 188.845 105.353C189.985 102.865 189.906 100.096 188.494 92.2923C186.333 80.4437 186.775 76.3439 190.424 73.9659C191.548 73.2616 194.41 72.459 200.2 71.2698C204.22 70.4201 204.881 69.9542 206.993 66.4381C208.215 64.4333 208.885 63.0477 209.465 61.2885C211.786 54.4848 212.29 53.2295 213.603 50.7887C216.825 44.8814 218.161 44.827 228.05 50.2143C234.737 53.8249 235.673 53.9034 245.557 51.6488C255.169 49.4602 259.455 49.4092 262.909 51.4844C264.083 52.1706 264.391 52.4737 264.783 53.3495ZM292.277 139.367C294.869 143 298.075 152.563 299.222 159.946C300.6 168.945 299.379 177.46 296.145 181.248C294.056 183.679 292.459 184.732 285.131 188.399C272.129 194.917 268.611 197.461 265.5 202.568C263.289 206.198 262.426 209.231 261.722 215.66C261.169 220.56 261.094 220.92 260.36 221.08C259.566 221.291 254.332 217.813 250.019 214.202C240.895 206.561 234.811 202.103 232.388 201.234C228.573 199.894 226.514 201.562 224.908 207.383C224.491 208.923 223.994 210.357 223.797 210.584C222.934 211.621 218.996 210.293 212.449 206.738C209.944 205.386 206.952 203.882 205.781 203.429C200.013 201.159 193.935 201.016 190.251 203.025L188.741 203.841L186.898 202.921C185.876 202.414 185.027 201.955 185.01 201.887C184.973 201.662 190.694 198.781 193.057 197.848C195.79 196.735 200.94 195.503 204.355 195.124C211.903 194.282 226.595 194.349 237.352 195.318C248.605 196.328 252.788 195.924 258.12 193.443C263.278 191.058 265.826 188.444 271.447 179.976C274.838 174.837 276.548 172.696 278.311 171.369C279.815 170.23 282.014 169.139 284.355 168.337C285.532 167.926 286.578 167.492 286.681 167.323C287.053 166.711 286.349 166.109 284.918 165.845C281.336 165.167 276.722 166.755 272.401 170.141C270.36 171.733 267.802 174.602 263.561 180.091C254.353 191.929 252.596 192.769 243.196 189.763C237.578 187.961 235.968 187.848 229.695 188.975C226.623 189.505 224.334 189.413 217.227 188.44C209.396 187.373 204.3 188.088 198.803 191.076C197.71 191.683 194.701 193.439 192.143 194.976C189.585 196.514 186.203 198.36 184.655 199.096L181.849 200.424L180.124 199.692C179.181 199.291 177.833 198.701 177.148 198.4L175.91 197.819L177.994 197.439C180.404 196.998 182.06 196.039 182.947 194.583C183.268 194.055 183.882 192.288 184.308 190.637C184.955 188.196 185.33 187.296 186.247 185.743C188.168 182.543 189.915 181.148 196.761 177.275C202.943 173.778 205.493 171.541 206.658 168.489C207.261 166.976 207.325 166.87 208.188 166.499C210.62 165.405 212.707 165.258 214.079 166.094C215.451 166.93 216.987 168.734 219.27 172.208C221.709 175.95 222.686 176.864 223.96 176.627C225.853 176.276 226.995 174.02 229.808 165.173C232.41 157.006 234.123 152.958 235.246 152.397C236.194 151.933 236.956 154.105 239.55 164.625C241.792 173.775 242.793 176.931 244.294 179.408C245.909 182.127 247.602 183.101 249.578 182.424C250.776 182.025 251.368 181.576 252.53 180.143C254.662 177.593 256.257 172.98 258.864 161.952C261.144 152.317 262.111 149.637 263.312 149.471C263.673 149.402 264.505 149.793 266.08 150.724C267.875 151.817 268.56 152.118 269.559 152.235C272.194 152.567 273.531 151.703 278.415 146.49C280.425 144.329 282.525 142.165 283.054 141.677C284.892 139.99 287.783 138.048 288.93 137.733C290.28 137.37 291.176 137.8 292.277 139.367ZM151.276 123.121C152.015 124.757 152.032 128.674 151.375 135.883C151.063 139.484 150.766 143.44 150.741 144.669C150.697 147.449 151.245 149.924 152.194 151.312C153.164 152.714 155.516 154.175 158.561 155.307C159.884 155.795 161.025 156.345 161.333 156.648C162.171 157.506 162.389 159.143 161.945 161.535C161.734 162.737 161.533 164.351 161.557 165.118C161.559 166.161 161.385 166.778 160.922 167.538C159.457 169.944 158.787 173.182 159.176 175.965C159.37 177.356 160.171 179.985 160.836 181.461C161.325 182.511 154.897 173.676 153.811 171.799C152.444 169.434 151.895 167.912 150.38 162.273C147.491 151.573 145.309 148.074 138.286 142.782C135.092 140.374 133.141 137.97 131.456 134.368C130.344 132.013 129.291 132.268 129.146 134.929C128.965 138.696 130.87 141.65 137.091 147.262C140.26 150.09 140.938 151.4 142.592 157.761C144.157 163.604 145.21 166.531 146.829 169.196C147.403 170.153 149.922 173.337 152.438 176.287C155.134 179.463 157.733 182.753 158.744 184.324C160.465 186.964 163.599 192.606 163.458 192.838C163.419 192.901 162.67 192.705 161.752 192.406C160.153 191.895 160.132 191.882 159.794 191.011C159.089 189.222 157.538 187.206 155.578 185.578C150.248 181.116 141.697 177.383 122.877 171.213C122.564 171.11 122.378 170.939 122.456 170.812C122.533 170.685 124.376 169.465 126.569 168.052C132.588 164.253 134.205 162.692 133.987 160.91C133.77 159.128 131.414 157.722 125.449 155.824C115.334 152.614 110.572 150.784 107.532 148.932C103.584 146.527 103.26 144.97 106.332 143.109C108.201 141.99 109.828 141.361 115.109 139.63C120.424 137.891 122.61 136.821 123.368 135.576C124.988 132.917 123.084 130.339 114.258 123.256C111.576 121.101 109.987 119.67 109.913 119.364C109.702 118.57 112.289 117.079 114.866 116.508C117.77 115.875 122.249 116.173 124.12 117.14C125.375 117.788 125.497 117.92 127.692 121.398C130.171 125.311 132.019 127.362 133.664 127.988C135.106 128.519 137.137 127.847 141.452 125.325C145.929 122.728 147.677 121.854 148.979 121.664C150.193 121.477 150.7 121.786 151.276 123.121ZM165.025 188.411C165.66 189.318 167.017 191.129 168.039 192.445C170.044 194.998 170.392 195.615 169.611 195.139C169.336 194.972 168.465 194.644 167.632 194.397L166.172 193.941L165.684 192.082C165.415 191.05 164.854 189.406 164.428 188.394C164.01 187.416 163.731 186.639 163.795 186.677C163.858 186.716 164.425 187.495 165.025 188.411ZM207.107 234.039C212.883 240.191 215.188 249.379 213.189 258.172C211.379 266.039 204.845 274.674 196.945 279.613C193.105 282.019 187.002 284.436 186.136 283.908C184.806 283.098 185.214 282.334 187.74 281.037C192.624 278.485 197.863 274.588 201.326 270.853C203.58 268.435 206.748 263.71 207.966 260.951C210.186 255.88 210.948 250.21 210.048 245.177C209.704 243.318 207.604 238.451 205.526 234.639C203.473 230.929 204 230.729 207.107 234.039ZM116.29 213.294C116.881 214.319 116.219 216.404 114.997 217.222C114.456 217.587 113.4 217.61 112.83 217.263C112.323 216.954 111.94 215.303 112.199 214.592C112.549 213.59 113.657 212.674 114.599 212.553C115.494 212.462 115.87 212.604 116.29 213.294Z" fill="#001E19"/>
<path d="M113.652 214.347C112.566 214.611 112.576 216.209 113.636 216.275C114.509 216.315 115.01 214.827 114.292 214.39C114.166 214.312 113.89 214.289 113.652 214.347Z" fill="#001E19"/>
</svg>
