<svg width="18" height="16" viewBox="0 0 18 16" fill="none" xmlns="http://www.w3.org/2000/svg">
<path fill-rule="evenodd" clip-rule="evenodd" d="M0.619033 7.98022C0.619034 7.74152 0.713854 7.5126 0.882637 7.34382C1.05142 7.17504 1.28034 7.08022 1.51903 7.08022L14.2846 7.08022L9.29503 2.32822C9.13136 2.16092 9.03929 1.93644 9.03837 1.70239C9.03744 1.46834 9.12773 1.24314 9.29007 1.07455C9.45242 0.905961 9.67406 0.807245 9.90797 0.799342C10.1419 0.791438 10.3697 0.874969 10.543 1.03222L17.143 7.33222C17.2301 7.41617 17.2994 7.51683 17.3467 7.62816C17.3941 7.7395 17.4185 7.85924 17.4185 7.98022C17.4185 8.10119 17.3941 8.22093 17.3467 8.33227C17.2994 8.44361 17.2301 8.54426 17.143 8.62822L10.543 14.9282C10.4588 15.0143 10.3581 15.0826 10.247 15.1291C10.1359 15.1756 10.0166 15.1993 9.89614 15.1988C9.7757 15.1983 9.65657 15.1737 9.54582 15.1263C9.43508 15.079 9.33496 15.0099 9.25142 14.9231C9.16787 14.8363 9.10259 14.7337 9.05944 14.6212C9.01629 14.5088 8.99615 14.3888 9.00022 14.2684C9.00429 14.1481 9.03247 14.0297 9.08312 13.9204C9.13376 13.8111 9.20582 13.7131 9.29503 13.6322L14.2846 8.88022L1.51903 8.88022C1.28034 8.88022 1.05142 8.78539 0.882637 8.61661C0.713854 8.44783 0.619033 8.21891 0.619033 7.98022Z" fill="white"/>
</svg>
