<svg xmlns="http://www.w3.org/2000/svg" width="620" height="713" fill="none" xmlns:v="https://vecta.io/nano"><path d="M42.036 485.272c-8.473.769-12.634 1.448-17.597 2.876-5.214 1.498-9.044 3.372-12.975 6.349-1.725 1.306-2.817 2.43-4.532 4.637-3.94 5.074-4.793 6.512-5.455 9.205-.531 2.127-.692 3.524-.692 5.873v2.026l.521 1.974 1.324 5.094c1.223 4.779 2.527 8.182 4.512 11.797 1.223 2.207 1.644 2.784 3.008 4.212 1.765 1.823 2.487 2.38 4.151 3.2 1.805.891 2.677 1.225 4.472 1.732l3.068.901c.882.273 2.236.628 3.008.8l4.201.921c3.981.871 7.941 1.914 10.678 2.785 3.55 1.144 8.202 2.734 9.195 3.149 1.905.79 5.795 2.957 7.4 4.112a65.03 65.03 0 0 0 1.805 1.174c2.868 1.803 5.475 4.223 9.776 9.083 2.707 3.058 4.302 5.236 5.435 7.403.842 1.61 1.785 3.979 2.296 5.761.752 2.613.762 3.433.03 3.251-.311-.081-.521-.537-1.283-2.775-.551-1.6-1.604-4.03-2.366-5.468-1.524-2.845-4.532-6.582-8.894-11.027-2.196-2.238-3.951-3.757-5.545-4.8l-1.785-1.165c-.401-.253-.752-.445-.782-.415s.221.77.541 1.651c.331.891.782 2.228 1.023 2.977.231.749.802 2.44 1.273 3.747.963 2.693 1.173 3.422 1.725 6.126l.902 4.061c.281 1.174.622 2.724.752 3.442l2.066 10.066c.642 2.268.983 3.726 1.755 7.595 1.504 7.523 3.108 14.47 4.311 18.662 2.918 10.177 5.164 15.311 9.706 22.136 3.74 5.63 7.029 9.397 12.363 14.197 2.246 2.005 2.707 2.349 4.713 3.524l3.75 2.238c2.096 1.276 4.923 2.744 8.172 4.232l4.011 1.894c1.875.911 5.314 2.471 7.219 3.261.611.253 2.326.992 3.81 1.65 3.91 1.722 4.382 1.884 11.581 3.99 4.963 1.448 6.397 1.792 10.678 2.552 1.434.253 3.78.709 5.214 1.012 3.74.8 5.344 1.104 7.671 1.459a168.53 168.53 0 0 1 5.113.911c4.161.82 5.525.992 9.676 1.215l4.211.253 4.011.253c2.908.162 13.696.324 18.188.274 4.432-.051 4.482-.051 11.09-.719l7.37-.669 12.984-.86c9.596-.537 17.156-1.347 21.929-2.339 3.499-.719 8.703-2.097 11.861-3.15 6.778-2.238 15.632-6.146 21.457-9.478 3.75-2.136 10.388-6.511 12.875-8.465 3.008-2.37 7.6-6.137 8.011-6.582 2.397-2.542 6.497-7.858 8.934-11.554 3.389-5.144 7.169-12.243 8.974-16.84 1.404-3.575 3.83-11.098 4.963-15.362.542-2.055 1.885-8.516 2.005-9.67.071-.618.321-2.319.562-3.797l.501-3.393c.101-1.174.341-2.916.702-5.113l.501-3.393c.091-.729.341-2.227.552-3.351a41.5 41.5 0 0 0 .541-3.848c.091-.993.271-2.471.401-3.281l.412-2.684c.1-.668.421-2.197.722-3.392l.731-2.987c.191-.841 1.184-3.777 1.454-4.304.091-.172.131-.304.091-.304-.031 0-.973.446-2.096 1.003-2.848 1.397-3.75 2.025-5.745 4-2.337 2.309-4.192 4.648-5.655 7.139-.722 1.225-3.389 6.45-3.389 6.653 0 .121-.923 2.41-1.033 2.541-.121.162-.592.172-.752.01-.201-.202-.141-.749.23-2.116.422-1.549.642-2.086 2.046-5.002 1.915-3.97 3.68-6.592 6.607-9.802 2.016-2.218 3.109-3.099 5.325-4.324 3.048-1.681 6.677-3.099 9.335-3.636a30.51 30.51 0 0 0 1.353-.364c1.945-.598 5.675-1.357 9.155-1.874 2.566-.384 7.951-1.478 10.498-2.126 1.945-.506 3.609-1.013 7.951-2.44 2.877-.942 4.592-1.773 6.337-3.038 1.123-.821 2.847-2.501 3.77-3.686.26-.334.681-.841.952-1.114.672-.709 1.825-2.613 2.497-4.101.531-1.185 1.935-5.286 2.386-6.987.231-.881.582-2.714.682-3.595.04-.334.251-1.104.461-1.722.732-2.075.802-2.45.853-5.265.06-2.673-.021-3.646-.482-6.127-.311-1.63-.962-4.101-1.363-5.113-.853-2.177-2.467-4.881-4.302-7.19-1.073-1.347-3.269-3.635-4.502-4.688-2.998-2.542-7.43-4.567-12.453-5.681-3.981-.881-5.846-1.023-15.12-1.124-7.29-.081-8.854-.152-11.681-.506l-1.635-.203c-.12 0 .752 1.225.983 1.367.24.162 2.677.517 4.562.668.742.051 4.241.142 7.771.193 9.365.132 12.222.395 16.594 1.58 3.118.84 6.417 2.278 8.613 3.766 2.908 1.965 6.447 5.965 8.513 9.62 1.032 1.813 1.554 3.16 2.115 5.408.842 3.341.963 4.283.963 7.27 0 2.096-.04 2.745-.181 3.433-.16.739-1.273 4.051-1.714 5.094-.251.597-1.113 2.025-2.196 3.675-2.046 3.079-4.903 5.499-8.232 6.967-1.514.679-7.58 2.562-10.488 3.261l-9.876 2.288-4.994 1.114-4.512.962c-1.063.193-3.278.699-4.923 1.114-3.539.891-3.88.972-6.176 1.367-.963.162-2.407.456-3.209.648l-2.346.517c-.993.192-.662-.021-3.479 2.319-8.523 7.078-20.385 14.004-33.329 19.462-18.81 7.939-40.157 13.448-63.67 16.425-4.362.557-8.372.952-14.94 1.478-14.639 1.165-31.163 1.094-46.554-.212-19.983-1.681-38.532-5.246-55.578-10.663-18.69-5.944-35.053-14.268-46.454-23.645-2.918-2.4-5.505-4.8-7.781-7.2-.963-1.012-2.858-3.108-2.958-3.26-.05-.091-4.301-1.094-5.866-1.377a325.79 325.79 0 0 0-14.589-2.289c-6.628-.851-7.871-1.053-10.468-1.691-3.67-.911-7.31-2.461-11.07-4.729-1.765-1.073-2.527-1.63-4.271-3.159-2.477-2.188-4.723-5.256-5.725-7.858a45.65 45.65 0 0 1-1.193-4.223c-.361-1.762.17-5.822 1.023-7.807.491-1.144 1.384-2.633 2.416-4l2.146-2.846c1.554-2.055 2.697-3.22 4.442-4.526 3.489-2.612 7.129-4.455 11.37-5.752 4.572-1.397 8.082-2.075 14.288-2.774 5.003-.567 5.585-.598 10.428-.618 6.237-.02 5.555.041 6.086-.537.832-.891.953-.83-1.695-.81a582.7 582.7 0 0 1-6.497-.04l-4.612-.01zM309.599 614.34c.461.263.762.679 1.063 1.468.601 1.621.632 3.069.1 4.679-.341 1.022-1.283 2.896-1.935 3.878-1.574 2.339-6.878 7.818-10.508 10.855-2.296 1.914-4.542 3.504-8.864 6.279-3.349 2.136-5.986 3.726-8.583 5.164l-4.712 2.613c-9.896 5.498-21.828 10.348-31.334 12.738-3.87.972-10.718 2.299-15.04 2.917-7.861 1.134-14.318 1.691-20.655 1.792-7.861.132-18.86-.527-19.401-1.154-.081-.092-.532-.324-1.003-.517-1.614-.658-2.597-1.428-3.229-2.542-.982-1.691-.932-3.908.101-5.528.481-.74 1.664-1.884 2.306-2.208 1.694-.861 5.194-1.559 10.046-1.985 1.996-.182 3.59-.222 10.428-.303 9.225-.102 12.022-.254 16.895-.922 7.039-.962 16.965-3.2 23.162-5.225 1.624-.527 8.252-2.927 10.378-3.747 3.028-1.174 7.8-3.362 12.333-5.65 2.596-1.306 3.048-1.57 6.928-4.01 3.008-1.894 4.291-2.775 7.009-4.8l9.174-6.673c2.898-2.086 6.939-4.78 8.022-5.347 1.052-.536 3.338-1.428 4.562-1.762 1.153-.314 2.216-.324 2.757-.01zm46.656-124.269c-2.046.142-6.668 1.094-8.954 1.853-1.153.385-2.587 1.023-2.928 1.296-.08.061.09.527.612 1.681l2.166 5.357c.24.688.481 1.245.541 1.245s.521-.111 1.013-.253c1.293-.364 3.9-.83 5.414-.982 2.006-.192 6.447-.162 7.971.061 2.487.344 5.274 1.103 7.119 1.924 3.259 1.468 6.528 4.425 8.523 7.696 1.173 1.954 1.915 3.777 2.557 6.349.411 1.66.521 2.876.361 3.888-.06.425-.07.841-.02 1.013.1.354-.231 1.043-1.213 2.491-.893 1.337-1.635 2.086-3.109 3.139-2.286 1.651-3.058 2.056-6.547 3.463-3.69 1.479-5.675 2.127-7.47 2.441-1.705.293-4.432.486-7.119.486-2.808 0-4.251-.142-8.172-.78a50.77 50.77 0 0 0-2.687-.355c-.652-.05-1.404-.151-1.684-.212s-.542-.071-.592-.031c-.04.051-.281.405-.541.8-.371.578-.432.719-.311.79.23.122 1.484.345 2.707.476.612.061 1.755.223 2.557.355 4.522.749 5.123.81 8.723.8 6.788 0 8.864-.456 16.193-3.585 3.229-1.377 4.983-2.491 7.44-4.719 2.186-1.985 3.89-5.134 4.703-8.708.591-2.623.381-7.109-.472-10.116-.18-.649-.862-2.319-1.293-3.19-.542-1.074-2.838-4.547-3.75-5.651-2.136-2.592-5.806-5.458-8.593-6.713-2.146-.972-5.344-1.914-7.36-2.157-1.514-.182-4.261-.263-5.785-.152zm-321.187 1.091c-1.343.131-2.196.273-4.462.779-5.234 1.155-8.503 2.542-12.483 5.286-4.342 2.998-7.34 6.329-9.225 10.278-.782 1.631-1.063 2.491-1.303 3.97-.411 2.542.11 5.033 1.494 7.129.942 1.427 2.627 3.503 3.529 4.354 2.557 2.41 7.129 5.124 10.668 6.329 1.604.547 4.572 1.306 5.916 1.519 2.657.425 5.605.435 9.054.061 2.186-.244 2.527-.294 5.535-.871l3.439-.638c.562-.102 1.053-.213 1.083-.233.04-.041-.672-1.61-.802-1.772-.02-.021-.943.141-2.366.425-5.234 1.023-8.011 1.367-11.059 1.367-3.118 0-5.384-.334-8.593-1.256a27.6 27.6 0 0 1-5.835-2.379c-2.727-1.469-4.642-2.815-6.166-4.344-.953-.942-2.637-3.048-2.637-3.281 0-.091.14-.567.311-1.064.922-2.642 2.677-5.174 5.585-8.05 1.825-1.802 2.818-2.542 5.284-3.939 2.938-1.65 5.013-2.491 8.783-3.524 1.775-.496 5.324-.921 7.6-.921 1.424 0 6.216.374 7.179.557.391.071.732.101.762.071.04-.041.191-.456.341-.932.532-1.63 2.336-5.397 3.499-7.291.551-.901.622-1.073.481-1.124-.16-.061-1.123-.142-4.783-.395-1.875-.132-9.696-.213-10.829-.111z" fill="#000"/><path d="M197.78 598.3c-41.575 0-78.973-10.226-105.812-26.497-26.931-16.326-42.494-38.197-42.494-61.44s15.564-45.115 42.494-61.441c26.839-16.27 64.237-26.496 105.812-26.496s78.973 10.226 105.812 26.496c26.931 16.326 42.494 38.198 42.494 61.441s-15.563 45.114-42.494 61.44C276.753 588.074 239.355 598.3 197.78 598.3z" fill="#fffcf1" stroke="#000" stroke-width="10"/><path d="M382.663 418.008c-4.039.72-5.685 1.236-7.665 2.395-1.726 1.008-3.333 2.688-3.874 4.073-.357.888-.397 1.151-.244 2.136.312 2.092 1.327 3.278 3.566 4.195 1.137.467 1.468.468 9.276-.089 3.244-.229 3.419-.22 4.446.13 2.248.761 4.061 2.221 5.89 4.726 1.028 1.43 4.301 7.102 7.48 13.005l3.962 7.292c6.157 11.225 13.098 25.318 17.365 35.277 3.459 8.048 8.433 20.723 15.039 38.263l10.824 27.588c7.858 19.29 11.252 29.57 13.932 42.323 1.765 8.305 3.252 15.893 3.526 17.934.732 5.344.228 11.045-1.516 17.033-.208.724-.38 1.481-.369 1.689.047.973 1.092.974 2.96.012 1.749-.904 1.961-.845 1.889.534-.03.802.02 1.113.238 1.294.329.315.346.314 1.49-.142 1.452-.577 2.657-1.558 4.238-3.412 1.316-1.562 1.383-1.617 1.054-.87-.187.445-.649 1.32-1.034 1.983-.611 1.04-1.171 1.694-3.148 3.637-.332.33-.54.705-.527.966.024.486.712 1.027 1.484 1.146.369.069 1.145.623 2.291 1.629.964.84 2.087 1.726 2.483 1.985.413.258 2.253 1.578 4.06 2.917 5.312 3.936 6.714 4.825 10.586 6.742 5.817 2.883 9.128 4.009 14.625 4.976 13.506 2.385 27.631-.362 36.253-7.036 1.661-1.282 5.976-5.603 6.788-6.809 1.835-2.702 2.552-5.836 2.334-10.265-.131-2.675-.562-5.074-1.461-8.147-2.303-7.913-6.308-15.012-11.63-20.584-7.653-7.999-16.451-12.739-29.792-16.02-5.27-1.309-10.292-2.159-21.035-3.6-5.363-.712-7.774-1.238-9.855-2.128-5.832-2.483-8.03-6.815-15.419-30.393l-5.625-17.065c-2.798-7.715-7.177-18.557-10.24-25.267-8.841-19.449-26.075-53.844-34.219-68.314-3.549-6.32-5.099-8.821-7.508-12.151-5.303-7.296-9.673-11.208-14.256-12.707-2.319-.774-6.763-1.218-8.662-.881zm4.589.907c4.836.616 8.507 2.699 12.788 7.277 5.972 6.393 11.057 14.919 23.653 39.582 10.574 20.723 20.59 41.404 25.051 51.789 3.616 8.406 7.245 17.787 9.728 25.117.957 2.826 1.492 4.488 4.563 14.227 6.454 20.473 8.715 25.045 13.914 28.098 2.276 1.334 4.883 1.937 13.646 3.11 15.143 2.043 23.723 4.095 31.482 7.527 13.846 6.112 23.595 17.09 27.865 31.384.979 3.278 1.426 5.658 1.559 8.368.277 5.645-1.168 9.564-4.521 12.183-2.431 1.913-6.377 3.116-9.624 2.927l-1.135-.066-.048-.973c-.196-3.647-4.575-11.284-9.998-17.478-6.547-7.462-17.402-15.792-26.614-20.441-7.247-3.632-16.304-6.183-21.15-5.945l-.903.044-1.676-2.582c-2.353-3.593-4.276-6.963-5.312-9.263-2.954-6.628-7.813-19.448-17.515-46.151l-3.421-9.408-3.616-9.835c-11.231-30.562-22.176-55.272-33.751-76.172-7.354-13.255-11.394-18.959-17.225-24.245-2.132-1.932-4.129-3.245-5.38-3.549-1.832-.45-4.513-.075-10.132 1.437-2.166.576-4.649.715-5.679.296-.727-.278-.765-.328-.801-1.058-.046-.955.624-2.189 1.629-3.005 1.223-.982 4.008-2.407 5.403-2.737 1.53-.388 5.748-.647 7.22-.458zm96.876 188.234c6.668 1.396 13.347 4.098 19.895 8.043 7.301 4.378 14.295 9.955 19.839 15.777 5.709 6.005 10.419 13.644 11.54 18.743l.136.655-.926-.077c-1.365-.124-5.26-1.1-7.28-1.819-15.527-5.594-33.917-20.954-47.545-39.665-.988-1.344-1.793-2.488-1.796-2.541-.008-.173 3.498.316 6.137.884zm-11.673 15.458c.788.449 1.439 1.653 1.34 2.477-.106.666-.84 1.329-1.535 1.363-.903.045-1.867-1.144-1.928-2.395-.038-.782.151-1.174.709-1.515.49-.302.734-.297 1.414.07zm-30.321-34.298c.51.541-.11 1.323-.888 1.096-.416-.121-.579-.777-.261-1.057s.876-.314 1.149-.039z" fill="#000"/><g fill="#f0ead4"><ellipse cx="98" cy="520.343" rx="28.128" ry="19.273"/><ellipse cx="98" cy="520.343" rx="28.128" ry="19.273"/><ellipse cx="235.512" cy="573.476" rx="28.128" ry="19.273"/><ellipse cx="235.512" cy="573.476" rx="28.128" ry="19.273"/><ellipse cx="287.601" cy="517.222" rx="28.128" ry="19.273"/><ellipse cx="287.601" cy="517.222" rx="28.128" ry="19.273"/><ellipse cx="264.682" cy="489.089" rx="28.128" ry="19.273"/><ellipse cx="264.682" cy="489.089" rx="28.128" ry="19.273"/></g><path d="M184.528 322.045c5.425.555 10.412 2.453 14.261 5.424 1.448 1.115 4.732 4.364 5.729 5.664 1.016 1.319 1.861 2.62 2.305 3.526l.201.413.942-.968c1.6-1.64 3.017-2.712 4.659-3.526a12.68 12.68 0 0 1 4.075-1.269c1.027-.142 3.162-.093 4.196.092 3.247.586 6.197 2.127 8.447 4.413 1.521 1.541 2.5 3.057 3.339 5.178.906 2.274 1.356 4.123 1.514 6.237.207 2.681-.462 6.084-2.025 10.355l-.298.838c0 .019.146-.006.322-.055.183-.05.651-.142 1.053-.21 3.995-.696 7.638.333 10.484 2.946 1.375 1.27 2.646 3.267 3.424 5.412.706 1.935.998 4.074.937 6.866-.043 1.72-.134 2.644-.408 4.006-.322 1.615-.675 2.669-1.362 4.068-.535 1.098-1.04 1.923-1.818 2.971-.986 1.344-1.509 1.911-5.103 5.566l-3.454 3.519.991 1.011c.541.561 1.186 1.288 1.429 1.615 2.105 2.848 3.096 6.244 2.816 9.634-.14 1.658-.48 2.761-1.478 4.746-.626 1.257-2.195 2.81-3.849 3.827-1.101.678-2.409 1.097-4.197 1.356-.961.136-3.278.142-3.862.006-.218-.049-.401-.086-.413-.074-.012.006.079.302.201.654.249.721.462 1.553.62 2.397.085.463.103.906.103 2.096 0 1.633-.054 2.071-.419 3.186-.578 1.763-1.819 3.347-3.71 4.716-.852.622-1.8.973-3.284 1.22-.998.166-2.177.166-3.053-.006-.797-.154-2.329-.66-2.907-.949-.225-.118-.426-.204-.438-.198-.006.013-.073.604-.14 1.313-.383 4.105-.474 6.429-.286 7.156.14.536.56 1.412 1.059 2.207.231.369.814 1.343 1.289 2.157 1.417 2.404 2.007 3.26 3.533 5.153 1.63 2.009 1.983 2.668 1.667 3.131-.171.24-.444.314-1.211.314-.65 0-1.204-.049-3.32-.277-1.381-.154-2.323-.093-2.852.185-.396.209-.463.721-.183 1.43.201.499.195.671-.018.869-.189.172-.462.24-1.229.32-1.18.111-2.402.142-3.101.068-1.211-.123-2.384-.16-2.494-.068-.085.074-.085.093.012.203.232.266 1.265.648 2.543.937.906.204 2.718.463 3.284.463.523 0 .699.098.699.394 0 .24-.158.493-.718 1.14-.742.851-1.167 1.535-1.423 2.287-.115.345-.164.721-.322 2.65-.049.592-.17 1.812-.268 2.712-.346 3.15-.517 5.178-.614 7.181-.061 1.307-.182 2.49-.316 3.106-.134.61-.426.906-.998.993a5.94 5.94 0 0 0-.887.24c-1.034.364-1.953.536-3.881.74-1.94.203-3.6.277-6.081.283-5.036 0-9.408-.585-11.987-1.609-1.374-.542-2.506-1.214-3.053-1.799-.334-.364-.401-.567-.261-.783.085-.13.097-.395.097-1.861 0-2.694.188-4.827.73-8.266.553-3.488.59-3.655 1.088-4.924.542-1.387 1.156-2.626 1.819-3.655.839-1.313 2.767-3.655 4.427-5.375.712-.734 1.375-1.449 1.478-1.596.182-.247.249-.567.134-.635-.128-.08-.487.068-.973.4-1.612 1.097-3.759 3.298-5.419 5.56-.584.795-.754.937-.967.801-.146-.098-.103-.635.146-2.052.231-1.325.31-1.985.76-6.287l.268-2.62.584-6.089c.042-.438.06-.802.048-.82-.018-.012-.273.16-.571.382-1.381 1.048-4.933 3.23-6.575 4.031-1.66.814-3.892 1.479-5.917 1.769-.955.136-3.418.148-4.409.031-3.905-.481-8.004-2.009-11.069-4.13-1.666-1.152-3.332-2.767-4.214-4.099-1.235-1.842-2.159-4.32-2.634-7.038-.206-1.159-.206-3.433-.006-4.869.335-2.367.602-3.224 1.8-5.733a32.04 32.04 0 0 1 2.245-4.006l.638-.986-2.56-.037c-4.16-.068-6.435-.314-9.226-1.017-8.204-2.046-14.042-7.298-15.289-13.739-.456-2.373-.493-3.987-.122-6.194.45-2.724 1.363-4.955 2.828-6.94 1.545-2.096 3.655-4.031 5.863-5.393 1.058-.654 4.871-2.552 6.44-3.199.414-.179.487-.099-.687-.808-1.533-.924-2.725-1.879-4.117-3.285-2.913-2.958-4.792-6.416-5.553-10.237-.346-1.732-.438-4.081-.225-5.72.42-3.255 1.648-6.201 3.54-8.487 1.046-1.264 3.46-3.372 4.816-4.204 2.573-1.578 5.991-2.385 9.33-2.2 3.788.203 6.714 1.46 10.764 4.628l.797.605c.012 0-.012-.272-.055-.605-.335-2.57-.219-5.066.334-7.229 1.308-5.098 4.756-9.314 9.585-11.705 2.013-.998 3.898-1.559 6.307-1.886.875-.117 4.427-.173 5.309-.08zm-5.2.573c-2.53.327-4.427.906-6.525 1.991-4.294 2.225-7.469 6.028-8.819 10.558-.571 1.917-.803 4.105-.657 6.256a48.95 48.95 0 0 0 .53 4.345c.231 1.307.243 1.467.115 1.517-.17.067-.559-.167-1.551-.943-3.168-2.472-5.382-3.785-8.119-4.826-3.326-1.264-6.47-1.603-9.384-1.011-4.032.813-7.589 3.827-9.39 7.938-2.645 6.041-1.587 13.129 2.78 18.676 1.326 1.683 3.448 3.618 4.987 4.549.742.45 4.342 2.212 5.06 2.477 1.854.697 4.682 1.289 7.34 1.547 1.046.099 3.162.118 4.294.031.474-.031.723-.031.778.019.043.031.055.086.031.111-.073.068-.931.228-1.612.302-1.083.117-5.674.043-7.651-.124-1.721-.141-3.77-.499-5.066-.875l-.663-.191-.553.167c-2.67.813-5.942 2.422-8.295 4.086-2.153 1.516-3.85 3.23-5.085 5.134-.833 1.295-1.642 3.193-1.976 4.654-.973 4.265.006 8.512 2.773 12.049.572.734 1.867 2.041 2.627 2.657 3.972 3.217 8.916 5.011 15.174 5.486.499.037 2.226.086 3.831.117 3.181.049 3.351.067 3.619.413.298.388.109.893-.955 2.613-2.305 3.704-3.393 6.188-3.996 9.091-.419 2.053-.48 4.29-.158 5.874.353 1.707 1.363 4.013 2.342 5.332 1.478 2.003 3.478 3.624 6.173 4.986 4.536 2.305 9.426 3.174 13.537 2.41 3.114-.573 5.978-2.065 8.873-4.604.858-.752 3.059-3.014 4.075-4.192 1.502-1.738 2.068-2.607 3.205-4.9.517-1.047.839-1.781.979-2.249.122-.376.329-1.067.468-1.523.292-.955.408-1.214.499-1.121.073.074.012.4-.359 1.892-.346 1.38-.584 2.021-1.392 3.679-.925 1.893-1.503 2.854-2.524 4.216l-.469.629.341.512c.432.641 1.186 1.405 2.086 2.114 2.141 1.695 4.281 2.687 6.897 3.186.936.185 2.761.228 3.533.093 1.593-.278 2.98-.993 4.221-2.176 2.937-2.805 4.871-7.55 5.291-13.018.036-.493.097-.943.127-1.004a.28.28 0 0 1 .408-.037 29 29 0 0 1 .523.931c1.447 2.656 2.779 4.333 4.257 5.343.766.524 1.885.968 2.919 1.147.687.123 2.329.086 2.998-.068 1.569-.351 2.798-1.011 3.905-2.096 1.411-1.38 2.146-3.155 2.292-5.516.073-1.264-.176-3.106-.614-4.543-.274-.875-.486-1.356-.973-2.175-.383-.647-.48-.925-.316-.925.042 0 .158.08.255.185.517.542 3.418 1.066 5.145.925 1.466-.124 2.573-.432 3.856-1.079.943-.475 1.727-1.036 2.506-1.781 1.642-1.578 2.56-3.372 2.888-5.634.116-.789.098-2.724-.036-3.587-.45-2.94-1.709-5.461-3.868-7.729-1.405-1.473-2.81-2.367-5.291-3.365-3.594-1.449-5.601-1.911-8.295-1.911-1.29 0-2.415.092-3.278.277-.523.111-.529.111-.529.025 0-.166 1.058-.481 2.159-.635 1.477-.216 4.488-.333 5.771-.228 2.129.179 4.829.795 6.489 1.492l.444.185.335-.235a64.68 64.68 0 0 0 3.472-2.693c1.46-1.264 3.114-3.002 4.3-4.506 2.731-3.464 4.281-6.847 4.798-10.478.152-1.035.152-3.131.006-4.099-.559-3.661-2.396-6.668-5.242-8.579-2.031-1.362-4.579-2.016-7.134-1.837-2.493.179-4.78.925-6.969 2.274-.773.475-.967.518-.998.247-.012-.123.134-.37.633-1.048 2.998-4.099 4.853-8.148 5.419-11.828.17-1.109.152-3.347-.037-4.407-.523-2.977-1.824-5.467-3.996-7.624-.802-.795-1.295-1.196-2.262-1.843-3.74-2.496-8.38-3.193-12.266-1.843-.828.29-2.093.894-2.768 1.332-1.265.813-2.742 2.12-3.965 3.488l-.425.475.218.635c.548 1.633 1.344 5.67 1.582 8.037.176 1.738.237 3.76.164 5.461-.122 2.681-.438 6.089-.712 7.63-.231 1.276-.736 3.027-.93 3.224-.158.16-.158-.068-.006-.617.091-.332.237-1.01.328-1.503a31.39 31.39 0 0 0 .189-10.195c-.621-4.327-2.573-10.379-3.874-12.019-.633-.801-1.071-1.399-2.056-2.835-1.703-2.484-2.42-3.39-3.74-4.771-2.481-2.588-5.413-4.82-8.18-6.225-2.177-1.103-3.886-1.615-6.203-1.849-.815-.08-3.831-.031-4.683.08zm9.299.499c.237.105.31.117.31.037 0-.061-.164-.104-.395-.117-.079-.006-.049.025.085.08zm-46.056 17.573c-.158.092-.274.172-.262.185.043.049.59-.216.59-.284 0-.086-.006-.08-.328.099zm90.908 4.635c.067.061.085-.019.048-.204l-.042-.185-.018.173c-.013.099-.007.191.012.216zm-5.644 14.78c-.018.049-.012.074.024.055s.061-.061.061-.098c0-.087-.042-.068-.085.043zm19.85 11.772c0 .05.025.087.061.087.031 0 .061-.056.061-.13 0-.068-.03-.105-.061-.086-.036.018-.061.08-.061.129zm-117.216 14.016c-.025.086.024.031.109-.123.079-.154.128-.302.11-.339-.037-.056-.146.172-.219.462zm96.581 3.618c.043.012.116.012.152 0 .043-.018.013-.031-.073-.031s-.115.013-.079.031zm-71.902 23.268c-.049.098-.079.172-.067.172a2.4 2.4 0 0 0 .346-.536c-.006-.062-.17.154-.279.364zm52.551 26.484a1.73 1.73 0 0 0-.45.321c-.329.333-.432.622-.432 1.263 0 .487.018.598.164.894.329.647.991.9 1.642.61.56-.24.882-.745.919-1.436.048-.783-.238-1.356-.797-1.621-.377-.172-.712-.185-1.046-.031zm-23.87 32.612c-.779.086-.828.148-.451.554.925.999 3.285 2.041 5.802 2.552 1.162.241 3.321.506 5.322.666 1.38.105 6.063.105 7.663 0 2.736-.185 5.686-.641 5.686-.875 0-.031-.158-.074-.353-.093-.608-.074-2.25-.394-3.479-.684-3.113-.727-4.153-.9-9.335-1.535-2.627-.32-4.324-.493-5.838-.585l-1.399-.087c-.535-.043-3.022.019-3.618.087z" fill="#60a561"/><path d="M322.024 295.171c.236.206.443.827.699 2.097.335 1.635.414 2.826.414 6.007-.01 3.122.088 5.17.295 6.233l.118.571.404-.433c1.132-1.231 3.959-3.574 6.017-5.002l3.279-2.334c2.55-1.861 5.081-3.466 5.455-3.466.089 0 .266.098.374.216.276.296.217.591-.462 2.571-1.172 3.426-1.921 4.549-5.032 7.552l-3.467 3.664c0 .039.296-.02.66-.128 1.172-.335 4.914-1.064 6.765-1.32 2.383-.315 5.682-.571 6.401-.492.699.078 1.546.384 1.782.64.276.305.118.62-.679 1.329-1.527 1.389-3.23 2.423-4.835 2.935-.975.315-1.911.492-3.939.758-3.023.394-3.988.669-7.317 2.087-2.166.916-3.83 1.507-6.765 2.393l-1.674.512c-.669.197-1.487.168-3.2-.118-2.029-.344-2.905-.62-4.855-1.536-2.718-1.28-2.747-1.29-8.045-2.649l-3.791-1.083-3.732-1.172c-3.22-1.004-4.806-1.703-5.426-2.393-.443-.482-.463-.866-.059-1.152.275-.197.315-.207.916-.059.462.108 1.25.148 3.141.148 2.275 0 4.047.098 4.864.256.217.049 0-.148-.807-.729-1.664-1.191-3.476-2.698-4.294-3.565-1.034-1.093-1.28-1.703-.837-2.009.316-.226.532-.196 1.832.188l2.816.748c2.758.67 3.801 1.083 7.002 2.787l1.999.984c.394.138.423.138.374-.019-.128-.404-.561-4.461-.65-6.125l-.246-3.309c-.236-2.294-.02-3.693.561-3.762.207-.029.364.079.798.542 2.068 2.176 3.801 5.101 5.386 9.04.758 1.881 1.241 2.924 1.576 3.407.226.305.394.374.394.148 0-.069.187-.522.403-1.005.562-1.201.798-1.93 1.428-4.323a64.15 64.15 0 0 1 2.423-7.425c.728-1.831 1.004-2.373 1.25-2.373.05 0 .178.079.286.168zm-.808 3.86a159.11 159.11 0 0 1-.945 3.003c-.384 1.192-.847 2.807-1.034 3.594-.886 3.683-1.034 4.117-1.674 4.816-.236.266-.482.433-.699.472-1.024.188-1.595-.551-2.895-3.801s-2.915-6.194-4.451-8.084c-.945-1.162-1.152-1.408-1.192-1.359-.019.02 0 .463.04.975.049.512.197 2.422.335 4.234.256 3.388.295 3.713.649 5.78.227 1.33.197 1.812-.137 2.049-.503.344-1.064.157-4.304-1.497-2.718-1.389-3.427-1.654-6.174-2.334-.975-.246-2.147-.561-2.59-.709-.443-.138-.827-.226-.847-.207-.137.138 3.654 3.467 5.367 4.717 1.182.867 1.487 1.152 1.487 1.379 0 .315-.384.364-1.585.216-.621-.088-2.255-.167-3.634-.197l-3.466-.068-.965-.03.817.532c1.142.748 2.245 1.28 4.057 1.969 2.541.955 5.091 1.743 8.213 2.531 4.116 1.044 4.382 1.132 7.05 2.393 2.049.965 2.856 1.221 5.062 1.585l1.704.286 1.595-.443c3.555-.975 4.786-1.389 7.395-2.541 3.358-1.477 4.638-1.841 8.134-2.314 1.221-.158 2.619-.404 3.102-.542 1.674-.482 3.22-1.378 5.002-2.905.414-.344.749-.679.749-.728 0-.217-4.737.177-7.534.63-1.427.226-5.376.985-6.962 1.339-1.29.286-1.555.246-1.555-.236 0-.591.551-1.251 3.791-4.55 3.456-3.505 3.919-4.214 5.12-7.69.296-.887.532-1.645.512-1.694-.009-.049-1.112.719-2.432 1.723l-4.48 3.26c-2.708 1.89-3.939 2.855-5.613 4.401-.759.7-1.527 1.389-1.714 1.527-.463.335-.916.325-1.181-.01-.493-.62-.621-1.93-.65-6.588-.03-4.392-.148-5.741-.66-7.582l-.108-.394-.227 1.122a36.98 36.98 0 0 1-.473 1.97zm-27.827 16.21c2.068.286 3.683.739 6.913 1.93l3.988 1.33c6.499 1.969 7.612 2.422 9.335 3.791 1.861 1.477 3.122 2.865 4.943 5.455 1.33 1.881 4.176 4.737 6.756 6.785 2.57 2.038 4.933 3.309 5.238 2.816.03-.049-.009-.246-.088-.433-.453-1.083-1.95-2.708-4.491-4.884-2.658-2.265-4.864-4.668-5.544-6.007-.413-.827-.423-1.379-.049-1.95.67-1.004 3.673-2.629 6.529-3.515 5.318-1.664 7.021-2.068 10.241-2.432 2.787-.316 7.238-.316 9.207-.01 3.929.62 7.14 1.624 10.685 3.377 3.781 1.861 6.843 4.038 9.739 6.933 4.401 4.401 7.493 9.689 9.01 15.43 1.408 5.308 1.556 11.729.443 19.39-1.999 13.756-6.499 22.107-14.958 27.739-3.801 2.541-8.646 4.707-14.672 6.559-9.986 3.082-20.168 5.101-29.296 5.79-2.048.158-7.583.158-9.257 0-4.726-.433-10.448-1.645-14.967-3.161-6.303-2.097-11.669-5.249-17.529-10.281-1.506-1.29-4.815-4.638-6.036-6.115-3.84-4.608-6.312-8.862-7.986-13.737-.246-.728-.68-1.752-.945-2.265-.631-1.221-.828-1.939-.66-2.442.197-.61.423-.669 2.009-.531 2.235.197 3.85.157 5.012-.119 1.566-.384 3.506-1.231 4.983-2.176.689-.453.847-.699.669-1.034-.138-.266-.492-.256-1.388.049-2.836.975-5.416 1.32-8.508 1.143-2.058-.118-2.817-.276-3.191-.64-.256-.256-.256-.276-.305-2.058-.03-.985-.079-1.842-.118-1.901s-.473-.138-.955-.177c-1.527-.118-2.62-.493-3.447-1.211-.502-.424-.699-.837-.699-1.428.01-.542.197-.955 1.073-2.295 1.418-2.166 3.634-6.853 5.18-10.93 2.117-5.603 2.531-6.519 3.949-8.882 5.376-8.892 9.936-13.343 16.287-15.864 4.343-1.724 9.394-2.521 12.9-2.039zm67.365 32.516c-.138.098-.364.404-.502.679-.364.709-.325 1.94.128 4.668.542 3.289.601 3.87.601 5.711 0 1.862-.138 2.866-.601 4.53-.886 3.21-3.476 8.203-5.761 11.118-.62.788-1.605 2.097-2.186 2.905l-1.841 2.481c-1.093 1.448-1.408 2.088-1.418 2.915 0 .601.029.679.295.955.552.581 1.271.611 2.58.109 3.417-1.31 7.287-6.322 10.281-13.314 2.186-5.111 3.072-8.882 3.082-13.176.01-2.422-.128-3.564-.689-5.583-.759-2.787-1.98-4.353-3.279-4.225-.237.02-.542.119-.69.227zm-96.178.729c-.374.344-.532.709-.532 1.221 0 .935.522 1.526 1.339 1.526 1.261 0 1.802-2.029.768-2.846-.384-.305-1.201-.256-1.575.099zm.688 1.104c.256.187.177.7-.118.739a.4.4 0 0 1-.355-.709c.187-.188.246-.197.473-.03zM374.277 94.191c-.04.311.216.913.865 2.034.833 1.446 1.563 2.391 3.67 4.774 2.076 2.332 3.359 3.931 3.909 4.865l.289.506-.589-.057c-1.664-.172-5.333-.055-7.821.239l-4.002.424c-3.144.296-6.103.77-6.383 1.018-.067.058-.134.25-.137.41-.011.404.229.586 2.049 1.619 3.148 1.79 4.453 2.135 8.773 2.323l5.024.448c.026.029-.235.181-.579.341-1.1.526-4.386 2.459-5.942 3.494-1.994 1.342-4.634 3.336-5.121 3.871-.471.523-.903 1.312-.911 1.661-.004.411.323.543 1.39.545 2.063.029 4.024-.325 5.566-1.005.939-.41 1.757-.897 3.453-2.041 2.525-1.708 3.431-2.141 6.863-3.284 2.23-.749 3.868-1.409 6.653-2.689l1.593-.726c.632-.296 1.225-.86 2.319-2.209 1.291-1.602 1.765-2.389 2.619-4.367 1.188-2.759 1.203-2.786 4.271-7.314l2.122-3.323 2.02-3.35c1.746-2.886 2.471-4.46 2.479-5.387.012-.655-.228-.956-.719-.902-.337.035-.373.054-.725.563-.275.388-.839.939-2.256 2.192-1.704 1.507-2.966 2.755-3.474 3.415-.13.18-.098-.111.122-1.081.457-1.995.817-4.324.855-5.515.05-1.504-.17-2.124-.704-2.059-.386.039-.529.205-1.248 1.354l-1.614 2.426c-1.622 2.328-2.13 3.33-3.398 6.726l-.845 2.062c-.204.364-.226.384-.294.233-.171-.387-2.534-3.713-3.571-5.019l-2.007-2.641c-1.343-1.875-2.432-2.779-2.913-2.446-.174.115-.22.3-.238.934-.108 3 .532 6.339 1.954 10.34.678 1.911 1.008 3.013 1.077 3.596.032.379-.047.541-.197.372-.046-.052-.486-.267-.968-.485-1.217-.528-1.876-.918-3.934-2.293a64.05 64.05 0 0 0-6.733-3.957c-1.76-.889-2.325-1.112-2.509-.949-.037.033-.081.176-.103.315zm3.162 2.356l2.698 1.623c1.077.638 2.493 1.541 3.155 2.007 3.104 2.172 3.502 2.399 4.444 2.498.354.043.649.005.837-.109.891-.538.83-1.47-.349-4.765s-1.92-6.571-2.022-9.005c-.062-1.497-.07-1.818-.008-1.807.028.002.307.347.616.756l2.555 3.394c2.052 2.707 2.238 2.977 3.342 4.76.712 1.146 1.053 1.488 1.461 1.443.604-.075.901-.587 2.231-3.972 1.116-2.841 1.471-3.51 3.079-5.839.567-.83 1.236-1.843 1.47-2.247.241-.397.47-.718.498-.716.194.012-.44 5.017-.895 7.089-.311 1.432-.351 1.848-.201 2.018.209.236.529.019 1.331-.888.406-.477 1.579-1.619 2.592-2.555l2.55-2.348.704-.662-.26.94c-.36 1.317-.834 2.446-1.735 4.163-1.27 2.399-2.658 4.678-4.475 7.337-2.391 3.509-2.532 3.752-3.696 6.464-.895 2.08-1.33 2.806-2.741 4.541l-1.087 1.342-1.488.725c-3.309 1.625-4.505 2.131-7.223 2.996-3.494 1.119-4.694 1.694-7.626 3.656-1.019.691-2.229 1.433-2.682 1.649-1.574.748-3.325 1.101-5.672 1.138-.538.016-1.01-.013-1.043-.05-.144-.162 3.665-3.005 6.06-4.519 1.22-.776 4.68-2.824 6.103-3.609 1.155-.641 1.328-.846 1.008-1.208-.391-.442-1.241-.571-5.853-.896-4.912-.336-5.728-.56-8.931-2.368-.809-.468-1.488-.88-1.506-.93-.025-.043 1.31-.198 2.964-.32l5.515-.527c3.281-.378 4.843-.47 7.121-.421 1.031.021 2.063.028 2.295.008.568-.056.901-.364.878-.791-.042-.79-.814-1.856-3.877-5.365-2.888-3.309-3.693-4.398-4.53-6.117l-.179-.367.913.691a36.87 36.87 0 0 0 1.659 1.162zm31.587-6.292c-1.36 1.584-2.27 2.993-3.9 6.025l-2.107 3.638c-3.563 5.781-4.097 6.857-4.481 9.024-.415 2.34-.439 4.215-.088 7.361.25 2.29.01 6.315-.565 9.558-.575 3.23-1.504 5.747-2.059 5.58-.054-.017-.155-.191-.22-.383-.379-1.111-.334-3.32.127-6.633.491-3.458.552-6.72.174-8.173-.239-.893-.596-1.313-1.255-1.493-1.167-.309-4.493.464-7.22 1.692-5.085 2.276-6.629 3.103-9.282 4.963-2.296 1.61-5.631 4.559-6.904 6.092-2.532 3.068-4.271 5.947-5.765 9.609-1.599 3.899-2.452 7.558-2.702 11.645-.381 6.213.806 12.222 3.473 17.527 2.462 4.909 6.605 9.816 12.514 14.818 10.611 8.98 19.514 12.254 29.582 10.869 4.53-.615 9.595-2.202 15.335-4.808 9.522-4.307 18.486-9.54 25.781-15.071 1.638-1.239 5.784-4.906 6.933-6.133 3.254-3.456 6.737-8.153 9.118-12.284 3.331-5.746 5.263-11.662 6.319-19.313.274-1.964.534-6.664.47-8.58-.177-5.996-1.143-10.82-3.119-15.58a19.74 19.74 0 0 1-.792-2.323c-.337-1.332-.666-2.001-1.124-2.266-.552-.327-.761-.221-1.857.932-1.544 1.629-2.78 2.669-3.833 3.232-1.427.75-3.441 1.401-5.174 1.671-.816.118-1.097.038-1.186-.331-.073-.29.199-.518 1.072-.883 2.771-1.148 4.931-2.599 7.13-4.781 1.463-1.452 1.927-2.072 1.966-2.593.022-.361.009-.376-1.135-1.744-.63-.757-1.161-1.431-1.17-1.502s.262-.416.598-.766c1.065-1.1 1.636-2.104 1.779-3.191.096-.65-.031-1.09-.422-1.533-.367-.399-.781-.585-2.324-1.008-2.498-.683-7.263-2.727-11.122-4.756-5.298-2.794-6.214-3.206-8.842-4.037-9.919-3.099-16.282-3.412-22.71-1.093-4.395 1.586-8.707 4.335-11.013 7.019zm-28.919 68.986c.168-.018.54.061.826.176.743.29 1.529 1.238 2.996 3.581 1.774 2.823 2.114 3.297 3.334 4.677 1.233 1.394 2.002 2.055 3.451 2.995 2.791 1.817 8.038 3.841 11.681 4.511a102.06 102.06 0 0 1 3.562.728l3.023.638c1.778.361 2.438.631 2.993 1.244.398.45.428.529.412.912-.028.8-.547 1.299-1.861 1.79-3.427 1.283-9.647.092-16.521-3.162-5.023-2.38-8.186-4.618-11.038-7.827-1.612-1.808-2.265-2.755-3.182-4.639-1.279-2.59-1.401-4.572-.343-5.337.19-.142.484-.27.667-.287zm72.526-63.172c.508.01.868.179 1.207.562.62.701.62 1.489.008 2.031-.944.835-2.694-.326-2.461-1.623.086-.483.731-.988 1.246-.97zm.217 1.286c-.067.31.331.642.579.475a.4.4 0 0 0-.205-.766c-.264-.016-.315.016-.374.291z" fill="#c62d0c"/><g fill="#6d3caa"><path d="M205.966 121.093c-.031.226.017.997.11 1.734l.531 5.746c.81 9.904 1.526 13.159 4.128 18.922 1.559 3.418 4.32 8.634 5.063 9.514.561.679 1.01.366.974-.678-.025-.661-.159-1.299-1.036-4.886-.378-1.578-.952-4.517-.872-4.523.023-.009.38.612.786 1.365 3.272 6.09 11.23 16.392 19.533 25.295 8.788 9.426 19.855 19.198 29.372 25.903a130.64 130.64 0 0 0 13.793 8.582c2.421 1.318 3.339 1.962 4.5 3.204 1.524 1.615 2.347 2.817 3.703 5.419 1.345 2.562 1.675 2.594 1.962.176.1-.822.219-1.598.282-1.722.144-.322.403-.277 1.252.188.409.234.837.411.964.402.525-.039.633-1.301.262-2.992-.12-.55-.203-1.024-.166-1.066.029-.034.137.014.231.095.221.191.479.98.82 2.481.275 1.25.47 1.523 1.003 1.373.674-.177 1.489-.173 2.566.028.592.109 1.789.31 2.668.429a73.41 73.41 0 0 1 2.669.445c7.603 1.491 15.583 1.237 22.422-.731 6.174-1.785 11.348-4.686 16.017-9.022 2.208-2.054 4.97-5.475 6.515-8.073 2.334-3.925 3.82-8.643 4.061-12.903.313-5.688-1.255-11.302-4.504-16.091-3.59-5.291-9.217-9.483-15.968-11.892-1.821-.65-4.882-1.434-6.863-1.761-5.654-.938-11.081-.862-20.225.292l-5.69.638c-3.474.349-4.628.529-8.668 1.327-6.893 1.357-11.134 2.577-17.888 5.171l-4.128 1.571c-.615.229-1.061.141-.942-.203.14-.386 6.157-3.005 9.037-3.942.702-.227 3.473-1.02 6.152-1.759 2.686-.747 4.868-1.393 4.872-1.45-.004-.047-.255-.101-.56-.111-8.38-.316-16.178-2.288-23.563-5.945-6.3-3.12-11.733-6.95-17.555-12.399-1.465-1.355-4.252-4.076-6.192-6.036l-4.287-4.226c-.418-.361-.712-.675-.65-.695.173-.045 4.063.83 6.426 1.457 2.143.571 2.795.643 2.986.301.355-.617-1.498-2.471-4.12-4.126-1.532-.967-3.829-2.221-4.716-2.556-1.587-.612-3.982-1.132-5.99-1.289-2.54-.199-7.534.013-11.517.503l-3.384.383-1.205.12-.452-.391c-.256-.221-.661-.735-.926-1.187-.563-.934-.977-1.247-1.767-1.333-.515-.058-1.449.177-1.655.416-.059.068-.138.298-.171.508zm1.361-.299c.498.044.932.523 1.326 1.429.219.488.493.947.68 1.109.171.148.278.3.241.342-.03.034-.377.196-.766.352-.473.186-.763.383-.915.594-.218.303-.194.294.899-.058.913-.298 1.743-.414 4.587-.638l5.969-.547c4.917-.502 7.815-.425 10.849.32 1.815.451 3.305 1.054 6.099 2.456 1.75.871 4.39 2.676 4.945 3.379.264.332.272.34 0 .328-.153-.013-1.227-.271-2.367-.571-2.184-.592-6.625-1.555-7.405-1.618-.24-.014-.494.02-.552.089-.266.307.38 1.386 2.874 4.792 2.689 3.679 3.771 5.27 3.668 5.389-.029.034-1.124-.509-2.436-1.197-3.865-2.059-7.534-3.725-10.281-4.683-1.361-.476-1.989-.542-2.247-.244-.265.307-.07.788 1.064 2.647 2.594 4.237 5.001 8.656 6.199 11.389.625 1.448.753 1.887.455 1.629-.06-.052-.803-.933-1.644-1.942-2.224-2.666-3.625-4.13-5.459-5.73-2.396-2.071-3.552-2.697-4.009-2.169-.376.435-.192 1.205 1.163 4.997 1.073 2.998 2.392 6.074 3.937 9.181 1.227 2.475 1.781 3.713 1.699 3.807-.022.026-.414-.313-.87-.768-4.185-4.137-5.877-5.763-7.275-6.956-2.224-1.907-3.339-2.737-3.574-2.672-.499.165-.352 1.424.595 5.31 1.009 4.089 1.467 6.317 1.262 6.14-.085-.073-.84-1.337-1.438-2.404-1.571-2.817-3.718-7.279-4.643-9.672-1.809-4.647-2.492-8.751-3.4-20.334l-.258-3.217.365-.147c.202-.078.501-.132.663-.112zm97.576 43.704c1.918-.532 6.802-.944 9.91-.835 5.304.205 9.043 1.083 14.398 3.401 4.142 1.808 6.687 3.62 9.062 6.491.719.874 2.537 3.786 3.047 4.867 1.025 2.227 1.621 4.484 1.532 5.897-.074 1.068-.701 1.449-1.316.799-.33-.36-.416-.553-1.465-3.217-.753-1.903-1.343-2.978-2.612-4.819-1.5-2.16-2.597-3.406-3.825-4.364-4.005-3.087-8.858-5.107-15.308-6.346-3.647-.709-6.12-.881-10.023-.708-3.002.131-4.252-.026-4.281-.527-.024-.23.332-.488.881-.639zm-17.328 40.923c.836-.26 1.879.239 2.211 1.062.468 1.164-.882 2.157-2.159 1.619-.429-.176-.936-.778-1.032-1.219-.122-.582.317-1.245.98-1.462z"/><path d="M254.802 153.273c.065.011.145.005.168-.02.015-.018-.014-.072-.057-.109-.051-.045-.123-.032-.168.02-.037.043-.017.09.057.109zm-18.326 42.003c-.045.379.169.564.658.584.417.017.65-.183.623-.549-.018-.359-.287-.547-.74-.506-.454.025-.499.061-.541.471z"/></g><path d="M400.964 373.363c2.462 1.795 4.148 3.856 6.254 7.707l1.772 2.952c1.207 1.962 1.547 2.737 2.781 6.176 2.577 7.183 3.766 12.825 4.124 19.232.198 3.873 1.09 9.339 1.899 11.764.847 2.497 1.23 3.256 2.717 5.278 1.707 2.36 1.187 2.658-2.094 1.218-1.071-.488-2.023-.846-2.089-.823-.297.095.045 1.323.59 2.123.606.9.619 1.485.02 1.528-.197-.003-1.05-.188-1.904-.41-1.523-.412-2.767-1.071-4.013-2.111-.179-.157-.297-.213-.281-.132.095.297 2.254 2.274 3.183 2.912.55.368 1.049.766 1.096.896.237.456-.192.905-1.279 1.368-.601.241-1.201.554-1.337.689-.409.368-2.445 3.801-3.657 6.14-5.128 9.948-11.221 17.072-18.327 21.44-2.546 1.565-3.704 2.14-6.257 3.105-5.918 2.234-11.657 2.709-17.231 1.416-1.985-.467-6.452-2.574-7.816-3.706-1.267-1.032-2.821-2.796-3.596-4.066-.79-1.277-1.907-4.39-2.109-5.877-.42-3.019.219-6.75 1.677-9.877 1.117-2.366 3.233-5.472 5.515-8.084 2.873-3.292 4.793-5.062 11.041-10.141 6.723-5.471 8.827-7.516 11.186-10.906 2.585-3.716 4.132-8.067 4.519-12.604.288-3.408.049-5.889-1.032-11.3-1.566-7.718-1.713-10.97-.625-13.965 1.217-3.385 5.184-5.238 9.539-4.467 1.373.232 4.47 1.603 5.734 2.525zm12.623 45.864c-.652.27-.972.68-1.052 1.348-.149 1.159.673 1.945 1.676 1.622.428-.141.6-.314.851-.846.174-.37.281-.826.24-1.008-.188-.866-1.019-1.403-1.715-1.116zm-40.626 14.208c-.696.286-2.208 1.689-3.403 3.149-4.427 5.397-6.1 9.707-5.355 13.838.512 2.863 2.538 5.429 5.303 6.734 1.183.558 1.753.538 2.142-.057.198-.304.099-.477-.945-1.675-.631-.732-1.408-1.768-1.728-2.316-1.59-2.685-1.71-6.069-.341-9.853.51-1.387 1.892-3.664 3.675-5.987 1.591-2.106 1.949-2.751 1.776-3.303-.15-.487-.653-.724-1.124-.53zm-87.215 145.892c-.264.256-.689.261-.799.005-.129-.3.148-.775.464-.786.33-.018.591.547.335.781zm99.461-373.67c.973.456 2.091 1.412 2.78 2.343 1.152 1.582 1.674 4.801 1.17 7.185-.21.992-1.077 3.031-2.816 6.591-1.346 2.724-1.755 3.473-1.994 3.573-.148.069-.014-.17-3.222 5.669-5.593 10.233-7.174 13.91-8.384 19.705-.677 3.199-.861 5.333-.755 8.465.19 5.021 1.162 9.589 3.874 18.254 2.239 7.193 2.851 10.064 2.835 13.22-.046 6.375-3.605 11.104-8.866 11.796-1.702.224-4.708-.262-6.607-1.081-5.174-2.249-9.83-6.628-13.758-12.942-5.463-8.778-8.131-19.389-7.569-30.101.17-3.408.183-3.388-.787-4.964-.76-1.231-.853-1.501-.713-1.923.223-.738.927-.907 2.968-.675 2.011.208 3.619.114 5.25-.326 1.628-.425 1.716-.607.207-.425-.739.095-2.005.077-3.066-.047-1.534-.174-2.03-.279-3.211-.78-1.849-.742-2.163-.993-2.048-1.537.051-.24.262-.529.472-.652s.391-.268.405-.332c.01-.048-.811-.356-1.827-.688-3.023-.957-4.793-2.151-4.364-2.913.104-.178.992-.659 1.968-1.087 3.877-1.654 6.471-3.879 9.984-8.551 1.264-1.705 1.718-2.428 3.887-6.281 2.572-4.57 5.565-8.6 8.897-12.024 6.509-6.662 13.944-10.437 20.48-10.44 1.251.014 3.897.54 4.81.968zm-11.195 4.717c-1 .223-1.621.71-1.57 1.256.049.478.441.761 1.619 1.195 2.249.827 3.469 2.723 3.599 5.659.064 1.435-.424 4.373-1.075 6.342-.306.971-.57 1.985-.564 2.271.001 1.019.756 1.48 1.507.937.905-.644 2.31-3.573 2.778-5.78.379-1.792.584-4.891.416-6.231-.51-3.985-3.347-6.375-6.71-5.649zm-24.515 28.157c-1.426.5-1.299 2.901.173 3.212 1.568.332 2.42-2.195 1.029-3.125-.452-.313-.567-.32-1.202-.087zM220.165 518.226c-.191.384-.9.475-1.182.151-.316-.363-.228-.614.253-.821.677-.291 1.218.1.929.67z" fill="#91630b"/><g fill="#d95d39"><path d="M299.969 4.545c-.174.169-.673.832-1.114 1.483-.982 1.441-1.147 1.645-1.656 2.015-.31.237-.549.357-1.052.53-.617.221-1.092.339-3.527.853-2.1.442-3.895 1.087-6.031 2.162-3.137 1.579-5.598 3.392-7.548 5.563-3.012 3.353-4.655 7.756-4.646 12.451.005 1.987.313 3.58 1.261 6.476.623 1.912.755 3.026.51 4.387-.166.892-.374 1.442-1.329 3.468-.418.89-.89 1.945-1.047 2.339-.616 1.556-.813 2.901-.533 3.634.257.688.609.761 1.364.3.546-.331.971-.772 2.159-2.252 2.149-2.691 3.2-3.657 4.891-4.508 1.117-.562 2.367-.892 4.857-1.28 1.903-.302 2.607-.511 3.068-.929.309-.285.415-.605.42-1.303.007-1.031-.295-1.453-1.515-2.142-.874-.482-2.003-.958-3.779-1.577-2.135-.738-2.77-1.13-3.719-2.262-.555-.667-1.296-2.172-1.485-3.014-.435-1.941-.303-3.318.493-5.256.722-1.747 1.459-3.048 2.551-4.48 1.288-1.684 2.655-2.841 4.411-3.725 2.065-1.04 4.844-1.225 7.118-.468 1.569.513 2.288 1.186 3.418 3.174.763 1.355 1.376 2.123 2.017 2.528.469.29 1.462.526 2.002.473.429-.046 1.094-.349 1.51-.696a4.71 4.71 0 0 0 1.14-1.593c.389-.996.341-1.879-.198-3.929-.209-.785-.421-1.754-.461-2.154-.139-1.241-.06-3.076.28-6.451.167-1.629.071-2.56-.332-3.36-.445-.884-1.329-1.37-2.185-1.19-.433.088-.955.384-1.313.734zm1.272-.236c.55-.001 1.087.294 1.421.798.484.703.539 1.889.206 4.572-.408 3.272-.411 4.648-.031 7.701.324 2.555.297 3.305-.109 3.995-.386.647-1.213.837-2.147.491-.812-.295-1.473-.949-2.314-2.266-1.918-3.023-2.174-3.323-3.307-3.918-1.191-.63-3.046-.813-5.078-.51-3.993.602-7.615 3.226-9.877 7.156-1.724 3.004-2.602 6.933-2.108 9.394.174.827.827 2.124 1.42 2.821 1.443 1.677 2.935 2.568 5.425 3.24 2.545.685 3.328.986 4.122 1.598.832.641.963 1.255.347 1.686-.41.295-1.043.468-2.632.718-3.247.51-4.638.959-6.197 1.994-1.174.785-2.015 1.637-3.78 3.836-1.285 1.61-1.807 2.147-2.321 2.414-.597.309-.817.031-.801-1.013.02-1.021.453-2.299 1.668-4.884.447-.945.903-1.983 1.028-2.313.449-1.229.587-2.82.341-4.031-.065-.307-.375-1.389-.691-2.403-.848-2.745-1.091-4.143-1.063-6.099.027-1.988.367-3.898 1.028-5.817 1.273-3.675 3.44-6.521 6.879-9.045 1.393-1.025 2.258-1.541 4.169-2.503 2.536-1.277 3.55-1.625 6.828-2.345 1.082-.245 2.251-.542 2.594-.666 1.123-.404 1.729-.952 2.598-2.343.653-1.049.75-1.178 1.176-1.619.422-.447.799-.645 1.206-.64zm8.142 25.029c-2.358 1.422-4.327 3.634-5.423 6.087-.645 1.45-1.016 3.044-1.335 5.785-.414 3.517-.837 4.798-1.991 5.994-.316.321-.316.337-.212.592.14.326.38.48 1.829 1.142 1.314.601 1.848.907 2.198 1.248.327.329.393.571.245.872-.1.188-.135.214-.423.269-.462.079-1.513-.306-3.125-1.145l-2.353-1.219c-1.197-.611-2.466-1.364-4.01-2.374-3.315-2.166-3.558-2.295-4.971-2.595-1.995-.428-3.556-.314-5.654.419-1.799.622-3.325 1.625-5.02 3.303-.574.564-1.146 1.774-1.437 3.045-.354 1.53-.764 5.231-1.092 9.789-.215 2.98-.358 3.821-.799 4.601-.334.589-.627.858-1.005.927-.53.089-.906-.256-.95-.873-.01-.149.134-.763.32-1.358.618-1.986.846-3.961.55-4.791-.176-.494-.277-.532-1.239-.436-1.228.116-2.428-.065-4.934-.737-2.594-.701-3.784-.927-5.335-1.02-3.746-.226-6.939 1.243-9.454 4.346-2.655 3.278-3.946 7.511-3.672 12.042.166 2.821.757 5.104 1.973 7.68.796 1.678 1.442 2.785 2.438 4.137 1.69 2.313 3.417 3.976 6.522 6.304 2.089 1.562 3.452 2.47 6.53 4.358 3.153 1.94 4.386 2.751 5.976 3.949 2.766 2.087 4.917 4.143 7.427 7.103 2.055 2.428 3.605 4.56 6.772 9.292 3.735 5.588 5.467 7.855 7.628 10.011 3.146 3.133 5.917 4.554 8.857 4.546 2.657-.01 5.145-1.222 7.653-3.73 1.573-1.568 2.732-3.333 4.252-6.501.373-.77 1.028-2.022 1.466-2.793.923-1.637 1.53-2.954 2.018-4.365.478-1.381.673-2.199 1.087-4.511.395-2.173.59-2.942.892-3.402.538-.829 1.391-.644 1.601.351.183.846.047 1.926-.526 4.164-.223.889-.457 1.873-.514 2.193-.102.552-.095.614.083.969.244.484.487.661.923.66.999.007 2.121.437 4.296 1.656.764.425 1.745.958 2.195 1.177 2.876 1.44 5.805 1.584 9.227.46 1.137-.378 3.616-1.577 4.635-2.252 2.381-1.57 3.983-3.21 4.967-5.097 1.17-2.239 1.713-4.745 1.701-7.87-.015-3.439-.766-6.297-3.062-11.71l-3.019-7.315c-.546-1.327-.628-1.488-.952-1.907-.47-.597-1.28-1.354-1.6-1.492-.369-.154-.479-.147-1.306.139-2.072.704-3.652.843-5.612.503-1.312-.229-3.8-1.153-3.959-1.47-.059-.116.044-.346.18-.414.025-.013.294.022.588.076 1.723.354 2.871.367 5.194.08 2.406-.297 3.068-.493 3.703-1.096.519-.48.438-.851-.409-1.938-.483-.606-.489-.619-.49-.926-.008-.465.192-.615 2.119-1.625 1.778-.936 2.188-1.215 2.355-1.606.257-.582-.272-1.101-2.852-2.836-2.224-1.494-3.488-2.638-4.888-4.424-1.093-1.383-1.561-2.151-2.782-4.578l-1.144-2.256-.219-1.047a97.35 97.35 0 0 1-.505-2.658c-1.503-8.66-1.798-10.017-2.905-13.326-.342-1.017-1.87-4.196-2.564-5.335-1.714-2.81-3.487-4.661-5.617-5.87-1.029-.582-2.006-.948-3.108-1.145-1.885-.338-3.817-.093-5.903.746-.888.358-1.081.455-2.03 1.03zm20.676 36.047a1.51 1.51 0 0 1 .988.692c.136.271.115.791-.033 1.093-.077.152-.209.275-.422.382-.523.263-1.066.132-1.504-.351-.195-.226-.217-.287-.218-.643-.004-.216.06-.507.143-.647.197-.35.648-.577 1.046-.526z"/><path d="M330.114 66.196c-.109.379.371.736.616.467.203-.224.004-.682-.299-.691-.214-.006-.269.03-.317.224z"/></g><path d="M430.242 227.951c.337.505.75 2.229.861 3.576.373 4.621-.067 12.4-.942 16.726-.748 3.687-2.148 7.433-4.573 12.211-4.105 8.068-5.543 12.138-6.107 17.238-.793 7.23.927 14.232 6.016 24.485 1.411 2.851 2.012 4.167 2.417 5.322.602 1.718.621 2.404.089 3.123-.211.285-.321.344-.921.524-1.344.38-3.338-.036-5.809-1.21-2.607-1.247-4.469-2.634-6.185-4.635-1.541-1.791-2.526-3.455-3.735-6.246l-.74-1.74-.706-.667c-.38-.369-.722-.742-.753-.831-.072-.206.12-.374 1.163-.98.925-.545 2.182-1.488 2.461-1.837.327-.416-.038-.338-.965.198-1.302.757-3 1.302-3.316 1.061-.069-.056-.147-.22-.167-.364-.026-.161-.091-.259-.169-.252-.06.001-.727.074-1.473.154-1.721.192-2.33.174-2.732-.057-.672-.398-.524-.721.914-1.978 2.169-1.895 2.621-2.526 3.304-4.593.409-1.269.971-3.967 1.089-5.264.501-5.48 1.917-10.617 4.294-15.589 1.72-3.607 3.376-6.307 7.943-12.97 2.048-2.988 3.169-4.807 4.232-6.847 2.736-5.268 3.896-10.015 3.797-15.545-.048-2.345.041-3.039.407-3.167.108-.038.22.023.306.154zm-19.368 58.764c-.413.456-.091 1.66.515 1.899.766.295 1.387-.516 1.073-1.41-.091-.26-.209-.369-.584-.549-.474-.236-.747-.211-1.004.06zm.809.558c.243.146.264.522.04.63-.373.201-.701-.076-.518-.442.108-.24.278-.299.478-.188zm22.465-60.339c.265.239.639.992 1.39 2.819 1.286 3.126 2.301 4.648 8.024 12.007 4.936 6.348 10.003 13.242 12.728 17.291 2.249 3.351 4.269 7.024 6.319 11.499.853 1.861 3.337 9.038 3.92 11.335 1.474 5.783 1.844 8.647 1.516 11.696-.4 3.706-2.051 6.706-4.844 8.799-1.512 1.133-3.651 2.023-5.453 2.272-5.79.793-11.153-2.643-14.868-9.519-2.616-4.86-4.507-12.034-5.273-20.043-.378-3.947-.473-6.827-.558-18.139-.028-3.235-.037-3.574-.188-6.213-.318-5.585-.756-8.526-2.419-16.513-1.197-5.739-1.326-7.14-.664-7.372a.39.39 0 0 1 .37.081zm2.271.265c.434.321.59.537 1.957 2.63 3.199 4.917 5.043 6.853 9.178 9.624.327.217 1.282.736 2.125 1.164 3.705 1.857 7.352 3.894 10.065 5.616a108.79 108.79 0 0 0 2.542 1.521c5.624 3.234 9.753 6.418 13.15 10.151 2.178 2.402 4.015 5.123 5.59 8.299.69 1.396 2.002 5.055 2.349 6.561.883 3.84 1.202 7.847.887 10.991-.277 2.679-.661 4.25-1.474 6.032-.934 2.035-2.183 3.547-3.83 4.637-.953.635-2.702 1.177-3.806 1.182-1.565.006-2.792-.458-3.742-1.421-.826-.836-1.183-1.424-1.619-2.698-.474-1.381-.687-2.823-.811-5.442-.259-5.787-.456-7.496-1.196-10.381-.883-3.468-2.718-7.215-5.963-12.177-1.882-2.877-3.47-5.143-7.682-10.971-.937-1.3-2.864-3.588-6.409-7.6-6.133-6.954-8.359-9.981-10.88-14.855-.995-1.921-1.194-2.374-1.145-2.693.056-.301.417-.387.714-.17zm-3.489 5.245c.077.134.22.656.312 1.177.27 1.603 1.31 9.014 1.446 10.293a61.29 61.29 0 0 0 .435 3.163 51.18 51.18 0 0 1 .684 6.541c.205 3.796.183 6.657-.126 13.376-.507 11.228.77 18.114 5.273 28.271 2.5 5.644 3.266 8.319 3.008 10.479-.303 2.578-2.345 3.916-5.504 3.616-3.952-.383-7.895-3.091-10.509-7.228-1.752-2.762-3.654-7.792-4.655-12.284-1.841-8.266-1.488-14.628 1.224-21.827.51-1.354 1.182-2.935 2.571-6.024 2.947-6.528 3.474-8.149 4.305-13.262.472-2.868.956-9.889.945-13.793l.026-1.818c.048-.78.295-1.078.565-.68zm29.983 70.924c.076.043.368.333.636.641 1.23 1.387 3.017 2.529 7.386 4.706l3.117 1.671c1.303.939 2.504 2.187 4.052 4.226 1.729 2.268 2.71 3.923 4.443 7.465l2.826 5.6c.105.184.122.319.043.467-.089.203-.107.209-.307.098-.257-.131-1.763-2.165-3.331-4.489l-3.53-4.771c-2.547-3.056-3.885-4.295-8.749-8.056-2.616-2.017-4.362-3.475-5.324-4.444l-.828-.815.056.362c.12.742 1.043 2.89 1.79 4.105 2.012 3.333 3.663 5.467 6.46 8.375 2.715 2.817 3.429 3.651 4.245 5.003 1.811 2.962 3.285 7.228 3.832 11.055a72.09 72.09 0 0 1 .281 3.066c.091 1.264.232 2.842.314 3.507.15 1.233.139 1.458-.058 1.527s-.308-.163-.456-1.016c-.079-.454-.282-1.348-.453-1.981l-.598-2.453c-.412-1.805-1.638-5.564-2.277-6.958-1.191-2.596-2.688-5.206-3.946-6.875-.413-.549-1.674-2.056-2.809-3.346-3.479-3.965-4.354-5.286-6.203-9.36-.822-1.802-1.26-3.195-1.349-4.31-.083-.895.016-2.135.177-2.362a1.22 1.22 0 0 0 .15-.404c.038-.265.204-.363.41-.234zm.65 4.665c1.06 3.054 3.112 6.705 5.175 9.237a149.04 149.04 0 0 0 2.247 2.629c2.651 3.009 4.226 5.21 5.392 7.504.571 1.116 2.036 5.124 2.524 6.892.235.872.459 1.597.483 1.608.064.038-.278-2.313-.485-3.306-.246-1.219-1.03-3.687-1.657-5.276-1.325-3.323-2.193-4.596-5.423-7.966-2.788-2.911-3.982-4.371-5.655-6.909-1.606-2.432-2.026-3.229-2.649-4.98-.307-.876-.525-1.413-.501-1.23.02.173.263.982.549 1.797zm2.999-.931c.52.481 2.329 1.917 4.404 3.511 3.01 2.311 3.788 2.953 5.218 4.34 1.857 1.801 3.747 4.072 5.046 6.058.328.508.607.903.61.882.044-.076-1.54-3.077-2.127-4.037-1.52-2.502-3.782-5.316-5.203-6.476-.944-.774-1.685-1.198-4.383-2.533l-3.173-1.631c-.536-.324-.66-.362-.392-.114zm-10.86-1.003c.381.429.668 1.363.666 2.188.001.632.017.707.214.899.119.109.241.257.263.32.082.232 3.347 3.589 3.391 3.483.064-.132-.299-4.466-.449-5.267-.271-1.462-.28-1.63-.128-1.713.157-.096.496.328 1.134 1.431.434.752 1.022 2.344 1.132 3.089l.441 2.548.366 2.594.006.561.564.807c1.45 2.074 2.294 3.737 2.659 5.267.343 1.467.451 2.494.588 5.58l.101 8.575c-.038 1.871.027 3.918.185 5.289.032.291.034.642.009.771-.118.523-.618.387-.969-.243-.167-.304-.81-2.741-.987-3.763l-.975-6.139c-.017-.104-.059.061-.105.359-.082.571-.279.781-.499.526-.168-.192-1.242-3.342-1.554-4.579-.721-2.832-.988-4.396-1.279-7.609l-.352-3.212-.176-1.305-.906-1.38-2.31-3.842c-.471-1.031-.462-1.034-.666.364-.091.715-.372 2.149-.599 3.193l-.63 2.963-.199 1.065.323.349c1.064 1.174 1.889 2.352 2.685 3.851.704 1.321 2.071 5.282 2.732 7.884l.527 1.965c.076.044.064-.535-.037-1.886-.11-1.317-.113-1.326-.865-3.615-.78-2.369-1.902-5.17-2.803-7.055-.495-1.012-.876-1.582-1.748-2.582-.19-.225-.376-.471-.408-.561-.038-.137-.02-.143.153-.023.408.249 1.408 1.325 1.81 1.928.768 1.157 2.706 5.803 3.607 8.632.633 1.978.737 2.705.796 5.397.033 1.385.007 1.655-.136 1.705-.152.054-.219-.023-.486-.583-.796-1.7-1.453-3.459-2.319-6.22-1.27-4.026-2.046-5.753-3.408-7.546l-.45-.596-.024.39c-.046.669.133 2.817.346 4.169.551 3.524 1.152 5.955 2.468 10.085 1.229 3.88 1.438 4.821 1.223 5.67-.068.295-.398.441-.637.304-.56-.337-1.688-1.72-2.197-2.687-1.297-2.439-2.738-8.474-3.076-12.796-.106-1.449-.185-5.2-.129-6.304l.041-.999-.657-.845-.706-.867c-.012-.006-.138.58-.283 1.314-.318 1.729-.531 3.703-.63 5.917-.164 3.745.033 5.283 1.193 9.226.696 2.389 1.37 4.112 2.712 6.937 1.276 2.697 2.647 6.467 2.895 7.977.366 2.192.078 2.806-.825 1.776-.555-.639-1.127-1.755-2.185-4.288l-1.522-3.485c-1.841-3.906-2.729-6.127-3.575-8.914-1.036-3.415-1.401-5.518-1.455-8.311-.038-1.484.06-2.322.647-5.752l.668-4.002.234-1.539-.728-2.105c-.683-1.981-.718-2.11-.567-2.193.199-.12.366.013.501.397.06.17.371.714.681 1.198l.574.894.134-.679c.138-.752.905-2.407 1.155-2.495.269-.094.334.064.321.772-.009.375.058 1.225.152 1.896.168 1.167.226 2.824.122 3.131-.046.097.037.249.251.515.431.512 1.17 1.218 1.251 1.19.032-.022.17-.462.296-.988a20.94 20.94 0 0 1 .645-2.004c.908-2.398 1.39-4.234 1.42-5.41.015-.387.041-.829.06-.976l.038-.264.259.281zm-5.322 4.597c-.149.605-.255 1.134-.24 1.179.063.179.769 1.247.857 1.297.063.038-.177-3.374-.262-3.615-.035-.099-.057-.02-.355 1.139zm10.634-.159c.059.341.122 1.293.134 2.133l.029 1.517.603.773.602.773-.069-.427-.365-2.133c-.441-2.518-.994-4.584-1.421-5.289-.126-.217-.105-.013.106.877.163.637.331 1.432.381 1.776zm-5.88 1.427c-.755 2.173-.938 2.94-1.207 5.014-.123.937-.298 2.043-.391 2.467-.208.927-.242 1.632-.162 3.352.156 3.371.754 6.799 1.816 10.375.772 2.603 1.929 5.392 2.699 6.528.623.918.256-.933-.925-4.618-1.36-4.256-1.819-6.084-2.405-9.475-.732-4.214-.699-6.155.174-9.856.566-2.429 1.149-5.526 1.032-5.485-.018.006-.303.769-.631 1.698zm-4.497 1.615c.508.877 2.052 3.19 2.114 3.168.027-.01.075-.187.102-.398l.036-.384-.696-.67c-.381-.369-.934-1.03-1.234-1.457-.592-.857-.744-.975-.322-.259zm7.709-1.223c1.668 2.64 2.628 4.634 3.691 7.668 1.141 3.257 1.436 4.53 2.101 9.008l1.45 9.589c.141.945.355 2.045.466 2.449l.197.734-.076-1.078c-.104-1.501-.119-2.691-.068-4.698.06-2.322.041-4.384-.094-7.693-.219-5.559-.526-6.838-2.312-9.698-1.491-2.391-3.36-4.801-4.876-6.319-.588-.588-1.08-1.048-1.092-1.024s.269.509.613 1.062zm-8.924 4.351l-.563 3.754c-.373 2.863-.329 6.002.097 8.566.336 1.962 2 6.512 4.046 11.09.493 1.093 1.327 3.041 1.865 4.319 1.083 2.605 1.772 4.111 1.917 4.181.124.067-.022-.836-.326-2.076-.495-1.986-1.321-4.088-2.964-7.601-1.135-2.436-1.631-3.709-2.298-5.956-1.33-4.487-1.534-6.274-1.224-10.693.163-2.287.304-3.261.764-5.16l.327-1.39-.515-.754c-.687-1.015-.666-.982-.689-.934-.021.027-.216 1.221-.437 2.654zm11.803 3.953c.112 1.668.555 4.567.946 6.198l1.162 5.068c.082.464.154.238.206-.675s-.265-3.021-.941-6.3c-.486-2.332-1.36-5.773-1.429-5.628-.018.036 0 .633.056 1.337zm-16.923-8.73c.886 3.276.967 5.197.388 9.538-.54 4.108-.408 6.322.592 10.12.419 1.571 1.509 4.394 3.355 8.66.559 1.281.604 1.436.545 1.698-.094.364-.267.415-.723.173-.747-.381-1.923-1.788-2.819-3.372-.885-1.549-1.896-4.58-2.701-8.025-.44-1.916-.661-3.978-.672-6.335-.004-1.385.086-2.22.439-3.821.701-3.189.964-5.22.935-7.169-.034-2.188-.041-2.095.209-2.183l.233-.082.219.798zm-.304 6.415c-.899 4.374-.966 8.858-.177 12.63.295 1.444 1.29 4.37 2.012 5.916.707 1.5 2.722 4.843 2.815 4.65.02-.028-.341-.916-.798-1.961-2.76-6.387-3.564-8.999-3.871-12.598-.171-2.01-.103-3.018.447-6.928.154-1.079.224-2.168.209-3.188-.007-.851-.036-1.594-.052-1.639-.019-.054-.105.388-.201.975-.087.583-.261 1.548-.384 2.143zM230.131 220.35c-.326.512-1.737 1.585-2.926 2.229-4.079 2.204-11.376 4.936-15.687 5.877-3.677.801-7.669 1.029-13.019.734-9.039-.506-13.343-.182-18.238 1.357-6.936 2.187-12.652 6.583-19.985 15.371-2.042 2.44-3.004 3.521-3.897 4.356-1.33 1.243-1.951 1.538-2.823 1.34-.346-.078-.444-.155-.85-.632-.89-1.077-1.312-3.07-1.233-5.804.09-2.888.61-5.151 1.75-7.528 1.018-2.132 2.144-3.704 4.211-5.935l1.295-1.378.326-.915c.184-.497.388-.96.457-1.024.159-.149.39-.041 1.366.67.871.626 2.24 1.397 2.672 1.512.512.131.295-.171-.57-.804-1.217-.887-2.4-2.221-2.306-2.607.023-.086.141-.223.265-.3.137-.089.201-.187.163-.256-.025-.054-.361-.636-.735-1.286-.869-1.498-1.098-2.063-1.049-2.524.094-.775.449-.769 2.179.04 2.609 1.222 3.368 1.382 5.535 1.173 1.326-.136 4.022-.709 5.257-1.124 5.217-1.749 10.489-2.523 15.997-2.351 3.994.121 7.133.549 15.071 2.045 3.56.67 5.677.963 7.972 1.114 5.924.381 10.736-.469 15.758-2.788 2.126-.988 2.797-1.187 3.062-.903.078.083.067.21-.018.341zm-61.586 5.951c-.584-.194-1.556.585-1.531 1.236.039.82 1.031 1.061 1.723.414.201-.188.253-.34.267-.756.025-.529-.108-.768-.459-.894zm-.182.974c-.036.281-.372.451-.561.29-.334-.26-.213-.673.197-.652.262.002.385.134.364.362zm64.271-3.763c-.112.338-.65.984-2.02 2.407-2.342 2.436-3.327 3.979-7.756 12.182-3.821 7.075-8.089 14.491-10.697 18.616-2.161 3.408-4.709 6.736-7.979 10.416-1.36 1.531-6.927 6.696-8.794 8.155-4.7 3.679-7.172 5.172-10.094 6.099-3.553 1.128-6.964.825-10.005-.887a12.73 12.73 0 0 1-4.277-4.076c-3.058-4.98-2.074-11.272 2.722-17.443 3.394-4.353 9.198-8.973 16.22-12.902 3.46-1.936 6.057-3.183 16.377-7.819 2.949-1.329 3.256-1.473 5.611-2.675 4.982-2.541 7.498-4.127 14.138-8.867 4.77-3.407 6.001-4.09 6.48-3.578a.39.39 0 0 1 .074.372zm.674 2.192c-.118.526-.253.756-1.619 2.85-3.211 4.909-4.24 7.377-5.11 12.278-.066.387-.157 1.47-.209 2.414-.206 4.139-.602 8.298-1.085 11.475a109.2 109.2 0 0 0-.367 2.939c-.694 6.45-1.945 11.512-3.992 16.126-1.321 2.96-3.072 5.739-5.344 8.459-.999 1.194-3.82 3.869-5.059 4.793-3.158 2.356-6.697 4.262-9.702 5.241-2.563.825-4.156 1.107-6.114 1.081-2.239-.035-4.126-.568-5.787-1.637-.966-.617-2.167-1.999-2.616-3.007-.636-1.43-.705-2.74-.207-3.998.433-1.092.828-1.656 1.818-2.568 1.073-.99 2.306-1.767 4.653-2.936 5.192-2.568 6.677-3.437 9.02-5.276 2.818-2.206 5.508-5.395 8.741-10.364 1.875-2.882 3.31-5.248 6.947-11.451.812-1.382 2.13-4.067 4.374-8.929 3.893-8.414 5.767-11.672 9.211-15.942 1.358-1.685 1.693-2.05 2.004-2.133.298-.07.522.226.443.585zm-6.204-1.074c-.091.125-.512.466-.951.76-1.358.893-7.723 4.83-8.838 5.47-.588.329-1.807 1.08-2.72 1.673-2.085 1.352-3.268 2.029-5.711 3.262-3.392 1.716-6.019 2.849-12.293 5.273-10.481 4.06-16.269 8.004-23.75 16.217-4.159 4.562-6.299 6.341-8.379 6.975-2.481.762-4.529-.569-5.528-3.581-1.241-3.771-.351-8.47 2.382-12.531 1.822-2.715 5.659-6.483 9.367-9.209 6.823-5.015 12.789-7.256 20.47-7.674 1.445-.078 3.163-.101 6.55-.074 7.162.067 8.858-.103 13.872-1.403 2.815-.723 9.436-3.109 13.005-4.693l1.674-.708c.734-.27 1.106-.164.85.243zm-52.838 56.012c-.01.087-.157.471-.331.841-.774 1.684-1.1 3.779-1.332 8.655l-.273 3.526c-.335 1.572-.992 3.173-2.235 5.412-1.379 2.496-2.499 4.061-5.042 7.074l-3.987 4.843c-.127.17-.243.24-.41.228-.222-.001-.234-.015-.213-.242.016-.288 1.271-2.486 2.766-4.857l2.945-5.153c1.77-3.563 2.365-5.287 3.848-11.254.792-3.207 1.423-5.392 1.922-6.663l.412-1.087-.309.198c-.63.408-2.224 2.118-3.035 3.292-2.241 3.184-3.529 5.556-5.063 9.287-1.484 3.619-1.96 4.61-2.869 5.9-1.981 2.852-5.291 5.919-8.573 7.962-.364.222-1.574.899-2.694 1.492a93.74 93.74 0 0 0-3.083 1.7c-1.067.635-1.278.715-1.421.563s.026-.348.746-.827c.384-.255 1.121-.8 1.631-1.213l2.004-1.535c1.486-1.104 4.433-3.741 5.451-4.887 1.896-2.137 3.682-4.558 4.703-6.382.335-.599 1.206-2.361 1.93-3.919 2.227-4.782 3.084-6.115 6.068-9.449 1.317-1.478 2.416-2.44 3.4-2.971.786-.436 1.961-.846 2.234-.789.107.017.295.01.43-.026.257-.072.415.041.38.281zm-4.008 2.474c-2.369 2.201-4.883 5.551-6.37 8.459-.316.62-.987 2.026-1.5 3.115-1.686 3.639-3.066 5.967-4.696 7.958-.791.973-3.869 3.928-5.29 5.088-.704.566-1.277 1.063-1.278 1.09-.009.074 2.005-1.186 2.83-1.776 1.017-.717 2.96-2.429 4.162-3.643 2.507-2.551 3.323-3.859 5.105-8.172 1.541-3.725 2.396-5.406 4.046-7.96 1.578-2.449 2.139-3.155 3.49-4.43.679-.635 1.082-1.051.924-.955-.15.088-.793.637-1.423 1.226zm2.06 2.371c-.231.669-.816 2.903-1.438 5.445-.903 3.686-1.177 4.656-1.871 6.524-.9 2.425-2.217 5.07-3.512 7.059-.332.505-.581.92-.56.914.086.009 2.195-2.65 2.837-3.574 1.677-2.398 3.342-5.602 3.831-7.37.328-1.176.417-2.025.552-5.033l.214-3.561c.081-.621.066-.749-.053-.404zm-3.453-10.344c-.239.521-.978 1.161-1.734 1.491-.579.255-.64.3-.736.558-.052.153-.139.324-.187.37-.18.168-1.937 4.509-1.823 4.506.148.005 3.968-2.073 4.641-2.533 1.229-.837 1.379-.913 1.516-.807.151.105-.1.587-.853 1.614-.513.701-1.733 1.88-2.371 2.282l-2.154 1.429-2.227 1.381-.511.231-.511.841c-1.314 2.163-2.497 3.605-3.75 4.556-1.204.905-2.1 1.418-4.87 2.787l-7.807 3.547c-1.728.72-3.576 1.603-4.767 2.301-.253.145-.573.289-.701.318-.527.103-.604-.409-.168-.985.21-.275 2.182-1.845 3.046-2.419l5.225-3.366c.09-.057-.079-.029-.37.048-.555.156-.827.059-.683-.244.109-.231 2.559-2.483 3.565-3.268 2.301-1.8 3.626-2.674 6.449-4.236l2.798-1.616 1.123-.687.899-1.385 2.585-3.662c.753-.847.76-.84-.601-.463-.691.204-2.118.525-3.165.738l-2.965.618-1.055.246-.189.436c-.646 1.447-1.392 2.677-2.443 4.01-.925 1.176-4 4.024-6.115 5.676l-1.586 1.275c-.009.087.515-.157 1.711-.794 1.161-.632 1.168-.638 2.96-2.248 1.854-1.668 3.966-3.824 5.328-5.408.726-.861 1.095-1.439 1.659-2.641.129-.264.279-.534.348-.599.111-.09.124-.076.083.131-.063.474-.645 1.823-1.034 2.433-.751 1.169-4.221 4.815-6.448 6.779-1.555 1.377-2.179 1.765-4.619 2.903-1.254.588-1.512.674-1.615.563-.11-.118-.067-.21.338-.68 1.235-1.414 2.581-2.723 4.758-4.629 3.173-2.784 4.441-4.19 5.534-6.159l.364-.651-.367.135c-.631.227-2.524 1.256-3.676 1.995-3.003 1.925-4.987 3.454-8.236 6.323-3.056 2.688-3.833 3.258-4.697 3.404-.297.057-.564-.187-.534-.461.082-.648.894-2.237 1.573-3.093 1.71-2.17 6.653-5.92 10.472-7.971 1.284-.682 4.685-2.264 5.718-2.658l.931-.365.508-.942.51-.995c.001-.014-.587.107-1.317.27-1.711.405-3.603 1.006-5.669 1.808-3.494 1.358-4.822 2.158-7.964 4.809-1.905 1.599-3.21 2.91-5.256 5.276-1.954 2.255-4.852 5.029-6.134 5.864-1.859 1.219-2.536 1.202-1.958-.039.361-.766 1.152-1.739 3.044-3.728l2.576-2.797c2.834-3.259 4.508-4.966 6.719-6.864 2.708-2.323 4.485-3.504 7.02-4.68 1.343-.632 2.15-.88 5.525-1.725l3.932-1.001 1.502-.406 1.635-1.514c1.537-1.424 1.64-1.508 1.778-1.402.19.133.136.34-.162.618-.132.123-.504.627-.822 1.106l-.587.886.676-.152c.744-.176 2.567-.141 2.749.053.194.207.076.331-.578.604-.346.143-1.098.547-1.674.903-1 .623-2.493 1.344-2.816 1.374-.108-.004-.213.133-.371.437-.295.6-.643 1.561-.584 1.623.032.022.49-.03 1.024-.126.539-.089 1.482-.191 2.093-.218 2.56-.135 4.435-.434 5.524-.88a16.39 16.39 0 0 1 .917-.338l.257-.072-.153.351zm-6.351-3.019c-.614.107-1.141.223-1.176.256-.138.129-.832 1.206-.842 1.306-.009.074 3.016-1.521 3.203-1.696.076-.071-.004-.061-1.185.134zm4.43 9.669c-.288.191-1.135.632-1.898.982l-1.377.638-.465.863-.465.863.363-.236 1.805-1.194c2.127-1.417 3.796-2.756 4.268-3.431.148-.203-.03-.102-.76.451a22.73 22.73 0 0 1-1.471 1.064zm-3.675-4.807c-2.294.184-3.07.326-5.075.916-.908.264-1.991.55-2.417.636-.932.183-1.591.436-3.133 1.202-3.022 1.501-5.918 3.429-8.763 5.842-2.072 1.755-4.158 3.938-4.888 5.101-.588.939.957-.142 3.855-2.707 3.346-2.96 4.834-4.117 7.702-6.019 3.562-2.369 5.351-3.12 9.091-3.812 2.451-.461 5.52-1.175 5.436-1.265-.013-.014-.826.032-1.808.106zm-3.291-3.465c-.598.818-2.092 3.163-2.047 3.211.02.021.202-.006.405-.067l.366-.121.333-.908a12.26 12.26 0 0 1 .836-1.716c.546-.887.593-1.073.107-.399zm4.226 6.562c-1.744 2.591-3.183 4.273-5.531 6.468-2.521 2.357-3.567 3.14-7.399 5.553l-8.191 5.19c-.809.51-1.729 1.15-2.053 1.414l-.593.476.956-.504c1.332-.7 2.415-1.193 4.272-1.956 2.149-.88 4.029-1.729 7.003-3.185 5-2.44 6.046-3.237 7.945-6.024 1.588-2.327 3.04-5.008 3.818-7.008.302-.775.524-1.411.497-1.412s-.357.451-.724.988zm-7.578-6.413l-3.663.996c-2.771.812-5.626 2.118-7.8 3.54-1.66 1.098-5.155 4.455-8.52 8.172-.802.892-2.249 2.439-3.202 3.447-1.947 2.04-3.049 3.278-3.054 3.439-.012.14.756-.357 1.769-1.135 1.618-1.253 3.209-2.856 5.762-5.775 1.772-2.02 2.737-2.987 4.526-4.503 3.57-3.026 5.123-3.932 9.293-5.428 2.159-.773 3.107-1.036 5.03-1.38l1.404-.261.483-.776c.652-1.037.631-1.005.577-1.006-.033-.008-1.204.294-2.605.67zm1.138 12.394c-1.482.775-3.957 2.349-5.292 3.363l-4.17 3.106c-.391.262-.156.237.7-.083s2.659-1.46 5.387-3.401c1.939-1.383 4.736-3.569 4.575-3.575-.04-.001-.578.256-1.2.59zm1.165-19c-2.641 2.131-4.367 2.978-8.573 4.198-3.977 1.161-5.95 2.174-9.024 4.619-1.269 1.017-3.414 3.152-6.574 6.56-.947 1.028-1.072 1.131-1.335 1.183-.371.061-.487-.077-.45-.592.049-.837.862-2.48 1.951-3.939 1.062-1.433 3.428-3.581 6.257-5.706 1.576-1.174 3.375-2.207 5.527-3.167 1.267-.561 2.067-.816 3.674-1.137 3.202-.643 5.166-1.221 6.938-2.033 1.989-.912 1.901-.882 2.082-.688l.169.18-.642.522zm-5.994 2.306c-4.365.94-8.496 2.685-11.63 4.927-1.203.852-3.481 2.942-4.604 4.225-1.089 1.251-3.336 4.442-3.122 4.45.034.007.701-.681 1.474-1.52 4.733-5.1 6.799-6.888 9.97-8.619 1.77-.967 2.721-1.31 6.52-2.383a20.58 20.58 0 0 0 3.002-1.092c.777-.35 1.445-.676 1.48-.708.041-.039-.398.06-.973.208a47.45 47.45 0 0 1-2.117.512z" fill="#edab00"/><path d="M328.692 500.5c.111.751-.151 1.482-.697 1.896-.485.377-1.371.651-3.532 1.109-4.448.936-4.787 1.037-13.779 4.14l-9.2 3.082-7.669 1.979c-7.406 1.854-10.248 2.673-18.592 5.368-6.103 1.967-10.853 3.399-17.055 5.126l-13.603 3.929-15.573 4.362c-5.149 1.312-6.264 1.624-9.545 2.687-1.727.558-3.383 1.057-3.673 1.108-1.48.264-2.272-.077-3.049-1.312-.15-.239-.605-1.12-1.01-1.953-1.405-2.921-2.616-5.095-3.731-6.679-1.011-1.429-1.931-2.332-2.991-2.92-.311-.175-.616-.385-.677-.464-.149-.19-.024-.549.317-.933.157-.171.318-.377.377-.472.194-.35 1.153-1.564 1.888-2.393.924-1.052 2.331-2.413 4.607-4.482 6.814-6.172 8.598-7.523 13.925-10.551 3.284-1.871 4.231-2.449 7.554-4.616 4.788-3.141 6.496-4.116 11.947-6.88 4.432-2.252 8.579-4.272 12.198-5.944l8.015-3.86c4.981-2.443 7.774-3.62 15.022-6.334l6.964-2.673c5.834-2.331 12.364-4.264 14.84-4.391 1.398-.069 1.986.068 2.68.609.341.264.364.306.365.596.01.388-.363 1.157-.749 1.557-.655.676-.2.502-10.174 3.962l-11.211 3.996c-7.678 3.08-11.534 4.716-16.567 7.011-11.315 5.18-23.045 11.752-30.488 17.094-2.443 1.754-6.811 5.223-7.197 5.714-.115.148-.039.105 1.461-.798.626-.375 2.237-1.291 3.575-2.038 4.19-2.326 5.667-3.221 9.063-5.513 2.56-1.728 5.593-3.578 8.653-5.28 3.454-1.93 5.141-2.773 10.262-5.148l5.472-2.563c3.981-1.896 5.519-2.496 13.653-5.343l8.789-2.948c2.841-.845 7.856-2.567 9.618-3.312 4.076-1.721 4.928-1.925 6.295-1.485 1.197.383 1.611 1.387.893 2.193-.436.492-1.078.823-3.496 1.786-2.712 1.074-3.384 1.366-7.899 3.356-6.951 3.068-9.25 3.99-16.539 6.61-8.915 3.208-13.49 5.095-19.022 7.845-2.736 1.365-7.007 3.769-9.08 5.103l-.542.355.877-.346 2.708-1.064 5.031-2.036c6.086-2.494 6.867-2.781 17.147-6.297l12.819-4.272c4.037-1.234 12.653-4.056 18.029-5.913 3.938-1.349 4.315-1.463 5.346-1.655 2.796-.521 3.885-.4 4.821.523.706.695.789 1.198.305 1.815-.242.308-.821.75-1.484 1.138-.644.373-1.853.892-4.595 1.976l-4.858 1.935c-9.849 3.965-13.366 5.285-19.704 7.434-6.161 2.087-6.5 2.188-15.275 4.624-9.839 2.723-20.502 6.572-32.627 11.767-2.177.938-5.634 2.503-6.142 2.787-.176.094 3.551-1.148 8.271-2.761l10.991-3.671c6.645-2.055 8.715-2.657 12.925-3.727 3.859-.98 5.537-1.438 7.75-2.106l12.081-3.525c7.395-2.075 8.789-2.442 14.673-3.842l8.668-2.217c3.86-1.073 5.586-1.464 7.682-1.75 3.621-.492 4.119-.398 5.371.98.098.116.226.196.285.176.215-.075 1.346.14 1.673.317.185.102.576.391.868.631.514.428.532.455.745 1.071.188.542.21.701.153 1.136-.072.607-.362 1.065-.826 1.309-.415.219-1.448.453-4.013.919-5.412.987-7.91 1.646-14.938 3.942-11.857 3.88-12.598 4.096-21.686 6.275-10.134 2.426-15.806 3.978-23.659 6.461l-6.669 2.105c-6.549 2.072-9.05 2.915-12.658 4.258l-3.591 1.395c-.216.167 4.473-.911 13.633-3.124 2.118-.51 5.853-1.298 9.565-2.029 8.635-1.69 13.354-2.803 19.062-4.492l8.888-2.542c3.612-1.021 4.402-1.261 9.022-2.756 3.598-1.156 5.999-1.881 11.856-3.572l9.22-2.782c7.272-2.265 9.13-2.444 10.504-1 .423.452.596.758.663 1.217zm-.686-.253c-.513-.545-1.099-.724-2.129-.649-1.098.072-2.165.326-3.835.906-1.581.548-2.962.977-9.211 2.904l-10.865 3.436c-17.087 5.461-21.368 6.688-30.96 8.901-3.072.708-13.605 2.965-21.481 4.591-7.704 1.592-9.45 1.998-13.712 3.135-3.529.95-5.277 1.207-5.419.799-.082-.238.29-.533 1.368-1.09 2.998-1.547 5.43-2.515 12.422-4.94 5.744-1.993 7.006-2.406 16.777-5.446 6.836-2.13 13.581-3.946 22.087-5.957 7.761-1.835 9.868-2.425 17.01-4.777 11.676-3.851 12.763-4.145 20.824-5.644 1.953-.361 2.651-.603 2.857-.991a2.02 2.02 0 0 0 .199-.984c-.011-.295-.764-.982-1.329-1.218a4.53 4.53 0 0 0-1.051-.251c-.846-.089-1.314-.001-5.797 1.146-3.452.882-4.339 1.081-6.939 1.568-6.765 1.257-9.476 1.973-20.428 5.348l-10.015 3.008c-1.104.316-3.629 1.117-5.618 1.782-3.783 1.271-4.956 1.628-4.804 1.467.235-.256 7.777-2.939 9.909-3.529.646-.174 1.75-.515 2.448-.757s2.014-.641 2.933-.893c1.77-.481 6.493-1.944 6.571-2.03.015-.03 1.234-.469 2.694-.984 2.792-.985 3.285-1.123 6.469-1.82 2.557-.563 4.179-.967 6.155-1.553l3.716-1.031 4.256-1.152c3.626-.983 6.249-1.619 6.926-1.679.266-.026.159-.213-.236-.442-1.036-.589-3.715-.258-9.072 1.126-2.786.717-4.922 1.317-10.19 2.861-7.229 2.125-9.346 2.71-18.026 4.964-10.213 2.653-9.844 2.542-20.816 6.265l-11.367 3.785-20.01 6.433c-6.421 2.152-6.762 2.246-6.92 1.935-.176-.338.329-.729 2.437-1.868 4.928-2.666 10.04-5.021 17.935-8.267 7.488-3.079 12.503-4.944 18.296-6.82a185.49 185.49 0 0 1 10.55-3.144c7.074-1.946 9.027-2.549 14.986-4.616 5.262-1.825 8.39-3.019 18.905-7.223l5.007-1.986c2.957-1.159 3.937-1.64 4.751-2.313.386-.325.595-.73.447-.895a7.53 7.53 0 0 1-.243-.34c-.172-.281-.429-.375-1.043-.395-2.423-.082-7.766 1.63-20.805 6.66-5.42 2.088-14.202 5.175-19.345 6.793l-7.015 2.234c-8.241 2.659-17.614 6.318-24.105 9.417-.877.421-1.663.768-1.745.772-.323.004-.279-.278.092-.623.879-.82 4.958-3.515 9.244-6.116 5.616-3.395 11.793-6.394 18.985-9.196l7.148-2.646c7.784-2.825 10.112-3.757 16.614-6.636l8.403-3.58c2.747-1.094 3.23-1.378 3.386-2.006.076-.309-.15-.696-.507-.863-.662-.328-1.869.099-7.416 2.614-7.029 3.178-8.758 3.852-20.338 7.886l-11.173 3.983c-8.303 3.462-12.313 5.61-22.641 12.153l-14.585 9.008-5.421 3.261c-.782.479-1.477.87-1.544.868-.234-.002-.235-.293-.003-.631.322-.461 2.555-2.749 3.987-4.085 5.336-4.994 11.192-9.204 19.767-14.207 10.918-6.373 21.727-11.502 36.544-17.349 2.999-1.181 10.415-3.795 15.077-5.313 4.526-1.478 5.068-1.691 5.7-2.193.593-.472 1.071-1.419.849-1.675-.34-.405-2.89.321-6.843 1.942-6.995 2.867-13.472 5.338-21.625 8.249-11.348 4.053-14.029 5.241-24.989 11.087l-10.979 5.671c-7.284 3.616-11.231 5.95-17.426 10.285-3.552 2.488-9.067 6.629-11.344 8.525-2.199 1.835-5.799 5.262-6.123 5.84a3.53 3.53 0 0 1-.32.444c-.259.306-.285.282.655.904a10.7 10.7 0 0 1 1.226.971c1.415 1.347 3.211 4.174 5.018 7.921.971 2.008 1.161 2.366 1.495 2.824.608.82 1.351 1.02 2.637.698.406-.099 2.185-.65 3.952-1.213 3.299-1.061 3.92-1.235 9.505-2.681 5.547-1.434 6.102-1.585 13.186-3.693l14.198-4.135c7.989-2.231 11.167-3.183 19.913-5.992 7.513-2.407 9.942-3.1 17.751-5.035 6.891-1.709 8.487-2.188 14.744-4.358l5.216-1.859c.296-.178 5.202-1.688 6.572-2.03a142.4 142.4 0 0 1 3.305-.731c3.256-.655 3.903-.971 4.028-1.954.056-.46.049-.483-.324-.886zm-12.423-19.827c-.045-.01-.077.018-.064.055.015.045.065.069.102.056.045-.016.069-.041.064-.056-.008-.022-.05-.049-.102-.055zm1.563 10.308c-.486.035-.866.092-.856.122s.463.014 1.011-.035l1.149-.091c.09-.006.027-.017-.137-.035s-.69-.002-1.167.039zm.38 2.055c-.051.042-.021.057.06.029.084-.021.121-.059.084-.071-.03-.014-.1.001-.144.042zm-.842.209c-.044.04-.002.042.102.006s.136-.064.084-.071c-.057.003-.147.034-.186.065zm-3.685 1.361c-.044.04-.002.042.102.006s.136-.064.084-.07c-.058.003-.147.034-.186.064zm-.731.17c-.066.048-.017.048.102.007.126-.044.173-.077.121-.084-.057.003-.161.039-.223.077zm-.731.171c-.044.04-.002.042.102.006s.136-.064.084-.071a.41.41 0 0 0-.186.065zm-67.835 11.058c-.052.043-.022.057.06.029.084-.021.121-.059.083-.07-.03-.015-.099.001-.143.041zm-36.59 12.592c-.665.721-.654.776.009.147.317-.31.55-.573.515-.603s-.272.177-.524.456zm5.327 17.169c-.068.115-.923.478-5.405 2.299l-3.635 1.627c-.646.365-3.326 1.652-4.757 2.273-1.463.649-1.528.63-2.883-.737-.423-.427-.88-.834-1.022-.91-.54-.286-1.694.056-2.196.646-.409.474-.505.965-.305 1.519.088.252.246.563.349.694.255.327.271.829.043 1.298-.097.2-.54.745-.991 1.217-1.013 1.058-1.644 1.876-2.302 2.977-.682 1.126-.865 1.34-1.217 1.428-.245.06-.327.039-.546-.159-.153-.13-.476-.559-.734-.943-.502-.774-.691-.983-1.003-1.116-.252-.103-.7.044-1.185.395-.194.134-.404.248-.481.242-.371-.013-.909-.966-1.297-2.278a13.77 13.77 0 0 1-.53-4.572l.017-.837c-.078-.032-.838 1.396-1.006 1.87-.374 1.103-.425 1.844-.31 4.332.059 1.226-.033 1.799-.362 2.146-.164.173-.379.272-1.297.574-.829.271-1.358.496-2.103.888-.879.463-1.193.588-2.579 1.027-1.2.375-2.036.698-3.526 1.34l-5.596 2.182c-4.254 1.567-5.593 2.14-8.472 3.62-1.758.901-2.45 1.016-3.359.55-.648-.332-2.369-1.722-3.847-3.13l-2.478-2.159c-1.969-1.529-2.22-1.774-2.421-2.353-.265-.764-.191-1.821.378-5.095.425-2.467.722-3.526 1.239-4.362.389-.651.975-1.287 1.265-1.387.297-.103.743.033 1.122.334.825.653 2.096 2.375 2.932 3.972.621 1.19 2.06 5.313 2.219 6.372.13.903.133 1.917-.008 3.188l-.11.977.189-.124c.321-.202.947-1.01 1.155-1.464.225-.527.34-1.299.287-1.954-.132-1.509-.887-4.141-1.875-6.533-1.08-2.611-1.79-3.794-3.111-5.182-.378-.393-.58-.664-.584-.771-.02-.633 2.133-1.571 9.428-4.101 4.493-1.55 8.848-2.969 11.47-3.729l11.991-3.661 15.214-4.728c.888-.076 1.341.175 1.941 1.064.27.397.416.745.913 2.178.806 2.348 1.069 3.728 1.23 6.591.084 1.392.098 1.504.266 1.653.166.142.223.139.631-.002.394-.137.48-.2.663-.488.46-.733.536-1.425.334-2.968-.274-2.058-1.008-4.057-2.31-6.274-.84-1.438-.901-1.592-.753-1.884.16-.305.392-.477 1.027-.755l.556-.243.53.331c1.002.609 2.433 2.075 3.872 3.946 1.302 1.693 1.961 2.728 2.902 4.555.901 1.758 1.53 2.854 1.913 3.311.303.369.61 1.135.52 1.283zm-33.104 11.616c-.008.094.003.223.024.283.023.067.05.049.054-.061.008-.094-.003-.223-.024-.282-.023-.067-.05-.05-.054.06zm15.944-4.872c-.289.533-1.143.804-1.712.552-.305-.135-.38-.4-.21-.75.133-.262.192-.308.652-.467.512-.178.781-.171 1.094.036.19.117.286.441.176.629z" fill="#8ba26e"/><g fill="#fa2b2b"><path d="M126.386 480.183c-2.476-.293-7.771-1.885-11.643-3.497-3.916-1.626-5.791-2.754-10.541-6.355-1.33-1.016-3.046-2.277-3.804-2.796-1.277-.888-1.607-1.199-1.631-1.541-.018-.262.4-.952.781-1.295.695-.639.93-.919 1.118-1.381.423-1.007.896-1.419 1.692-1.483 1.235-.087 2.098.425 5.226 3.11 2.763 2.368 3.451 2.9 4.625 3.575 2.604 1.49 5.634 2.527 8.26 2.818 1.367.16 1.798.165 4.556.086 2.961-.076 3.717.039 4.422.676.348.31.641.853.586 1.076-.021.081.042.341.138.581.265.65.473 2.862.35 3.742-.166 1.27-.495 1.857-1.273 2.307-.397.231-.596.289-1.357.359-.498.053-1.157.064-1.504.018zm2.105-.737c1.139-.327 1.533-1.358 1.379-3.565-.109-1.418-.348-2.202-.852-2.73s-.857-.556-3.366-.31c-2.334.225-3.171.222-4.957-.022-1.965-.276-4.159-.941-6.224-1.905-3.504-1.638-6.229-3.471-8.972-6.061-2.742-2.58-3.656-2.815-4.357-1.138-.225.562-.731 1.249-.915 1.262-.052.003-.269.186-.483.394-.6.606-.639.556 1.503 1.972.479.31 1.89 1.355 3.146 2.315 3.795 2.911 5.631 4.111 8.218 5.365 2.679 1.299 6.716 2.759 10.386 3.769 3.033.826 4.355.98 5.494.654zm-34.689-14.381c-2.234-.099-4.898-.81-8.026-2.122-2.386-1.012-4.339-2.257-6.617-4.236-3.738-3.232-6.636-7.157-9.119-12.308-1.298-2.69-2.184-5.04-4.402-11.697l-3.197-9.194c-2.384-6.39-4.868-12.192-7.397-17.26-1.465-2.943-2.397-5.316-2.987-7.58-.169-.649-.237-1.251-.343-2.881-.151-2.287-.12-3.099.261-7.324.253-2.79.28-3.663.203-6.527l-.05-2.593c-.003-.29-.039-.684-.088-.874l-.095-.346-.203.367c-.564.99-1.07 4.449-1.355 9.292-.123 2.13-.141 2.255-.269 2.686-.087.27-.389.353-.579.155-.266-.28-.635-2.032-1.336-6.384-.748-4.639-1.15-6.741-2.156-11.291-1.185-5.348-1.487-7.395-1.845-12.633a123.25 123.25 0 0 1-.325-8.031l-.09-5.935c-.088-4.773.09-6.37 1.667-14.516.93-4.809 1.411-6.489 2.146-7.561.719-1.045 1.386-1.33 2.008-.863.642.492 1.432 2.1 2.053 4.169.544 1.854.75 3.046 1.489 8.565.364 2.686.618 4.173 1.126 6.523.407 1.916 1.455 6.314 1.558 6.536.072.153.504 3.045.667 4.486.08.637.109 1.55.086 2.353-.02.714.005 1.452.053 1.642s.248.519.439.735c.401.447.456.725.171.938-.108.087-.677.268-1.265.406-1.264.3-2.403.749-3.161 1.242-.538.355-1.655 1.507-1.641 1.7.01.14.627-.088 2.361-.852 1.793-.786 2.567-1.052 3.267-1.101.692-.048 1.022.14 1.054.595a.7.7 0 0 0 .256.511c.234.203.252.211 1.194.083.785-.108.96-.111.976-.016.014.07.104 1.366.193 2.883.207 3.207.379 4.4.927 6.316l1.111 3.927c1.436 5.039 2.14 6.926 4.759 12.649 2.35 5.142 3.194 7.266 4.978 12.633 2.675 8.033 3.434 9.943 6.451 16.315 1.788 3.783 2.942 5.937 4.616 8.601 1.089 1.728 1.325 2.328 1.125 2.861-.088.244-.383.441-.681.462-.368.025-1.379-.203-3.505-.785-1.184-.321-3.218-.83-4.524-1.126-3.748-.855-4.389-.96-4.505-.732-.132.247.688 1.026 1.698 1.615 1.091.628 1.776.853 6.352 2.099 4.558 1.238 7.069 2.145 8.489 3.075 1.587 1.042 3.337 2.785 5.395 5.387 3.147 3.969 6.609 9.28 7.633 11.708 1.453 3.41 1.433 7.134-.061 9.686-.682 1.192-2.164 2.651-3.07 3.041-.931.408-2.344.595-3.871.526zm-35.53-95.78c.224-.323.185-.62-.096-.864-.46-.408-1.193-.066-1.152.52.007.106.1.293.214.417.152.165.27.21.533.191s.373-.079.501-.264z"/><path d="M57.746 369.03c-.174-.085-.107-.39.095-.404.114-.008.19.057.215.17.041.201-.127.336-.31.234zm54.513 89.2c-.654-.05-2.932-.648-3.64-.95-.69-.304-.811-.401-1.04-.904-.278-.57-.253-.968.1-2.093.18-.567.36-1.266.385-1.541.121-1.03-.304-3.2-1.316-6.72-2.058-7.126-3.437-11.483-4.392-13.81-.934-2.267-1.527-3.194-3.486-5.407-1.07-1.201-1.22-1.965-.472-2.343.247-.123.57-.163 1.887-.203 1.335-.04 1.668-.072 2.053-.223.627-.228.838-.234 1.39-.018.641.237.8.499 1.008 1.584.292 1.529.64 2.842 1.032 3.924.426 1.176 1.919 4.645 2.578 6.007 1.276 2.63 2.368 5.282 2.866 6.99.29.992.803 3.922.882 5.043.096 1.375.358 2.853.601 3.434.118.291.456.972.758 1.514.849 1.569 1.084 2.159 1.197 3.014.168 1.273-.072 1.994-.791 2.397-.449.251-.997.351-1.599.305zm1.413-1.067c.412-.53.236-1.152-.91-3.193-1.337-2.37-1.439-2.698-1.978-6.242-.796-5.199-1.496-7.403-4.295-13.562-1.966-4.315-2.275-5.209-2.644-7.577-.098-.654-.246-1.374-.314-1.598-.18-.55-.413-.613-1.283-.341-.525.16-.805.197-1.755.202-1.285.002-1.774.045-1.888.177-.171.196.125.651 1.144 1.759.59.636 1.281 1.459 1.536 1.828 1.388 1.963 2.415 4.69 4.778 12.666 2.11 7.122 2.502 8.687 2.622 10.404.072 1.034-.03 1.701-.423 2.758-.392 1.066-.404 1.261-.161 1.719l.193.374 1.83.479c2.169.561 2.32.585 2.886.502.348-.06.476-.122.662-.355zM99.19 423.626c-.595-.082-1.206-.259-1.501-.441l-1.426-.885c-1.371-.846-3.618-2.775-4.664-4.004-2.176-2.541-3.907-5.517-5.483-9.412-1.043-2.567-2.312-5.99-2.559-6.871-.307-1.113-.709-3.206-.772-3.985-.043-.613-.037-.649.759-2.606.871-2.147 1.239-3.414 1.362-4.672.104-1.02.083-3.333-.04-4.97-.097-1.261-.098-1.27-.186-.771-.042.276-.138 1.172-.204 1.986-.181 2.319-.825 6.061-1.248 7.19-.414 1.13-.961 1.608-1.219 1.063-.311-.665-.855-2.783-1.39-5.386-.336-1.649-.715-3.048-1.756-6.346-1.438-4.564-1.731-5.741-2.268-9.127-.409-2.568-.508-2.983-.957-3.982-.886-1.962-1.895-3.299-3.57-4.722-.58-.488-1.09-.989-1.133-1.1-.151-.395.398-.732 1.308-.805.578-.04.643-.124.538-.61-.112-.467-.011-.659.496-.959 1.344-.789 3.647-1.215 6.17-1.127.538.015 1.003 0 1.036-.029.162-.196-.803-.78-1.563-.956-1.126-.246-3.039-.165-4.975.226-1.658.327-1.889.053-1.88-2.21-.001-.765-.037-1.027-.296-1.959a52.75 52.75 0 0 1-.5-1.989l-.451-2.037a63.36 63.36 0 0 1-.919-4.821l-.406-2.656c-.847-5.301-2.496-9.119-6.167-14.266-1.64-2.297-2.293-3.457-2.342-4.149-.028-.403.407-.97.87-1.144 1.166-.442 2.558.085 5.851 2.231 5.699 3.702 9.902 8.16 13.557 14.347 2.178 3.693 3.321 6.192 6.226 13.602a190.66 190.66 0 0 0 2.323 5.514c1.655 3.766 2.041 4.751 2.251 5.748.304 1.449-.088 2.638-.894 2.695-.482.033-2.328-.559-4.745-1.525-1.123-.449-2.171-.833-2.339-.848l-.293-.041.158.253c.22.372.633.624 2.63 1.602 2.179 1.071 2.921 1.371 4.167 1.688 1.156.298 1.476.469 1.892.995.377.484 1.438 2.68 1.887 3.934.186.523.726 1.947 1.191 3.173a214.06 214.06 0 0 1 1.739 4.719l1.683 4.547c1.711 4.448 2.688 7.583 2.786 8.984.042.605.029.667-.199.93-.237.263-.288.284-.764.282-.818-.004-1.484-.336-3.018-1.505-1.377-1.056-2.505-1.84-2.499-1.743.008.114.592.786 1.074 1.254.679.647 3.138 2.323 4.011 2.737 1.056.498 1.282.711 1.603 1.516.504 1.294 1.237 4.209 1.466 5.847.058.454.29 1.749.518 2.869.492 2.5.731 4.781.762 7.234.037 2.656-.112 3.669-.695 5.03-.5 1.153-1.353 1.917-2.483 2.243-.432.118-2.12.272-2.511.22zm-3.724-2.274c-.001-.017-.076-.083-.159-.138-.148-.104-.156-.095-.033.037s.197.171.192.101zM76.85 367.101c.391-.45.005-1.18-.608-1.137s-.85.808-.373 1.215c.309.268.703.241.98-.078z"/><path d="M75.942 366.825c-.113-.098-.127-.177-.075-.313.1-.21.275-.24.437-.066.276.29-.061.64-.362.379z"/></g></svg>