<svg width="739" height="695" viewBox="0 0 739 695" fill="none" xmlns="http://www.w3.org/2000/svg">
<path d="M413.366 -11.6211C414.25 -11.1952 414.842 -10.3853 414.889 -9.50085C414.939 -8.70988 414.59 -7.5638 413.514 -4.9211C411.291 0.51325 411.154 0.949066 407.954 12.8135C406.042 19.949 404.955 23.8074 404.583 24.8842C403.297 28.5842 402.595 30.5391 401.139 34.5194C397.754 43.7814 396.571 47.4142 393.405 58.2897C391.085 66.2404 389.173 72.3569 386.525 80.2406C384.597 85.9851 383.748 88.6046 380.866 97.6339C377.212 109.114 376.702 110.627 374.244 117.448C371.915 123.904 371.441 125.321 370.2 129.601C369.544 131.852 368.878 133.984 368.722 134.331C367.932 136.105 366.994 136.705 365.109 136.641C364.745 136.627 363.473 136.475 362.289 136.305C358.147 135.689 354.945 135.409 352.443 135.453C350.183 135.499 348.55 135.828 347.152 136.536C346.74 136.74 346.294 136.915 346.166 136.923C345.856 136.945 345.562 136.551 345.398 135.908C345.329 135.616 345.226 135.295 345.167 135.163C344.934 134.701 344.331 132.796 343.977 131.409C343.522 129.659 343.086 127.168 342.522 123.235C340.862 111.476 340.711 108.589 341.333 100.698C341.713 95.8306 341.782 94.3992 341.873 89.2761C341.985 81.8789 342.18 79.3469 343.176 71.5142C343.979 65.1428 344.825 59.2447 345.661 54.1636C345.991 52.1089 346.692 47.412 347.341 42.7955C348.339 35.6987 349.105 31.8595 351.457 22.142C352.243 18.8963 353.23 14.6644 353.646 12.7589C355.381 4.83032 358.048 -3.55275 359.706 -6.29149C360.645 -7.83624 361.218 -8.36566 362.299 -8.71668C362.829 -8.88991 362.89 -8.88396 363.202 -8.67442C363.623 -8.40396 364.176 -7.44701 364.324 -6.74548C364.572 -5.55489 364.715 -6.16784 361.186 7.0054C358.932 15.4151 357.724 20.0813 357.334 21.8888C355.061 32.3314 354.017 37.6403 352.823 44.6845C350.161 60.5381 348.686 77.8442 349.004 89.6742C349.109 93.5576 349.652 100.742 349.898 101.511C349.973 101.742 349.982 101.629 350.104 99.371C350.156 98.4292 350.344 96.0423 350.515 94.0711C351.065 87.9046 351.178 85.6765 351.189 80.3846C351.197 76.3948 351.417 71.8104 351.815 67.3053C352.255 62.2126 352.576 59.7984 353.748 52.6013C354.196 49.8323 354.747 46.366 354.973 44.893C355.831 39.2609 356.304 37.1816 359.156 26.4214C360.798 20.2537 361.712 16.9584 362.372 14.8872C363.529 11.2366 365.322 4.62586 365.803 2.20207C366.916 -3.40356 367.316 -4.46264 368.777 -5.60477C370.054 -6.60724 371.428 -6.32322 371.769 -4.97107C371.98 -4.14788 371.868 -3.2218 371.146 0.0618967C370.328 3.74028 370.153 4.67021 369.008 10.9399C367.251 20.596 366.571 23.7229 364.089 33.4161C361.059 45.2735 359.76 51.5332 358.691 59.441C358.168 63.3557 357.643 69.6654 357.567 72.8492L357.553 73.6858L357.819 72.4965C357.963 71.8417 358.333 70.1865 358.644 68.8306C358.948 67.4622 359.605 64.3817 360.113 61.9756C361.858 53.6607 362.117 52.6165 365.808 39.0768C368.092 30.707 369.728 24.9157 370.531 22.2733C372.137 17.0624 375.364 5.80398 377.275 -1.28969C378.687 -6.47925 378.838 -6.96407 379.38 -8.20534C380.85 -11.5725 381.769 -12.6499 383.434 -12.9812C384.688 -13.2334 385.287 -12.9575 385.595 -11.9923C385.75 -11.5097 385.803 -10.571 385.737 -9.58019C385.669 -8.62138 385.348 -6.95301 384.52 -3.23542C384.088 -1.27108 383.43 1.69372 383.068 3.36138C380.169 16.7668 379.031 21.4834 376.735 29.8185C374.501 37.9184 374.364 38.3543 370.609 49.5029C366.39 61.9975 362.776 76.1884 359.544 92.9184C358.969 95.9265 358.137 100.757 358.072 101.506C358.046 101.762 359.418 96.8768 361.115 90.6607C362.822 84.4472 364.634 77.9574 365.155 76.2481C367.774 67.6525 368.631 65.0037 370.538 59.7265C372.286 54.8896 373.014 52.7629 373.903 49.9128C375.979 43.2625 376.925 40.3222 378.889 34.4404C382.031 25.0291 382.649 23.2722 385.415 15.9665C386.804 12.2731 388.358 7.96218 389.327 5.09123C390.978 0.186297 391.811 -1.94359 393.024 -4.39199C395.123 -8.61986 395.584 -9.08471 397.965 -9.42371C398.16 -9.44505 398.338 -9.52327 398.359 -9.60169C398.436 -9.88593 399.485 -10.939 399.912 -11.1607C400.155 -11.2846 400.747 -11.4937 401.214 -11.6311C402.045 -11.8706 402.087 -11.8699 402.901 -11.652C403.616 -11.4602 403.802 -11.3685 404.226 -10.9922C404.823 -10.4751 405.103 -9.83285 405.027 -9.15968C404.961 -8.55776 404.462 -7.28375 403.1 -4.20279C400.234 2.29884 399.128 5.44808 396.49 14.6267C392.045 30.1179 391.738 31.0654 387.482 42.3631C382.731 54.957 380.279 62.1475 377.243 72.3433C376.651 74.3172 375.49 78.2188 374.66 81.001C372.13 89.5045 371.218 92.7899 370.039 97.6215C369.43 100.169 368.928 102.356 368.928 102.472C368.949 102.824 371.196 97.0281 375.468 85.6298C376.458 82.9954 378.322 78.4313 380.231 73.932C384.683 63.4744 386.913 57.6217 389.244 50.2939C390.099 47.613 391.243 44.1272 392.967 38.9478C394.494 34.346 394.809 33.3274 396.559 27.3042C397.931 22.6185 398.896 19.526 401.333 12.0375C402.665 7.92963 403.604 4.9351 405.04 0.161951C407.889 -9.25431 409.045 -11.3714 411.585 -11.7939C412.374 -11.9184 412.827 -11.8813 413.366 -11.6211ZM412.599 -11.0704C411.644 -10.9166 411.027 -10.4199 410.361 -9.26442C409.643 -8.03839 409.141 -6.71275 408.55 -4.5074C407.991 -2.41968 407.449 -0.631959 404.979 7.44674C404.273 9.7683 402.382 16.1214 400.779 21.5539C394.234 43.7837 392.444 49.2499 387.858 61.1107C386.389 64.9086 381.168 77.8072 377.198 87.4065C373.316 96.798 372.485 98.9599 370.612 104.341C369.07 108.802 368.078 110.858 367.539 110.714C367.225 110.63 367.179 110.018 367.365 108.461C367.884 104.135 368.611 100.832 371.085 91.5988C373.118 84.0124 373.591 82.3639 377.422 69.7126C380.099 60.8596 383.046 52.3311 387.061 41.7776C390.723 32.1485 391.62 29.4684 394.28 20.1277C398.626 4.85136 399.099 3.47601 403.339 -6.22946C404.368 -8.58004 404.615 -9.50138 404.35 -10.003C404.169 -10.3458 403.813 -10.7037 403.442 -10.929C403.118 -11.1314 401.838 -10.8231 401.176 -10.3912C400.895 -10.2039 400.425 -9.78354 400.146 -9.44856C399.438 -8.60882 399.192 -8.04436 397.17 -2.41956C395.611 1.91093 395.181 3.00396 393.817 6.13655C390.258 14.2806 389.059 17.6991 384.73 31.8557C382.726 38.4309 381.832 41.2588 380.688 44.7447C380.226 46.1547 379.253 49.4342 378.522 52.0433C377.139 57.0093 376.67 58.5226 376.609 58.2434C376.505 57.806 379.103 47.7973 380.017 45.0903C380.299 44.2729 380.734 42.8452 380.981 41.9239C381.228 41.0026 381.756 39.3057 382.153 38.1407C382.921 35.899 384.779 29.789 384.745 29.6432C384.723 29.6059 385.137 27.9834 385.644 26.0498C386.615 22.3494 386.825 21.7228 388.387 17.8133C389.639 14.6714 390.382 12.6434 391.188 10.1069C391.564 8.93668 392.282 6.80731 392.778 5.38558C393.277 3.95404 394.106 1.5287 394.631 -0.000847268C396.207 -4.5895 397.429 -7.85496 397.856 -8.62313C398.021 -8.92557 397.743 -8.94747 397.212 -8.69057C395.832 -8.00982 394.244 -4.9056 391.841 1.82536C390.589 5.32413 389.681 8.04351 387.515 14.7957C384.548 24.0647 383.639 26.7521 379.758 37.6672C375.193 50.5104 375.341 50.0354 371.369 64.4664C369.529 71.1379 367.639 77.8381 367.178 79.3638C364.215 89.012 362.566 94.6529 359.555 105.423C357.203 113.848 357.055 114.281 356.608 114.224C356.119 114.167 356.067 113.344 356.377 110.265C357.098 103.063 358.285 95.8904 360.537 85.0955C362.671 74.8574 364.312 68.1432 366.504 60.589C368.288 54.4802 368.582 53.54 370.789 47.0297C373.834 38.0549 374.605 35.5302 376.714 27.6595C378.576 20.7103 379.568 16.5007 382.693 2.21052C383.2 -0.111924 383.881 -3.16493 384.198 -4.58231C385.102 -8.58414 385.298 -9.9814 385.168 -11.3398C385.1 -11.9883 384.819 -12.505 384.535 -12.4655C384.439 -12.4597 384.195 -12.4515 383.996 -12.4524C383.57 -12.4719 383.284 -12.265 382.817 -11.6231C380.973 -9.09174 378.931 -2.1381 374.86 15.4492C373.164 22.7582 370.101 34.3861 368.103 41.0574C367.474 43.1686 366.258 47.276 365.407 50.1784C362.277 60.9167 359.396 73.5913 358.006 82.7786C357.82 84.0209 357.622 85.1129 357.566 85.2031C357.336 85.5512 357.067 85.3005 356.968 84.6539C356.728 83.1189 356.802 76.8041 357.127 70.3361C357.567 61.8712 358.838 53.093 361.054 43.3707C361.388 41.9266 362.445 37.6295 363.405 33.8107C366.027 23.4405 366.717 20.2745 368.351 11.2365C369.532 4.71391 369.76 3.54612 370.613 -0.343346C371.434 -4.07336 371.481 -4.79624 370.923 -5.41852C370.647 -5.72345 370.07 -5.76271 369.632 -5.50177C368.802 -5.03084 368.384 -3.43056 367.052 4.32268C365.356 14.1423 364.824 16.4791 360.744 31.7845C358.409 40.5399 357.185 45.2649 356.906 46.619C354.59 58.0059 353.98 63.8514 353.49 79.6357C353.189 89.1883 353.009 93.6257 352.552 101.76C352.371 105.063 352.164 108.737 352.11 109.92C352.055 111.103 351.969 112.13 351.919 112.201C351.747 112.449 351.435 112.24 351.242 111.747C350.983 111.068 350.155 107.022 349.764 104.522C348.291 95.1979 348.034 85.8845 348.899 73.0898C349.998 56.7964 352.347 41.521 356.835 21.4398C357.745 17.3766 360.325 7.55213 362.081 1.46749C363.781 -4.44334 363.946 -5.17653 363.867 -6.21657C363.792 -7.19255 363.126 -8.39017 362.692 -8.3384C362.011 -8.26862 360.94 -5.01541 359.808 0.385605C357.803 9.94406 355.752 18.6599 352.956 29.4874C349.064 44.5597 348.391 48.2873 346.7 64.2434C345.998 70.8626 345.526 74.7807 344.806 80.0926C343.393 90.5028 343.028 96.414 343.173 106.181C343.259 111.782 343.69 120.68 344.067 124.489C344.435 128.17 345.491 134.504 345.874 135.269C345.943 135.403 346.051 135.705 346.116 135.932C346.256 136.432 346.211 136.441 347.557 135.888C348.078 135.67 348.949 135.399 349.485 135.28C351.95 134.743 356.275 134.873 361.591 135.656C364.442 136.073 364.963 136.129 365.694 136.104C367.012 136.048 367.764 135.398 368.352 133.791C368.54 133.285 369.241 130.983 369.92 128.685C371.176 124.389 371.44 123.598 373.941 116.579C376.429 109.608 376.669 108.905 379.55 99.8024C382.523 90.4301 383.975 85.9132 385.418 81.625C388.824 71.4649 390.108 67.376 393.443 55.9889C396.315 46.2112 397.335 43.1122 400.925 33.3589C404.093 24.7529 404.738 22.6986 406.951 14.4359C407.924 10.7675 408.737 7.65518 408.744 7.51008C408.769 7.06497 410.709 0.724988 411.336 -0.987463C411.671 -1.88517 412.401 -3.70666 412.95 -5.0512C414.61 -9.00833 414.741 -9.92916 413.78 -10.7748C413.329 -11.1689 413.3 -11.1767 412.599 -11.0704ZM382.393 -12.1569C382.351 -12.1158 382.357 -12.0615 382.406 -12.0484C382.465 -12.0327 382.527 -12.0685 382.54 -12.1175C382.556 -12.1764 382.547 -12.2208 382.527 -12.2261C382.498 -12.2339 382.438 -12.2079 382.393 -12.1569ZM394.549 -6.35764C394.234 -5.81157 394.02 -5.36473 394.059 -5.35422C394.098 -5.34372 394.409 -5.83816 394.755 -6.46001C395.097 -7.07207 395.432 -7.65472 395.49 -7.75465C395.549 -7.85459 395.491 -7.79649 395.353 -7.63389C395.215 -7.4713 394.851 -6.89653 394.549 -6.35764ZM397.021 -5.27486C397.03 -5.18856 397.067 -5.21009 397.096 -5.31791C397.135 -5.4231 397.121 -5.48979 397.081 -5.45846C397.044 -5.43693 397.01 -5.35135 397.021 -5.27486ZM396.634 -4.22295C396.645 -4.14646 396.678 -4.19022 396.715 -4.32744C396.752 -4.46466 396.745 -4.51892 396.7 -4.46799C396.662 -4.40463 396.631 -4.28701 396.634 -4.22295ZM395.419 0.704071C395.43 0.78056 395.463 0.736806 395.5 0.599584C395.537 0.462363 395.53 0.408103 395.485 0.459033C395.447 0.522391 395.415 0.640009 395.419 0.704071ZM395.072 1.60895C395.075 1.71485 395.11 1.66129 395.152 1.50447C395.197 1.33784 395.196 1.26398 395.151 1.31491C395.113 1.37826 395.076 1.51549 395.072 1.60895ZM394.724 2.51383C394.735 2.59032 394.768 2.54657 394.805 2.40935C394.842 2.27213 394.835 2.21787 394.79 2.2688C394.752 2.33215 394.72 2.44977 394.724 2.51383ZM357.383 83.0635C357.392 83.1498 357.429 83.1282 357.458 83.0204C357.496 82.9152 357.483 82.8485 357.443 82.8799C357.406 82.9014 357.372 82.987 357.383 83.0635ZM344.328 131.314C344.618 132.547 344.684 132.576 344.492 131.411C344.39 130.848 344.277 130.408 344.22 130.424C344.163 130.44 344.213 130.842 344.328 131.314Z" fill="#CAD7A2"/>
<path d="M366.547 138.062C366.621 138.218 366.39 139.396 365.088 145.508C364.502 148.282 364.266 149.595 364.193 150.573C364.115 151.529 363.549 155.328 363.176 157.308C362.81 159.342 362.742 159.397 360.298 159.856C359.535 159.998 358.769 160.192 358.585 160.29C357.887 160.66 357.417 162.141 357.683 163.105C357.894 163.887 358.349 164.345 359.087 164.532C359.42 164.621 359.867 164.678 360.082 164.662C360.616 164.627 361.164 164.973 361.502 165.557C361.645 165.806 361.906 166.674 362.084 167.499C362.482 169.35 362.898 170.617 363.599 172.118C364.309 173.663 364.404 174.014 364.244 174.455C364.131 174.76 364.048 174.833 363.678 174.923C363.428 174.992 362.736 175.027 362.137 175.025C360.947 175 360.586 175.05 360.218 175.288C359.924 175.482 359.757 176.068 359.781 176.841C359.783 177.146 359.753 177.453 359.69 177.531C359.408 177.918 358 177.803 356.315 177.268C354.421 176.655 352.669 175.744 351.042 174.521C350.578 174.176 350.182 173.891 350.159 173.895C350.07 173.955 351.046 175.803 351.431 176.326C352.338 177.526 353.094 178.117 355.837 179.797C357.192 180.622 357.737 181.136 357.87 181.739C357.936 182.04 357.887 182.342 357.544 183.543C357.233 184.625 357.09 185.354 356.969 186.435C356.826 187.71 356.733 188.137 356.198 189.937C355.729 191.492 355.469 192.62 355.075 194.679C354.762 196.318 354.084 199.277 353.353 202.243C351.945 207.927 351.587 209.775 351.084 213.926C350.773 216.459 350.395 217.282 349.237 217.917C348.412 218.368 345.678 219.201 343.101 219.761C341.807 220.044 339.962 220.538 338.997 220.846C335.936 221.843 335.491 221.934 334.727 221.729C333.717 221.459 332.641 220.614 329.553 217.633C327.222 215.391 326.305 214.304 325.786 213.146C325.372 212.258 325.118 211.171 325.22 210.788C325.325 210.396 325.794 210.018 326.39 209.831C327.687 209.422 330.448 209.311 332.763 209.574C334.485 209.773 339.937 211.223 341.185 211.82C342.244 212.335 343.33 213.067 344.587 214.139L345.552 214.965L345.557 214.673C345.573 214.183 345.163 212.928 344.828 212.376C344.427 211.754 343.686 211.072 342.947 210.653C341.238 209.702 337.876 208.601 334.602 207.924C331.028 207.187 329.248 207.088 326.806 207.495C326.113 207.613 325.677 207.633 325.56 207.56C324.868 207.122 325.425 204.141 328.007 194.506C329.606 188.579 331.245 182.894 332.332 179.54C334.111 174.039 335.832 168.48 337.109 164.064C341.965 147.275 342.58 145.255 343.08 144.37C343.643 143.365 344.239 143.062 345.625 143.066C346.245 143.064 346.723 143.161 348.615 143.668C351.71 144.507 353.376 145.227 356.554 147.129C358.104 148.049 358.233 148.115 358.515 148.043C358.787 147.969 358.825 147.906 358.97 147.367C359.109 146.847 359.104 146.709 358.928 146.305C358.478 145.281 357.794 144.698 355.997 143.797C353.598 142.597 350.929 141.934 347.614 141.719C345.468 141.574 345.259 141.529 345.054 141.159C344.844 140.766 344.828 140.394 344.99 139.513L345.134 138.743L345.873 138.416C347.25 137.786 349.854 137.318 352.897 137.136C355.652 136.97 357.236 137.017 359.872 137.334C362.404 137.645 364.032 137.766 364.799 137.688C365.413 137.632 366.455 137.858 366.547 138.062ZM354.975 181.877C355.07 181.955 355.216 182.037 355.295 182.058C355.383 182.081 355.383 182.039 355.269 181.956C355.174 181.878 355.028 181.797 354.95 181.776C354.862 181.752 354.861 181.794 354.975 181.877Z" fill="#CAD7A2"/>
<path d="M361.323 161.297C361.683 161.992 361.355 163.102 360.673 163.528C360.307 163.756 359.97 163.644 359.718 163.21C359.534 162.877 359.529 162.78 359.692 162.173C359.873 161.497 360.074 161.214 360.523 161.03C360.786 160.911 361.202 161.044 361.323 161.297Z" fill="#CAD7A2"/>
<path d="M581.658 427.344C581.955 427.541 582.28 428.21 582.757 429.603C583.377 431.395 583.642 432.725 584.114 436.308C584.566 439.826 584.981 442.119 585.372 443.287L585.59 443.912L585.981 443.364C587.074 441.81 589.91 438.75 592.016 436.836C592.843 436.084 594.352 434.689 595.364 433.72C597.961 431.245 600.574 429.061 600.995 429.006C601.095 428.993 601.309 429.077 601.449 429.194C601.803 429.486 601.781 429.828 601.309 432.158C600.498 436.193 599.821 437.568 596.761 441.414C595.242 443.329 593.389 445.887 593.4 446.055C593.406 446.099 593.73 445.989 594.124 445.813C595.395 445.262 599.502 443.885 601.55 443.322C604.187 442.614 607.866 441.836 608.687 441.818C609.487 441.803 610.486 442.021 610.79 442.274C611.146 442.577 611.015 442.956 610.222 443.873C608.709 445.663 606.943 447.081 605.211 447.896C604.159 448.396 603.132 448.734 600.886 449.335C597.539 450.227 596.492 450.681 592.953 452.772C590.649 454.126 588.861 455.038 585.687 456.472C584.984 456.79 584.164 457.158 583.877 457.297C583.152 457.619 582.227 457.707 580.254 457.639C577.918 457.552 576.89 457.371 574.557 456.629C571.306 455.59 571.271 455.584 565.101 454.839C563.805 454.682 561.813 454.381 560.669 454.181C559.524 453.971 557.559 453.62 556.291 453.415C552.514 452.761 550.625 452.209 549.823 451.525C549.253 451.047 549.173 450.617 549.586 450.235C549.867 449.973 549.91 449.956 550.609 450.033C551.146 450.086 552.04 450.014 554.17 449.733C556.732 449.396 558.743 449.244 559.688 449.3C559.939 449.323 559.666 449.133 558.67 448.599C556.618 447.503 554.353 446.075 553.304 445.22C551.977 444.142 551.609 443.491 552.063 443.081C552.384 442.779 552.633 442.78 554.154 443.02C554.892 443.137 556.373 443.326 557.438 443.445C560.643 443.79 561.881 444.101 565.739 445.546C566.784 445.938 567.859 446.305 568.137 446.358C568.601 446.455 568.634 446.451 568.556 446.281C568.351 445.845 567.261 441.339 566.914 439.477C566.699 438.354 566.356 436.695 566.146 435.786C565.539 433.236 565.576 431.629 566.22 431.465C566.449 431.401 566.642 431.5 567.199 431.957C569.852 434.102 572.238 437.139 574.609 441.341C575.742 443.348 576.441 444.452 576.889 444.946C577.19 445.256 577.389 445.309 577.355 445.054C577.345 444.976 577.488 444.438 577.661 443.862C578.115 442.426 578.273 441.57 578.628 438.78C579.014 435.716 579.511 433.066 580.255 430.056C580.804 427.885 581.034 427.234 581.311 427.197C581.367 427.19 581.523 427.26 581.658 427.344ZM581.321 431.812C581.235 432.354 580.959 433.948 580.702 435.336C580.446 436.735 580.164 438.623 580.071 439.538C579.619 443.819 579.517 444.329 578.899 445.211C578.673 445.546 578.42 445.771 578.182 445.848C577.056 446.21 576.303 445.463 574.356 441.995C572.41 438.527 570.153 435.45 568.142 433.548C566.905 432.379 566.635 432.133 566.598 432.194C566.579 432.219 566.667 432.715 566.787 433.286C566.919 433.856 567.369 435.986 567.793 438.007C568.584 441.785 568.677 442.145 569.383 444.422C569.835 445.886 569.874 446.434 569.532 446.75C569.017 447.213 568.357 447.086 564.462 445.703C561.194 444.542 560.356 444.347 557.16 443.99C556.025 443.857 554.658 443.676 554.137 443.575C553.617 443.486 553.172 443.443 553.152 443.468C553.017 443.644 557.782 446.831 559.898 447.985C561.358 448.786 561.744 449.063 561.778 449.318C561.825 449.673 561.399 449.785 560.024 449.797C559.312 449.789 557.459 449.943 555.901 450.115C554.345 450.297 552.577 450.496 551.986 450.551L550.895 450.661L551.894 451.139C553.292 451.813 554.614 452.248 556.757 452.756C559.761 453.455 562.751 453.964 566.385 454.388C571.177 454.953 571.489 455.013 574.683 456.037C577.133 456.82 578.081 456.989 580.62 457.072L582.581 457.141L584.313 456.405C588.173 454.779 589.498 454.13 592.267 452.445C595.83 450.283 597.219 449.683 601.087 448.631C602.439 448.273 603.977 447.788 604.501 447.561C606.315 446.769 607.923 445.53 609.705 443.546C610.12 443.096 610.447 442.669 610.44 442.614C610.408 442.37 605.13 443.516 602.047 444.442C600.472 444.909 596.136 446.349 594.403 446.984C592.992 447.497 592.686 447.492 592.615 446.948C592.527 446.283 593.05 445.458 596.211 441.261C599.584 436.798 600 435.931 600.838 431.837C601.039 430.795 601.193 429.905 601.163 429.853C601.145 429.799 600.016 430.828 598.679 432.155C597.329 433.473 595.273 435.425 594.115 436.492C591.345 439.024 590.102 440.293 588.445 442.284C587.695 443.184 586.932 444.074 586.742 444.257C586.27 444.703 585.758 444.759 585.409 444.422C584.762 443.796 584.424 442.339 583.699 437.097C583.014 432.153 582.681 430.651 581.83 428.653L581.65 428.225L581.561 429.523C581.509 430.241 581.397 431.272 581.321 431.812Z" fill="#D95D39"/>
<path d="M552.378 454.207C554.75 454.222 556.636 454.492 560.452 455.355C561.65 455.626 563.757 456.026 565.142 456.261C572.756 457.515 574.077 457.86 576.221 459.146C578.537 460.534 580.163 461.911 582.6 464.559C584.376 466.48 588.006 469.275 591.217 471.199C594.414 473.114 597.265 474.195 597.536 473.595C597.562 473.535 597.489 473.319 597.372 473.12C596.701 471.967 594.774 470.358 591.589 468.284C588.257 466.127 585.416 463.747 584.452 462.34C583.863 461.469 583.77 460.849 584.107 460.15C584.712 458.92 587.854 456.643 590.94 455.221C596.683 452.557 598.543 451.85 602.116 450.961C605.209 450.193 610.223 449.532 612.487 449.584C617.005 449.7 620.771 450.355 625.025 451.803C629.561 453.339 633.334 455.336 637.025 458.168C642.637 462.473 646.905 467.971 649.465 474.214C651.839 479.984 652.958 487.195 652.842 495.991C652.631 511.785 648.801 521.86 640.108 529.461C636.203 532.887 631.066 536.046 624.552 539.026C613.761 543.98 602.59 547.766 592.408 549.897C590.124 550.378 583.89 551.2 581.981 551.271C576.592 551.484 569.967 550.969 564.65 549.931C557.239 548.503 550.725 545.75 543.378 540.951C541.489 539.721 537.265 536.44 535.67 534.958C530.66 530.336 527.244 525.91 524.635 520.668C524.249 519.883 523.609 518.794 523.234 518.256C522.342 516.974 522.014 516.194 522.128 515.603C522.259 514.886 522.505 514.786 524.312 514.706C526.859 514.596 528.673 514.312 529.941 513.829C531.648 513.164 533.708 511.922 535.231 510.638C535.941 510.025 536.082 509.725 535.832 509.374C535.637 509.095 535.239 509.158 534.275 509.635C531.225 511.154 528.37 511.925 524.86 512.185C522.524 512.357 521.647 512.292 521.171 511.937C520.844 511.687 520.842 511.664 520.522 509.664C520.342 508.559 520.16 507.601 520.106 507.54C520.053 507.48 519.553 507.455 519.004 507.482C517.267 507.576 515.98 507.317 514.942 506.629C514.313 506.227 514.03 505.79 513.942 505.125C513.873 504.513 514.022 504.019 514.811 502.381C516.087 499.73 517.887 494.12 519.024 489.298C520.577 482.672 520.907 481.579 522.154 478.706C526.891 467.891 531.367 462.2 538.148 458.418C542.785 455.832 548.357 454.183 552.378 454.207ZM633.093 480.84C632.953 480.971 632.743 481.349 632.628 481.68C632.323 482.533 632.55 483.913 633.465 486.919C634.563 490.544 634.716 491.19 634.989 493.264C635.266 495.361 635.259 496.513 634.985 498.456C634.463 502.204 632.286 508.213 630.145 511.835C629.563 512.815 628.648 514.437 628.114 515.432C627.578 516.417 626.812 517.805 626.408 518.501C625.391 520.294 625.131 521.062 625.243 521.995C625.332 522.672 625.377 522.756 625.717 523.028C626.425 523.6 627.239 523.527 628.64 522.767C632.295 520.784 635.911 514.563 638.245 506.243C639.95 500.161 640.388 495.781 639.762 490.942C639.414 488.212 639.089 486.946 638.157 484.755C636.889 481.728 635.281 480.145 633.836 480.482C633.573 480.54 633.244 480.696 633.093 480.84ZM524.852 495.934C524.482 496.378 524.359 496.812 524.435 497.389C524.573 498.442 525.249 499.031 526.17 498.909C527.59 498.722 527.899 496.357 526.613 495.589C526.135 495.302 525.221 495.479 524.852 495.934Z" fill="#D95D39"/>
<path d="M525.791 497.075C526.107 497.248 526.094 497.837 525.767 497.925C525.267 498.07 524.943 497.582 525.262 497.179C525.445 496.94 525.511 496.92 525.791 497.075Z" fill="#D95D39"/>
<path d="M268.886 107.637C269.53 107.857 269.951 108.392 270.08 109.149C270.342 110.529 270.195 111.214 268.347 117.559C267.57 120.198 266.464 124.161 265.878 126.372C264.469 131.652 264.433 131.83 264.484 131.821C264.51 131.817 264.936 130.755 265.425 129.444C268.618 120.93 272.082 112.687 273.024 111.325C273.629 110.457 274.24 110.485 275.396 111.462C275.755 111.784 275.976 112.076 276.018 112.319C276.055 112.537 275.823 113.501 275.468 114.59L274.867 116.487L275.202 116.747C275.429 116.919 275.526 117.101 275.519 117.366C275.516 117.736 274.399 122.254 273.45 125.741C272.154 130.527 269.77 138.679 266.633 149.07C265.344 153.354 264.26 156.982 264.22 157.134C264.123 157.573 264.261 157.299 265.696 154.178C266.436 152.561 268.027 149.202 269.226 146.715C270.425 144.228 272.006 140.805 272.735 139.123C273.465 137.442 274.682 134.675 275.45 132.987C276.205 131.301 277.592 128.215 278.517 126.131C280.723 121.189 281.35 120.146 282.464 119.639C283.504 119.158 284.343 119.358 285.45 120.357C286.434 121.258 286.417 121.617 285.243 123.401C282.468 127.634 279.598 133.56 275.697 143.105C274.849 145.176 273.132 149.348 271.897 152.395C268.497 160.707 267.512 163.289 265.755 168.616C265.146 170.462 264.495 172.605 264.323 173.373L263.997 174.788L265.152 175.607C268.898 178.306 271.881 182.878 272.531 186.924C272.868 189.056 272.807 189.476 272.077 190.458C271.273 191.545 270.668 192.018 269.21 192.754C267.884 193.416 264.289 194.926 263.866 194.998C263.558 195.05 263.422 195.417 263.632 195.565C263.798 195.682 266.523 194.796 267.898 194.192C269.209 193.599 270.559 192.854 271.033 192.457C271.252 192.274 271.451 192.122 271.476 192.117C271.502 192.113 271.501 192.337 271.467 192.607C271.436 192.889 271.522 193.548 271.65 194.067C272.174 196.287 271.973 197.588 270.744 199.974C269.729 201.915 269.657 202.192 269.933 202.804C270.226 203.44 271.458 204.708 272.945 205.92C274.401 207.11 274.596 207.327 274.463 207.706C274.351 208.055 273.702 208.192 272.664 208.065C272.272 208.013 271.563 208.029 271.099 208.095L270.263 208.224L270.145 209.234C270.064 209.92 270.088 210.602 270.217 211.359C270.482 212.99 270.416 213.766 270.007 214.073C269.516 214.447 269.319 214.454 266.532 214.204C261.976 213.793 260.307 213.444 257.968 212.418C256.798 211.904 256.448 211.859 256.389 212.212C256.307 212.74 259.3 214.038 264.016 215.543C265.688 216.063 266.735 216.478 266.939 216.668C267.239 216.96 267.248 217.011 267.126 217.454C267.041 217.732 266.605 218.348 266.037 218.959C265.436 219.616 264.885 220.409 264.53 221.116C264.212 221.724 263.594 222.819 263.149 223.542C262.663 224.324 262.247 225.213 262.091 225.767C261.274 228.717 261.075 229.252 260.253 230.699C259.167 232.612 258.848 233.683 258.607 236.139C258.372 238.475 258.18 239.286 257.474 240.871L256.939 242.07L255.63 242.979C251.867 245.6 248.938 246.759 244.001 247.601C242.411 247.872 241.112 248.146 241.123 248.21C241.147 248.351 242.738 248.317 244.895 248.121C248.249 247.827 251.806 246.402 255.176 244.033C255.918 243.511 256.55 243.113 256.58 243.134C256.623 243.153 256.608 243.301 256.566 243.44C256.524 243.579 256.45 244.621 256.418 245.748C256.356 247.316 256.262 248.084 256.007 248.985C255.69 250.068 255.526 250.347 253.939 252.57C252.478 254.6 252.159 255.13 251.903 255.952C251.54 257.149 251.403 258.438 251.409 260.562C251.414 263.53 251.193 264.095 249.112 266.284C247.414 268.091 246.838 269.047 246.647 270.399C246.482 271.601 246.476 271.721 246.606 274.575C246.775 278.426 246.54 280.458 245.618 283.175C245.275 284.184 244.188 286.863 244.001 287.159C243.927 287.264 241.149 288.463 240.079 288.843C238.584 289.362 236.659 289.677 234.285 289.765C231.94 289.861 231.307 289.942 231.408 290.15C231.619 290.536 234.62 290.724 236.707 290.5C238.261 290.327 240.172 289.777 241.938 288.988C242.672 288.652 243.302 288.399 243.33 288.408C243.347 288.431 242.921 289.335 242.371 290.445C241.832 291.54 241.176 292.958 240.926 293.581C240.284 295.155 239.192 298.89 238.89 300.525C238.331 303.589 237.855 304.594 235.74 307.277C234.937 308.298 234.197 309.374 234.076 309.672C233.955 309.969 233.646 310.787 233.397 311.49C232.808 313.068 232.012 314.206 230.827 315.147C227.957 317.431 226.536 318.768 227.498 318.301C228.032 318.025 229.689 316.911 230.775 316.08L231.86 315.248L231.844 315.62C231.816 316.153 231.819 317.947 231.849 319.129C231.893 320.626 231.698 321.187 230.84 322.191C230.433 322.669 229.903 323.195 229.666 323.354C228.853 323.928 227.801 324.952 227.921 325.037C228.086 325.154 229.26 324.532 229.991 323.946C230.281 323.711 230.541 323.535 230.573 323.569C230.603 323.59 230.528 323.999 230.386 324.485C230.258 324.969 230.104 325.615 230.05 325.915C229.437 329.054 229.295 329.382 227.619 331.317C226.175 332.988 225.648 333.843 224.853 335.839C224.557 336.576 224.001 337.884 223.607 338.743C222.663 340.791 221.793 343.196 221.306 345.139C221.042 346.147 220.788 346.824 220.599 347.028C220.32 347.326 220.281 347.333 219.941 347.193C219.127 346.83 218.652 344.589 218.853 342.127C219.04 340.049 218.99 339.372 218.553 337.968C218.06 336.39 217.843 335.041 217.677 332.444C217.589 331.074 217.43 329.834 217.252 329.02C216.748 326.836 216.786 325.669 217.439 322.918C217.639 322.079 217.83 321.11 217.863 320.761L217.923 320.105L218.707 321.145C219.133 321.706 219.874 322.569 220.352 323.055C221.247 323.971 223.143 325.495 223.228 325.375C223.262 325.343 222.614 324.556 221.798 323.64C219.775 321.372 219.096 320.485 218.364 319.132C217.918 318.298 217.705 317.74 217.58 317.089C217.425 316.257 217.448 316.082 217.883 314.53C218.136 313.616 218.376 312.625 218.405 312.33C218.434 312.034 218.283 310.451 218.072 308.824C217.639 305.665 217.651 305.505 218.146 303.533C218.496 302.181 218.527 300.737 218.243 297.909C218.045 295.897 218.012 294.927 218.115 293.906C218.345 291.307 218.367 290.433 218.171 289.279L217.987 288.123L219.302 289.878C220.765 291.805 221.412 292.579 222.904 294.212C224.265 295.695 227.089 298.328 227.863 298.842L228.489 299.263L228.107 298.801C227.892 298.547 227.04 297.65 226.211 296.815C222.38 292.916 219.011 288.713 217.285 285.709C216.708 284.725 216.65 284.537 216.386 282.986L216.089 281.321L216.675 278.648C217.697 273.961 218.512 269.837 218.556 269.091C218.58 268.691 218.558 267.863 218.507 267.252C218.402 266.175 218.413 266.16 218.65 266.542C220.22 269.177 224.078 273.151 225.868 273.98C226.601 274.33 226.628 274.26 225.985 273.657C224.545 272.332 221.455 268.913 220.537 267.632C219.067 265.586 217.81 263.162 217.604 261.956C217.309 260.225 217.409 259.034 218.05 256.444C218.427 254.942 218.576 254.032 218.636 252.914C218.654 252.554 218.716 252.61 219.633 253.812C221.507 256.29 223.745 258.35 227.229 260.83C229.09 262.149 230.087 262.732 230.193 262.582C230.225 262.537 229.058 261.495 227.582 260.269C226.106 259.043 224.485 257.657 223.957 257.192C222.056 255.484 220.108 253.191 218.953 251.289L218.38 250.331L217.905 247.312C217.353 243.764 217.367 243.537 218.371 241.532C219.528 239.184 219.568 238.412 218.696 235.46C217.871 232.711 217.937 232.172 219.343 229.966C220.663 227.881 220.863 227.121 220.684 224.987C220.535 223.258 220.587 223.025 221.237 221.726C222.145 219.935 222.181 219.6 221.89 216.271C221.667 213.723 221.686 212.519 221.965 211.601C222.069 211.279 222.683 210.238 223.34 209.295C224.261 207.963 224.554 207.438 224.589 207.023C224.616 206.715 224.49 205.668 224.285 204.621L223.943 202.766L224.467 201.041C225.043 199.161 225.041 199.148 224.757 196.32C224.457 193.165 224.561 192.54 225.828 190.371C226.266 189.611 226.667 188.79 226.73 188.542L226.827 188.103L227.658 189.189C229.371 191.417 231.523 193.438 234.649 195.755C236.296 196.979 237.642 197.832 237.74 197.709C237.759 197.666 237.092 197.081 236.236 196.395C230.523 191.827 227.985 189.093 226.64 186.077C226.364 185.464 226.331 185.272 226.384 184.656C226.456 183.918 226.878 182.751 227.646 181.142C227.901 180.623 228.124 179.846 228.193 179.32C228.353 178.092 228.815 176.931 229.763 175.371C231.075 173.234 232.594 171.695 234.324 170.78C235.231 170.296 235.445 170.233 237.597 169.853C239.046 169.606 240.249 169.467 240.833 169.486C242.713 169.522 244.936 169.79 246.556 170.16C246.721 170.198 246.791 170.067 246.86 169.699C246.904 169.415 247.366 167.713 247.879 165.923C248.392 164.134 249.255 160.991 249.791 158.947C250.316 156.918 251.151 153.926 251.644 152.324C253.334 146.758 254.275 142.6 255.139 136.911C255.836 132.332 256.469 129.229 258.061 122.624C258.684 120.011 259.363 116.873 259.562 115.639C259.773 114.402 260.026 113.33 260.128 113.233C260.427 112.971 261.819 113.473 262.128 113.974C262.543 114.629 262.561 115.194 262.191 118.753C261.547 125.117 261.287 127.154 260.719 130.088C260.412 131.697 260.178 133.03 260.206 133.039C260.221 133.049 260.571 131.776 260.988 130.2C262.047 126.114 263.71 120.777 265.128 116.867C266.625 112.72 266.94 111.703 267.35 109.693C267.532 108.831 267.747 108.003 267.828 107.857C268.028 107.559 268.411 107.48 268.886 107.637ZM268.238 108.249C268.189 108.349 268.008 109.146 267.838 110.006C267.467 111.93 267.063 113.278 265.569 117.518C264.081 121.717 262.706 126.266 261.143 132.193C260.462 134.776 259.692 137.692 259.427 138.687C259.159 139.669 258.864 140.881 258.763 141.373C258.675 141.863 258.12 144.412 257.554 147.055C256.604 151.387 255.574 156.959 255.728 156.932C255.754 156.928 255.868 156.592 255.969 156.179C256.245 155.089 257.827 150.281 259.249 146.238C260.055 143.924 260.524 142.34 260.624 141.61C260.903 139.61 261.586 136.96 264.969 124.679C265.636 122.243 266.478 119.21 266.828 117.937C267.178 116.663 267.847 114.002 268.325 112.008L269.175 108.406L268.854 108.223C268.475 108.011 268.37 108.015 268.238 108.249ZM273.15 112.373C271.673 115.316 269.081 121.788 263.897 135.418C262.137 140.033 260.604 144.279 258.729 149.692C258.353 150.811 257.11 154.823 255.974 158.606C252.598 169.922 252.146 171.371 251.876 171.721L251.629 172.053L251.567 171.694C251.533 171.489 251.692 170.723 251.923 169.984C252.155 169.258 252.347 168.447 252.357 168.195C252.381 167.175 253.028 162.459 253.618 158.875C254.296 154.801 255.484 148.767 256.498 144.266C257.584 139.41 258.115 136.799 258.546 134.219C259.314 129.668 261.611 114.498 261.576 114.293C261.539 114.075 260.829 113.708 260.56 113.753C260.496 113.764 260.389 114.218 260.333 114.742C260.141 116.556 259.819 118.155 259.023 121.536C257.151 129.363 256.836 131 255.526 139.259C253.957 149.172 253.59 150.739 250.174 161.97C248.826 166.369 247.69 170.31 247.64 170.714C247.59 171.119 247.602 171.961 247.668 172.583C247.779 173.62 247.811 173.733 248.209 174.206C249.085 175.244 250.874 176.14 254.049 177.116C256.207 177.778 257.386 178.039 258.924 178.159C261.131 178.337 261.929 177.911 262.701 176.169C262.969 175.57 263.351 174.409 263.554 173.583C264.399 170.18 266.048 165.149 267.796 160.615C268.848 157.889 272.146 149.753 275.743 141.052C279.35 132.335 281.747 127.507 284.724 122.988C285.247 122.186 285.525 121.651 285.492 121.458C285.459 121.266 285.159 120.974 284.636 120.615C283.581 119.924 283.231 119.957 282.654 120.834C281.383 122.818 275.902 134.322 270.623 146.081C267.937 152.08 267.414 153.265 264.562 159.913C262.247 165.295 259.197 172.096 258.865 172.627L258.531 173.146L258.706 172.549C258.808 172.215 259.265 170.949 259.731 169.735C260.718 167.166 261.253 165.504 261.683 163.768C262.064 162.212 264.024 155.439 266.299 147.808C270.354 134.212 272.561 126.486 273.91 121.242C274.291 119.765 274.712 118.282 274.826 117.946C274.999 117.494 275.02 117.306 274.885 117.21C274.78 117.135 274.69 117.151 274.624 117.228C274.52 117.391 271.138 126.966 269.723 131.126C268.36 135.132 266.675 140.262 265.096 145.242C261.388 156.931 260.837 158.727 260.474 160.082C260.025 161.781 259.111 165.012 258.827 165.904C258.715 166.253 258.291 167.869 257.883 169.496C256.818 173.702 256.455 174.978 256.36 174.809C256.074 174.291 258.121 165.167 260.534 156.179C263.91 143.623 266.288 136.211 272.91 117.388C273.94 114.455 274.77 111.965 274.75 111.849C274.704 111.58 273.993 111.2 273.777 111.329C273.694 111.383 273.418 111.852 273.15 112.373ZM263.987 203.066C263.853 203.207 263.799 203.507 263.832 203.937C263.862 204.499 263.925 204.633 264.21 204.835C264.855 205.293 265.62 204.595 265.465 203.685C265.323 202.851 264.513 202.514 263.987 203.066ZM229.907 219.642C230.478 220.204 232.168 221.222 233.67 221.903C237.142 223.462 241.139 224.153 247.396 224.248C251.008 224.305 250.904 224.309 250.875 224.143C250.862 224.066 250.825 224.006 250.813 224.008C250.556 224.052 241.356 223.179 240.391 223.014C236.398 222.348 233.362 221.335 230.525 219.708C230.043 219.434 229.625 219.228 229.604 219.258C229.58 219.275 229.716 219.45 229.907 219.642Z" fill="#D95D39"/>
<path d="M264.954 203.469C265.087 203.552 265.208 203.716 265.223 203.806C265.256 203.998 264.988 204.44 264.821 204.468C264.68 204.492 264.219 204.109 264.191 203.942C264.162 203.775 264.458 203.342 264.612 203.316C264.676 203.305 264.832 203.371 264.954 203.469Z" fill="#D95D39"/>
<path d="M116.383 343.787L116.345 344.064L116.382 343.787C115.47 343.665 114.619 343.576 113.844 343.525C110.331 343.296 107.506 343.611 105.188 344.501C104.005 344.955 102.947 345.561 101.992 346.332L102.158 346.535C105.259 343.997 109.948 343.175 116.345 344.065C120.295 344.592 126.053 345.969 130.978 347.557L116.383 343.787Z" fill="#171717" stroke="black"/>
<path d="M129.471 364.798L129.469 364.8C129.372 364.875 129.319 364.974 129.305 364.999L129.304 365.002C129.28 365.046 129.258 365.095 129.238 365.141C129.199 365.234 129.156 365.352 129.112 365.482C129.024 365.745 128.921 366.087 128.824 366.448C128.24 368.516 125.572 376.876 123.32 383.645C123.32 383.645 123.32 383.645 123.32 383.645M129.471 364.798L117.724 402.728C119.521 396.832 120.991 392.212 123.794 383.803L123.32 383.645M129.471 364.798C128.645 364.698 127.995 364.829 127.623 365.073L127.623 365.073L127.614 365.079C127.578 365.102 127.47 365.203 127.295 365.456C127.132 365.691 126.944 366.009 126.735 366.401C126.319 367.184 125.842 368.225 125.356 369.401C124.384 371.752 123.393 374.604 122.798 376.929C121.983 380.161 121.619 381.447 120.169 386.361C119.054 390.145 114.252 407.386 111.828 416.325L129.471 364.798ZM123.32 383.645C120.516 392.058 119.044 396.682 117.245 402.582L117.245 402.583C111.649 421.104 109.071 431.611 106.943 444.718C106.645 446.526 106.309 448.375 106.203 448.813C106.203 448.813 106.203 448.813 106.203 448.813L106.017 449.572M123.32 383.645L106.017 449.572M106.017 449.572C105.817 449.273 105.648 448.802 105.583 448.113L105.583 448.111C105.393 446.184 105.872 442.213 106.954 436.688C108.031 431.19 109.692 424.217 111.828 416.325L106.017 449.572Z" fill="#171717" stroke="black"/>
<path d="M141.422 371.536L141.422 371.536C141.344 371.645 141.263 371.765 141.181 371.895C141.295 371.747 141.407 371.622 141.514 371.526L141.516 371.525C141.628 371.426 141.757 371.335 141.927 371.266C142.092 371.199 142.271 371.164 142.475 371.144C142.846 371.109 143.384 371.122 144.215 371.158C143.423 371.015 142.841 370.977 142.405 371.028C141.893 371.088 141.616 371.266 141.422 371.536ZM115.284 452.363C115.41 452.542 115.577 452.668 115.803 452.755C115.969 452.819 116.132 452.829 116.321 452.771C116.523 452.708 116.78 452.559 117.102 452.258C117.751 451.652 118.561 450.531 119.624 448.68C121.743 444.99 124.774 438.578 129.478 428.103C134.107 417.775 144.041 393.65 148.055 383.017C150.279 377.096 150.358 376.829 150.397 375.914L150.398 375.91C150.427 375.336 150.369 374.889 150.219 374.497C150.07 374.106 149.816 373.735 149.406 373.331L149.401 373.326C149.269 373.192 149.142 373.078 148.984 372.967L148.787 373.247L148.572 373.552C148.572 373.552 148.571 373.554 148.569 373.558C148.562 373.572 148.544 373.612 148.515 373.689C148.477 373.79 148.433 373.923 148.384 374.081C148.288 374.397 148.184 374.793 148.095 375.189L148.095 375.189C147.447 378.091 145.242 384.262 140.162 397.393C136.034 408.105 134.85 411.035 133.277 414.451C130.64 420.233 127.749 426.8 125.185 432.91C122.602 439.068 120.868 443.129 119.639 445.869C118.413 448.602 117.679 450.044 117.095 450.947L117.095 450.947C116.843 451.335 116.626 451.648 116.438 451.877C116.345 451.992 116.251 452.096 116.157 452.18C116.069 452.259 115.952 452.349 115.809 452.399C115.659 452.451 115.467 452.461 115.284 452.363Z" fill="#171717" stroke="black"/>
<path d="M159.287 377.186L159.281 377.185C159.112 377.157 158.88 377.165 158.616 377.213C158.788 377.212 158.965 377.228 159.147 377.257C159.764 377.357 160.484 377.62 161.346 377.958C161.454 377.999 161.565 378.043 161.677 378.088C161.284 377.903 160.904 377.736 160.557 377.596C159.995 377.369 159.553 377.228 159.287 377.186ZM123.814 452.993C123.814 452.993 123.814 452.989 123.814 452.982C123.814 452.99 123.814 452.994 123.814 452.993ZM123.044 453.483C122.968 453.429 122.915 453.361 122.881 453.294C122.877 453.669 122.957 454.094 123.087 454.451C123.157 454.644 123.236 454.8 123.311 454.909C123.38 455.009 123.421 455.034 123.421 455.035C123.421 455.035 123.421 455.035 123.421 455.035C123.532 455.075 123.77 455.083 124.245 454.788C124.717 454.494 125.321 453.962 126.091 453.13C127.625 451.472 129.723 448.727 132.604 444.645L132.604 444.644C138.665 436.081 142.716 429.657 150.463 416.312L150.464 416.312C156.824 405.392 158.402 402.605 160.557 398.626L160.558 398.625C161.528 396.851 162.758 394.486 163.289 393.371L163.291 393.367C163.973 391.965 164.798 390.015 165.483 388.251C166.174 386.47 166.697 384.941 166.805 384.348C167.096 382.6 166.646 381.296 165.521 380.331C165.405 380.234 165.266 380.127 165.108 380.015C165.281 380.3 165.274 380.609 165.267 380.874L165.266 380.892C165.266 380.893 165.266 380.894 165.266 380.895C165.261 381.225 165.156 381.704 164.998 382.253C164.836 382.82 164.603 383.512 164.315 384.288C163.74 385.84 162.937 387.752 162.017 389.719L162.017 389.719C159.176 395.763 155.45 402.846 150.307 411.909L150.307 411.909C149.157 413.933 147.506 416.863 146.64 418.413L146.639 418.415C139.355 431.288 134.121 439.762 128.96 447.002L128.96 447.002C127.861 448.542 126.576 450.204 125.55 451.452C125.037 452.074 124.584 452.6 124.248 452.956C124.082 453.131 123.932 453.28 123.811 453.38C123.757 453.424 123.674 453.487 123.58 453.528C123.538 453.547 123.433 453.589 123.297 453.576C123.221 453.569 123.13 453.544 123.044 453.483Z" fill="#171717" stroke="black"/>
<path d="M111.938 359.412C111.941 359.41 111.944 359.408 111.947 359.407C110.909 359.36 110.344 359.534 109.936 359.956C109.428 360.482 109.061 361.485 108.675 363.395C108.485 364.363 108.032 366.526 107.661 368.219C105.168 379.665 103.552 387.461 102.32 393.836C99.4924 408.6 96.4075 431.136 96.0594 439.506C95.953 442.111 96.0979 444.289 96.4272 445.801C96.5928 446.561 96.7979 447.119 97.018 447.475C97.2422 447.838 97.4159 447.895 97.5049 447.896C97.6083 447.896 97.7105 447.885 97.8138 447.857C97.7784 447.85 97.7422 447.84 97.7055 447.826C97.5533 447.767 97.4779 447.656 97.4522 447.614C97.4207 447.563 97.4038 447.516 97.3953 447.49C97.3778 447.435 97.3692 447.383 97.3644 447.348C97.354 447.273 97.349 447.185 97.3468 447.096C97.3423 446.915 97.3485 446.68 97.3654 446.433L97.3655 446.431C98.587 429.513 99.3666 421.708 100.764 412.219L101.207 412.284L100.764 412.219C103.578 393.119 105.518 383.438 109.609 368.028L109.609 368.028C110.71 363.883 111.541 360.537 111.649 359.846L111.649 359.843C111.681 359.651 111.794 359.502 111.938 359.412Z" fill="#171717" stroke="black"/>
<path d="M92.8353 485.561L92.8361 485.561C93.534 485.706 95.5399 486.426 97.6322 487.252C99.716 488.075 101.792 488.967 102.621 489.432L102.624 489.433C103.814 490.091 104.555 490.661 104.996 491.245C105.42 491.807 105.591 492.415 105.564 493.218C105.556 493.429 105.508 493.739 105.285 494.48C105.062 495.221 104.674 496.36 104.005 498.219C102.668 501.933 100.222 508.482 95.7626 520.374C95.7626 520.374 95.7626 520.374 95.7626 520.374L96.2307 520.549M92.8353 485.561L87.547 562.056C86.4012 557.858 86.3875 554.099 87.4803 547.781C88.6546 540.994 89.1931 539.3 96.2307 520.549M92.8353 485.561C91.7752 485.337 91.0089 485.297 90.4025 485.416C89.8199 485.53 89.3502 485.797 88.8891 486.266C88.8844 486.274 88.8737 486.291 88.8568 486.321C88.8217 486.385 88.7723 486.484 88.7038 486.632C88.5673 486.929 88.3673 487.395 88.0716 488.116C87.481 489.557 86.5184 491.989 84.936 496.046C81.7717 504.16 76.1345 518.763 66.051 544.912C54.7365 574.264 48.7311 589.862 45.4565 598.558C42.1786 607.262 41.6475 609.024 41.2659 610.727C40.7981 612.827 40.7557 614.33 41.1713 615.608C41.5855 616.881 42.4791 618.006 44.045 619.298M92.8353 485.561L44.045 619.298M96.2307 520.549C105.147 496.769 106.021 494.338 106.064 493.236C106.124 491.441 105.285 490.332 102.866 488.996M96.2307 520.549L102.866 488.996M75.0914 575.527C76.6161 571.501 76.7722 571.121 77.4692 570.27L77.4708 570.268C77.8659 569.79 78.5037 569.177 78.9381 568.875C79.1071 568.751 79.2719 568.613 79.3985 568.491C79.4627 568.429 79.5116 568.376 79.5449 568.335C79.5582 568.319 79.5666 568.307 79.5713 568.301C79.5767 568.274 79.5792 568.211 79.5318 568.106C79.4761 567.982 79.3638 567.832 79.1861 567.693L79.1847 567.692C78.8745 567.446 78.1886 566.717 77.5097 565.953C76.8185 565.175 76.0836 564.302 75.6648 563.734L75.6634 563.732C75.2151 563.119 74.8722 562.589 74.6538 562.165C74.5451 561.954 74.4588 561.753 74.4086 561.571C74.3636 561.407 74.3223 561.171 74.41 560.944C74.4105 560.943 74.4114 560.94 74.4126 560.937C74.4196 560.919 74.4363 560.874 74.4513 560.841L74.4522 560.839C74.467 560.807 74.523 560.684 74.6514 560.594C74.8361 560.465 75.0377 560.484 75.1714 560.539C75.2755 560.581 75.3528 560.647 75.3943 560.685C75.4853 560.768 75.5959 560.896 75.727 561.053C75.8408 561.189 75.986 561.367 76.17 561.593C76.2076 561.639 76.2467 561.687 76.2876 561.738C77.1276 562.756 78.0525 563.579 78.9363 564.136C79.8307 564.699 80.635 564.96 81.246 564.933C81.4162 564.926 81.5336 564.917 81.6193 564.904C81.6762 564.895 81.7078 564.887 81.7234 564.882C81.7321 564.866 81.7474 564.836 81.7704 564.776C81.8131 564.666 81.8129 564.614 81.8099 564.589C81.807 564.565 81.7954 564.517 81.7309 564.425C81.6382 564.297 81.5591 564.162 81.5037 564.042C81.4762 563.982 81.449 563.913 81.4306 563.843C81.4215 563.808 81.4116 563.762 81.408 563.709C81.4049 563.663 81.4029 563.57 81.4434 563.465C81.5021 563.313 81.614 563.233 81.6869 563.195C81.7569 563.159 81.82 563.147 81.8535 563.142C81.9212 563.132 81.9808 563.136 82.0112 563.139C82.08 563.145 82.1554 563.159 82.2235 563.175C82.3662 563.207 82.5566 563.26 82.7757 563.327C83.2174 563.462 83.8126 563.662 84.4543 563.894L84.4552 563.894C85.5116 564.278 86.0776 564.476 86.4401 564.566C86.6151 564.61 86.7198 564.622 86.7939 564.622C86.8622 564.623 86.9237 564.614 87.0162 564.589C87.2293 564.53 87.3223 564.476 87.366 564.437C87.3913 564.415 87.424 564.379 87.4401 564.257C87.4587 564.117 87.4491 563.897 87.3862 563.544C87.3242 563.196 87.2173 562.755 87.0643 562.186L75.559 575.704M75.0914 575.527L75.559 575.704M75.0914 575.527C75.0915 575.527 75.0916 575.527 75.0916 575.527L75.559 575.704M75.0914 575.527C74.1941 577.89 71.682 584.815 69.5118 590.898M75.559 575.704C74.6639 578.061 72.1533 584.982 69.9827 591.066M69.5118 590.898C69.5118 590.898 69.5118 590.898 69.5119 590.898L69.9827 591.066M69.5118 590.898C64.1025 606.045 60.1999 616.472 59.0725 618.748L59.0723 618.749C57.1436 622.653 55.8767 623.875 54.1903 624.076L54.1763 624.078L54.1763 624.078C54.0269 624.1 53.9291 624.108 53.8235 624.101C53.7157 624.094 53.5781 624.071 53.359 624.007C52.9067 623.875 52.1966 623.601 50.8316 623.065L50.8291 623.064C47.5277 621.786 46.0708 620.961 44.045 619.298M69.5118 590.898L69.9827 591.066M69.9827 591.066L44.045 619.298M75.3529 561.273C75.3486 561.28 75.3427 561.291 75.335 561.302C75.3349 561.302 75.3348 561.302 75.3347 561.302C75.329 561.311 75.321 561.322 75.3107 561.334C75.3493 561.38 75.392 561.432 75.4393 561.489C75.4076 561.415 75.3861 561.354 75.3729 561.306C75.3669 561.284 75.3634 561.268 75.3613 561.256M75.3529 561.273C75.359 561.248 75.3584 561.234 75.3584 561.234C75.3584 561.234 75.3586 561.241 75.3613 561.256M75.3529 561.273C75.3507 561.281 75.3477 561.292 75.3434 561.303L75.3518 561.281L75.3584 561.263C75.3598 561.26 75.3607 561.258 75.3613 561.256M75.3529 561.273C75.3577 561.264 75.3604 561.258 75.3611 561.256L75.3611 561.256C75.3612 561.256 75.3612 561.256 75.3613 561.256M75.3613 561.256C75.3618 561.255 75.3621 561.254 75.3621 561.254C75.3621 561.254 75.3618 561.255 75.3613 561.256M75.3613 561.256C75.3613 561.256 75.3613 561.256 75.3613 561.256M82.1781 564.194C82.1456 564.186 82.1155 564.178 82.0878 564.171L82.1377 564.134L82.1781 564.194ZM82.1781 564.194C82.1656 564.175 82.1521 564.154 82.1378 564.134C82.1293 564.122 82.121 564.111 82.1128 564.099L82.1781 564.194ZM102.866 488.996C101.138 488.027 94.4358 485.384 92.9382 485.071L102.866 488.996ZM75.0097 561.754C74.9922 561.733 74.9754 561.713 74.9593 561.694C74.8211 561.528 74.7531 561.454 74.7208 561.425C74.7202 561.424 74.7196 561.423 74.719 561.423C74.729 561.431 74.7556 561.449 74.7956 561.465C74.8259 561.478 74.864 561.488 74.9071 561.493C74.932 561.571 74.9662 561.659 75.0097 561.754ZM82.4005 563.737C82.4024 563.726 82.4036 563.716 82.4045 563.707C82.4073 563.679 82.4067 563.655 82.4057 563.64C82.4037 563.611 82.3989 563.593 82.3982 563.591C82.398 563.59 82.3978 563.589 82.3978 563.589C82.3979 563.589 82.4015 563.601 82.4125 563.625C82.4298 563.662 82.4562 563.711 82.4897 563.763C82.4589 563.754 82.4291 563.746 82.4005 563.737ZM82.9386 551.47L82.9385 551.473C82.9267 551.772 82.9122 552.048 82.798 552.308C82.6839 552.568 82.4895 552.77 82.2668 552.99L82.2641 552.993C81.9393 553.31 81.5617 553.557 81.1921 553.704C80.8417 553.843 80.413 553.925 80.0371 553.78C79.8112 553.692 79.6406 553.513 79.5258 553.363C79.4011 553.201 79.2926 553.009 79.2072 552.816C79.1216 552.622 79.0521 552.411 79.0139 552.208C78.9781 552.016 78.9594 551.777 79.0281 551.555L79.028 551.555L79.0306 551.548C79.1714 551.118 79.3086 550.773 79.4997 550.494C79.7025 550.197 79.9461 550.002 80.2508 549.831L80.2508 549.831L80.2584 549.827C80.8919 549.487 81.5796 549.473 82.1212 549.804C82.6642 550.135 82.9633 550.753 82.9386 551.47ZM54.7109 608.982L53.5425 609.242C53.5897 609.263 53.6359 609.288 53.6811 609.316C54.0671 609.552 54.274 609.947 54.375 610.389L54.3757 610.392C54.6097 611.444 54.3382 612.685 53.8178 613.738C53.2977 614.79 52.478 615.758 51.4976 616.206C51.2155 616.337 50.9543 616.439 50.714 616.497C50.4734 616.555 50.2227 616.577 49.9781 616.514C49.7054 616.443 49.5051 616.288 49.3526 616.092C49.3292 616.12 49.3012 616.147 49.2678 616.172C49.0087 616.366 48.7419 616.238 48.6908 616.212C48.6091 616.17 48.5426 616.114 48.5011 616.076C48.4109 615.994 48.3042 615.877 48.1896 615.746C47.174 614.591 47.1014 612.857 47.7673 611.091L47.7673 611.091L47.7689 611.087C48.2236 609.911 48.9156 608.994 49.7602 608.46C50.6165 607.917 51.6123 607.783 52.5903 608.161L53.1708 608.386L54.7109 608.982Z" fill="#171717" stroke="black"/>
<mask id="path-15-inside-1_1139_7923" fill="white">
<path d="M80.8856 551.372C80.2631 551.515 80.2894 552.31 80.9429 552.346C81.3361 552.364 81.63 551.777 81.3322 551.512C81.0958 551.303 81.1248 551.315 80.8856 551.372Z"/>
</mask>
<path d="M80.8856 551.372C80.2631 551.515 80.2894 552.31 80.9429 552.346C81.3361 552.364 81.63 551.777 81.3322 551.512C81.0958 551.303 81.1248 551.315 80.8856 551.372Z" fill="#171717"/>
<path d="M80.8856 551.372L81.1198 552.345L81.1093 552.347L80.8856 551.372ZM80.9429 552.346L80.8955 553.344L80.888 553.344L80.9429 552.346ZM81.3322 551.512L81.9933 550.761L81.9976 550.765L81.3322 551.512ZM81.1093 552.347C81.2392 552.317 81.4485 552.145 81.4346 551.852C81.4284 551.719 81.3723 551.582 81.2655 551.479C81.1551 551.373 81.0416 551.349 80.9978 551.347L80.888 553.344C80.0876 553.3 79.4733 552.717 79.4369 551.946C79.4021 551.211 79.9095 550.57 80.6619 550.398L81.1093 552.347ZM80.9903 551.347C80.6539 551.331 80.5186 551.554 80.4955 551.602C80.4735 551.648 80.446 551.73 80.4563 551.845C80.4677 551.974 80.5287 552.135 80.6669 552.258L81.9976 550.765C82.6048 551.306 82.4924 552.064 82.2979 552.469C82.104 552.872 81.6251 553.379 80.8955 553.344L80.9903 551.347ZM80.6712 552.262C80.6357 552.231 80.618 552.215 80.5965 552.196C80.5769 552.179 80.5715 552.175 80.5727 552.176C80.5736 552.176 80.5957 552.194 80.6325 552.217C80.6723 552.241 80.7345 552.273 80.8165 552.298C80.9995 552.354 81.1481 552.334 81.1912 552.326C81.2082 552.323 81.2154 552.321 81.1972 552.326C81.1893 552.328 81.1804 552.33 81.1665 552.333C81.1536 552.336 81.1375 552.34 81.1198 552.345L80.6514 550.4C80.6696 550.396 80.776 550.368 80.855 550.355C80.9673 550.336 81.1682 550.314 81.4034 550.386C81.6137 550.451 81.7591 550.564 81.82 550.612C81.8794 550.66 81.9521 550.725 81.9932 550.761L80.6712 552.262Z" fill="black" mask="url(#path-15-inside-1_1139_7923)"/>
<path d="M127.833 498.66C119.361 499.43 115.2 500.108 110.237 501.536C105.023 503.035 101.192 504.908 97.262 507.885C95.5374 509.192 94.4444 510.316 92.7299 512.523C88.7894 517.596 87.9371 519.034 87.2753 521.728C86.7439 523.854 86.5835 525.252 86.5835 527.601V529.626L87.1049 531.601C87.3957 532.684 87.9872 534.983 88.4284 536.694C89.6517 541.474 90.9551 544.876 92.9404 548.491C94.1637 550.699 94.5848 551.276 95.9485 552.704C97.7132 554.527 98.4351 555.084 100.1 555.904C101.904 556.795 102.777 557.129 104.571 557.635C105.374 557.868 106.747 558.273 107.64 558.537C108.522 558.81 109.876 559.164 110.648 559.337C111.41 559.499 113.305 559.924 114.849 560.258C118.829 561.129 122.79 562.172 125.527 563.043C129.077 564.187 133.729 565.777 134.722 566.192C136.627 566.982 140.517 569.149 142.122 570.303C142.402 570.496 143.214 571.032 143.926 571.478C146.794 573.28 149.401 575.7 153.702 580.561C156.41 583.619 158.004 585.796 159.137 587.963C159.979 589.573 160.922 591.943 161.433 593.725C162.185 596.338 162.195 597.158 161.463 596.976C161.152 596.895 160.942 596.439 160.18 594.201C159.628 592.601 158.575 590.171 157.813 588.733C156.289 585.887 153.281 582.151 148.92 577.705C146.724 575.468 144.969 573.949 143.375 572.906C142.793 572.531 141.991 572.004 141.59 571.741C141.189 571.488 140.838 571.296 140.808 571.326C140.778 571.356 141.029 572.096 141.349 572.977C141.68 573.868 142.132 575.204 142.372 575.954C142.603 576.703 143.174 578.394 143.646 579.7C144.608 582.394 144.819 583.123 145.37 585.827C145.591 586.88 146.002 588.713 146.273 589.887C146.553 591.062 146.894 592.611 147.025 593.33C148.318 600.115 148.749 602.221 149.09 603.396C149.732 605.664 150.073 607.122 150.845 610.99C152.349 618.514 153.953 625.461 155.156 629.653C158.074 639.83 160.32 644.964 164.862 651.789C168.602 657.419 171.891 661.186 177.225 665.986C179.471 667.991 179.932 668.335 181.938 669.509C182.98 670.117 184.665 671.12 185.688 671.747C187.783 673.023 190.611 674.492 193.859 675.98C195.073 676.537 196.877 677.388 197.87 677.874C199.745 678.785 203.184 680.345 205.089 681.134C205.701 681.388 207.416 682.127 208.9 682.785C212.81 684.506 213.281 684.668 220.48 686.775C225.444 688.223 226.877 688.567 231.159 689.326C232.593 689.58 234.939 690.035 236.373 690.339C240.113 691.139 241.717 691.443 244.043 691.797C245.176 691.969 247.472 692.385 249.157 692.709C253.318 693.529 254.682 693.701 258.833 693.924C259.885 693.974 261.78 694.096 263.044 694.177C264.317 694.268 266.122 694.379 267.055 694.43C269.962 694.592 280.751 694.754 285.243 694.703C289.675 694.653 289.725 694.653 296.333 693.984C300.062 693.6 300.002 693.61 303.702 693.316C306.8 693.083 313.318 692.648 316.687 692.455C326.282 691.919 333.843 691.109 338.615 690.116C342.115 689.397 347.318 688.02 350.477 686.967C357.255 684.729 366.109 680.82 371.934 677.489C375.684 675.352 382.322 670.978 384.808 669.023C387.816 666.654 392.409 662.887 392.82 662.441C395.216 659.9 399.317 654.583 401.754 650.887C405.143 645.743 408.923 638.645 410.727 634.048C412.131 630.473 414.558 622.949 415.691 618.686C416.232 616.631 417.576 610.17 417.696 609.016C417.766 608.398 418.017 606.697 418.258 605.218C418.498 603.74 418.729 602.211 418.759 601.826C418.859 600.651 419.1 598.91 419.461 596.712C419.641 595.568 419.872 594.039 419.962 593.32C420.052 592.591 420.303 591.092 420.514 589.968C420.744 588.763 420.965 587.194 421.055 586.12C421.145 585.128 421.326 583.65 421.456 582.839C421.586 582.029 421.777 580.824 421.867 580.156C421.967 579.488 422.288 577.959 422.589 576.764C422.89 575.569 423.221 574.222 423.321 573.776C423.512 572.936 424.504 569.999 424.775 569.473C424.865 569.301 424.905 569.169 424.865 569.169C424.835 569.169 423.893 569.615 422.77 570.172C419.922 571.569 419.02 572.197 417.024 574.171C414.688 576.48 412.833 578.819 411.369 581.31C410.647 582.536 407.98 587.761 407.98 587.963C407.98 588.085 407.058 590.373 406.947 590.505C406.827 590.667 406.356 590.677 406.195 590.515C405.995 590.313 406.055 589.766 406.426 588.399C406.847 586.849 407.068 586.313 408.471 583.396C410.387 579.427 412.151 576.804 415.079 573.594C417.094 571.377 418.187 570.496 420.403 569.27C423.451 567.589 427.081 566.172 429.738 565.635C430.039 565.564 430.651 565.402 431.092 565.27C433.037 564.673 436.767 563.914 440.246 563.397C442.813 563.012 448.197 561.919 450.744 561.271C452.689 560.764 454.354 560.258 458.695 558.83C461.573 557.888 463.288 557.058 465.032 555.792C466.155 554.972 467.88 553.291 468.802 552.106C469.063 551.772 469.484 551.266 469.755 550.993C470.427 550.284 471.58 548.38 472.251 546.891C472.783 545.707 474.187 541.606 474.638 539.904C474.868 539.023 475.219 537.191 475.32 536.31C475.36 535.975 475.57 535.206 475.781 534.588C476.513 532.512 476.583 532.138 476.633 529.323C476.693 526.649 476.613 525.677 476.152 523.196C475.841 521.566 475.189 519.095 474.788 518.082C473.936 515.905 472.322 513.202 470.487 510.893C469.414 509.546 467.218 507.258 465.985 506.204C462.987 503.663 458.555 501.637 453.532 500.524C449.551 499.643 447.686 499.501 438.411 499.4C431.122 499.319 429.558 499.248 426.73 498.893C425.878 498.782 425.136 498.691 425.096 498.691C424.975 498.691 425.848 499.916 426.078 500.058C426.319 500.22 428.755 500.574 430.641 500.726C431.382 500.777 434.882 500.868 438.411 500.919C447.776 501.05 450.634 501.313 455.005 502.498C458.124 503.339 461.423 504.777 463.618 506.265C466.526 508.23 470.066 512.229 472.131 515.885C473.164 517.698 473.685 519.044 474.247 521.292C475.089 524.634 475.209 525.576 475.209 528.563C475.209 530.659 475.169 531.307 475.029 531.996C474.868 532.735 473.755 536.046 473.314 537.089C473.064 537.687 472.201 539.115 471.118 540.765C469.073 543.843 466.215 546.264 462.886 547.732C461.372 548.41 455.306 550.294 452.398 550.993C448.368 551.975 444.688 552.825 442.522 553.281C441.199 553.565 438.953 554.061 437.529 554.395C436.105 554.719 434.08 555.154 433.017 555.357C431.954 555.549 429.738 556.056 428.094 556.471C424.554 557.362 424.213 557.443 421.917 557.838C420.955 558 419.511 558.294 418.709 558.486C417.907 558.668 416.854 558.911 416.362 559.002C415.37 559.195 415.701 558.982 412.883 561.321C404.36 568.399 392.499 575.326 379.554 580.784C360.744 588.723 339.397 594.231 315.885 597.208C311.523 597.765 307.512 598.16 300.945 598.687C286.306 599.851 269.782 599.781 254.391 598.474C234.407 596.793 215.858 593.229 198.813 587.811C180.123 581.867 163.759 573.544 152.359 564.167C149.441 561.767 146.854 559.367 144.578 556.967C143.616 555.954 141.72 553.858 141.62 553.706C141.57 553.615 137.319 552.613 135.755 552.329C131.694 551.58 124.856 550.506 121.166 550.041C114.538 549.19 113.295 548.988 110.698 548.35C107.028 547.438 103.388 545.889 99.6283 543.621C97.8636 542.547 97.1015 541.99 95.3569 540.461C92.8803 538.274 90.6343 535.206 89.6316 532.603C89.3408 531.824 88.649 529.393 88.4384 528.381C88.0775 526.619 88.6089 522.558 89.4612 520.573C89.9525 519.429 90.8449 517.941 91.8776 516.574C92.389 515.895 93.3515 514.619 94.0233 513.728C95.5775 511.673 96.7205 510.508 98.4652 509.202C101.954 506.589 105.594 504.746 109.835 503.45C114.408 502.053 117.917 501.374 124.124 500.676C129.127 500.108 129.708 500.078 134.551 500.058C140.788 500.038 140.106 500.098 140.638 499.521C141.47 498.63 141.59 498.691 138.943 498.711C137.66 498.711 134.732 498.701 132.446 498.671C130.16 498.64 128.084 498.63 127.833 498.66ZM395.397 627.729C395.858 627.992 396.159 628.407 396.459 629.197C397.061 630.817 397.091 632.265 396.56 633.875C396.219 634.898 395.276 636.772 394.625 637.754C393.05 640.093 387.746 645.571 384.117 648.609C381.82 650.523 379.574 652.113 375.253 654.887C371.904 657.024 369.267 658.614 366.67 660.052C365.487 660.71 363.361 661.884 361.957 662.664C352.061 668.163 340.129 673.013 330.624 675.403C326.754 676.375 319.905 677.702 315.584 678.319C307.723 679.453 301.266 680.01 294.929 680.112C287.068 680.243 276.069 679.585 275.527 678.957C275.447 678.866 274.996 678.633 274.524 678.441C272.91 677.783 271.927 677.013 271.296 675.899C270.313 674.208 270.363 671.99 271.396 670.37C271.877 669.631 273.061 668.487 273.702 668.163C275.397 667.302 278.896 666.603 283.749 666.178C285.744 665.996 287.339 665.955 294.177 665.874C303.401 665.773 306.199 665.621 311.072 664.953C318.111 663.991 328.037 661.753 334.234 659.728C335.858 659.201 342.486 656.801 344.611 655.981C347.639 654.806 352.412 652.619 356.944 650.33C359.541 649.024 359.992 648.761 363.873 646.321C366.881 644.427 368.164 643.546 370.881 641.521C372.395 640.397 373.899 639.293 380.056 634.848C382.953 632.762 386.994 630.068 388.077 629.501C389.13 628.964 391.416 628.073 392.639 627.739C393.792 627.425 394.855 627.415 395.397 627.729Z" fill="#D95D39"/>
<path d="M442.052 503.462C440.007 503.603 435.385 504.555 433.099 505.315C431.946 505.699 430.512 506.337 430.171 506.611C430.091 506.672 430.261 507.137 430.782 508.292C431.655 510.195 432.377 511.978 432.948 513.648C433.189 514.337 433.429 514.894 433.49 514.894C433.55 514.894 434.011 514.783 434.502 514.641C435.796 514.276 438.403 513.81 439.917 513.659C441.922 513.466 446.364 513.497 447.888 513.719C450.375 514.064 453.162 514.823 455.007 515.643C458.266 517.112 461.534 520.068 463.53 523.339C464.703 525.294 465.445 527.116 466.087 529.688C466.498 531.349 466.608 532.564 466.447 533.577C466.387 534.002 466.377 534.417 466.427 534.589C466.528 534.944 466.197 535.632 465.214 537.08C464.322 538.417 463.58 539.166 462.106 540.22C459.82 541.87 459.048 542.275 455.558 543.683C451.869 545.161 449.883 545.809 448.089 546.123C446.384 546.417 443.657 546.609 440.97 546.609C438.162 546.609 436.718 546.467 432.798 545.83C431.976 545.698 430.762 545.536 430.111 545.475C429.459 545.424 428.707 545.323 428.426 545.262C428.145 545.202 427.885 545.192 427.835 545.232C427.794 545.283 427.554 545.637 427.293 546.032C426.922 546.609 426.862 546.751 426.982 546.822C427.213 546.943 428.466 547.166 429.69 547.298C430.301 547.359 431.444 547.521 432.246 547.652C436.768 548.402 437.37 548.462 440.97 548.452C447.758 548.452 449.833 547.997 457.163 544.868C460.391 543.49 462.146 542.376 464.603 540.149C466.788 538.164 468.493 535.015 469.305 531.44C469.897 528.818 469.686 524.332 468.834 521.324C468.653 520.676 467.972 519.005 467.54 518.134C466.999 517.061 464.703 513.588 463.79 512.484C461.655 509.892 457.985 507.026 455.198 505.77C453.052 504.798 449.853 503.856 447.838 503.613C446.324 503.431 443.577 503.35 442.052 503.462Z" fill="#D95D39"/>
<path d="M120.866 504.548C119.522 504.68 118.67 504.822 116.404 505.328C111.17 506.483 107.901 507.87 103.921 510.614C99.579 513.611 96.581 516.943 94.696 520.892C93.9139 522.522 93.6332 523.383 93.3925 524.862C92.9815 527.403 93.5028 529.894 94.8865 531.99C95.829 533.418 97.5135 535.494 98.4159 536.345C100.973 538.755 105.545 541.469 109.084 542.674C110.689 543.22 113.657 543.98 115 544.192C117.657 544.618 120.605 544.628 124.054 544.253C126.24 544.01 126.581 543.96 129.589 543.382C130.913 543.129 132.457 542.836 133.028 542.744C133.59 542.643 134.081 542.532 134.111 542.512C134.151 542.471 133.439 540.901 133.309 540.739C133.289 540.719 132.366 540.881 130.943 541.165C125.709 542.187 122.931 542.532 119.883 542.532C116.765 542.532 114.499 542.198 111.29 541.276C109.145 540.658 107.42 539.96 105.455 538.896C102.727 537.428 100.812 536.081 99.2883 534.552C98.3357 533.611 96.6512 531.504 96.6512 531.271C96.6512 531.18 96.7916 530.704 96.9621 530.208C97.8845 527.565 99.6392 525.034 102.547 522.158C104.372 520.355 105.364 519.616 107.831 518.219C110.769 516.568 112.844 515.728 116.614 514.695C118.389 514.199 121.939 513.773 124.215 513.773C125.638 513.773 130.431 514.148 131.394 514.33C131.785 514.401 132.126 514.432 132.156 514.401C132.196 514.361 132.346 513.946 132.497 513.47C133.028 511.839 134.833 508.072 135.996 506.179C136.548 505.278 136.618 505.105 136.477 505.055C136.317 504.994 135.354 504.913 131.695 504.66C129.82 504.528 121.999 504.447 120.866 504.548Z" fill="#D95D39"/>
<path d="M283.577 611.686C242.002 611.686 204.604 601.46 177.765 585.19C150.834 568.864 135.271 546.992 135.271 523.749C135.271 500.506 150.834 478.635 177.765 462.309C204.604 446.038 242.002 435.812 283.577 435.812C325.152 435.812 362.549 446.038 389.388 462.309C416.319 478.635 431.883 500.506 431.883 523.749C431.883 546.992 416.319 568.864 389.388 585.19C362.549 601.46 325.152 611.686 283.577 611.686Z" fill="#B44322" stroke="#D95D39" stroke-width="10"/>
<ellipse cx="350.479" cy="502.48" rx="28.1279" ry="19.2728" fill="#9E3B1E"/>
<ellipse cx="186.126" cy="533.734" rx="28.1279" ry="19.2728" fill="#9E3B1E"/>
<ellipse cx="279.126" cy="572.273" rx="28.1279" ry="19.2728" fill="#9E3B1E"/>
<ellipse cx="221.126" cy="522.273" rx="28.1279" ry="19.2728" fill="#8C3217"/>
<ellipse cx="279.126" cy="476.273" rx="28.1279" ry="19.2728" fill="#9E3B1E"/>
<ellipse cx="373.398" cy="530.613" rx="28.1279" ry="19.2728" fill="#8C3217"/>
<path d="M562.977 223.975C567.47 224.776 569.301 225.35 571.504 226.64C573.424 227.76 575.211 229.63 575.814 231.17C576.211 232.158 576.255 232.451 576.085 233.546C575.738 235.873 574.608 237.193 572.118 238.213C570.853 238.732 570.485 238.734 561.799 238.114C558.19 237.86 557.996 237.869 556.853 238.259C554.352 239.105 552.336 240.73 550.301 243.516C549.158 245.106 545.517 251.416 541.98 257.983C540.745 260.266 538.765 263.907 537.573 266.095C530.724 278.581 523.002 294.258 518.256 305.337C514.408 314.29 508.875 328.39 501.527 347.901C497.027 359.883 494.879 365.375 489.486 378.591C480.744 400.048 476.969 411.484 473.988 425.67C472.024 434.91 470.37 443.351 470.065 445.621C469.251 451.566 469.812 457.907 471.751 464.568C471.983 465.374 472.174 466.216 472.163 466.448C472.11 467.53 470.947 467.531 468.869 466.461C466.924 465.455 466.688 465.521 466.768 467.055C466.802 467.948 466.746 468.293 466.504 468.495C466.138 468.845 466.118 468.844 464.846 468.336C463.231 467.695 461.89 466.603 460.132 464.541C458.667 462.804 458.593 462.742 458.959 463.573C459.167 464.068 459.681 465.042 460.11 465.779C460.789 466.936 461.412 467.664 463.611 469.825C463.98 470.192 464.211 470.61 464.197 470.899C464.17 471.44 463.405 472.042 462.546 472.174C462.136 472.251 461.273 472.867 459.998 473.986C458.925 474.921 457.676 475.906 457.236 476.194C456.776 476.482 454.729 477.95 452.719 479.44C446.81 483.818 445.251 484.807 440.943 486.939C434.472 490.147 430.789 491.399 424.674 492.475C409.65 495.127 393.937 492.072 384.346 484.648C382.498 483.221 377.698 478.415 376.795 477.073C374.754 474.068 373.957 470.581 374.198 465.654C374.344 462.678 374.824 460.01 375.824 456.592C378.386 447.789 382.841 439.892 388.761 433.694C397.274 424.795 407.062 419.522 421.903 415.873C427.765 414.417 433.351 413.471 445.302 411.868C451.268 411.076 453.95 410.491 456.264 409.501C462.753 406.739 465.197 401.92 473.417 375.692C476.47 365.964 477.88 361.694 479.674 356.708C482.787 348.125 487.658 336.065 491.065 328.601C500.9 306.965 520.072 268.704 529.131 252.607C533.078 245.577 534.803 242.795 537.483 239.091C543.382 230.974 548.243 226.623 553.341 224.955C555.921 224.094 560.865 223.6 562.977 223.975ZM557.872 224.984C552.493 225.669 548.409 227.986 543.646 233.079C537.003 240.191 531.347 249.675 517.335 277.111C505.572 300.163 494.43 323.169 489.467 334.721C485.445 344.072 481.409 354.507 478.646 362.661C477.581 365.805 476.987 367.655 473.57 378.488C466.391 401.262 463.876 406.349 458.092 409.745C455.56 411.228 452.66 411.9 442.912 413.204C426.067 415.477 416.523 417.759 407.891 421.577C392.489 428.376 381.644 440.588 376.894 456.489C375.805 460.135 375.307 462.784 375.16 465.798C374.852 472.077 376.459 476.437 380.189 479.35C382.893 481.478 387.282 482.817 390.895 482.606L392.158 482.533L392.211 481.451C392.429 477.394 397.3 468.898 403.332 462.008C410.615 453.707 422.69 444.441 432.938 439.269C441 435.228 451.075 432.391 456.466 432.655L457.47 432.705L459.335 429.833C461.952 425.836 464.092 422.086 465.244 419.528C468.53 412.155 473.936 397.894 484.728 368.189C486.228 364.06 487.931 359.34 488.533 357.723C489.136 356.106 490.946 351.179 492.556 346.784C505.05 312.785 517.224 285.298 530.101 262.049C538.281 247.304 542.776 240.958 549.262 235.078C551.633 232.929 553.855 231.469 555.247 231.13C557.285 230.63 560.267 231.047 566.518 232.729C568.927 233.37 571.689 233.525 572.835 233.058C573.645 232.749 573.686 232.693 573.726 231.881C573.778 230.819 573.032 229.446 571.914 228.539C570.554 227.445 567.455 225.86 565.904 225.494C564.202 225.061 559.509 224.773 557.872 224.984ZM450.106 434.377C442.689 435.931 435.259 438.937 427.975 443.325C419.853 448.195 412.073 454.399 405.906 460.875C399.555 467.556 394.315 476.053 393.069 481.725L392.917 482.454L393.948 482.369C395.465 482.23 399.799 481.145 402.046 480.345C419.318 474.122 439.776 457.035 454.935 436.222C456.035 434.726 456.93 433.453 456.933 433.395C456.942 433.202 453.042 433.747 450.106 434.377ZM463.092 451.574C462.215 452.073 461.491 453.413 461.601 454.328C461.719 455.07 462.535 455.808 463.308 455.845C464.313 455.895 465.385 454.572 465.453 453.181C465.496 452.311 465.285 451.875 464.664 451.496C464.119 451.159 463.848 451.165 463.092 451.574Z" fill="#171717"/>
<path d="M496.82 413.422C496.253 414.024 496.943 414.893 497.809 414.641C498.272 414.507 498.452 413.777 498.099 413.465C497.746 413.153 497.124 413.116 496.82 413.422Z" fill="#171717"/>
<path d="M350.022 255.112C349.826 255.303 349.263 256.051 348.765 256.785C347.658 258.41 347.473 258.641 346.898 259.058C346.548 259.325 346.279 259.46 345.711 259.655C345.015 259.905 344.48 260.037 341.733 260.617C339.365 261.115 337.34 261.843 334.93 263.056C331.392 264.837 328.616 266.882 326.417 269.33C323.018 273.112 321.165 278.078 321.176 283.375C321.182 285.617 321.529 287.413 322.599 290.68C323.301 292.836 323.45 294.093 323.173 295.628C322.986 296.635 322.751 297.255 321.675 299.54C321.203 300.544 320.671 301.734 320.493 302.179C319.798 303.934 319.576 305.451 319.892 306.278C320.182 307.054 320.579 307.136 321.431 306.616C322.046 306.243 322.526 305.746 323.867 304.076C326.29 301.041 327.475 299.951 329.383 298.991C330.643 298.357 332.052 297.985 334.862 297.548C337.008 297.206 337.802 296.971 338.322 296.499C338.671 296.178 338.79 295.816 338.795 295.029C338.803 293.866 338.463 293.39 337.087 292.613C336.101 292.069 334.827 291.533 332.824 290.835C330.416 290.003 329.7 289.56 328.629 288.283C328.004 287.53 327.168 285.834 326.954 284.883C326.463 282.694 326.612 281.14 327.51 278.954C328.325 276.984 329.156 275.516 330.388 273.902C331.841 272.002 333.383 270.697 335.363 269.7C337.693 268.527 340.828 268.318 343.392 269.172C345.162 269.75 345.973 270.51 347.248 272.752C348.108 274.281 348.8 275.147 349.523 275.604C350.052 275.931 351.172 276.197 351.781 276.137C352.265 276.085 353.015 275.744 353.484 275.353C353.95 274.972 354.542 274.136 354.77 273.556C355.208 272.432 355.155 271.437 354.547 269.124C354.311 268.239 354.071 267.146 354.026 266.694C353.87 265.294 353.959 263.224 354.342 259.417C354.531 257.579 354.422 256.53 353.968 255.627C353.466 254.629 352.469 254.082 351.504 254.285C351.015 254.384 350.426 254.718 350.022 255.112ZM351.458 254.846C352.077 254.844 352.683 255.178 353.06 255.746C353.606 256.539 353.668 257.877 353.293 260.903C352.832 264.594 352.829 266.147 353.258 269.59C353.623 272.473 353.592 273.318 353.135 274.096C352.699 274.826 351.767 275.04 350.712 274.649C349.796 274.316 349.051 273.578 348.103 272.094C345.939 268.684 345.65 268.346 344.373 267.675C343.029 266.964 340.936 266.758 338.644 267.099C334.141 267.778 330.055 270.738 327.504 275.171C325.559 278.559 324.569 282.99 325.126 285.766C325.322 286.699 326.059 288.163 326.728 288.948C328.355 290.839 330.038 291.845 332.847 292.603C335.718 293.375 336.601 293.715 337.496 294.406C338.435 295.128 338.582 295.821 337.888 296.307C337.425 296.64 336.711 296.835 334.919 297.117C331.257 297.692 329.687 298.199 327.929 299.367C326.605 300.252 325.656 301.214 323.665 303.694C322.215 305.51 321.627 306.116 321.048 306.417C320.374 306.765 320.126 306.452 320.144 305.275C320.167 304.123 320.655 302.682 322.025 299.765C322.529 298.7 323.044 297.528 323.185 297.156C323.691 295.769 323.847 293.975 323.57 292.609C323.496 292.263 323.147 291.043 322.79 289.899C321.834 286.803 321.56 285.226 321.59 283.02C321.621 280.778 322.005 278.623 322.75 276.459C324.186 272.314 326.631 269.103 330.509 266.257C332.081 265.101 333.057 264.519 335.212 263.434C338.073 261.994 339.217 261.601 342.914 260.789C344.135 260.512 345.454 260.177 345.84 260.037C347.107 259.582 347.791 258.964 348.771 257.394C349.507 256.211 349.616 256.065 350.096 255.568C350.572 255.064 350.998 254.84 351.458 254.846Z" fill="#B44322"/>
<path d="M360.642 283.078C357.982 284.682 355.761 287.177 354.525 289.944C353.797 291.579 353.379 293.377 353.019 296.469C352.552 300.437 352.075 301.881 350.773 303.23C350.417 303.592 350.417 303.61 350.535 303.898C350.692 304.265 350.963 304.44 352.598 305.186C354.079 305.864 354.682 306.209 355.076 306.594C355.446 306.965 355.519 307.238 355.353 307.578C355.24 307.789 355.2 307.819 354.876 307.881C354.355 307.97 353.169 307.536 351.351 306.589C350.519 306.151 349.325 305.538 348.697 305.215C347.347 304.526 345.915 303.677 344.174 302.537C340.434 300.093 340.16 299.948 338.567 299.61C336.316 299.128 334.556 299.256 332.189 300.083C330.16 300.784 328.439 301.915 326.526 303.809C325.879 304.445 325.234 305.81 324.906 307.243C324.506 308.968 324.043 313.144 323.674 318.284C323.432 321.646 323.27 322.594 322.773 323.474C322.396 324.139 322.065 324.442 321.639 324.52C321.041 324.62 320.617 324.231 320.568 323.535C320.557 323.367 320.719 322.674 320.928 322.003C321.626 319.763 321.883 317.535 321.548 316.599C321.35 316.041 321.237 315.998 320.151 316.107C318.766 316.238 317.413 316.034 314.586 315.276C311.66 314.485 310.318 314.23 308.568 314.125C304.343 313.87 300.742 315.528 297.904 319.028C294.91 322.725 293.454 327.5 293.763 332.61C293.95 335.792 294.617 338.367 295.988 341.273C296.886 343.166 297.615 344.414 298.738 345.938C300.644 348.547 302.592 350.423 306.095 353.049C308.451 354.811 309.988 355.835 313.46 357.965C317.017 360.154 318.408 361.069 320.202 362.42C323.321 364.774 325.748 367.093 328.578 370.432C330.896 373.17 332.645 375.575 336.217 380.913C340.43 387.216 342.383 389.773 344.821 392.205C348.37 395.739 351.495 397.342 354.812 397.333C357.808 397.322 360.615 395.954 363.444 393.125C365.218 391.356 366.525 389.366 368.239 385.793C368.66 384.924 369.4 383.511 369.893 382.643C370.935 380.795 371.62 379.31 372.169 377.719C372.708 376.161 372.928 375.238 373.395 372.631C373.841 370.18 374.061 369.312 374.402 368.793C375.008 367.858 375.971 368.067 376.208 369.189C376.414 370.144 376.261 371.362 375.615 373.886C375.362 374.889 375.099 375.998 375.035 376.359C374.92 376.983 374.927 377.052 375.129 377.452C375.404 377.998 375.677 378.198 376.17 378.197C377.296 378.205 378.562 378.69 381.015 380.065C381.877 380.544 382.983 381.146 383.491 381.392C386.736 383.017 390.039 383.179 393.899 381.911C395.181 381.485 397.977 380.133 399.127 379.371C401.813 377.6 403.619 375.751 404.729 373.622C406.049 371.096 406.661 368.27 406.648 364.745C406.631 360.866 405.784 357.642 403.194 351.536C402.512 349.945 402.042 348.794 399.789 343.285C399.173 341.788 399.081 341.606 398.715 341.133C398.185 340.46 397.271 339.606 396.91 339.45C396.494 339.277 396.37 339.284 395.438 339.607C393.1 340.401 391.317 340.559 389.107 340.175C387.627 339.916 384.821 338.874 384.641 338.517C384.575 338.386 384.691 338.127 384.844 338.05C384.873 338.035 385.176 338.075 385.508 338.136C387.452 338.535 388.746 338.55 391.366 338.226C394.081 337.891 394.827 337.67 395.544 336.99C396.129 336.449 396.037 336.03 395.082 334.804C394.537 334.12 394.53 334.106 394.529 333.759C394.52 333.234 394.746 333.066 396.919 331.927C398.925 330.871 399.387 330.557 399.575 330.115C399.865 329.458 399.269 328.873 396.359 326.916C393.85 325.231 392.425 323.941 390.845 321.926C389.612 320.365 389.085 319.499 387.707 316.761L386.417 314.217L386.17 313.036C386.033 312.384 385.774 311.036 385.6 310.038C383.905 300.269 383.573 298.739 382.323 295.006C381.937 293.859 380.215 290.273 379.431 288.988C377.498 285.818 375.498 283.731 373.096 282.367C371.935 281.71 370.833 281.297 369.59 281.075C367.463 280.694 365.284 280.97 362.932 281.916C361.93 282.32 361.712 282.43 360.642 283.078ZM383.964 323.737C384.361 323.784 384.898 324.161 385.078 324.518C385.232 324.824 385.208 325.411 385.041 325.75C384.954 325.922 384.805 326.061 384.564 326.182C383.975 326.479 383.362 326.331 382.868 325.785C382.649 325.531 382.623 325.461 382.622 325.061C382.618 324.816 382.69 324.488 382.784 324.331C383.006 323.937 383.515 323.68 383.964 323.737Z" fill="#B44322"/>
<path d="M384.026 324.653C383.903 325.08 384.444 325.483 384.72 325.18C384.95 324.928 384.726 324.41 384.383 324.4C384.142 324.394 384.08 324.434 384.026 324.653Z" fill="#B44322"/>
<path d="M309.089 416.711C311.912 417.856 314.047 419.448 317.023 422.674C317.325 423.001 318.423 424.103 319.456 425.109C321.103 426.72 321.62 427.39 323.65 430.428C327.89 436.774 330.409 441.96 332.308 448.09C333.437 451.799 335.626 456.887 336.998 459.044C338.424 461.261 338.98 461.906 340.912 463.507C343.14 465.384 342.707 465.798 339.176 465.196C338.018 464.982 337.007 464.864 336.95 464.903C336.684 465.067 337.313 466.176 338.035 466.82C338.841 467.547 338.996 468.111 338.425 468.298C338.233 468.343 337.36 468.369 336.478 468.361C334.901 468.33 333.534 467.992 332.074 467.284C331.862 467.176 331.734 467.15 331.769 467.224C331.933 467.49 334.507 468.885 335.562 469.279C336.185 469.503 336.765 469.768 336.842 469.884C337.183 470.268 336.875 470.807 335.933 471.52C335.408 471.899 334.901 472.349 334.802 472.512C334.495 472.968 333.351 476.792 332.741 479.355C330.173 490.249 325.987 498.636 320.15 504.594C318.058 506.729 317.074 507.567 314.831 509.122C309.63 512.722 304.176 514.572 298.455 514.667C296.416 514.695 291.572 513.731 289.974 512.963C288.495 512.269 286.56 510.934 285.5 509.889C284.425 508.842 282.588 506.092 282.031 504.697C280.893 501.87 280.61 498.096 281.268 494.708C281.778 492.142 283.08 488.616 284.661 485.53C286.652 481.641 288.086 479.458 292.919 473.017C298.117 466.081 299.663 463.588 301.131 459.728C302.74 455.496 303.188 450.9 302.465 446.405C301.919 443.028 301.086 440.679 298.727 435.691C295.34 428.581 294.41 425.462 294.74 422.293C295.102 418.713 298.502 415.955 302.914 415.649C304.303 415.542 307.639 416.122 309.089 416.711ZM332.44 458.154C331.873 458.574 331.662 459.049 331.746 459.716C331.882 460.877 332.87 461.44 333.764 460.885C334.145 460.644 334.27 460.435 334.385 459.858C334.465 459.457 334.458 458.989 334.374 458.822C333.982 458.027 333.046 457.707 332.44 458.154ZM296.462 481.775C295.856 482.221 294.729 483.948 293.923 485.655C290.934 491.963 290.355 496.549 292.078 500.377C293.267 503.031 295.854 505.03 298.853 505.626C300.136 505.881 300.685 505.724 300.918 505.053C301.036 504.71 300.898 504.566 299.595 503.656C298.806 503.099 297.801 502.282 297.358 501.827C295.165 499.607 294.229 496.353 294.642 492.35C294.801 490.881 295.59 488.337 296.758 485.652C297.791 483.223 297.983 482.511 297.681 482.017C297.418 481.581 296.872 481.473 296.462 481.775Z" fill="#471100"/>
<path d="M262.194 364.568C263.248 364.776 264.565 365.432 265.458 366.169C266.96 367.424 268.246 370.421 268.333 372.856C268.37 373.87 268.023 376.058 267.197 379.933C266.551 382.902 266.335 383.728 266.128 383.883C266 383.985 266.073 383.721 264.373 390.164C261.424 401.446 260.781 405.396 261.01 411.311C261.127 414.58 261.465 416.695 262.326 419.707C263.727 424.533 265.776 428.73 270.505 436.48C274.418 442.918 275.707 445.555 276.456 448.621C277.955 454.818 275.647 460.268 270.71 462.212C269.112 462.842 266.078 463.099 264.037 462.763C258.473 461.834 252.895 458.713 247.555 453.537C240.129 446.343 234.972 436.694 232.924 426.164C232.264 422.817 232.281 422.832 230.958 421.538C229.924 420.528 229.768 420.288 229.801 419.845C229.839 419.075 230.481 418.741 232.517 418.471C234.519 418.187 236.057 417.706 237.532 416.884C239.009 416.078 239.051 415.88 237.63 416.422C236.936 416.693 235.703 416.982 234.645 417.119C233.114 417.321 232.607 417.339 231.34 417.139C229.367 416.866 229.001 416.7 228.981 416.144C228.972 415.899 229.107 415.567 229.281 415.397C229.455 415.227 229.596 415.042 229.593 414.977C229.591 414.928 228.721 414.828 227.654 414.752C224.489 414.555 222.483 413.825 222.714 412.982C222.773 412.784 223.517 412.102 224.361 411.45C227.722 408.908 229.7 406.12 231.978 400.737C232.791 398.777 233.056 397.965 234.229 393.701C235.618 388.644 237.546 384.01 239.95 379.882C244.652 371.842 250.952 366.379 257.293 364.793C258.51 364.504 261.205 364.375 262.194 364.568ZM252.474 371.855C251.558 372.314 251.073 372.937 251.255 373.454C251.419 373.906 251.867 374.086 253.115 374.221C255.497 374.479 257.14 376.024 257.978 378.841C258.387 380.217 258.625 383.187 258.47 385.254C258.408 386.271 258.397 387.319 258.472 387.594C258.72 388.583 259.564 388.847 260.161 388.139C260.883 387.295 261.538 384.113 261.457 381.858C261.391 380.027 260.839 376.971 260.352 375.712C258.892 371.968 255.561 370.337 252.474 371.855ZM235.506 405.11C234.243 405.941 234.947 408.239 236.451 408.185C238.052 408.127 238.268 405.469 236.693 404.903C236.179 404.709 236.065 404.73 235.506 405.11Z" fill="#471100"/>
<path d="M691.394 258.897C686.328 255.288 680.626 253.161 675.091 252.808C673.011 252.674 667.752 252.985 665.918 253.349C664.055 253.715 662.352 254.192 661.29 254.635L660.807 254.837L660.727 253.299C660.591 250.69 660.184 248.704 659.39 246.771C658.738 245.169 657.958 243.903 656.854 242.616C656.08 241.72 654.214 240.156 653.189 239.536C649.966 237.593 646.278 236.693 642.629 236.958C640.166 237.134 638.186 237.696 635.871 238.881C633.382 240.147 631.605 241.393 629.878 243.085C627.682 245.227 625.694 248.646 623.818 253.482C623.625 253.986 623.456 254.409 623.442 254.425C623.428 254.441 623.322 254.31 623.208 254.135C623.089 253.955 622.757 253.523 622.464 253.163C619.565 249.559 615.669 247.698 611.263 247.795C609.129 247.848 606.537 248.602 604.255 249.854C602.194 250.981 600.333 252.594 598.284 255.032C597.026 256.538 596.408 257.399 595.617 258.772C594.677 260.398 594.186 261.567 593.722 263.283C593.355 264.626 593.165 265.714 593.044 267.197C592.876 269.09 592.897 269.97 593.226 275.807L593.536 281.423L591.926 281.543C591.04 281.616 589.94 281.754 589.486 281.851C585.539 282.707 582.133 284.87 579.821 287.986C578.693 289.512 578.154 290.713 577.514 293.165C577.105 294.714 577.28 297.226 577.932 299.342C578.364 300.752 579.169 302.095 580.506 303.663C581.228 304.503 583.208 306.252 583.811 306.576C584.035 306.698 584.22 306.804 584.221 306.823C584.226 306.838 583.926 307.023 583.557 307.232C582.8 307.662 581.992 308.215 581.22 308.82C580.8 309.152 580.45 309.518 579.554 310.537C578.325 311.937 578.042 312.353 577.515 313.584C576.683 315.529 576.554 317.82 577.144 320.416C577.405 321.591 577.954 322.606 579.039 323.934C579.769 324.828 580.78 325.716 581.66 326.227C582.459 326.695 584.152 327.416 584.865 327.602C585.146 327.671 585.383 327.748 585.389 327.763C585.385 327.778 584.997 328.335 584.521 328.993C581.759 332.799 580.088 334.858 579.379 335.34C578.855 335.694 577.837 336.128 576.811 336.434C576.334 336.577 575.101 336.972 574.082 337.312C571.058 338.305 569.908 338.595 567.176 339.067C564.267 339.561 563.468 339.861 563.391 340.495C563.356 340.829 563.535 341.099 564.191 341.676C564.749 342.165 565.26 342.54 567.245 343.938C568.544 344.845 569.305 345.607 569.55 346.243C569.731 346.72 569.403 347.209 568.63 347.606C568.082 347.882 567.957 348.035 567.991 348.364C568.023 348.654 568.206 348.918 568.803 349.564C569.73 350.547 570.754 351.493 571.409 351.957C572.539 352.762 573.572 353.614 573.597 353.775C573.614 353.903 573.6 353.919 573.433 353.941C573.036 353.994 571.862 353.543 570.55 352.83C569.62 352.322 567.872 351.179 567.388 350.754C566.94 350.36 566.714 350.312 566.492 350.565C566.311 350.771 566.256 351.107 566.248 352.082C566.243 353.37 566.093 354.276 565.746 355.113C565.585 355.496 565.344 355.854 564.027 357.626C563.623 358.17 562.809 359.307 562.215 360.152C560.141 363.111 558.76 364.977 557.336 366.767C556.404 367.932 555.617 369.038 555.268 369.666C554.923 370.29 554.951 370.763 555.376 371.267C555.519 371.44 555.784 371.832 555.956 372.142C556.568 373.232 557.225 374.071 558.723 375.696C560.233 377.331 561.599 378.644 563.721 380.518C568.036 384.308 572.223 387.098 575.203 388.163C576.789 388.733 578.264 389.009 579.173 388.919C579.734 388.859 579.944 388.735 579.987 388.445C580.011 388.27 580.2 388.034 581.305 386.777C583.332 384.469 584.776 382.5 586.901 379.145C589.053 375.74 589.147 375.57 589.676 374.106C590.256 372.511 590.662 370.987 590.869 369.606C591.138 367.849 591.25 364.391 591.122 361.668C591.064 360.503 591.034 359.392 591.057 359.187C591.086 358.839 591.27 358.514 591.42 358.543C591.59 358.57 591.786 358.967 591.952 359.618C592.507 361.772 592.69 365.273 592.41 368.461C592.312 369.582 592.351 369.832 592.636 369.876C592.835 369.901 593.202 369.409 594.056 368.007C594.855 366.698 595.284 366.073 598.137 362.048C598.782 361.146 599.564 360.045 599.88 359.602C601.269 357.632 601.978 356.646 603.964 353.945C604.256 353.538 604.515 353.212 604.539 353.206C604.564 353.209 604.653 353.549 604.741 353.964C605.135 355.901 606.536 360.444 607.34 362.366C608.15 364.313 609.561 366.564 611.078 368.337C611.794 369.172 613.895 371.036 614.833 371.682C618.54 374.21 623.203 375.985 627.426 376.476C629.721 376.743 632.365 376.614 634.122 376.137C636.567 375.487 639.225 374.06 641.677 372.088C642.727 371.251 644.439 369.302 645.348 367.921C646.843 365.641 647.259 364.705 648.121 361.654C648.646 359.795 648.953 358.352 649.214 356.532L649.409 355.206L651.631 357.102C655.246 360.175 657.381 361.676 660.301 363.176C668.871 367.598 677.827 367.494 683.744 362.913C685.921 361.223 687.168 359.867 688.511 357.697C690.176 355.024 691.074 352.426 691.313 349.622C691.567 346.663 691.215 343.417 690.349 340.587C689.934 339.231 688.096 334.734 687.239 332.998C687.019 332.534 686.896 332.548 688.435 332.824C690.445 333.185 692.185 333.264 694.436 333.108C699.159 332.766 703.373 331.218 706.901 328.516C708.502 327.293 710.347 325.35 711.399 323.785C713.49 320.68 714.655 317.231 714.756 313.848C714.811 311.978 714.329 308.354 713.793 306.62C712.777 303.332 710.456 300.067 707.456 297.712C704.056 295.034 700.603 293.909 694.748 293.575C694.133 293.54 693.621 293.502 693.611 293.493C693.6 293.483 693.825 293.269 694.112 293.016C696.334 291.066 698.114 288.84 699.268 286.57C701.985 281.218 702.204 275.01 699.867 269.326C698.894 266.955 697.7 265.055 695.883 262.962C695.221 262.202 692.219 259.481 691.394 258.897ZM695.418 263.302C697.34 265.486 698.529 267.411 699.511 269.92C701.514 275.059 701.372 280.707 699.118 285.605C698.165 287.678 696.716 289.727 694.972 291.46C693.952 292.473 692.348 293.9 691.247 294.785C690.065 295.731 689.934 295.859 690.007 295.997C690.102 296.183 690.611 296.276 692.045 296.357C696.621 296.624 699.506 297.166 702.635 298.333C706.437 299.755 709.386 301.831 711.436 304.531C714.279 308.264 715.058 313.524 713.506 318.402C711.226 325.569 704.983 330.846 697.066 332.312C694.663 332.756 691.388 332.816 689.369 332.455C688.394 332.282 683.982 331.082 683.168 330.769C681.054 329.97 678.186 328.348 675.714 326.569C674.743 325.866 672.916 324.289 672.012 323.363C671.628 322.98 671.415 322.792 671.331 322.793C671.271 322.787 671.219 322.826 671.221 322.865C671.233 322.978 671.847 323.761 672.375 324.337C673.214 325.252 677.204 328.646 679.023 329.991C680.604 331.165 682.629 332.402 684.022 333.055L684.734 333.39L685.083 333.949C686.758 336.656 688.351 340.497 689.115 343.695C689.818 346.615 689.982 349.36 689.606 351.922C689.345 353.658 688.609 355.893 687.796 357.397C685.419 361.784 681.384 364.686 676.349 365.634C675.307 365.832 673.214 365.976 672.098 365.932C666.274 365.7 660.687 363.514 654.968 359.21C654.512 358.866 652.995 357.608 651.597 356.426C648.834 354.074 648.674 353.962 648.185 354.056C647.637 354.164 647.419 354.739 647.036 357.014C646.222 361.923 645.285 364.871 643.616 367.812C642.43 369.886 640.798 371.849 639.329 372.964C637.742 374.161 635.142 375.376 633.31 375.769C630.535 376.373 627.601 376.256 624.267 375.395C618.644 373.955 613.8 371.018 610.853 367.269C608.617 364.434 607.285 360.999 606.716 356.644C606.548 355.354 606.364 351.759 606.38 349.986C606.402 347.365 606.571 346.195 607.323 343.374C607.669 342.087 607.945 341.216 608.177 340.71C608.356 340.296 608.699 339.549 608.922 339.053C609.391 338.014 609.487 337.706 609.339 337.716C609.221 337.724 609.027 338.05 608.222 339.607C607.48 341.051 607.201 341.779 606.646 343.809C606.013 346.126 605.784 347.385 605.634 349.321L605.562 350.212L604.885 350.394C604.033 350.618 602.811 350.706 601.507 350.635C598.396 350.476 595.815 349.715 593.199 348.174C592.257 347.627 590.661 346.291 590.101 345.593C588.945 344.156 588.295 342.5 588.123 340.552C587.717 335.938 589.633 330.415 593.389 325.415C593.729 324.965 594.015 324.534 594.036 324.458C594.076 324.297 593.876 324.093 593.714 324.12C593.656 324.134 593.137 324.314 592.566 324.523C589.326 325.71 586.922 326.144 584.895 325.897C583.844 325.769 582.551 325.307 581.531 324.682C580.849 324.27 579.47 323.003 579.013 322.367C577.933 320.885 577.377 319.395 577.245 317.632C577.076 315.387 577.781 313.312 579.433 311.18C580.322 310.042 581.923 308.651 583.379 307.75C584.273 307.206 584.817 306.954 585.851 306.618C586.666 306.352 586.958 306.188 586.818 306.064C586.781 306.032 586.622 306.014 586.46 306.03C585.608 306.106 582.728 304.371 581.355 302.949C580.192 301.74 579.476 300.643 578.863 299.122C578.413 298.006 578.163 296.935 578.057 295.71C577.838 293.122 578.402 290.894 579.823 288.708C580.318 287.945 581.791 286.301 582.555 285.662C585.154 283.482 588.13 282.269 591.687 281.951C594 281.747 595.877 282.038 598.754 283.051C602.924 284.515 604.992 285.63 607.3 287.658C608.405 288.629 609.299 289.555 609.9 290.363C610.265 290.852 610.27 290.857 610.335 290.783C610.46 290.64 609.79 289.574 608.963 288.614C607.859 287.316 605.368 284.95 604.19 284.074C602.231 282.624 599.453 281.12 597.507 280.467L596.987 280.291L596.877 279.838C596.619 278.798 596.074 275.97 595.929 274.916C595.629 272.735 595.521 270 595.636 267.819C595.904 262.796 597.123 258.729 599.413 255.229C600.062 254.227 601.64 252.432 602.493 251.712C605.729 248.997 609.567 247.802 613.444 248.307C616.21 248.669 618.885 250.028 620.939 252.104C622.941 254.134 624.339 256.494 625.198 259.299C625.503 260.287 625.637 260.471 625.867 260.261C625.971 260.165 626.031 259.844 626.114 258.887C626.631 253.118 628.09 248.252 630.375 244.674C631.064 243.595 632.764 241.691 633.724 240.925C636.413 238.768 639.403 237.614 642.887 237.4C644.173 237.323 644.897 237.351 646.213 237.524C651.297 238.201 655.797 241.097 658.111 245.179C658.601 246.05 659.23 247.52 659.479 248.403C659.951 250.052 660.233 252.284 660.251 254.377L660.258 255.104L659.593 255.483C657.894 256.471 654.173 259.33 652.188 261.18C650.728 262.536 649.154 264.223 647.936 265.735C646.022 268.124 643.727 271.283 642.801 272.809C642.039 274.076 641.154 275.956 641.172 276.271C641.187 276.528 641.359 276.332 641.641 275.748C641.814 275.394 642.199 274.703 642.492 274.212C644.54 270.809 647.017 267.885 650.005 265.335C653.794 262.095 660.023 258.378 662.372 257.953C663.517 257.743 664.342 257.56 666.268 257.071C669.597 256.225 670.894 255.989 673.064 255.799C677.138 255.449 681.33 255.744 684.759 256.623C687.455 257.316 689.304 258.165 691.466 259.708C692.224 260.253 694.772 262.566 695.418 263.302ZM687.074 256.73C686.792 256.641 686.721 256.597 686.781 256.528C686.827 256.475 687 256.562 687.208 256.725C687.28 256.779 687.231 256.783 687.074 256.73ZM713.309 306.457C713.375 306.655 713.413 306.811 713.394 306.812C713.32 306.822 713.051 306.183 713.102 306.125C713.167 306.051 713.167 306.061 713.309 306.457ZM631.926 241.994C631.823 241.996 631.867 241.914 632.038 241.783L632.213 241.657L632.099 241.818C632.035 241.912 631.96 241.986 631.926 241.994ZM625.636 258.907C625.614 258.963 625.59 258.979 625.573 258.936C625.556 258.892 625.567 258.837 625.595 258.806C625.66 258.732 625.683 258.779 625.636 258.907ZM599.765 254.05C599.728 254.093 599.679 254.106 599.648 254.079C599.622 254.056 599.638 253.985 599.693 253.922C599.744 253.864 599.798 253.855 599.81 253.894C599.828 253.937 599.802 254.008 599.765 254.05ZM689.65 354.3C689.606 354.392 689.606 354.308 689.649 354.112C689.697 353.92 689.767 353.757 689.81 353.739C689.883 353.719 689.805 353.996 689.65 354.3ZM604.171 284.694C604.125 284.672 604.063 284.617 604.041 284.579C604.018 284.531 604.054 284.544 604.127 284.608C604.199 284.672 604.216 284.705 604.171 284.694ZM648.265 358.758C648.232 358.879 648.202 358.965 648.192 358.956C648.161 358.929 648.262 358.278 648.299 358.236C648.35 358.187 648.329 358.496 648.265 358.758ZM583.299 341.891C583.368 342.045 583.438 342.322 583.444 342.504C583.474 343.037 583.345 343.363 582.862 343.912C582.496 344.329 582.397 344.411 582.049 344.554C581.28 344.862 580.522 344.579 580.183 343.841C579.884 343.214 579.988 342.538 580.477 341.919C581.024 341.212 581.701 340.936 582.38 341.13C582.833 341.266 583.129 341.507 583.299 341.891ZM579.203 387.803C579.805 388.463 579.8 388.552 579.171 388.617C577.627 388.777 574.821 387.893 572.279 386.436C571.102 385.767 569.053 384.369 567.218 383C565.956 382.051 561.944 378.526 560.652 377.232C558.446 375.013 556.262 372.402 556.439 372.201C556.462 372.175 556.63 372.257 556.811 372.388C557.387 372.782 559.036 373.744 560.306 374.42C563.522 376.141 564.543 376.776 569.46 380.133C571.953 381.836 573.537 382.965 574.904 384.026C575.447 384.448 576.017 384.892 576.167 385.005C576.658 385.371 578.743 387.296 579.203 387.803Z" fill="#60A561"/>
<path d="M434.771 164.204C434.579 164.328 434.027 164.869 433.531 165.421C433.035 165.973 431.244 167.844 429.531 169.579C422.566 176.668 420.572 179.338 417.912 185.075C416.346 188.489 414.204 193.989 414.024 195.127C413.878 195.994 414.407 196.13 415.174 195.42C415.658 194.969 416.053 194.451 418.194 191.442C419.14 190.123 420.989 187.768 421.045 187.824C421.067 187.835 420.831 188.512 420.526 189.312C418.059 195.769 415.467 208.526 414.159 220.629C412.773 233.442 412.615 248.205 413.765 259.79C414.317 265.492 415.095 270.395 416.289 275.838C416.875 278.531 416.988 279.647 416.808 281.337C416.582 283.546 416.21 284.955 415.128 287.682C414.069 290.375 414.261 290.646 416.278 289.282C416.965 288.82 417.63 288.403 417.766 288.369C418.104 288.268 418.239 288.493 418.442 289.44C418.532 289.902 418.678 290.341 418.768 290.431C419.14 290.803 420.166 290.06 421.203 288.673C421.541 288.223 421.845 287.851 421.901 287.851C421.946 287.851 421.98 287.963 421.98 288.087C421.98 288.38 421.552 289.09 420.639 290.33C419.873 291.356 419.794 291.682 420.256 291.987C420.831 292.381 421.36 293.001 421.913 293.947C422.217 294.466 422.848 295.503 423.333 296.246C423.806 296.99 424.437 298.027 424.741 298.557C428.584 305.284 433.993 311.156 439.955 315.044C445.342 318.548 450.92 320.566 457.253 321.264C460.251 321.591 464.646 321.445 467.621 320.915C472.117 320.115 476.659 318.154 480.04 315.551C484.548 312.069 487.771 307.211 489.269 301.622C490.926 295.446 490.419 288.448 487.827 281.765C487.128 279.962 485.72 277.134 484.672 275.421C481.685 270.53 478.079 266.473 471.227 260.309C470.269 259.441 468.376 257.694 467.024 256.421C464.488 254.02 463.598 253.265 460.352 250.73C454.819 246.402 451.123 243.991 444.744 240.576C442.919 239.596 441.172 238.66 440.856 238.48C440.282 238.164 440.056 237.77 440.394 237.635C440.777 237.488 446.694 240.328 449.286 241.894C449.917 242.278 452.329 243.855 454.639 245.399C456.96 246.943 458.876 248.171 458.921 248.138C458.955 248.104 458.831 247.878 458.639 247.642C453.399 241.094 449.793 233.905 447.731 225.926C445.973 219.119 445.319 212.504 445.635 204.537C445.702 202.542 445.939 198.654 446.153 195.904C446.367 193.143 446.547 190.439 446.547 189.898C446.547 189.346 446.592 188.917 446.649 188.951C446.795 189.053 448.677 192.569 449.748 194.766C450.717 196.761 451.089 197.302 451.472 197.223C452.171 197.088 452.362 194.473 451.9 191.408C451.63 189.616 451.078 187.058 450.751 186.168C450.176 184.567 449.004 182.415 447.81 180.792C446.299 178.741 442.874 175.101 439.898 172.408C438.997 171.596 437.87 170.56 437.397 170.098L436.518 169.264V168.666C436.518 168.328 436.642 167.686 436.811 167.19C437.149 166.153 437.115 165.635 436.664 164.981C436.371 164.553 435.582 164.001 435.267 164.001C435.177 164.001 434.951 164.091 434.771 164.204ZM435.887 165.038C436.18 165.443 436.101 166.086 435.672 166.976C435.447 167.461 435.278 167.968 435.278 168.216C435.278 168.441 435.233 168.621 435.177 168.621C435.132 168.621 434.782 168.464 434.41 168.272C433.96 168.035 433.621 167.945 433.362 167.968C432.99 168.001 433.013 168.013 433.993 168.61C434.816 169.106 435.447 169.658 437.476 171.664C438.839 173.005 440.777 174.876 441.792 175.822C445.387 179.214 447.224 181.457 448.643 184.241C449.489 185.908 450.007 187.43 450.773 190.461C451.258 192.354 451.619 195.532 451.45 196.411C451.371 196.828 451.371 196.84 451.202 196.626C451.111 196.502 450.604 195.521 450.086 194.462C449.106 192.422 446.931 188.433 446.468 187.802C446.322 187.61 446.13 187.441 446.04 187.441C445.635 187.441 445.24 188.636 444.294 192.749C443.268 197.189 442.772 199.048 442.614 199.048C442.569 199.048 442.265 197.865 441.927 196.423C440.958 192.152 439.82 188.286 438.749 185.582C438.219 184.241 437.859 183.722 437.464 183.722C437.059 183.722 436.822 184.184 436.157 186.258C434.647 190.991 432.878 195.701 431.593 198.395C430.906 199.815 430.658 200.198 430.658 199.804C430.658 199.725 430.838 198.586 431.052 197.29C431.616 193.865 431.807 191.847 431.818 189.413C431.818 186.247 431.537 184.962 430.838 184.962C430.263 184.962 429.801 185.604 427.818 189.109C426.251 191.881 424.786 194.89 423.445 198.091C422.375 200.637 421.8 201.866 421.676 201.866C421.642 201.866 421.642 201.347 421.687 200.705C422.082 194.834 422.206 192.49 422.194 190.653C422.183 187.723 422.082 186.337 421.879 186.201C421.428 185.931 420.572 186.866 418.25 190.123C415.816 193.56 414.43 195.363 414.43 195.093C414.43 194.98 414.892 193.583 415.309 192.433C416.413 189.402 418.385 184.86 419.591 182.595C421.924 178.189 424.583 174.988 432.754 166.728L435.019 164.429L435.368 164.609C435.56 164.711 435.796 164.902 435.887 165.038ZM466.618 267.442C468.275 268.546 471.779 271.972 473.729 274.395C477.042 278.542 478.823 281.946 480.569 287.513C481.911 291.829 482.204 294.939 481.584 298.613C481.392 299.729 480.378 303.008 479.893 304.101C478.879 306.332 477.561 308.26 476.434 309.116C475.577 309.758 474.878 309.533 474.969 308.643C475.025 308.158 475.115 307.967 476.445 305.431C477.392 303.617 477.82 302.467 478.383 300.303C479.037 297.757 479.262 296.111 479.183 294.556C478.902 289.507 477.256 284.515 473.977 278.824C472.129 275.601 470.641 273.618 467.959 270.778C465.897 268.592 465.198 267.543 465.559 267.194C465.717 267.025 466.145 267.126 466.618 267.442ZM424.324 281.089C425.068 281.551 425.372 282.667 424.967 283.456C424.392 284.571 422.758 284.2 422.33 282.881C422.183 282.442 422.307 281.664 422.578 281.303C422.938 280.83 423.727 280.729 424.324 281.089Z" fill="#00473B"/>
<path d="M466.893 268.683C466.928 268.74 466.984 268.797 467.019 268.797C467.041 268.797 467.064 268.74 467.064 268.683C467.064 268.615 467.007 268.569 466.939 268.569C466.882 268.569 466.859 268.615 466.893 268.683Z" fill="#00473B"/>
<path d="M423.13 282.282C422.815 282.496 422.815 282.778 423.119 283.161C423.378 283.488 423.683 283.533 423.942 283.274C424.201 283.026 424.168 282.699 423.841 282.383C423.525 282.056 423.469 282.045 423.13 282.282Z" fill="#00473B"/>
</svg>
