<svg width="533" height="582" viewBox="0 0 533 582" fill="none" xmlns="http://www.w3.org/2000/svg">
<path d="M398.697 81.41C392.265 83.2473 385.809 85.8063 381.941 88.0272C375.489 91.7352 372.571 95.846 372.389 101.502C372.346 102.812 372.433 103.359 373.17 106.696C374.009 110.493 374.281 111.349 376.015 115.733C379.685 124.971 388.185 142.741 393.903 153.11C402.701 169.064 409.697 179.651 429.576 207.056C439.53 220.789 439.183 220.349 440.256 220.912C441.542 221.611 442.488 221.602 445.728 220.903C449.075 220.164 457.548 217.926 459.482 217.265C460.242 217.014 461.145 216.582 461.474 216.342C462.049 215.932 462.125 215.748 462.431 214.348C464.063 206.821 465.962 188.904 466.688 174.113C467.244 162.991 467.816 154.283 468.568 145.784C469.84 131.205 471.784 102.796 471.992 95.4513C472.08 92.0824 471.964 87.6418 471.718 85.0965C471.467 82.6024 470.595 78.4288 469.983 76.8642C468.148 72.1702 465.57 69.9899 461.709 69.9095C458.01 69.8099 448.163 71.2515 435.92 73.6722C432.06 74.4248 425.517 75.6865 421.396 76.4633C413.504 77.9399 402.154 80.4133 398.697 81.41ZM422.617 77.0936C425.033 76.6599 430.395 75.6257 434.509 74.817C443.466 73.0386 453.164 71.4468 458.192 70.9361C462.991 70.4428 465.183 71.0253 467.01 73.2714C470.089 77.0408 471.358 84.1429 471.037 95.6457C470.96 98.3122 470.5 106.246 469.643 119.467C469.242 125.488 468.46 136.109 468.052 140.816C467.942 142.123 467.685 145.179 467.473 147.609C466.942 153.792 466.311 162.914 465.999 169.182C465.293 183.236 464.932 188.082 463.678 199.274C462.871 206.618 461.638 214.673 461.241 215.36C460.803 216.09 454.79 217.868 446.783 219.654C442.932 220.521 442.338 220.619 441.615 220.512C440.288 220.305 439.519 219.608 437.611 216.847C436.682 215.502 432.627 209.798 428.594 204.19C413.251 182.782 407.44 174.25 401.544 164.504C394.242 152.385 387.92 140.183 380.597 124.053C375.744 113.376 373.642 107.325 373.297 103.051C373.173 101.512 373.383 99.1494 373.781 97.8617C375.01 93.8575 378.612 90.429 384.687 87.504C388.426 85.6783 394.228 83.547 399.428 82.0819C402.356 81.2519 416.508 78.2096 422.617 77.0936Z" fill="black"/>
<path d="M408.128 97.3748C407.143 97.8091 406.432 98.4327 406.158 99.0764C405.634 100.242 407.132 107.777 408.806 112.573C409.963 115.85 410.388 117.173 411.967 122.29C413.188 126.237 418.983 144.038 422.045 153.227C427.46 169.462 432.413 181.416 435.083 184.693C436.594 186.559 438.194 186.422 438.742 184.384C439.917 179.909 436.26 162.752 429.019 138.855C426.126 129.295 423.673 121.055 422.23 116.024C418.216 101.996 416.997 98.5824 415.604 97.3235C414.292 96.1301 410.755 96.1614 408.128 97.3748ZM413.64 97.4738C414.78 97.7387 415.358 98.2444 415.982 99.4896C416.816 101.155 418.543 106.49 420.83 114.583C422.107 119.084 425.028 128.921 427.365 136.637C429.011 142.056 431.045 149.006 432.587 154.481C433.93 159.284 437.387 174.935 437.693 177.6C438.139 181.651 438.11 183.707 437.572 184.66L437.224 185.27L436.923 184.436C436.755 183.973 435.969 182.147 435.184 180.404C429.469 167.785 425.643 157.165 419.803 137.807C417.957 131.633 416.564 126.757 414.139 117.811C412.183 110.611 409.664 101.768 408.974 99.6211C408.73 98.8918 408.55 98.2314 408.58 98.1415C408.614 98.0674 409.555 97.8095 410.66 97.6154C412.463 97.2672 412.795 97.2607 413.64 97.4738Z" fill="black"/>
<path d="M424.991 94.2472C422.755 95.1242 421.887 95.8658 421.851 96.907C421.748 99.8294 423.375 106.819 426.188 115.563C429.008 124.339 429.923 127.803 434.694 147.597C438.336 162.657 440.733 171.476 442.649 176.836C444.415 181.745 445.602 183.349 447.172 183.003C449.52 182.484 449.141 176.702 445.209 153.023C443.261 141.339 437.947 114.566 435.286 102.972C433.808 96.5825 433.705 96.1887 433.154 95.2772C432.491 94.1572 431.737 93.6071 430.451 93.3579C429.753 93.212 429.228 93.2447 427.746 93.5388C426.739 93.7277 425.496 94.0522 424.991 94.2472ZM429.232 94.5436C429.23 94.7607 429.487 95.6206 429.799 96.4347C430.896 99.292 432.538 105.895 435.717 120.291C438.323 132.014 438.984 135.234 439.589 139.1C440.64 145.667 441.924 153.066 443.229 159.877C445.859 173.594 446.587 178.016 446.614 180.176C446.637 182.087 446.433 182.366 445.711 181.359C443.483 178.201 439.728 165.116 433.908 140.271C431.119 128.322 430.424 125.776 427.243 115.747C426.198 112.445 425.003 108.543 424.566 107.089C423.415 103.161 422.627 98.2354 422.953 96.9971C423.071 96.5543 423.325 96.3482 424.984 95.3485C425.397 95.1074 426.312 94.8053 427.454 94.5531L429.243 94.1413L429.232 94.5436Z" fill="black"/>
<path d="M440.955 91.038C440.288 91.3351 439.498 92.2763 439.24 93.0665C438.952 93.9467 439.066 95.6711 439.641 99.1771C439.942 100.994 440.312 103.345 440.464 104.411C441.054 108.664 442.039 114.629 443.39 122.179C445.361 133.209 446.185 138.676 447.996 152.825C449.484 164.461 449.847 166.63 451.304 172.924C452.375 177.471 452.619 178.35 453.022 179.044C453.527 179.899 454.601 180.695 455.108 180.583C456.552 180.264 457.211 176.169 457.5 165.723C457.819 154.738 457.625 146.782 456.645 130.667C455.861 117.475 455.621 114.129 455.194 109.407C455.011 107.298 454.712 104.514 454.526 103.222C454.087 99.9526 452.873 94.4548 452.328 93.1921C451.507 91.3571 450.218 90.3419 448.473 90.1273C446.697 89.9197 442.208 90.4612 440.955 91.038ZM446.64 91.0155C447.665 90.989 447.716 90.9943 448.075 91.565C448.658 92.4695 449.606 96.4597 450.276 100.928C451.299 107.817 452.153 116.128 452.921 126.99C453.092 129.419 453.351 132.928 453.494 134.779C454.603 150.199 454.951 160.587 454.652 169.852C454.521 173.78 454.032 178.571 453.78 178.41C453.412 178.175 452.155 173.086 451.206 168.113C450.245 163.01 450.013 161.428 448.765 151.488C447.27 139.52 446.274 132.974 444.202 121.333C442.713 113.013 442.205 109.959 441.46 104.775C441.211 103.046 440.785 100.291 440.523 98.6491C439.557 92.6964 439.709 92.3296 443.52 91.5046C444.662 91.2523 446.06 91.0269 446.64 91.0155Z" fill="black"/>
<path d="M389.851 102.746C387.402 104.086 387.19 105.233 388.716 108.979C389.108 109.925 389.964 112.069 390.62 113.758C395.071 125.173 398.176 132.903 400.792 139.174C406.874 153.679 417.233 175.121 421.79 182.647C424.642 187.349 427.438 190.065 428.63 189.285C430.3 188.183 429.718 184.945 425.347 170.879C423.14 163.751 421.313 158.339 419.353 153.156C413.121 136.618 409.723 128.086 405.735 118.918C403.278 113.295 402.498 111.568 401.296 109.067C398.672 103.664 397.611 102.398 395.149 101.875C394.327 101.69 393.932 101.711 392.351 102.01C391.189 102.25 390.28 102.501 389.851 102.746ZM395.131 102.846C396.924 103.283 397.785 104.243 399.644 107.915C403.053 114.611 408.887 128.371 414.224 142.29C420.635 159.038 423.51 167.385 426.862 179.094C428.237 183.889 428.92 188.038 428.365 188.16C428.317 188.171 428.075 187.824 427.83 187.395C419.113 171.956 415.285 164.719 411.022 155.662C402.432 137.412 398.529 127.875 393.184 112.108C391.75 107.876 390.526 104.446 390.206 103.75C390.076 103.462 391.044 103.099 392.695 102.817C393.801 102.623 394.269 102.636 395.131 102.846Z" fill="black"/>
<path d="M445.867 223.869C443.711 224.729 442.811 225.627 442.521 227.174C442.411 227.732 443.876 234.441 456.581 291.66C470.848 355.884 471.771 359.913 473.107 363.4C474.749 367.67 476.605 369.144 480.914 369.592C483.705 369.875 485.506 369.744 489.154 368.938C492.124 368.299 492.375 368.227 492.888 367.764C494.47 366.414 494.81 364.339 494.231 359.835C493.89 357.16 491.244 345.78 487.194 329.477C485.563 322.921 483.744 315.44 483.16 312.87C482.149 308.444 482.095 308.122 482.198 307.083C482.262 306.469 482.455 305.61 482.637 305.153C482.803 304.7 482.923 304.19 482.881 303.999C482.797 303.618 482.332 303.321 481.722 303.272C481.01 303.213 477.848 302.378 476.509 301.89C475.041 301.348 474.207 300.882 474.136 300.565C474.08 300.31 474.029 300.305 475.565 300.782C478.294 301.613 480.91 301.552 482.185 300.62C482.772 300.19 482.842 300.058 482.751 299.645C482.674 299.296 482.517 299.113 482.19 298.986C481.936 298.892 481.723 298.756 481.709 298.692C481.691 298.613 482.816 298.281 484.189 297.944C486.447 297.396 486.741 297.297 487.087 296.904C487.763 296.122 487.55 295.686 485.691 294.046C482.268 291.053 480.082 287.786 477.379 281.651C474.476 275.06 473.965 273.273 469.242 252.869C463.245 226.997 462.599 224.373 461.999 223.389C461.014 221.79 459.643 221.31 456.767 221.545C454.705 221.7 447.35 223.275 445.867 223.869ZM475.12 287.766C475.459 288.324 475.484 288.435 475.347 289.099C475.176 289.903 474.708 290.573 474.264 290.671C473.836 290.766 472.848 290.134 472.714 289.68C472.466 288.785 472.465 288.402 472.744 287.857C473.309 286.799 474.497 286.753 475.12 287.766ZM482.217 355.306C480.548 357.091 480.842 361.059 482.785 362.696C483.382 363.214 483.36 363.269 482.652 363.075C481.361 362.727 480.386 361.476 479.966 359.652C479.433 357.237 480.277 355.334 482.069 354.938L482.704 354.798L482.217 355.306ZM484.437 355.715C485.832 357.057 486.232 360.152 485.214 361.793C484.566 362.853 484.148 362.995 483.391 362.429C482.614 361.85 482.182 361.096 481.911 359.873C481.543 358.204 481.858 356.618 482.721 355.778C483.324 355.195 483.868 355.174 484.437 355.715Z" fill="black"/>
<path d="M473.721 288.591C473.262 289.076 473.745 289.753 474.334 289.406C474.687 289.195 474.603 288.513 474.191 288.454C473.864 288.409 473.896 288.402 473.721 288.591Z" fill="black"/>
<path d="M93.1516 47.7414C93.8227 48.8164 94.5737 52.4401 94.7182 55.259C95.2018 64.9247 93.7915 81.1254 91.6917 90.0918C89.8997 97.7364 86.7437 105.459 81.3868 115.267C72.3199 131.832 69.0662 140.229 67.5664 150.832C65.4552 165.864 68.5932 180.586 78.5438 202.31C81.3019 208.352 82.472 211.137 83.2412 213.572C84.386 217.196 84.3828 218.629 83.229 220.094C82.7701 220.675 82.537 220.79 81.2755 221.126C78.4518 221.831 74.3227 220.831 69.2494 218.22C63.8973 215.448 60.1053 212.432 56.6579 208.145C53.5598 204.308 51.6136 200.771 49.2722 194.868L47.8407 191.19L46.4125 189.752C45.6433 188.957 44.9554 188.157 44.8958 187.968C44.7587 187.534 45.1701 187.197 47.3825 186C49.3429 184.924 52.0221 183.039 52.6268 182.329C53.3336 181.483 52.5689 181.621 50.6024 182.678C47.8417 184.173 44.2693 185.198 43.6272 184.674C43.4853 184.553 43.3343 184.206 43.3014 183.905C43.2566 183.567 43.1285 183.358 42.9658 183.368C42.8408 183.366 41.4452 183.474 39.8869 183.593C36.2883 183.879 35.0206 183.802 34.197 183.294C32.8226 182.42 33.1516 181.756 36.2281 179.227C40.8683 175.416 41.8506 174.13 43.4035 169.861C44.3374 167.242 45.6793 161.649 46.0081 158.95C47.4013 147.55 50.6766 136.925 55.9459 126.709C59.7597 119.297 63.3821 113.773 73.3226 100.171C77.779 94.0717 80.2299 90.3499 82.5755 86.1631C88.6103 75.3516 91.3296 65.5252 91.4748 53.9795C91.5246 49.0857 91.7529 47.6435 92.5255 47.3995C92.7516 47.3281 92.9808 47.4632 93.1516 47.7414ZM49.0601 169.071C48.1709 169.995 48.7635 172.527 50.0117 173.067C51.5893 173.731 52.9334 172.082 52.3372 170.194C52.1643 169.647 51.9241 169.412 51.1551 169.011C50.1817 168.488 49.6123 168.523 49.0601 169.071Z" fill="#FFE1B5"/>
<path d="M50.7102 170.294C51.2054 170.615 51.2247 171.398 50.7526 171.609C49.9652 172.004 49.2993 171.404 49.7046 170.654C49.9434 170.163 50.3014 170.05 50.7102 170.294Z" fill="#FFE1B5"/>
<path d="M101.351 45.8796C101.887 46.3953 102.618 47.9908 104.066 51.8512C106.547 58.4573 108.566 61.701 120.021 77.4287C129.903 90.9963 140.023 105.713 145.442 114.339C149.915 121.478 153.89 129.273 157.877 138.745C159.536 142.684 164.255 157.82 165.325 162.651C168.027 174.812 168.617 180.812 167.739 187.151C166.671 194.857 163.039 201.007 157.086 205.191C153.864 207.455 149.35 209.172 145.58 209.573C133.465 210.847 122.51 203.327 115.207 188.737C110.064 178.426 106.581 163.335 105.494 146.575C104.957 138.316 104.943 132.301 105.485 108.694C105.632 101.943 105.637 101.236 105.49 95.7194C105.18 84.0473 104.456 77.8829 101.499 61.1105C99.3705 49.0584 99.1902 46.1262 100.585 45.6857C100.83 45.6083 101.166 45.6889 101.351 45.8796Z" fill="#FFE1B5"/>
<path d="M106.071 46.5864C106.954 47.283 107.266 47.745 109.979 52.2018C116.333 62.6702 120.051 66.8303 128.491 72.8824C129.159 73.3565 131.117 74.5024 132.846 75.4506C140.447 79.5675 147.917 84.0578 153.46 87.8283C154.617 88.6045 156.957 90.1071 158.66 91.1676C170.171 98.2836 178.573 105.199 185.414 113.209C189.798 118.363 193.454 124.162 196.533 130.89C197.882 133.848 200.383 141.568 201.009 144.733C202.605 152.802 203.015 161.183 202.158 167.723C201.411 173.294 200.511 176.546 198.705 180.21C196.628 184.395 193.93 187.468 190.428 189.633C188.402 190.896 184.724 191.912 182.424 191.85C179.163 191.759 176.635 190.711 174.716 188.639C173.05 186.84 172.344 185.59 171.516 182.904C170.616 179.991 170.263 176.968 170.171 171.496C170 159.407 169.698 155.828 168.341 149.76C166.721 142.467 163.135 134.528 156.689 123.965C152.951 117.839 149.787 113.005 141.382 100.57C139.512 97.7976 135.642 92.8964 128.51 84.2931C116.174 69.3836 111.728 62.9208 106.786 52.588C104.835 48.5129 104.45 47.5552 104.572 46.8938C104.707 46.27 105.466 46.1134 106.071 46.5864Z" fill="#FFE1B5"/>
<path d="M98.4692 57.2941C98.6211 57.5782 98.8856 58.6778 99.044 59.7695C99.5052 63.1319 101.199 78.6632 101.402 81.3392C101.493 82.7427 101.81 85.7147 102.107 87.9665C102.779 93.1099 102.992 95.9487 103.117 101.659C103.302 109.592 103.073 115.56 102.003 129.557C100.233 152.949 102.456 167.4 111.191 188.886C116.041 200.826 117.468 206.457 116.793 210.946C115.998 216.304 111.657 218.962 105.094 218.129C96.8837 217.07 88.8416 211.162 83.6567 202.358C80.1835 196.481 76.539 185.863 74.7392 176.426C71.4291 159.059 72.5693 145.809 78.6782 130.967C79.8272 128.176 81.3272 124.92 84.4184 118.568C90.9745 105.142 92.1758 101.794 94.2321 91.1808C95.3982 85.2286 96.853 70.6122 97.0775 62.4665C97.1272 60.8524 97.2095 59.145 97.2479 58.6762C97.3978 57.0513 97.9321 56.4466 98.4692 57.2941Z" fill="#FFE1B5"/>
<path d="M156.429 207.248C156.584 207.344 157.175 207.967 157.715 208.627C160.188 211.602 163.838 214.103 172.803 218.93C175.624 220.447 178.493 222.115 179.191 222.621C181.848 224.667 184.27 227.348 187.366 231.704C190.824 236.549 192.764 240.067 196.15 247.57C198.242 252.223 201.074 258.303 201.682 259.44C201.888 259.831 201.915 260.113 201.742 260.417C201.542 260.833 201.504 260.845 201.095 260.6C200.568 260.31 197.559 255.968 194.441 251.016C191.555 246.406 190.007 244.197 187.389 240.83C182.276 234.288 179.566 231.615 169.671 223.449C164.35 219.068 160.804 215.912 158.86 213.828L157.187 212.073L157.282 212.832C157.483 214.388 159.27 218.929 160.749 221.514C164.729 228.601 168.035 233.161 173.678 239.412C179.155 245.466 180.59 247.254 182.203 250.128C185.788 256.427 188.589 265.423 189.485 273.443C189.578 274.327 189.765 277.216 189.874 279.859C189.984 282.502 190.177 285.804 190.306 287.195C190.542 289.778 190.503 290.247 190.089 290.378C189.674 290.509 189.457 290.017 189.203 288.229C189.067 287.275 188.702 285.398 188.385 284.066C188.087 282.728 187.603 280.41 187.295 278.909C186.553 275.117 184.236 267.193 182.993 264.243C180.677 258.747 177.724 253.204 175.209 249.639C174.383 248.468 171.851 245.241 169.568 242.475C162.572 233.974 160.833 231.16 157.239 222.539C155.641 218.727 154.817 215.79 154.703 213.46C154.588 211.587 154.871 209.006 155.222 208.542C155.35 208.357 155.505 207.996 155.56 207.709C155.656 207.16 156.009 206.965 156.429 207.248ZM157.486 217.023C159.501 223.465 163.545 231.217 167.682 236.636C168.564 237.789 170.607 240.32 172.196 242.267C177.53 248.719 180.671 253.415 182.953 258.277C184.073 260.643 186.87 269.101 187.775 272.821C188.21 274.655 188.63 276.183 188.68 276.209C188.81 276.293 188.248 271.364 187.88 269.28C187.444 266.719 185.967 261.519 184.761 258.163C182.212 251.143 180.485 248.429 173.969 241.188C168.345 234.931 165.949 231.807 162.625 226.401C159.435 221.223 158.611 219.532 157.423 215.839C156.839 213.989 156.419 212.856 156.457 213.238C156.488 213.602 156.944 215.305 157.486 217.023ZM163.795 215.279C164.848 216.316 168.526 219.43 172.749 222.892C178.873 227.911 180.452 229.301 183.344 232.29C187.098 236.169 190.893 241.031 193.472 245.261C194.125 246.342 194.681 247.183 194.688 247.139C194.784 246.984 191.674 240.618 190.512 238.578C187.505 233.259 182.971 227.239 180.084 224.726C178.166 223.049 176.649 222.116 171.112 219.153C168.092 217.533 165.179 215.921 164.604 215.542C163.508 214.83 163.253 214.744 163.795 215.279Z" fill="#FFE1B5"/>
<path d="M141.229 212.462C141.996 213.382 142.535 215.35 142.477 217.07C142.438 218.39 142.467 218.547 142.867 218.96C143.107 219.196 143.352 219.513 143.394 219.645C143.549 220.136 150.14 227.353 150.237 227.136C150.378 226.863 149.898 217.798 149.636 216.116C149.164 213.048 149.157 212.697 149.479 212.533C149.813 212.345 150.493 213.251 151.751 215.593C152.608 217.191 153.732 220.552 153.914 222.113C153.98 222.715 154.324 225.118 154.67 227.458C155.016 229.798 155.291 232.244 155.268 232.894L155.244 234.065L156.368 235.785C159.257 240.207 160.91 243.733 161.573 246.949C162.195 250.032 162.356 252.181 162.445 258.63C162.522 265.435 162.422 270.759 162.109 276.525C161.912 280.428 161.915 284.703 162.159 287.573C162.206 288.181 162.188 288.913 162.128 289.181C161.849 290.266 160.816 289.949 160.124 288.611C159.796 287.967 158.612 282.84 158.307 280.695C158.088 279.082 156.69 268.294 156.666 267.824C156.638 267.605 156.539 267.947 156.423 268.565C156.218 269.751 155.792 270.176 155.351 269.631C155.013 269.218 152.977 262.575 152.404 259.975C151.082 254.02 150.626 250.739 150.223 244.016C150.093 241.836 149.865 238.815 149.694 237.292L149.411 234.558L147.612 231.618C145.392 228.002 143.718 225.002 143.042 223.451C142.125 221.27 142.144 221.264 141.631 224.167C141.396 225.652 140.719 228.627 140.18 230.79C139.621 232.959 138.96 235.721 138.679 236.931L138.195 239.139L138.847 239.888C140.99 242.408 142.633 244.919 144.197 248.099C145.579 250.901 148.177 259.255 149.387 264.727C149.866 266.963 150.312 268.835 150.362 268.861C150.517 268.957 150.529 267.749 150.403 264.925C150.258 262.168 150.252 262.149 148.832 257.326C147.358 252.332 145.198 246.413 143.44 242.423C142.472 240.279 141.716 239.065 139.961 236.921C139.581 236.439 139.207 235.913 139.148 235.724C139.077 235.435 139.115 235.423 139.467 235.686C140.303 236.231 142.318 238.542 143.117 239.826C144.642 242.292 148.386 252.111 150.083 258.072C151.275 262.241 151.446 263.765 151.398 269.385C151.378 272.276 151.307 272.838 151.006 272.934C150.685 273.035 150.55 272.87 150.031 271.685C148.48 268.085 147.224 264.372 145.594 258.556C143.204 250.074 141.697 246.419 138.974 242.588L138.075 241.315L138 242.128C137.86 243.521 138.097 248.013 138.454 250.848C139.379 258.236 140.476 263.349 142.956 272.052C145.269 280.226 145.645 282.204 145.143 283.961C144.983 284.571 144.285 284.854 143.796 284.552C142.651 283.814 140.39 280.854 139.389 278.803C136.843 273.63 134.224 260.944 133.793 251.905C133.665 248.873 133.741 241.044 133.926 238.744L134.076 236.662L132.76 234.857C132.007 233.849 131.394 233.026 131.345 233C131.32 232.987 131.02 234.203 130.672 235.724C129.898 239.311 129.329 243.414 128.983 248.027C128.402 255.829 128.715 259.051 130.882 267.355C132.18 272.383 133.475 276.022 136.09 282.005C138.578 287.716 141.195 295.67 141.615 298.838C142.238 303.436 141.6 304.696 139.784 302.488C138.667 301.118 137.547 298.753 135.503 293.399C134.481 290.754 133.163 287.434 132.553 286.028C128.967 277.758 127.257 273.067 125.671 267.195C123.731 260.003 123.104 255.593 123.169 249.76C123.185 246.662 123.443 244.92 124.883 237.802C125.445 234.988 126.195 231.264 126.529 229.498L127.115 226.303L125.733 221.861C124.434 217.684 124.369 217.414 124.691 217.25C125.113 217.013 125.452 217.3 125.709 218.112C125.822 218.47 126.436 219.626 127.051 220.656L128.191 222.559L128.513 221.149C128.849 219.59 130.551 216.188 131.079 216.021C131.644 215.842 131.77 216.176 131.698 217.652C131.655 218.434 131.74 220.213 131.894 221.617C132.169 224.063 132.185 227.524 131.95 228.159C131.847 228.358 132.011 228.679 132.439 229.25C133.304 230.347 134.8 231.867 134.969 231.813C135.039 231.771 135.353 230.862 135.651 229.771C135.968 228.675 136.621 226.808 137.12 225.633C139.165 220.69 140.286 216.89 140.423 214.439C140.479 213.633 140.562 212.714 140.61 212.408L140.706 211.859L141.229 212.462ZM129.848 221.703C129.498 222.955 129.243 224.053 129.273 224.147C129.393 224.525 130.795 226.801 130.975 226.91C131.105 226.994 130.82 219.86 130.659 219.35C130.594 219.143 130.541 219.304 129.848 221.703ZM152.014 222.07C152.116 222.785 152.186 224.776 152.159 226.528L152.123 229.695L153.329 231.348L154.535 233.001L154.418 232.105C154.344 231.609 154.062 229.601 153.792 227.632C153.035 222.349 152.014 218.001 151.168 216.504C150.919 216.043 150.95 216.469 151.334 218.341C151.632 219.679 151.932 221.348 152.014 222.07ZM139.673 224.661C137.961 229.146 137.53 230.735 136.839 235.042C136.522 236.99 136.087 239.286 135.867 240.165C135.375 242.085 135.259 243.554 135.316 247.148C135.428 254.191 136.455 261.38 138.441 268.911C139.882 274.393 142.117 280.287 143.649 282.71C144.888 284.664 144.241 280.779 142.016 273.013C139.453 264.046 138.611 260.201 137.607 253.087C136.348 244.248 136.541 240.201 138.596 232.536C139.93 227.506 141.341 221.082 141.096 221.16C141.058 221.172 140.415 222.745 139.673 224.661ZM130.2 227.736C131.203 229.599 134.272 234.525 134.404 234.483C134.46 234.465 134.572 234.098 134.641 233.661L134.741 232.861L133.331 231.417C132.562 230.623 131.452 229.209 130.854 228.298C129.675 226.47 129.367 226.214 130.2 227.736ZM146.34 225.689C149.648 231.307 151.521 235.531 153.542 241.93C155.713 248.8 156.247 251.475 157.347 260.863C157.999 266.469 158.899 273.844 159.759 280.962C159.992 282.944 160.369 285.253 160.575 286.102L160.939 287.647L160.848 285.393C160.727 282.255 160.771 279.771 161.004 275.587C161.278 270.747 161.369 266.442 161.3 259.531C161.196 247.919 160.637 245.231 157.098 239.146C154.144 234.059 150.403 228.91 147.34 225.643C146.153 224.378 145.156 223.385 145.13 223.435C145.104 223.485 145.657 224.514 146.34 225.689ZM127.47 234.183C126.899 237.165 126.264 240.666 126.057 241.977C125.097 247.926 124.99 254.478 125.715 259.854C126.289 263.969 129.468 273.572 133.439 283.257C134.398 285.57 136.01 289.689 137.05 292.392C139.141 297.896 140.48 301.085 140.778 301.24C141.032 301.388 140.786 299.494 140.232 296.887C139.327 292.71 137.738 288.272 134.539 280.834C132.33 275.678 131.377 272.99 130.131 268.257C127.643 258.809 127.332 255.067 128.26 245.869C128.745 241.107 129.101 239.085 130.18 235.153L130.949 232.274L129.924 230.667C128.557 228.504 128.599 228.574 128.548 228.673C128.503 228.729 128.021 231.206 127.47 234.183ZM151.81 243.203C151.938 246.692 152.677 252.769 153.387 256.198C154.242 260.349 155.367 266.076 155.487 266.847C155.628 267.82 155.792 267.353 155.958 265.453C156.125 263.553 155.599 259.132 154.397 252.246C153.535 247.35 151.932 240.113 151.778 240.411C151.739 240.486 151.739 241.731 151.81 243.203Z" fill="#FFE1B5"/>
<path d="M117.114 223.898C118.752 230.791 118.797 234.803 117.315 243.824C115.929 252.357 116.064 256.985 117.905 264.977C118.679 268.282 120.77 274.243 124.345 283.264C125.429 285.973 125.511 286.3 125.372 286.842C125.154 287.596 124.79 287.69 123.854 287.156C122.323 286.311 119.963 283.299 118.195 279.934C116.451 276.645 114.536 270.255 113.078 263.014C112.283 258.989 111.955 254.671 112.08 249.754C112.162 246.863 112.401 245.127 113.239 241.811C114.903 235.203 115.58 230.983 115.642 226.916C115.712 222.348 115.69 222.541 116.218 222.375L116.708 222.22L117.114 223.898ZM116.072 237.263C113.92 246.329 113.496 255.679 114.9 263.601C115.423 266.633 117.31 272.803 118.717 276.075C120.093 279.252 124.079 286.358 124.285 285.961C124.33 285.905 123.633 284.029 122.748 281.817C117.404 268.311 115.894 262.81 115.484 255.279C115.254 251.076 115.461 248.976 116.854 240.856C117.245 238.615 117.461 236.347 117.493 234.219C117.533 232.442 117.519 230.89 117.49 230.795C117.454 230.682 117.246 231.599 117.009 232.815C116.79 234.026 116.366 236.028 116.072 237.263Z" fill="#FFE1B5"/>
<path d="M359.103 234.356C358.768 234.573 357.801 235.522 356.933 236.49C356.065 237.458 352.929 240.737 349.931 243.78C337.742 256.206 334.251 260.888 329.596 270.944C326.854 276.93 323.107 286.571 322.791 288.567C322.535 290.088 323.462 290.325 324.803 289.08C325.651 288.29 326.341 287.381 330.089 282.106C331.746 279.795 334.98 275.666 335.079 275.765C335.119 275.784 334.704 276.97 334.172 278.372C329.852 289.693 325.316 312.057 323.028 333.275C320.602 355.737 320.326 381.618 322.337 401.927C323.304 411.924 324.665 420.517 326.756 430.06C327.781 434.781 327.978 436.737 327.663 439.701C327.268 443.573 326.618 446.042 324.724 450.823C322.87 455.545 323.205 456.019 326.736 453.629C327.939 452.819 329.103 452.088 329.339 452.028C329.931 451.851 330.168 452.246 330.523 453.905C330.681 454.715 330.937 455.486 331.095 455.644C331.746 456.296 333.541 454.992 335.355 452.562C335.947 451.772 336.48 451.12 336.578 451.12C336.657 451.12 336.716 451.317 336.716 451.535C336.716 452.048 335.967 453.293 334.369 455.466C333.028 457.264 332.89 457.837 333.698 458.37C334.704 459.062 335.631 460.148 336.598 461.808C337.13 462.716 338.235 464.534 339.083 465.838C339.911 467.142 341.016 468.959 341.549 469.888C348.274 481.682 357.742 491.975 368.176 498.791C377.604 504.935 387.367 508.472 398.452 509.696C403.699 510.269 411.391 510.013 416.598 509.084C424.468 507.681 432.417 504.244 438.334 499.68C446.224 493.575 451.865 485.061 454.488 475.262C457.388 464.435 456.5 452.167 451.963 440.451C450.741 437.29 448.275 432.332 446.441 429.329C441.214 420.755 434.902 413.642 422.91 402.836C421.233 401.315 417.92 398.252 415.553 396.02C411.115 391.812 409.557 390.488 403.876 386.043C394.192 378.457 387.722 374.229 376.559 368.243C373.363 366.524 370.306 364.884 369.754 364.568C368.748 364.015 368.353 363.324 368.945 363.087C369.616 362.83 379.971 367.808 384.507 370.554C385.612 371.226 389.833 373.992 393.876 376.699C397.939 379.405 401.293 381.558 401.371 381.499C401.431 381.44 401.214 381.045 400.878 380.63C391.707 369.152 385.395 356.547 381.786 342.56C378.709 330.627 377.565 319.03 378.117 305.063C378.235 301.566 378.649 294.75 379.024 289.93C379.399 285.09 379.714 280.348 379.714 279.4C379.714 278.432 379.793 277.681 379.892 277.74C380.148 277.918 383.442 284.082 385.316 287.934C387.012 291.431 387.663 292.38 388.334 292.241C389.557 292.004 389.892 287.421 389.083 282.047C388.61 278.906 387.644 274.421 387.072 272.861C386.066 270.055 384.014 266.282 381.924 263.437C379.281 259.841 373.284 253.46 368.077 248.738C366.499 247.316 364.527 245.498 363.699 244.688L362.16 243.226V242.179C362.16 241.587 362.377 240.461 362.673 239.591C363.265 237.774 363.206 236.865 362.417 235.719C361.904 234.968 360.523 234 359.971 234C359.813 234 359.419 234.158 359.103 234.356ZM361.056 235.818C361.568 236.529 361.43 237.655 360.681 239.216C360.286 240.065 359.99 240.954 359.99 241.389C359.99 241.784 359.912 242.1 359.813 242.1C359.734 242.1 359.123 241.824 358.472 241.488C357.683 241.073 357.091 240.915 356.637 240.954C355.987 241.014 356.026 241.033 357.742 242.081C359.182 242.95 360.286 243.918 363.837 247.434C366.223 249.785 369.616 253.065 371.391 254.724C377.683 260.671 380.898 264.602 383.383 269.482C384.862 272.406 385.77 275.073 387.111 280.388C387.959 283.707 388.59 289.278 388.294 290.819C388.156 291.55 388.156 291.57 387.86 291.194C387.703 290.977 386.815 289.258 385.908 287.401C384.192 283.825 380.385 276.831 379.576 275.725C379.32 275.389 378.985 275.093 378.827 275.093C378.117 275.093 377.426 277.187 375.77 284.398C373.975 292.182 373.107 295.442 372.831 295.442C372.752 295.442 372.219 293.367 371.628 290.839C369.931 283.351 367.939 276.575 366.065 271.833C365.138 269.482 364.507 268.573 363.817 268.573C363.107 268.573 362.693 269.383 361.529 273.019C358.886 281.316 355.789 289.574 353.541 294.296C352.338 296.785 351.904 297.457 351.904 296.765C351.904 296.627 352.219 294.632 352.594 292.36C353.58 286.354 353.916 282.818 353.935 278.55C353.935 272.999 353.442 270.747 352.219 270.747C351.213 270.747 350.405 271.873 346.933 278.017C344.192 282.877 341.627 288.152 339.28 293.762C337.407 298.227 336.401 300.381 336.184 300.381C336.124 300.381 336.124 299.472 336.203 298.346C336.894 288.053 337.111 283.944 337.091 280.723C337.071 275.587 336.894 273.157 336.539 272.92C335.75 272.446 334.251 274.085 330.188 279.795C325.927 285.821 323.501 288.981 323.501 288.507C323.501 288.31 324.31 285.86 325.04 283.845C326.973 278.531 330.424 270.569 332.535 266.598C336.618 258.873 341.272 253.262 355.572 238.781L359.537 234.751L360.148 235.067C360.484 235.245 360.898 235.581 361.056 235.818ZM414.843 415.341C417.742 417.278 423.876 423.283 427.289 427.531C433.088 434.801 436.204 440.767 439.261 450.527C441.608 458.094 442.121 463.546 441.036 469.987C440.701 471.943 438.926 477.692 438.078 479.608C436.303 483.52 433.995 486.898 432.022 488.399C430.523 489.525 429.301 489.13 429.458 487.57C429.557 486.72 429.715 486.384 432.042 481.939C433.699 478.758 434.449 476.743 435.435 472.95C436.579 468.485 436.973 465.601 436.835 462.875C436.342 454.024 433.462 445.272 427.723 435.295C424.488 429.645 421.884 426.168 417.19 421.189C413.581 417.357 412.358 415.519 412.989 414.907C413.265 414.61 414.014 414.788 414.843 415.341ZM340.819 439.266C342.121 440.076 342.653 442.032 341.943 443.415C340.937 445.371 338.077 444.719 337.328 442.407C337.071 441.637 337.288 440.274 337.762 439.641C338.393 438.812 339.773 438.634 340.819 439.266Z" fill="#471100"/>
<path d="M415.316 417.533C415.376 417.632 415.474 417.73 415.533 417.73C415.573 417.73 415.612 417.632 415.612 417.533C415.612 417.414 415.514 417.335 415.395 417.335C415.297 417.335 415.257 417.414 415.316 417.533Z" fill="#471100"/>
<path d="M338.728 441.359C338.176 441.734 338.176 442.228 338.708 442.9C339.162 443.473 339.694 443.552 340.148 443.097C340.602 442.663 340.542 442.09 339.97 441.536C339.418 440.964 339.32 440.944 338.728 441.359Z" fill="#471100"/>
<path d="M218.333 296.889C219.148 296.766 219.896 297.104 220.453 297.843C221.497 299.175 221.717 299.991 223.234 307.816C223.857 311.076 224.856 315.936 225.447 318.63C226.848 325.071 226.908 325.281 226.958 325.243C226.984 325.224 226.855 323.849 226.657 322.173C225.388 311.276 224.56 300.517 224.821 298.534C224.991 297.268 225.664 296.957 227.448 297.359C228.011 297.504 228.41 297.694 228.589 297.932C228.75 298.144 229.032 299.305 229.252 300.67L229.654 303.036L230.158 303.128C230.497 303.186 230.702 303.326 230.84 303.614C231.041 304.012 232.336 309.473 233.241 313.737C234.492 319.585 236.431 329.644 238.797 342.521C239.777 347.826 240.616 352.316 240.657 352.501C240.795 353.025 240.792 352.655 240.611 348.513C240.513 346.369 240.37 341.885 240.285 338.553C240.201 335.221 240.01 330.675 239.865 328.468C239.721 326.261 239.502 322.619 239.395 320.383C239.276 318.157 239.063 314.079 238.906 311.332C238.549 304.811 238.646 303.343 239.565 302.18C240.417 301.086 241.43 300.833 243.173 301.286C244.729 301.703 244.908 302.097 244.631 304.661C243.985 310.741 244.173 318.686 245.249 331.083C245.482 333.773 245.94 339.197 246.295 343.149C247.23 353.945 247.598 357.26 248.65 363.944C249.014 366.26 249.498 368.917 249.737 369.836L250.168 371.533L251.863 371.767C257.383 372.572 263.116 375.807 266.049 379.777C267.59 381.874 267.757 382.357 267.514 383.815C267.25 385.428 266.86 386.271 265.699 387.872C264.639 389.319 261.606 392.939 261.191 393.252C260.889 393.48 260.945 393.947 261.254 393.99C261.496 394.023 263.937 391.555 265.082 390.143C266.164 388.778 267.205 387.227 267.495 386.538C267.63 386.22 267.759 385.946 267.784 385.927C267.809 385.909 267.932 386.15 268.045 386.457C268.168 386.777 268.624 387.434 269.048 387.919C270.838 390.005 271.341 391.51 271.337 394.751C271.317 397.395 271.393 397.731 272.028 398.233C272.695 398.751 274.72 399.423 276.988 399.892C279.211 400.355 279.541 400.479 279.607 400.96C279.68 401.396 279.057 401.904 277.871 402.347C277.421 402.509 276.666 402.921 276.204 403.25L275.377 403.854L275.807 405.001C276.1 405.782 276.502 406.499 277.059 407.237C278.244 408.836 278.603 409.704 278.332 410.262C278.011 410.935 277.804 411.053 274.668 412.337C269.541 414.435 267.553 414.991 264.471 415.194C262.93 415.296 262.527 415.443 262.659 415.853C262.863 416.465 266.798 416.188 272.701 415.173C274.787 414.798 276.142 414.66 276.466 414.749C276.951 414.894 276.988 414.944 277.101 415.487C277.164 415.832 277.035 416.734 276.761 417.706C276.478 418.744 276.324 419.9 276.333 420.855C276.327 421.684 276.267 423.201 276.188 424.222C276.096 425.331 276.14 426.515 276.279 427.196C277.03 430.81 277.111 431.494 277.026 433.502C276.915 436.156 277.164 437.48 278.261 440.244C279.298 442.877 279.54 443.853 279.656 445.944L279.744 447.526L278.838 449.23C276.239 454.132 273.729 457.006 268.885 460.657C267.325 461.833 266.079 462.85 266.126 462.912C266.23 463.05 267.922 462.128 270.133 460.716C273.578 458.533 276.617 455.025 278.932 450.611C279.442 449.638 279.901 448.86 279.945 448.866C280.002 448.863 280.068 449.029 280.099 449.201C280.131 449.374 280.627 450.53 281.215 451.756C282.014 453.469 282.338 454.344 282.561 455.452C282.818 456.788 282.796 457.178 282.318 460.443C281.867 463.432 281.817 464.176 281.996 465.199C282.266 466.683 282.832 468.141 284.011 470.412C285.656 473.588 285.731 474.317 284.702 477.82C283.874 480.701 283.783 482.046 284.324 483.601C284.811 484.98 284.871 485.112 286.587 488.096C288.895 492.127 289.766 494.434 290.275 497.858C290.463 499.129 290.774 502.604 290.736 503.025C290.714 503.179 288.389 506.01 287.449 507.013C286.128 508.402 284.231 509.812 281.727 511.228C279.258 512.637 278.623 513.077 278.846 513.242C279.286 513.539 282.617 512.068 284.737 510.667C286.313 509.616 288.065 507.962 289.528 506.133C290.132 505.364 290.67 504.743 290.704 504.736C290.736 504.752 290.777 505.958 290.798 507.452C290.823 508.925 290.902 510.809 290.977 511.616C291.156 513.659 292.045 518.268 292.624 520.188C293.714 523.781 293.758 525.122 292.965 529.174C292.666 530.714 292.464 532.279 292.499 532.665C292.533 533.051 292.653 534.1 292.772 534.991C293.011 537.009 292.784 538.672 292.029 540.34C290.204 544.384 289.414 546.609 290.191 545.572C290.613 544.979 291.78 542.863 292.488 541.368L293.196 539.873L293.384 540.28C293.648 540.866 294.642 542.786 295.327 544.036C296.201 545.614 296.302 546.324 295.934 547.877C295.761 548.616 295.481 549.474 295.314 549.777C294.757 550.844 294.191 552.527 294.367 552.551C294.609 552.585 295.527 551.264 295.99 550.229C296.172 549.816 296.355 549.483 296.408 549.501C296.452 549.507 296.597 549.987 296.713 550.586C296.842 551.176 297.034 551.954 297.141 552.305C298.216 556.009 298.244 556.439 297.511 559.445C296.881 562.039 296.787 563.248 297.035 565.829C297.123 566.783 297.248 568.494 297.298 569.634C297.414 572.353 297.807 575.413 298.357 577.766C298.63 578.992 298.731 579.858 298.639 580.182C298.504 580.657 298.466 580.686 298.023 580.726C296.947 580.791 295.199 578.654 294.054 575.906C293.108 573.577 292.681 572.879 291.435 571.619C290.033 570.203 289.055 568.88 287.442 566.19C286.59 564.771 285.735 563.532 285.093 562.759C283.345 560.702 282.741 559.43 281.924 556.12C281.676 555.11 281.346 553.966 281.188 553.574L280.89 552.837L282.308 553.515C283.075 553.879 284.349 554.391 285.132 554.644C286.601 555.127 289.482 555.703 289.507 555.527C289.526 555.474 288.394 554.993 287.01 554.465C283.582 553.163 282.362 552.591 280.827 551.55C279.887 550.905 279.349 550.427 278.855 549.798C278.23 548.994 278.157 548.793 277.768 546.889C277.535 545.769 277.246 544.574 277.114 544.241C276.982 543.909 275.944 542.297 274.819 540.673C272.608 537.53 272.533 537.352 271.976 534.965C271.606 533.321 270.842 531.757 268.974 528.887C267.65 526.842 267.078 525.821 266.625 524.671C265.437 521.759 264.978 520.81 264.129 519.684L263.292 518.548L265.676 519.695C268.315 520.944 269.437 521.413 271.944 522.33C274.227 523.161 278.718 524.408 279.835 524.528L280.74 524.63L280.074 524.348C279.703 524.195 278.291 523.709 276.938 523.276C270.664 521.234 264.72 518.61 261.204 516.353C260.041 515.621 259.874 515.452 258.733 513.938L257.494 512.32L256.648 509.131C255.159 503.542 253.757 498.671 253.392 497.847C253.197 497.405 252.716 496.531 252.323 495.905C251.615 494.81 251.619 494.788 252.084 495.065C255.229 497.012 261.572 499.12 263.956 499.011C264.937 498.978 264.928 498.886 263.903 498.599C261.623 497.983 256.412 496.042 254.716 495.181C252.006 493.809 249.314 491.913 248.427 490.736C247.154 489.047 246.603 487.715 245.862 484.584C245.437 482.765 245.095 481.708 244.541 480.476C244.362 480.082 244.46 480.106 246.111 480.883C249.495 482.493 253.039 483.453 258.156 484.169C260.886 484.545 262.279 484.613 262.311 484.393C262.32 484.327 260.49 483.862 258.225 483.371C255.961 482.879 253.451 482.298 252.627 482.095C249.639 481.325 246.278 479.953 243.985 478.56L242.84 477.853L240.661 474.883C238.108 471.391 237.998 471.141 237.97 468.434C237.917 465.274 237.534 464.425 234.965 461.75C232.559 459.265 232.333 458.65 232.626 455.505C232.894 452.536 232.689 451.611 231.318 449.425C230.202 447.656 230.13 447.377 230.111 445.625C230.099 443.201 229.951 442.821 227.801 439.418C226.153 436.813 225.509 435.513 225.301 434.374C225.235 433.973 225.32 432.515 225.506 431.138C225.761 429.2 225.787 428.474 225.595 428.01C225.453 427.665 224.74 426.614 223.941 425.606L222.548 423.811L222.158 421.671C221.74 419.336 221.731 419.324 219.863 416.453C217.797 413.241 217.565 412.513 217.729 409.485C217.779 408.427 217.757 407.324 217.688 407.023L217.55 406.5L219.044 407.199C222.116 408.631 225.548 409.598 230.19 410.338C232.636 410.731 234.555 410.894 234.593 410.709C234.59 410.652 233.549 410.397 232.25 410.139C223.582 408.43 219.343 406.915 216.229 404.433C215.594 403.931 215.453 403.743 215.17 403.054C214.84 402.223 214.648 400.738 214.586 398.587C214.573 397.89 214.385 396.933 214.168 396.331C213.662 394.927 213.517 393.427 213.675 391.227C213.905 388.208 214.688 385.714 216.044 383.77C216.752 382.746 216.947 382.559 219.052 380.954C220.473 379.882 221.691 379.063 222.329 378.758C224.37 377.749 226.909 376.798 228.856 376.292C229.054 376.241 229.057 376.062 228.928 375.629C228.818 375.3 228.375 373.22 227.938 371.017C227.501 368.815 226.694 364.969 226.141 362.481C225.584 360.015 224.83 356.344 224.475 354.355C223.218 347.452 221.933 342.475 219.72 335.9C217.94 330.607 216.906 326.932 214.97 318.971C214.197 315.825 213.194 312.086 212.726 310.653C212.27 309.211 211.95 307.922 212.006 307.761C212.183 307.314 213.956 307.076 214.567 307.441C215.375 307.911 215.705 308.506 217.274 312.524C220.097 319.699 220.942 322.025 221.951 325.484C222.511 327.378 222.995 328.937 223.03 328.93C223.052 328.934 222.725 327.374 222.304 325.454C221.185 320.488 220.025 313.846 219.391 308.868C218.709 303.592 218.486 302.328 217.817 299.947C217.537 298.922 217.311 297.915 217.317 297.714C217.367 297.283 217.735 296.986 218.333 296.889ZM217.974 297.905C217.977 298.04 218.223 298.994 218.515 300.01C219.178 302.277 219.489 303.946 220.224 309.319C220.944 314.645 221.977 320.284 223.571 327.502C224.265 330.649 225.048 334.2 225.312 335.414C225.566 336.615 225.918 338.077 226.082 338.66C226.258 339.234 227.069 342.273 227.921 345.419C229.291 350.588 231.262 357.129 231.413 357.016C231.438 356.997 231.375 356.573 231.256 356.074C230.951 354.754 229.996 348.722 229.292 343.6C228.881 340.672 228.51 338.714 228.214 337.877C227.41 335.579 226.68 332.361 223.535 317.324C222.906 314.343 222.136 310.626 221.81 309.067C221.483 307.507 220.732 304.286 220.144 301.883L219.069 297.551L218.622 297.535C218.097 297.518 217.987 297.582 217.974 297.905ZM225.535 299.586C225.572 303.562 226.36 311.937 228.313 329.423C228.97 335.346 229.667 340.747 230.641 347.589C230.854 348.998 231.734 353.987 232.601 358.671C235.222 372.671 235.536 374.475 235.439 375L235.357 375.494L235.093 375.143C234.942 374.943 234.69 374.034 234.53 373.114C234.379 372.207 234.137 371.232 234.008 370.956C233.471 369.85 231.562 364.439 230.217 360.272C228.696 355.531 226.64 348.406 225.244 343.02C223.73 337.215 222.859 334.123 221.897 331.119C220.209 325.816 214.299 308.29 214.148 308.09C213.988 307.877 213.022 307.879 212.758 308.078C212.695 308.125 212.83 308.671 213.06 309.263C213.855 311.313 214.393 313.204 215.405 317.27C217.715 326.695 218.28 328.624 221.433 338.2C225.221 349.691 225.693 351.573 228.222 365.504C229.203 370.967 230.158 375.821 230.328 376.282C230.497 376.742 230.975 377.638 231.39 378.268C232.082 379.316 232.18 379.419 232.868 379.705C234.384 380.329 236.803 380.292 240.756 379.569C243.442 379.075 244.854 378.698 246.575 377.97C249.047 376.931 249.67 376.03 249.538 373.735C249.495 372.943 249.265 371.487 249.026 370.49C248.055 366.374 247.05 360.067 246.425 354.238C246.051 350.732 245.103 340.181 244.165 328.858C243.229 317.513 243.139 311.006 243.845 304.508C243.965 303.358 243.968 302.63 243.826 302.442C243.685 302.254 243.201 302.109 242.44 302.015C240.924 301.863 240.565 302.094 240.43 303.354C240.159 306.188 240.618 321.561 241.437 337.096C241.863 345.018 241.954 346.578 242.559 355.287C243.043 362.341 243.519 371.324 243.456 372.078L243.384 372.82L243.242 372.082C243.167 371.668 242.959 370.058 242.79 368.498C242.432 365.196 242.089 363.119 241.593 361.02C241.143 359.141 239.509 350.795 237.74 341.354C234.592 324.534 232.697 315.03 231.251 308.662C230.846 306.868 230.478 305.045 230.415 304.621C230.353 304.041 230.271 303.827 230.073 303.8C229.919 303.779 229.83 303.845 229.802 303.965C229.78 304.197 231.432 316.337 232.208 321.581C232.956 326.63 233.977 333.063 235.03 339.276C237.499 353.861 237.898 356.092 238.256 357.745C238.712 359.816 239.513 363.784 239.702 364.898C239.774 365.335 240.211 367.302 240.67 369.272C241.848 374.369 242.163 375.938 241.968 375.81C241.373 375.414 238.535 364.502 236.166 353.531C232.86 338.203 231.323 328.94 228.047 305.091C227.535 301.376 227.051 298.247 226.966 298.134C226.768 297.871 225.793 297.86 225.633 298.119C225.573 298.223 225.535 298.879 225.535 299.586ZM265.778 401.825C265.712 402.052 265.819 402.403 266.092 402.844C266.435 403.43 266.577 403.539 266.995 403.597C267.942 403.727 268.379 402.554 267.709 401.665C267.096 400.851 266.039 400.941 265.778 401.825ZM238.284 438.563C239.208 438.847 241.589 438.996 243.58 438.888C248.175 438.624 252.855 437.138 259.637 433.753C263.553 431.803 263.442 431.866 263.32 431.703C263.263 431.628 263.191 431.585 263.178 431.594C262.927 431.784 252.55 435.974 251.421 436.334C246.76 437.846 242.935 438.452 238.985 438.289C238.315 438.264 237.752 438.276 237.746 438.32C237.73 438.352 237.972 438.464 238.284 438.563Z" fill="#D95D39"/>
<path d="M267.039 401.718C267.227 401.733 267.448 401.841 267.514 401.929C267.655 402.117 267.611 402.739 267.447 402.862C267.309 402.966 266.601 402.813 266.479 402.65C266.356 402.487 266.435 401.859 266.586 401.745C266.649 401.698 266.853 401.681 267.039 401.718Z" fill="#D95D39"/>
<path d="M366.255 0.152381C362.261 0.910191 353.827 4.09871 347.713 7.15855C341.528 10.247 338.607 12.2916 331.29 18.683C329.243 20.4846 326.594 22.7294 325.42 23.6588C323.444 25.2459 322.943 25.7892 322.943 26.3469C322.943 26.7758 323.702 27.8482 324.36 28.3629C325.563 29.3209 325.978 29.7499 326.336 30.4791C327.138 32.0662 327.954 32.681 329.257 32.6953C331.276 32.6953 332.622 31.7659 337.404 27.0475C341.628 22.8867 342.688 21.943 344.52 20.7133C348.587 17.9967 353.398 15.9663 357.636 15.1942C359.841 14.7795 360.543 14.7223 365.038 14.5365C369.864 14.322 371.081 14.0503 372.155 12.9351C372.684 12.3917 373.1 11.4766 372.985 11.1192C372.942 10.9905 373.014 10.5615 373.143 10.1612C373.5 9.07452 373.586 5.45705 373.286 4.04152C372.87 1.99686 372.269 1.08177 370.952 0.438347C370.279 0.109486 369.95 0.0379947 368.704 0.00939811C367.888 -0.0191985 366.814 0.0379947 366.255 0.152381ZM369.763 1.11037C371.653 1.51072 372.412 3.14073 372.412 6.7439C372.398 9.06022 372.097 10.3614 371.338 11.2765C370.58 12.1915 370.007 12.2773 365.898 12.163C362.075 12.0629 360.714 12.163 357.836 12.7635C354.672 13.4355 351.178 14.7652 347.928 16.5668C342.416 19.6267 338.192 22.9153 334.025 27.4335C329.859 31.9375 328.398 32.4236 327.067 29.7785C326.637 28.892 325.735 27.8339 325.434 27.8339C325.348 27.8339 324.976 27.5622 324.604 27.2477C323.559 26.3326 323.501 26.4184 326.823 23.8733C327.568 23.3156 329.744 21.4568 331.677 19.7554C337.519 14.5937 340.368 12.4346 344.435 10.104C348.644 7.68759 355.044 4.85652 360.9 2.79757C365.74 1.11037 367.873 0.710015 369.763 1.11037Z" fill="#E17C61"/>
<path d="M314.968 28.4181C311.345 28.8327 307.093 30.2912 302.153 32.7791C298.387 34.695 295.352 36.9399 291.873 40.4144C286.16 46.0908 281.893 52.7967 278.442 61.4472C276.638 65.9654 275.464 69.8832 272.615 80.9501C270.539 89 269.923 91.302 268.462 96.2492C265.312 106.901 261.933 116.61 258.397 125.132C256.349 130.079 255.104 134.04 254.402 137.786C254.202 138.858 254.159 139.845 254.173 142.504C254.187 146.236 254.33 147.552 255.433 154.372C256.163 158.876 256.306 160.291 256.507 164.953C256.578 166.797 256.679 168.699 256.722 169.171C256.75 169.642 256.736 170.286 256.679 170.6L256.564 171.172L256.192 170.6C255.161 169.056 253.944 163.494 252.927 155.659C252.483 152.213 252.44 152.013 252.183 151.326C252.011 150.897 251.51 150.797 251.223 151.14C250.822 151.627 250.422 154.515 249.777 161.664C249.09 169.285 248.675 172.745 247.558 180.252C246.241 189.074 245.983 192.434 245.997 200.984C246.012 206.132 246.083 208.863 246.384 214.067C246.599 217.685 246.828 222.031 246.914 223.719C247.315 231.483 247.787 234.056 251.281 247.111C253.342 254.817 254.316 257.491 255.633 259.15C256.922 260.765 258.039 261.152 258.998 260.322C259.986 259.45 261.089 256.748 261.862 253.316C262.535 250.242 262.735 248.283 263.308 239.232C263.594 234.828 263.838 232.383 264.396 228.509C264.84 225.349 266.043 218.085 266.186 217.713C266.286 217.456 266.658 212.709 266.759 210.35C266.816 209.306 266.759 207.819 266.63 206.518C266.515 205.36 266.472 204.159 266.53 203.844C266.587 203.529 266.873 202.972 267.16 202.6C267.761 201.828 267.818 201.37 267.331 201.056C267.145 200.927 266.2 200.698 265.227 200.541C263.136 200.198 261.232 199.597 259.943 198.882C259.027 198.368 257.08 196.623 257.08 196.309C257.08 196.08 258.11 196.38 261.017 197.424C264.024 198.496 265.312 198.84 266.458 198.84C267.589 198.84 268.105 198.496 268.105 197.753C268.105 197.41 268.219 197.138 268.462 196.895C268.82 196.538 268.849 196.523 270.395 196.623C271.684 196.709 271.97 196.695 271.985 196.538C271.999 196.423 271.999 194.307 271.97 191.833C271.942 186.6 272.085 184.641 272.758 181.467C273.016 180.209 273.631 177.278 274.118 174.961C275.879 166.611 276.81 163.466 280.418 153.871C283.654 145.25 284.785 141.704 287.076 132.781C290.512 119.427 291.529 116.238 295.71 105.543C298.187 99.1947 299.819 95.5629 302.239 91.0447C303.814 88.1135 304.129 87.1126 303.742 86.269C303.571 85.883 303.069 85.597 302.583 85.597C301.981 85.597 300.363 86.0831 296.97 87.2699C295.08 87.9276 291.83 88.9857 289.739 89.6148C283.74 91.4307 282.709 91.6738 282.494 91.3163C282.251 90.9303 283.497 89.5719 285.072 88.4996C286.775 87.3557 287.864 86.9124 295.166 84.3673C302.439 81.8365 306.42 80.0779 308.625 78.405C311.088 76.5319 313.737 73.5006 316.786 69.0396C321.454 62.2336 326.48 53.2113 327.869 49.1506C329.844 43.4456 329.386 37.3974 326.666 33.4225C325.42 31.5637 322.843 29.3618 321.325 28.8327C319.764 28.2751 317.445 28.1321 314.968 28.4181ZM268.09 188.059C268.491 188.559 268.462 189.045 268.033 189.474C267.331 190.189 266.1 189.717 266.1 188.759C266.1 188.588 266.229 188.273 266.401 188.059C266.63 187.773 266.816 187.687 267.245 187.687C267.675 187.687 267.861 187.773 268.09 188.059Z" fill="#E17C61"/>
<path d="M267.259 188.544C266.987 188.701 267.13 189.188 267.459 189.188C267.645 189.188 267.76 189.073 267.788 188.887C267.831 188.558 267.545 188.358 267.259 188.544Z" fill="#E17C61"/>
<path d="M345.766 37.412C344.707 37.5693 341.07 38.7989 339.953 39.3708C338.865 39.9428 338.679 40.1144 338.364 40.958C337.977 41.9159 338.063 42.5594 338.765 44.3466C339.123 45.2474 339.495 46.3627 339.566 46.806C339.881 48.4646 339.438 52.0391 338.192 57.8728C335.658 69.6832 333.911 76.9182 332.622 80.8073C331.362 84.5964 330.503 86.1692 327.568 89.9868C325.964 92.0601 325.807 93.3183 327.067 93.8474C327.482 94.0189 328.012 94.0475 330.159 93.9617C332.336 93.876 332.88 93.8903 333.524 94.0904C334.569 94.3907 334.913 94.3764 335.786 93.9617C336.803 93.5042 337.032 93.061 337.247 91.2737C337.548 88.7572 337.963 86.5838 338.478 84.7822C339.037 82.8234 341.07 77.0183 341.986 74.7305C343.762 70.3124 345.236 65.8799 345.852 63.0488C346.21 61.4045 346.711 56.586 346.711 54.7558C346.711 52.511 346.969 50.0803 347.298 49.108C347.456 48.6218 347.928 47.478 348.358 46.5629C349.56 43.9177 349.875 42.9311 349.961 41.5299C350.09 39.4423 349.618 38.2985 348.401 37.7265C347.642 37.3691 346.74 37.269 345.766 37.412ZM348.186 38.9848C348.916 39.7998 348.701 40.8293 347.069 44.2752C345.165 48.2787 345.036 48.822 344.563 54.6414C343.862 63.1775 342.974 66.8379 339.123 77.1612C336.416 84.3962 336.015 85.8832 335.686 89.7723C335.6 90.8447 335.443 92.0315 335.357 92.4032C335.128 93.3183 334.755 93.447 333.309 93.1038C332.436 92.9037 331.978 92.8751 330.431 92.9752C328.341 93.1181 327.539 93.1038 327.339 92.9037C327.038 92.6034 327.468 91.8313 329 89.9153C329.887 88.8144 330.918 87.3988 331.29 86.7697C333.324 83.4239 334.684 78.877 337.619 65.6511C340.239 53.8407 340.698 51.2527 340.698 48.4503C340.698 46.7631 340.454 45.6907 339.695 44.0178C338.936 42.3306 338.893 42.016 339.237 41.2439L339.509 40.6148L342.43 39.6282C345.895 38.47 346.138 38.4129 347.069 38.4843C347.642 38.5415 347.857 38.6273 348.186 38.9848Z" fill="#E17C61"/>
<path d="M328.455 95.1197C327.496 95.3199 326.522 95.6774 326.064 96.0062C325.778 96.2207 324.775 96.9356 323.845 97.6076C321.711 99.1376 318.275 102.526 316.714 104.642C313.464 109.018 310.987 114.051 308.868 120.556C307.465 124.846 305.789 130.551 305.489 132.009C305.116 133.854 304.701 137.3 304.687 138.572C304.687 139.573 304.701 139.63 306.219 142.719C307.88 146.107 308.624 148.124 308.968 150.154C309.254 151.798 309.483 155.559 309.469 158.232C309.455 160.291 309.455 160.306 309.254 159.505C309.154 159.062 308.896 157.618 308.696 156.302C308.138 152.556 306.663 146.551 305.847 144.763C305.045 142.976 304.1 142.261 303.742 143.176C303.312 144.292 302.668 147.795 302.095 152.084C301.737 154.801 301.279 157.117 299.962 162.593C298.143 170.172 297.8 172.116 297.313 177.678C296.941 181.896 296.826 182.582 296.211 184.255C294.993 187.544 293.504 189.832 290.941 192.334C290.054 193.192 289.281 194.064 289.223 194.25C289.023 194.908 289.953 195.394 291.443 195.408C292.388 195.408 292.502 195.537 292.388 196.337C292.259 197.11 292.445 197.41 293.304 197.839C295.581 198.968 299.375 199.397 303.47 198.968C304.343 198.883 305.102 198.854 305.159 198.897C305.446 199.197 303.942 200.255 302.725 200.627C300.921 201.156 297.8 201.242 294.607 200.827C291.872 200.484 291.528 200.956 291.801 204.63C291.886 205.874 291.858 206.303 291.543 207.848C291.342 208.834 291.085 210.307 290.956 211.136C290.827 211.965 290.598 213.467 290.455 214.496C289.996 217.413 289.753 219.572 289.51 222.432C289.395 223.89 289.223 225.849 289.152 226.793C288.378 235.5 286.131 241.892 280.747 250.671C278.341 254.589 277.411 256.548 277.411 257.677C277.411 258.335 278.184 259.207 278.957 259.436C280.904 260.022 283.109 259.007 288.221 255.146C297.07 248.483 303.398 240.762 308.639 230.296C311.76 224.048 313.335 219.858 317.215 207.49C317.86 205.445 319.277 201.299 320.365 198.268C322.628 191.962 323.143 190.318 323.372 188.674C323.701 186.286 322.928 184.398 321.611 184.398C320.823 184.398 317.888 185.571 314.065 187.415C312.29 188.273 310.629 189.017 310.357 189.06L309.884 189.16L310.113 188.731C310.428 188.102 311.073 187.644 314.208 185.828C317.631 183.841 318.805 183.269 320.795 182.611C322.642 181.996 323.143 181.682 323.759 180.781C324.317 179.952 325.792 176.263 326.379 174.175C326.622 173.303 327.338 170.929 327.954 168.885C328.584 166.84 329.615 163.294 330.245 161.021C330.889 158.733 331.877 155.33 332.464 153.443C334.741 146.022 335.972 140.817 335.972 138.529C335.972 137.543 335.943 137.443 335.543 137.042C335.127 136.642 335.041 136.613 334.268 136.671C332.937 136.771 331.891 137.386 329.529 139.459C327.41 141.332 325.663 142.733 325.663 142.576C325.663 142.39 326.536 141.232 327.267 140.417C328.298 139.287 332.106 136.285 333.481 135.512C335.142 134.583 335.485 134.211 335.915 132.867C336.588 130.708 337.447 125.89 337.633 123.202C337.676 122.458 337.905 120.328 338.148 118.483C338.664 114.365 338.793 110.633 338.564 106.644C338.32 102.326 337.962 100.696 336.86 98.5513C335.915 96.7354 334.44 95.5916 332.564 95.1912C331.848 95.0482 329.085 94.9911 328.455 95.1197ZM322.656 99.2376C322.656 99.2662 322.542 99.3806 322.413 99.4807C322.184 99.6666 322.169 99.6523 322.356 99.4235C322.542 99.1948 322.656 99.1233 322.656 99.2376ZM298.559 189.489C299.246 190.175 298.702 191.404 297.7 191.404C296.697 191.404 296.225 190.189 296.955 189.474C297.428 189.002 298.072 189.002 298.559 189.489Z" fill="#E17C61"/>
<path d="M297.113 190.047C296.941 190.219 296.927 190.348 297.027 190.562C297.213 190.891 297.5 190.92 297.743 190.62C298.159 190.119 297.572 189.589 297.113 190.047Z" fill="#E17C61"/>
</svg>
